ISO-10303-21;
HEADER;
FILE_DESCRIPTION(('FreeCAD Model'),'2;1');
FILE_NAME('Open CASCADE Shape Model','2026-09-20T11:47:56',('FreeCAD'),(
    'FreeCAD'),'Open CASCADE STEP processor 7.8','FreeCAD','Unknown');
FILE_SCHEMA(('AUTOMOTIVE_DESIGN { 1 0 10303 214 1 1 1 1 }'));
ENDSEC;
DATA;
#1 = APPLICATION_PROTOCOL_DEFINITION('international standard',
  'automotive_design',2000,#2);
#2 = APPLICATION_CONTEXT(
  'core data for automotive mechanical design processes');
#3 = SHAPE_DEFINITION_REPRESENTATION(#4,#10);
#4 = PRODUCT_DEFINITION_SHAPE('','',#5);
#5 = PRODUCT_DEFINITION('design','',#6,#9);
#6 = PRODUCT_DEFINITION_FORMATION('','',#7);
#7 = PRODUCT('Open CASCADE STEP translator 7.8 6',
  'Open CASCADE STEP translator 7.8 6','',(#8));
#8 = PRODUCT_CONTEXT('',#2,'mechanical');
#9 = PRODUCT_DEFINITION_CONTEXT('part definition',#2,'design');
#10 = ADVANCED_BREP_SHAPE_REPRESENTATION('',(#11,#15),#891);
#11 = AXIS2_PLACEMENT_3D('',#12,#13,#14);
#12 = CARTESIAN_POINT('',(0.,0.,0.));
#13 = DIRECTION('',(0.,0.,1.));
#14 = DIRECTION('',(1.,0.,-0.));
#15 = MANIFOLD_SOLID_BREP('',#16);
#16 = CLOSED_SHELL('',(#17,#89,#128,#160,#191,#246,#350,#367,#407,#432,
    #448,#487,#527,#538,#554,#585,#609,#658,#714,#738,#762,#779,#796,
    #817,#834,#851,#863,#877));
#17 = ADVANCED_FACE('',(#18),#84,.F.);
#18 = FACE_BOUND('',#19,.F.);
#19 = EDGE_LOOP('',(#20,#30,#38,#46,#54,#62,#70,#78));
#20 = ORIENTED_EDGE('',*,*,#21,.F.);
#21 = EDGE_CURVE('',#22,#24,#26,.T.);
#22 = VERTEX_POINT('',#23);
#23 = CARTESIAN_POINT('',(-45.,-5.5,5.5));
#24 = VERTEX_POINT('',#25);
#25 = CARTESIAN_POINT('',(-45.,-5.5,2.6));
#26 = LINE('',#27,#28);
#27 = CARTESIAN_POINT('',(-45.,-5.5,5.5));
#28 = VECTOR('',#29,1.);
#29 = DIRECTION('',(0.,0.,-1.));
#30 = ORIENTED_EDGE('',*,*,#31,.T.);
#31 = EDGE_CURVE('',#22,#32,#34,.T.);
#32 = VERTEX_POINT('',#33);
#33 = CARTESIAN_POINT('',(-25.5,-5.5,5.5));
#34 = LINE('',#35,#36);
#35 = CARTESIAN_POINT('',(-45.,-5.5,5.5));
#36 = VECTOR('',#37,1.);
#37 = DIRECTION('',(1.,0.,0.));
#38 = ORIENTED_EDGE('',*,*,#39,.F.);
#39 = EDGE_CURVE('',#40,#32,#42,.T.);
#40 = VERTEX_POINT('',#41);
#41 = CARTESIAN_POINT('',(-25.5,-5.5,4.));
#42 = LINE('',#43,#44);
#43 = CARTESIAN_POINT('',(-25.5,-5.5,6.75));
#44 = VECTOR('',#45,1.);
#45 = DIRECTION('',(0.,0.,1.));
#46 = ORIENTED_EDGE('',*,*,#47,.F.);
#47 = EDGE_CURVE('',#48,#40,#50,.T.);
#48 = VERTEX_POINT('',#49);
#49 = CARTESIAN_POINT('',(-18.5,-5.5,4.));
#50 = LINE('',#51,#52);
#51 = CARTESIAN_POINT('',(-35.25,-5.5,4.));
#52 = VECTOR('',#53,1.);
#53 = DIRECTION('',(-1.,0.,0.));
#54 = ORIENTED_EDGE('',*,*,#55,.F.);
#55 = EDGE_CURVE('',#56,#48,#58,.T.);
#56 = VERTEX_POINT('',#57);
#57 = CARTESIAN_POINT('',(-18.5,-5.5,5.5));
#58 = LINE('',#59,#60);
#59 = CARTESIAN_POINT('',(-18.5,-5.5,4.75));
#60 = VECTOR('',#61,1.);
#61 = DIRECTION('',(0.,0.,-1.));
#62 = ORIENTED_EDGE('',*,*,#63,.T.);
#63 = EDGE_CURVE('',#56,#64,#66,.T.);
#64 = VERTEX_POINT('',#65);
#65 = CARTESIAN_POINT('',(0.,-5.5,5.5));
#66 = LINE('',#67,#68);
#67 = CARTESIAN_POINT('',(-45.,-5.5,5.5));
#68 = VECTOR('',#69,1.);
#69 = DIRECTION('',(1.,0.,0.));
#70 = ORIENTED_EDGE('',*,*,#71,.F.);
#71 = EDGE_CURVE('',#72,#64,#74,.T.);
#72 = VERTEX_POINT('',#73);
#73 = CARTESIAN_POINT('',(0.,-5.5,2.6));
#74 = LINE('',#75,#76);
#75 = CARTESIAN_POINT('',(0.,-5.5,2.75));
#76 = VECTOR('',#77,1.);
#77 = DIRECTION('',(0.,0.,1.));
#78 = ORIENTED_EDGE('',*,*,#79,.F.);
#79 = EDGE_CURVE('',#24,#72,#80,.T.);
#80 = LINE('',#81,#82);
#81 = CARTESIAN_POINT('',(-45.,-5.5,2.6));
#82 = VECTOR('',#83,1.);
#83 = DIRECTION('',(1.,0.,0.));
#84 = PLANE('',#85);
#85 = AXIS2_PLACEMENT_3D('',#86,#87,#88);
#86 = CARTESIAN_POINT('',(-45.,-5.5,5.5));
#87 = DIRECTION('',(0.,1.,0.));
#88 = DIRECTION('',(0.,0.,-1.));
#89 = ADVANCED_FACE('',(#90),#123,.F.);
#90 = FACE_BOUND('',#91,.F.);
#91 = EDGE_LOOP('',(#92,#100,#108,#116,#122));
#92 = ORIENTED_EDGE('',*,*,#93,.T.);
#93 = EDGE_CURVE('',#24,#94,#96,.T.);
#94 = VERTEX_POINT('',#95);
#95 = CARTESIAN_POINT('',(-45.,5.5,2.6));
#96 = LINE('',#97,#98);
#97 = CARTESIAN_POINT('',(-45.,-5.5,2.6));
#98 = VECTOR('',#99,1.);
#99 = DIRECTION('',(0.,1.,0.));
#100 = ORIENTED_EDGE('',*,*,#101,.T.);
#101 = EDGE_CURVE('',#94,#102,#104,.T.);
#102 = VERTEX_POINT('',#103);
#103 = CARTESIAN_POINT('',(-45.,5.5,5.5));
#104 = LINE('',#105,#106);
#105 = CARTESIAN_POINT('',(-45.,5.5,2.6));
#106 = VECTOR('',#107,1.);
#107 = DIRECTION('',(0.,0.,1.));
#108 = ORIENTED_EDGE('',*,*,#109,.T.);
#109 = EDGE_CURVE('',#102,#110,#112,.T.);
#110 = VERTEX_POINT('',#111);
#111 = CARTESIAN_POINT('',(-45.,0.,11.));
#112 = LINE('',#113,#114);
#113 = CARTESIAN_POINT('',(-45.,5.5,5.5));
#114 = VECTOR('',#115,1.);
#115 = DIRECTION('',(0.,-0.707106781187,0.707106781187));
#116 = ORIENTED_EDGE('',*,*,#117,.T.);
#117 = EDGE_CURVE('',#110,#22,#118,.T.);
#118 = LINE('',#119,#120);
#119 = CARTESIAN_POINT('',(-45.,0.,11.));
#120 = VECTOR('',#121,1.);
#121 = DIRECTION('',(0.,-0.707106781187,-0.707106781187));
#122 = ORIENTED_EDGE('',*,*,#21,.T.);
#123 = PLANE('',#124);
#124 = AXIS2_PLACEMENT_3D('',#125,#126,#127);
#125 = CARTESIAN_POINT('',(-45.,0.,5.576336185136));
#126 = DIRECTION('',(1.,0.,0.));
#127 = DIRECTION('',(0.,0.,1.));
#128 = ADVANCED_FACE('',(#129),#155,.F.);
#129 = FACE_BOUND('',#130,.F.);
#130 = EDGE_LOOP('',(#131,#132,#140,#148,#154));
#131 = ORIENTED_EDGE('',*,*,#117,.F.);
#132 = ORIENTED_EDGE('',*,*,#133,.T.);
#133 = EDGE_CURVE('',#110,#134,#136,.T.);
#134 = VERTEX_POINT('',#135);
#135 = CARTESIAN_POINT('',(-23.05,0.,11.));
#136 = LINE('',#137,#138);
#137 = CARTESIAN_POINT('',(-45.,0.,11.));
#138 = VECTOR('',#139,1.);
#139 = DIRECTION('',(1.,0.,0.));
#140 = ORIENTED_EDGE('',*,*,#141,.F.);
#141 = EDGE_CURVE('',#142,#134,#144,.T.);
#142 = VERTEX_POINT('',#143);
#143 = CARTESIAN_POINT('',(-25.5,-2.8,8.2));
#144 = LINE('',#145,#146);
#145 = CARTESIAN_POINT('',(-30.81525423728,-8.874576271186,
    2.125423728814));
#146 = VECTOR('',#147,1.);
#147 = DIRECTION('',(0.526152219602,0.601316822402,0.601316822402));
#148 = ORIENTED_EDGE('',*,*,#149,.F.);
#149 = EDGE_CURVE('',#32,#142,#150,.T.);
#150 = LINE('',#151,#152);
#151 = CARTESIAN_POINT('',(-25.5,-7.,4.));
#152 = VECTOR('',#153,1.);
#153 = DIRECTION('',(0.,0.707106781187,0.707106781187));
#154 = ORIENTED_EDGE('',*,*,#31,.F.);
#155 = PLANE('',#156);
#156 = AXIS2_PLACEMENT_3D('',#157,#158,#159);
#157 = CARTESIAN_POINT('',(-45.,0.,11.));
#158 = DIRECTION('',(0.,0.707106781187,-0.707106781187));
#159 = DIRECTION('',(0.,-0.707106781187,-0.707106781187));
#160 = ADVANCED_FACE('',(#161),#186,.F.);
#161 = FACE_BOUND('',#162,.F.);
#162 = EDGE_LOOP('',(#163,#164,#172,#180));
#163 = ORIENTED_EDGE('',*,*,#47,.T.);
#164 = ORIENTED_EDGE('',*,*,#165,.T.);
#165 = EDGE_CURVE('',#40,#166,#168,.T.);
#166 = VERTEX_POINT('',#167);
#167 = CARTESIAN_POINT('',(-25.5,5.5,4.));
#168 = LINE('',#169,#170);
#169 = CARTESIAN_POINT('',(-25.5,-25.,4.));
#170 = VECTOR('',#171,1.);
#171 = DIRECTION('',(0.,1.,0.));
#172 = ORIENTED_EDGE('',*,*,#173,.T.);
#173 = EDGE_CURVE('',#166,#174,#176,.T.);
#174 = VERTEX_POINT('',#175);
#175 = CARTESIAN_POINT('',(-18.5,5.5,4.));
#176 = LINE('',#177,#178);
#177 = CARTESIAN_POINT('',(-35.25,5.5,4.));
#178 = VECTOR('',#179,1.);
#179 = DIRECTION('',(1.,0.,0.));
#180 = ORIENTED_EDGE('',*,*,#181,.F.);
#181 = EDGE_CURVE('',#48,#174,#182,.T.);
#182 = LINE('',#183,#184);
#183 = CARTESIAN_POINT('',(-18.5,-25.,4.));
#184 = VECTOR('',#185,1.);
#185 = DIRECTION('',(0.,1.,0.));
#186 = PLANE('',#187);
#187 = AXIS2_PLACEMENT_3D('',#188,#189,#190);
#188 = CARTESIAN_POINT('',(-25.5,-25.,4.));
#189 = DIRECTION('',(0.,0.,-1.));
#190 = DIRECTION('',(1.,0.,0.));
#191 = ADVANCED_FACE('',(#192),#241,.F.);
#192 = FACE_BOUND('',#193,.F.);
#193 = EDGE_LOOP('',(#194,#195,#203,#211,#219,#227,#235));
#194 = ORIENTED_EDGE('',*,*,#63,.F.);
#195 = ORIENTED_EDGE('',*,*,#196,.F.);
#196 = EDGE_CURVE('',#197,#56,#199,.T.);
#197 = VERTEX_POINT('',#198);
#198 = CARTESIAN_POINT('',(-18.5,-2.8,8.2));
#199 = LINE('',#200,#201);
#200 = CARTESIAN_POINT('',(-18.5,-9.75,1.25));
#201 = VECTOR('',#202,1.);
#202 = DIRECTION('',(0.,-0.707106781187,-0.707106781187));
#203 = ORIENTED_EDGE('',*,*,#204,.F.);
#204 = EDGE_CURVE('',#205,#197,#207,.T.);
#205 = VERTEX_POINT('',#206);
#206 = CARTESIAN_POINT('',(-20.95,0.,11.));
#207 = LINE('',#208,#209);
#208 = CARTESIAN_POINT('',(-18.43474576271,-2.874576271186,
    8.125423728814));
#209 = VECTOR('',#210,1.);
#210 = DIRECTION('',(0.526152219602,-0.601316822402,-0.601316822402));
#211 = ORIENTED_EDGE('',*,*,#212,.T.);
#212 = EDGE_CURVE('',#205,#213,#215,.T.);
#213 = VERTEX_POINT('',#214);
#214 = CARTESIAN_POINT('',(8.,0.,11.));
#215 = LINE('',#216,#217);
#216 = CARTESIAN_POINT('',(-45.,0.,11.));
#217 = VECTOR('',#218,1.);
#218 = DIRECTION('',(1.,0.,0.));
#219 = ORIENTED_EDGE('',*,*,#220,.T.);
#220 = EDGE_CURVE('',#213,#221,#223,.T.);
#221 = VERTEX_POINT('',#222);
#222 = CARTESIAN_POINT('',(8.,-3.,8.));
#223 = LINE('',#224,#225);
#224 = CARTESIAN_POINT('',(8.,0.,11.));
#225 = VECTOR('',#226,1.);
#226 = DIRECTION('',(0.,-0.707106781187,-0.707106781187));
#227 = ORIENTED_EDGE('',*,*,#228,.T.);
#228 = EDGE_CURVE('',#221,#229,#231,.T.);
#229 = VERTEX_POINT('',#230);
#230 = CARTESIAN_POINT('',(0.,-3.,8.));
#231 = LINE('',#232,#233);
#232 = CARTESIAN_POINT('',(-22.5,-3.,8.));
#233 = VECTOR('',#234,1.);
#234 = DIRECTION('',(-1.,0.,0.));
#235 = ORIENTED_EDGE('',*,*,#236,.F.);
#236 = EDGE_CURVE('',#64,#229,#237,.T.);
#237 = LINE('',#238,#239);
#238 = CARTESIAN_POINT('',(3.552713678801E-15,-11.25,-0.25));
#239 = VECTOR('',#240,1.);
#240 = DIRECTION('',(0.,0.707106781187,0.707106781187));
#241 = PLANE('',#242);
#242 = AXIS2_PLACEMENT_3D('',#243,#244,#245);
#243 = CARTESIAN_POINT('',(-45.,0.,11.));
#244 = DIRECTION('',(0.,0.707106781187,-0.707106781187));
#245 = DIRECTION('',(0.,-0.707106781187,-0.707106781187));
#246 = ADVANCED_FACE('',(#247),#345,.T.);
#247 = FACE_BOUND('',#248,.T.);
#248 = EDGE_LOOP('',(#249,#259,#267,#275,#281,#282,#283,#291,#299,#307,
    #315,#323,#331,#339));
#249 = ORIENTED_EDGE('',*,*,#250,.T.);
#250 = EDGE_CURVE('',#251,#253,#255,.T.);
#251 = VERTEX_POINT('',#252);
#252 = CARTESIAN_POINT('',(0.,-34.,0.));
#253 = VERTEX_POINT('',#254);
#254 = CARTESIAN_POINT('',(0.,-34.,22.));
#255 = LINE('',#256,#257);
#256 = CARTESIAN_POINT('',(0.,-34.,0.));
#257 = VECTOR('',#258,1.);
#258 = DIRECTION('',(0.,0.,1.));
#259 = ORIENTED_EDGE('',*,*,#260,.T.);
#260 = EDGE_CURVE('',#253,#261,#263,.T.);
#261 = VERTEX_POINT('',#262);
#262 = CARTESIAN_POINT('',(0.,-30.,22.));
#263 = LINE('',#264,#265);
#264 = CARTESIAN_POINT('',(0.,-34.,22.));
#265 = VECTOR('',#266,1.);
#266 = DIRECTION('',(0.,1.,0.));
#267 = ORIENTED_EDGE('',*,*,#268,.F.);
#268 = EDGE_CURVE('',#269,#261,#271,.T.);
#269 = VERTEX_POINT('',#270);
#270 = CARTESIAN_POINT('',(0.,-30.,8.));
#271 = LINE('',#272,#273);
#272 = CARTESIAN_POINT('',(0.,-30.,0.));
#273 = VECTOR('',#274,1.);
#274 = DIRECTION('',(0.,0.,1.));
#275 = ORIENTED_EDGE('',*,*,#276,.T.);
#276 = EDGE_CURVE('',#269,#229,#277,.T.);
#277 = LINE('',#278,#279);
#278 = CARTESIAN_POINT('',(0.,-34.,8.));
#279 = VECTOR('',#280,1.);
#280 = DIRECTION('',(0.,1.,0.));
#281 = ORIENTED_EDGE('',*,*,#236,.F.);
#282 = ORIENTED_EDGE('',*,*,#71,.F.);
#283 = ORIENTED_EDGE('',*,*,#284,.F.);
#284 = EDGE_CURVE('',#285,#72,#287,.T.);
#285 = VERTEX_POINT('',#286);
#286 = CARTESIAN_POINT('',(0.,5.5,2.6));
#287 = LINE('',#288,#289);
#288 = CARTESIAN_POINT('',(0.,-19.75,2.6));
#289 = VECTOR('',#290,1.);
#290 = DIRECTION('',(0.,-1.,0.));
#291 = ORIENTED_EDGE('',*,*,#292,.F.);
#292 = EDGE_CURVE('',#293,#285,#295,.T.);
#293 = VERTEX_POINT('',#294);
#294 = CARTESIAN_POINT('',(0.,5.5,5.5));
#295 = LINE('',#296,#297);
#296 = CARTESIAN_POINT('',(0.,5.5,1.3));
#297 = VECTOR('',#298,1.);
#298 = DIRECTION('',(0.,0.,-1.));
#299 = ORIENTED_EDGE('',*,*,#300,.F.);
#300 = EDGE_CURVE('',#301,#293,#303,.T.);
#301 = VERTEX_POINT('',#302);
#302 = CARTESIAN_POINT('',(0.,3.,8.));
#303 = LINE('',#304,#305);
#304 = CARTESIAN_POINT('',(3.552713678801E-15,-3.,14.));
#305 = VECTOR('',#306,1.);
#306 = DIRECTION('',(0.,0.707106781187,-0.707106781187));
#307 = ORIENTED_EDGE('',*,*,#308,.T.);
#308 = EDGE_CURVE('',#301,#309,#311,.T.);
#309 = VERTEX_POINT('',#310);
#310 = CARTESIAN_POINT('',(0.,30.,8.));
#311 = LINE('',#312,#313);
#312 = CARTESIAN_POINT('',(0.,-34.,8.));
#313 = VECTOR('',#314,1.);
#314 = DIRECTION('',(0.,1.,0.));
#315 = ORIENTED_EDGE('',*,*,#316,.T.);
#316 = EDGE_CURVE('',#309,#317,#319,.T.);
#317 = VERTEX_POINT('',#318);
#318 = CARTESIAN_POINT('',(0.,30.,22.));
#319 = LINE('',#320,#321);
#320 = CARTESIAN_POINT('',(0.,30.,0.));
#321 = VECTOR('',#322,1.);
#322 = DIRECTION('',(0.,0.,1.));
#323 = ORIENTED_EDGE('',*,*,#324,.T.);
#324 = EDGE_CURVE('',#317,#325,#327,.T.);
#325 = VERTEX_POINT('',#326);
#326 = CARTESIAN_POINT('',(0.,34.,22.));
#327 = LINE('',#328,#329);
#328 = CARTESIAN_POINT('',(0.,30.,22.));
#329 = VECTOR('',#330,1.);
#330 = DIRECTION('',(0.,1.,0.));
#331 = ORIENTED_EDGE('',*,*,#332,.F.);
#332 = EDGE_CURVE('',#333,#325,#335,.T.);
#333 = VERTEX_POINT('',#334);
#334 = CARTESIAN_POINT('',(0.,34.,0.));
#335 = LINE('',#336,#337);
#336 = CARTESIAN_POINT('',(0.,34.,0.));
#337 = VECTOR('',#338,1.);
#338 = DIRECTION('',(0.,0.,1.));
#339 = ORIENTED_EDGE('',*,*,#340,.F.);
#340 = EDGE_CURVE('',#251,#333,#341,.T.);
#341 = LINE('',#342,#343);
#342 = CARTESIAN_POINT('',(0.,-34.,0.));
#343 = VECTOR('',#344,1.);
#344 = DIRECTION('',(0.,1.,0.));
#345 = PLANE('',#346);
#346 = AXIS2_PLACEMENT_3D('',#347,#348,#349);
#347 = CARTESIAN_POINT('',(1.112204390864E-16,0.,7.136016681307));
#348 = DIRECTION('',(-1.,-0.,-0.));
#349 = DIRECTION('',(0.,0.,-1.));
#350 = ADVANCED_FACE('',(#351),#362,.F.);
#351 = FACE_BOUND('',#352,.F.);
#352 = EDGE_LOOP('',(#353,#354,#355,#356));
#353 = ORIENTED_EDGE('',*,*,#93,.F.);
#354 = ORIENTED_EDGE('',*,*,#79,.T.);
#355 = ORIENTED_EDGE('',*,*,#284,.F.);
#356 = ORIENTED_EDGE('',*,*,#357,.F.);
#357 = EDGE_CURVE('',#94,#285,#358,.T.);
#358 = LINE('',#359,#360);
#359 = CARTESIAN_POINT('',(-45.,5.5,2.6));
#360 = VECTOR('',#361,1.);
#361 = DIRECTION('',(1.,0.,0.));
#362 = PLANE('',#363);
#363 = AXIS2_PLACEMENT_3D('',#364,#365,#366);
#364 = CARTESIAN_POINT('',(-45.,-5.5,2.6));
#365 = DIRECTION('',(0.,0.,1.));
#366 = DIRECTION('',(0.,1.,0.));
#367 = ADVANCED_FACE('',(#368),#402,.F.);
#368 = FACE_BOUND('',#369,.F.);
#369 = EDGE_LOOP('',(#370,#371,#372,#373,#381,#387,#388,#396));
#370 = ORIENTED_EDGE('',*,*,#101,.F.);
#371 = ORIENTED_EDGE('',*,*,#357,.T.);
#372 = ORIENTED_EDGE('',*,*,#292,.F.);
#373 = ORIENTED_EDGE('',*,*,#374,.F.);
#374 = EDGE_CURVE('',#375,#293,#377,.T.);
#375 = VERTEX_POINT('',#376);
#376 = CARTESIAN_POINT('',(-18.5,5.5,5.5));
#377 = LINE('',#378,#379);
#378 = CARTESIAN_POINT('',(-45.,5.5,5.5));
#379 = VECTOR('',#380,1.);
#380 = DIRECTION('',(1.,0.,0.));
#381 = ORIENTED_EDGE('',*,*,#382,.F.);
#382 = EDGE_CURVE('',#174,#375,#383,.T.);
#383 = LINE('',#384,#385);
#384 = CARTESIAN_POINT('',(-18.5,5.5,3.3));
#385 = VECTOR('',#386,1.);
#386 = DIRECTION('',(0.,0.,1.));
#387 = ORIENTED_EDGE('',*,*,#173,.F.);
#388 = ORIENTED_EDGE('',*,*,#389,.F.);
#389 = EDGE_CURVE('',#390,#166,#392,.T.);
#390 = VERTEX_POINT('',#391);
#391 = CARTESIAN_POINT('',(-25.5,5.5,5.5));
#392 = LINE('',#393,#394);
#393 = CARTESIAN_POINT('',(-25.5,5.5,5.3));
#394 = VECTOR('',#395,1.);
#395 = DIRECTION('',(-0.,-0.,-1.));
#396 = ORIENTED_EDGE('',*,*,#397,.F.);
#397 = EDGE_CURVE('',#102,#390,#398,.T.);
#398 = LINE('',#399,#400);
#399 = CARTESIAN_POINT('',(-45.,5.5,5.5));
#400 = VECTOR('',#401,1.);
#401 = DIRECTION('',(1.,0.,0.));
#402 = PLANE('',#403);
#403 = AXIS2_PLACEMENT_3D('',#404,#405,#406);
#404 = CARTESIAN_POINT('',(-45.,5.5,2.6));
#405 = DIRECTION('',(0.,-1.,0.));
#406 = DIRECTION('',(0.,0.,1.));
#407 = ADVANCED_FACE('',(#408),#427,.F.);
#408 = FACE_BOUND('',#409,.F.);
#409 = EDGE_LOOP('',(#410,#411,#412,#420,#426));
#410 = ORIENTED_EDGE('',*,*,#109,.F.);
#411 = ORIENTED_EDGE('',*,*,#397,.T.);
#412 = ORIENTED_EDGE('',*,*,#413,.F.);
#413 = EDGE_CURVE('',#414,#390,#416,.T.);
#414 = VERTEX_POINT('',#415);
#415 = CARTESIAN_POINT('',(-25.5,2.8,8.2));
#416 = LINE('',#417,#418);
#417 = CARTESIAN_POINT('',(-25.5,-4.55,15.55));
#418 = VECTOR('',#419,1.);
#419 = DIRECTION('',(0.,0.707106781187,-0.707106781187));
#420 = ORIENTED_EDGE('',*,*,#421,.F.);
#421 = EDGE_CURVE('',#134,#414,#422,.T.);
#422 = LINE('',#423,#424);
#423 = CARTESIAN_POINT('',(-22.43107344632,-0.707344632768,
    11.707344632768));
#424 = VECTOR('',#425,1.);
#425 = DIRECTION('',(-0.526152219602,0.601316822402,-0.601316822402));
#426 = ORIENTED_EDGE('',*,*,#133,.F.);
#427 = PLANE('',#428);
#428 = AXIS2_PLACEMENT_3D('',#429,#430,#431);
#429 = CARTESIAN_POINT('',(-45.,5.5,5.5));
#430 = DIRECTION('',(0.,-0.707106781187,-0.707106781187));
#431 = DIRECTION('',(0.,-0.707106781187,0.707106781187));
#432 = ADVANCED_FACE('',(#433),#443,.F.);
#433 = FACE_BOUND('',#434,.F.);
#434 = EDGE_LOOP('',(#435,#441,#442));
#435 = ORIENTED_EDGE('',*,*,#436,.F.);
#436 = EDGE_CURVE('',#142,#414,#437,.T.);
#437 = LINE('',#438,#439);
#438 = CARTESIAN_POINT('',(-25.5,-32.,8.2));
#439 = VECTOR('',#440,1.);
#440 = DIRECTION('',(0.,1.,0.));
#441 = ORIENTED_EDGE('',*,*,#141,.T.);
#442 = ORIENTED_EDGE('',*,*,#421,.T.);
#443 = PLANE('',#444);
#444 = AXIS2_PLACEMENT_3D('',#445,#446,#447);
#445 = CARTESIAN_POINT('',(-22.,-32.,12.2));
#446 = DIRECTION('',(-0.752576694707,0.,0.658504607869));
#447 = DIRECTION('',(-0.658504607869,0.,-0.752576694707));
#448 = ADVANCED_FACE('',(#449),#482,.F.);
#449 = FACE_BOUND('',#450,.F.);
#450 = EDGE_LOOP('',(#451,#459,#460,#461,#469,#475,#476));
#451 = ORIENTED_EDGE('',*,*,#452,.F.);
#452 = EDGE_CURVE('',#375,#453,#455,.T.);
#453 = VERTEX_POINT('',#454);
#454 = CARTESIAN_POINT('',(-18.5,2.8,8.2));
#455 = LINE('',#456,#457);
#456 = CARTESIAN_POINT('',(-18.5,-1.75,12.75));
#457 = VECTOR('',#458,1.);
#458 = DIRECTION('',(0.,-0.707106781187,0.707106781187));
#459 = ORIENTED_EDGE('',*,*,#374,.T.);
#460 = ORIENTED_EDGE('',*,*,#300,.F.);
#461 = ORIENTED_EDGE('',*,*,#462,.T.);
#462 = EDGE_CURVE('',#301,#463,#465,.T.);
#463 = VERTEX_POINT('',#464);
#464 = CARTESIAN_POINT('',(8.,3.,8.));
#465 = LINE('',#466,#467);
#466 = CARTESIAN_POINT('',(-22.5,3.,8.));
#467 = VECTOR('',#468,1.);
#468 = DIRECTION('',(1.,0.,0.));
#469 = ORIENTED_EDGE('',*,*,#470,.T.);
#470 = EDGE_CURVE('',#463,#213,#471,.T.);
#471 = LINE('',#472,#473);
#472 = CARTESIAN_POINT('',(8.,5.5,5.5));
#473 = VECTOR('',#474,1.);
#474 = DIRECTION('',(0.,-0.707106781187,0.707106781187));
#475 = ORIENTED_EDGE('',*,*,#212,.F.);
#476 = ORIENTED_EDGE('',*,*,#477,.F.);
#477 = EDGE_CURVE('',#453,#205,#478,.T.);
#478 = LINE('',#479,#480);
#479 = CARTESIAN_POINT('',(-26.81892655367,-6.707344632768,
    17.707344632768));
#480 = VECTOR('',#481,1.);
#481 = DIRECTION('',(-0.526152219602,-0.601316822402,0.601316822402));
#482 = PLANE('',#483);
#483 = AXIS2_PLACEMENT_3D('',#484,#485,#486);
#484 = CARTESIAN_POINT('',(-45.,5.5,5.5));
#485 = DIRECTION('',(0.,-0.707106781187,-0.707106781187));
#486 = DIRECTION('',(0.,-0.707106781187,0.707106781187));
#487 = ADVANCED_FACE('',(#488),#522,.T.);
#488 = FACE_BOUND('',#489,.T.);
#489 = EDGE_LOOP('',(#490,#491,#499,#507,#513,#514,#515,#521));
#490 = ORIENTED_EDGE('',*,*,#276,.F.);
#491 = ORIENTED_EDGE('',*,*,#492,.T.);
#492 = EDGE_CURVE('',#269,#493,#495,.T.);
#493 = VERTEX_POINT('',#494);
#494 = CARTESIAN_POINT('',(10.,-30.,8.));
#495 = LINE('',#496,#497);
#496 = CARTESIAN_POINT('',(0.,-30.,8.));
#497 = VECTOR('',#498,1.);
#498 = DIRECTION('',(1.,0.,0.));
#499 = ORIENTED_EDGE('',*,*,#500,.T.);
#500 = EDGE_CURVE('',#493,#501,#503,.T.);
#501 = VERTEX_POINT('',#502);
#502 = CARTESIAN_POINT('',(10.,30.,8.));
#503 = LINE('',#504,#505);
#504 = CARTESIAN_POINT('',(10.,-34.,8.));
#505 = VECTOR('',#506,1.);
#506 = DIRECTION('',(0.,1.,0.));
#507 = ORIENTED_EDGE('',*,*,#508,.F.);
#508 = EDGE_CURVE('',#309,#501,#509,.T.);
#509 = LINE('',#510,#511);
#510 = CARTESIAN_POINT('',(0.,30.,8.));
#511 = VECTOR('',#512,1.);
#512 = DIRECTION('',(1.,0.,0.));
#513 = ORIENTED_EDGE('',*,*,#308,.F.);
#514 = ORIENTED_EDGE('',*,*,#462,.T.);
#515 = ORIENTED_EDGE('',*,*,#516,.F.);
#516 = EDGE_CURVE('',#221,#463,#517,.T.);
#517 = LINE('',#518,#519);
#518 = CARTESIAN_POINT('',(8.,-17.,8.));
#519 = VECTOR('',#520,1.);
#520 = DIRECTION('',(0.,1.,0.));
#521 = ORIENTED_EDGE('',*,*,#228,.T.);
#522 = PLANE('',#523);
#523 = AXIS2_PLACEMENT_3D('',#524,#525,#526);
#524 = CARTESIAN_POINT('',(0.,-34.,8.));
#525 = DIRECTION('',(0.,0.,1.));
#526 = DIRECTION('',(1.,0.,0.));
#527 = ADVANCED_FACE('',(#528),#533,.T.);
#528 = FACE_BOUND('',#529,.T.);
#529 = EDGE_LOOP('',(#530,#531,#532));
#530 = ORIENTED_EDGE('',*,*,#220,.T.);
#531 = ORIENTED_EDGE('',*,*,#516,.T.);
#532 = ORIENTED_EDGE('',*,*,#470,.T.);
#533 = PLANE('',#534);
#534 = AXIS2_PLACEMENT_3D('',#535,#536,#537);
#535 = CARTESIAN_POINT('',(8.,0.,5.576336185136));
#536 = DIRECTION('',(1.,0.,0.));
#537 = DIRECTION('',(0.,0.,1.));
#538 = ADVANCED_FACE('',(#539),#549,.F.);
#539 = FACE_BOUND('',#540,.F.);
#540 = EDGE_LOOP('',(#541,#542,#548));
#541 = ORIENTED_EDGE('',*,*,#204,.T.);
#542 = ORIENTED_EDGE('',*,*,#543,.T.);
#543 = EDGE_CURVE('',#197,#453,#544,.T.);
#544 = LINE('',#545,#546);
#545 = CARTESIAN_POINT('',(-18.5,-32.,8.2));
#546 = VECTOR('',#547,1.);
#547 = DIRECTION('',(0.,1.,0.));
#548 = ORIENTED_EDGE('',*,*,#477,.T.);
#549 = PLANE('',#550);
#550 = AXIS2_PLACEMENT_3D('',#551,#552,#553);
#551 = CARTESIAN_POINT('',(-18.5,-32.,8.2));
#552 = DIRECTION('',(0.752576694707,-0.,0.658504607869));
#553 = DIRECTION('',(-0.658504607869,0.,0.752576694707));
#554 = ADVANCED_FACE('',(#555),#580,.T.);
#555 = FACE_BOUND('',#556,.T.);
#556 = EDGE_LOOP('',(#557,#565,#573,#579));
#557 = ORIENTED_EDGE('',*,*,#558,.T.);
#558 = EDGE_CURVE('',#251,#559,#561,.T.);
#559 = VERTEX_POINT('',#560);
#560 = CARTESIAN_POINT('',(170.,-34.,0.));
#561 = LINE('',#562,#563);
#562 = CARTESIAN_POINT('',(0.,-34.,0.));
#563 = VECTOR('',#564,1.);
#564 = DIRECTION('',(1.,0.,0.));
#565 = ORIENTED_EDGE('',*,*,#566,.T.);
#566 = EDGE_CURVE('',#559,#567,#569,.T.);
#567 = VERTEX_POINT('',#568);
#568 = CARTESIAN_POINT('',(170.,-34.,22.));
#569 = LINE('',#570,#571);
#570 = CARTESIAN_POINT('',(170.,-34.,0.));
#571 = VECTOR('',#572,1.);
#572 = DIRECTION('',(0.,0.,1.));
#573 = ORIENTED_EDGE('',*,*,#574,.F.);
#574 = EDGE_CURVE('',#253,#567,#575,.T.);
#575 = LINE('',#576,#577);
#576 = CARTESIAN_POINT('',(0.,-34.,22.));
#577 = VECTOR('',#578,1.);
#578 = DIRECTION('',(1.,0.,0.));
#579 = ORIENTED_EDGE('',*,*,#250,.F.);
#580 = PLANE('',#581);
#581 = AXIS2_PLACEMENT_3D('',#582,#583,#584);
#582 = CARTESIAN_POINT('',(85.,-34.,11.));
#583 = DIRECTION('',(-0.,-1.,-0.));
#584 = DIRECTION('',(0.,0.,-1.));
#585 = ADVANCED_FACE('',(#586),#604,.T.);
#586 = FACE_BOUND('',#587,.T.);
#587 = EDGE_LOOP('',(#588,#589,#590,#598));
#588 = ORIENTED_EDGE('',*,*,#260,.F.);
#589 = ORIENTED_EDGE('',*,*,#574,.T.);
#590 = ORIENTED_EDGE('',*,*,#591,.T.);
#591 = EDGE_CURVE('',#567,#592,#594,.T.);
#592 = VERTEX_POINT('',#593);
#593 = CARTESIAN_POINT('',(170.,-30.,22.));
#594 = LINE('',#595,#596);
#595 = CARTESIAN_POINT('',(170.,-34.,22.));
#596 = VECTOR('',#597,1.);
#597 = DIRECTION('',(0.,1.,0.));
#598 = ORIENTED_EDGE('',*,*,#599,.F.);
#599 = EDGE_CURVE('',#261,#592,#600,.T.);
#600 = LINE('',#601,#602);
#601 = CARTESIAN_POINT('',(0.,-30.,22.));
#602 = VECTOR('',#603,1.);
#603 = DIRECTION('',(1.,0.,0.));
#604 = PLANE('',#605);
#605 = AXIS2_PLACEMENT_3D('',#606,#607,#608);
#606 = CARTESIAN_POINT('',(0.,-34.,22.));
#607 = DIRECTION('',(0.,0.,1.));
#608 = DIRECTION('',(1.,0.,0.));
#609 = ADVANCED_FACE('',(#610),#653,.T.);
#610 = FACE_BOUND('',#611,.T.);
#611 = EDGE_LOOP('',(#612,#620,#628,#636,#644,#650,#651,#652));
#612 = ORIENTED_EDGE('',*,*,#613,.F.);
#613 = EDGE_CURVE('',#614,#592,#616,.T.);
#614 = VERTEX_POINT('',#615);
#615 = CARTESIAN_POINT('',(170.,-30.,8.));
#616 = LINE('',#617,#618);
#617 = CARTESIAN_POINT('',(170.,-30.,0.));
#618 = VECTOR('',#619,1.);
#619 = DIRECTION('',(0.,0.,1.));
#620 = ORIENTED_EDGE('',*,*,#621,.F.);
#621 = EDGE_CURVE('',#622,#614,#624,.T.);
#622 = VERTEX_POINT('',#623);
#623 = CARTESIAN_POINT('',(162.,-30.,8.));
#624 = LINE('',#625,#626);
#625 = CARTESIAN_POINT('',(81.,-30.,8.));
#626 = VECTOR('',#627,1.);
#627 = DIRECTION('',(1.,0.,0.));
#628 = ORIENTED_EDGE('',*,*,#629,.T.);
#629 = EDGE_CURVE('',#622,#630,#632,.T.);
#630 = VERTEX_POINT('',#631);
#631 = CARTESIAN_POINT('',(162.,-30.,5.));
#632 = LINE('',#633,#634);
#633 = CARTESIAN_POINT('',(162.,-30.,0.));
#634 = VECTOR('',#635,1.);
#635 = DIRECTION('',(0.,0.,-1.));
#636 = ORIENTED_EDGE('',*,*,#637,.T.);
#637 = EDGE_CURVE('',#630,#638,#640,.T.);
#638 = VERTEX_POINT('',#639);
#639 = CARTESIAN_POINT('',(10.,-30.,5.));
#640 = LINE('',#641,#642);
#641 = CARTESIAN_POINT('',(0.,-30.,5.));
#642 = VECTOR('',#643,1.);
#643 = DIRECTION('',(-1.,0.,0.));
#644 = ORIENTED_EDGE('',*,*,#645,.F.);
#645 = EDGE_CURVE('',#493,#638,#646,.T.);
#646 = LINE('',#647,#648);
#647 = CARTESIAN_POINT('',(10.,-30.,0.));
#648 = VECTOR('',#649,1.);
#649 = DIRECTION('',(0.,0.,-1.));
#650 = ORIENTED_EDGE('',*,*,#492,.F.);
#651 = ORIENTED_EDGE('',*,*,#268,.T.);
#652 = ORIENTED_EDGE('',*,*,#599,.T.);
#653 = PLANE('',#654);
#654 = AXIS2_PLACEMENT_3D('',#655,#656,#657);
#655 = CARTESIAN_POINT('',(0.,-30.,0.));
#656 = DIRECTION('',(0.,1.,0.));
#657 = DIRECTION('',(0.,0.,1.));
#658 = ADVANCED_FACE('',(#659),#709,.F.);
#659 = FACE_BOUND('',#660,.F.);
#660 = EDGE_LOOP('',(#661,#671,#679,#687,#695,#701,#702,#703));
#661 = ORIENTED_EDGE('',*,*,#662,.F.);
#662 = EDGE_CURVE('',#663,#665,#667,.T.);
#663 = VERTEX_POINT('',#664);
#664 = CARTESIAN_POINT('',(170.,30.,8.));
#665 = VERTEX_POINT('',#666);
#666 = CARTESIAN_POINT('',(170.,30.,22.));
#667 = LINE('',#668,#669);
#668 = CARTESIAN_POINT('',(170.,30.,0.));
#669 = VECTOR('',#670,1.);
#670 = DIRECTION('',(0.,0.,1.));
#671 = ORIENTED_EDGE('',*,*,#672,.F.);
#672 = EDGE_CURVE('',#673,#663,#675,.T.);
#673 = VERTEX_POINT('',#674);
#674 = CARTESIAN_POINT('',(162.,30.,8.));
#675 = LINE('',#676,#677);
#676 = CARTESIAN_POINT('',(81.,30.,8.));
#677 = VECTOR('',#678,1.);
#678 = DIRECTION('',(1.,0.,0.));
#679 = ORIENTED_EDGE('',*,*,#680,.T.);
#680 = EDGE_CURVE('',#673,#681,#683,.T.);
#681 = VERTEX_POINT('',#682);
#682 = CARTESIAN_POINT('',(162.,30.,5.));
#683 = LINE('',#684,#685);
#684 = CARTESIAN_POINT('',(162.,30.,0.));
#685 = VECTOR('',#686,1.);
#686 = DIRECTION('',(0.,0.,-1.));
#687 = ORIENTED_EDGE('',*,*,#688,.T.);
#688 = EDGE_CURVE('',#681,#689,#691,.T.);
#689 = VERTEX_POINT('',#690);
#690 = CARTESIAN_POINT('',(10.,30.,5.));
#691 = LINE('',#692,#693);
#692 = CARTESIAN_POINT('',(0.,30.,5.));
#693 = VECTOR('',#694,1.);
#694 = DIRECTION('',(-1.,0.,0.));
#695 = ORIENTED_EDGE('',*,*,#696,.F.);
#696 = EDGE_CURVE('',#501,#689,#697,.T.);
#697 = LINE('',#698,#699);
#698 = CARTESIAN_POINT('',(10.,30.,0.));
#699 = VECTOR('',#700,1.);
#700 = DIRECTION('',(0.,0.,-1.));
#701 = ORIENTED_EDGE('',*,*,#508,.F.);
#702 = ORIENTED_EDGE('',*,*,#316,.T.);
#703 = ORIENTED_EDGE('',*,*,#704,.T.);
#704 = EDGE_CURVE('',#317,#665,#705,.T.);
#705 = LINE('',#706,#707);
#706 = CARTESIAN_POINT('',(0.,30.,22.));
#707 = VECTOR('',#708,1.);
#708 = DIRECTION('',(1.,0.,0.));
#709 = PLANE('',#710);
#710 = AXIS2_PLACEMENT_3D('',#711,#712,#713);
#711 = CARTESIAN_POINT('',(0.,30.,0.));
#712 = DIRECTION('',(0.,1.,0.));
#713 = DIRECTION('',(0.,0.,1.));
#714 = ADVANCED_FACE('',(#715),#733,.T.);
#715 = FACE_BOUND('',#716,.T.);
#716 = EDGE_LOOP('',(#717,#718,#719,#727));
#717 = ORIENTED_EDGE('',*,*,#324,.F.);
#718 = ORIENTED_EDGE('',*,*,#704,.T.);
#719 = ORIENTED_EDGE('',*,*,#720,.T.);
#720 = EDGE_CURVE('',#665,#721,#723,.T.);
#721 = VERTEX_POINT('',#722);
#722 = CARTESIAN_POINT('',(170.,34.,22.));
#723 = LINE('',#724,#725);
#724 = CARTESIAN_POINT('',(170.,30.,22.));
#725 = VECTOR('',#726,1.);
#726 = DIRECTION('',(0.,1.,0.));
#727 = ORIENTED_EDGE('',*,*,#728,.F.);
#728 = EDGE_CURVE('',#325,#721,#729,.T.);
#729 = LINE('',#730,#731);
#730 = CARTESIAN_POINT('',(0.,34.,22.));
#731 = VECTOR('',#732,1.);
#732 = DIRECTION('',(1.,0.,0.));
#733 = PLANE('',#734);
#734 = AXIS2_PLACEMENT_3D('',#735,#736,#737);
#735 = CARTESIAN_POINT('',(0.,30.,22.));
#736 = DIRECTION('',(0.,0.,1.));
#737 = DIRECTION('',(1.,0.,0.));
#738 = ADVANCED_FACE('',(#739),#757,.T.);
#739 = FACE_BOUND('',#740,.T.);
#740 = EDGE_LOOP('',(#741,#749,#750,#751));
#741 = ORIENTED_EDGE('',*,*,#742,.F.);
#742 = EDGE_CURVE('',#333,#743,#745,.T.);
#743 = VERTEX_POINT('',#744);
#744 = CARTESIAN_POINT('',(170.,34.,0.));
#745 = LINE('',#746,#747);
#746 = CARTESIAN_POINT('',(0.,34.,0.));
#747 = VECTOR('',#748,1.);
#748 = DIRECTION('',(1.,0.,0.));
#749 = ORIENTED_EDGE('',*,*,#332,.T.);
#750 = ORIENTED_EDGE('',*,*,#728,.T.);
#751 = ORIENTED_EDGE('',*,*,#752,.F.);
#752 = EDGE_CURVE('',#743,#721,#753,.T.);
#753 = LINE('',#754,#755);
#754 = CARTESIAN_POINT('',(170.,34.,0.));
#755 = VECTOR('',#756,1.);
#756 = DIRECTION('',(0.,0.,1.));
#757 = PLANE('',#758);
#758 = AXIS2_PLACEMENT_3D('',#759,#760,#761);
#759 = CARTESIAN_POINT('',(85.,34.,11.));
#760 = DIRECTION('',(0.,1.,0.));
#761 = DIRECTION('',(0.,0.,1.));
#762 = ADVANCED_FACE('',(#763),#774,.F.);
#763 = FACE_BOUND('',#764,.T.);
#764 = EDGE_LOOP('',(#765,#766,#767,#773));
#765 = ORIENTED_EDGE('',*,*,#340,.T.);
#766 = ORIENTED_EDGE('',*,*,#742,.T.);
#767 = ORIENTED_EDGE('',*,*,#768,.F.);
#768 = EDGE_CURVE('',#559,#743,#769,.T.);
#769 = LINE('',#770,#771);
#770 = CARTESIAN_POINT('',(170.,-34.,0.));
#771 = VECTOR('',#772,1.);
#772 = DIRECTION('',(0.,1.,0.));
#773 = ORIENTED_EDGE('',*,*,#558,.F.);
#774 = PLANE('',#775);
#775 = AXIS2_PLACEMENT_3D('',#776,#777,#778);
#776 = CARTESIAN_POINT('',(0.,-34.,0.));
#777 = DIRECTION('',(0.,0.,1.));
#778 = DIRECTION('',(1.,0.,0.));
#779 = ADVANCED_FACE('',(#780),#791,.T.);
#780 = FACE_BOUND('',#781,.T.);
#781 = EDGE_LOOP('',(#782,#783,#784,#790));
#782 = ORIENTED_EDGE('',*,*,#500,.F.);
#783 = ORIENTED_EDGE('',*,*,#645,.T.);
#784 = ORIENTED_EDGE('',*,*,#785,.T.);
#785 = EDGE_CURVE('',#638,#689,#786,.T.);
#786 = LINE('',#787,#788);
#787 = CARTESIAN_POINT('',(10.,-34.,5.));
#788 = VECTOR('',#789,1.);
#789 = DIRECTION('',(0.,1.,0.));
#790 = ORIENTED_EDGE('',*,*,#696,.F.);
#791 = PLANE('',#792);
#792 = AXIS2_PLACEMENT_3D('',#793,#794,#795);
#793 = CARTESIAN_POINT('',(10.,-34.,0.));
#794 = DIRECTION('',(1.,0.,0.));
#795 = DIRECTION('',(0.,0.,1.));
#796 = ADVANCED_FACE('',(#797),#812,.T.);
#797 = FACE_BOUND('',#798,.T.);
#798 = EDGE_LOOP('',(#799,#800,#801,#802,#803,#804,#810,#811));
#799 = ORIENTED_EDGE('',*,*,#566,.F.);
#800 = ORIENTED_EDGE('',*,*,#768,.T.);
#801 = ORIENTED_EDGE('',*,*,#752,.T.);
#802 = ORIENTED_EDGE('',*,*,#720,.F.);
#803 = ORIENTED_EDGE('',*,*,#662,.F.);
#804 = ORIENTED_EDGE('',*,*,#805,.F.);
#805 = EDGE_CURVE('',#614,#663,#806,.T.);
#806 = LINE('',#807,#808);
#807 = CARTESIAN_POINT('',(170.,-34.,8.));
#808 = VECTOR('',#809,1.);
#809 = DIRECTION('',(0.,1.,0.));
#810 = ORIENTED_EDGE('',*,*,#613,.T.);
#811 = ORIENTED_EDGE('',*,*,#591,.F.);
#812 = PLANE('',#813);
#813 = AXIS2_PLACEMENT_3D('',#814,#815,#816);
#814 = CARTESIAN_POINT('',(170.,0.,7.5));
#815 = DIRECTION('',(1.,0.,0.));
#816 = DIRECTION('',(0.,0.,1.));
#817 = ADVANCED_FACE('',(#818),#829,.T.);
#818 = FACE_BOUND('',#819,.T.);
#819 = EDGE_LOOP('',(#820,#826,#827,#828));
#820 = ORIENTED_EDGE('',*,*,#821,.F.);
#821 = EDGE_CURVE('',#622,#673,#822,.T.);
#822 = LINE('',#823,#824);
#823 = CARTESIAN_POINT('',(162.,-34.,8.));
#824 = VECTOR('',#825,1.);
#825 = DIRECTION('',(0.,1.,0.));
#826 = ORIENTED_EDGE('',*,*,#621,.T.);
#827 = ORIENTED_EDGE('',*,*,#805,.T.);
#828 = ORIENTED_EDGE('',*,*,#672,.F.);
#829 = PLANE('',#830);
#830 = AXIS2_PLACEMENT_3D('',#831,#832,#833);
#831 = CARTESIAN_POINT('',(162.,-34.,8.));
#832 = DIRECTION('',(0.,0.,1.));
#833 = DIRECTION('',(1.,0.,0.));
#834 = ADVANCED_FACE('',(#835),#846,.F.);
#835 = FACE_BOUND('',#836,.F.);
#836 = EDGE_LOOP('',(#837,#838,#839,#845));
#837 = ORIENTED_EDGE('',*,*,#821,.F.);
#838 = ORIENTED_EDGE('',*,*,#629,.T.);
#839 = ORIENTED_EDGE('',*,*,#840,.T.);
#840 = EDGE_CURVE('',#630,#681,#841,.T.);
#841 = LINE('',#842,#843);
#842 = CARTESIAN_POINT('',(162.,-34.,5.));
#843 = VECTOR('',#844,1.);
#844 = DIRECTION('',(0.,1.,0.));
#845 = ORIENTED_EDGE('',*,*,#680,.F.);
#846 = PLANE('',#847);
#847 = AXIS2_PLACEMENT_3D('',#848,#849,#850);
#848 = CARTESIAN_POINT('',(162.,-34.,0.));
#849 = DIRECTION('',(1.,0.,0.));
#850 = DIRECTION('',(0.,0.,1.));
#851 = ADVANCED_FACE('',(#852),#858,.T.);
#852 = FACE_BOUND('',#853,.T.);
#853 = EDGE_LOOP('',(#854,#855,#856,#857));
#854 = ORIENTED_EDGE('',*,*,#785,.F.);
#855 = ORIENTED_EDGE('',*,*,#637,.F.);
#856 = ORIENTED_EDGE('',*,*,#840,.T.);
#857 = ORIENTED_EDGE('',*,*,#688,.T.);
#858 = PLANE('',#859);
#859 = AXIS2_PLACEMENT_3D('',#860,#861,#862);
#860 = CARTESIAN_POINT('',(0.,-34.,5.));
#861 = DIRECTION('',(0.,0.,1.));
#862 = DIRECTION('',(1.,0.,0.));
#863 = ADVANCED_FACE('',(#864),#872,.T.);
#864 = FACE_BOUND('',#865,.T.);
#865 = EDGE_LOOP('',(#866,#867,#868,#869,#870,#871));
#866 = ORIENTED_EDGE('',*,*,#149,.F.);
#867 = ORIENTED_EDGE('',*,*,#39,.F.);
#868 = ORIENTED_EDGE('',*,*,#165,.T.);
#869 = ORIENTED_EDGE('',*,*,#389,.F.);
#870 = ORIENTED_EDGE('',*,*,#413,.F.);
#871 = ORIENTED_EDGE('',*,*,#436,.F.);
#872 = PLANE('',#873);
#873 = AXIS2_PLACEMENT_3D('',#874,#875,#876);
#874 = CARTESIAN_POINT('',(-25.5,-8.17276987833E-16,5.745242772206));
#875 = DIRECTION('',(1.,0.,0.));
#876 = DIRECTION('',(-0.,0.,1.));
#877 = ADVANCED_FACE('',(#878),#886,.T.);
#878 = FACE_BOUND('',#879,.T.);
#879 = EDGE_LOOP('',(#880,#881,#882,#883,#884,#885));
#880 = ORIENTED_EDGE('',*,*,#55,.F.);
#881 = ORIENTED_EDGE('',*,*,#196,.F.);
#882 = ORIENTED_EDGE('',*,*,#543,.T.);
#883 = ORIENTED_EDGE('',*,*,#452,.F.);
#884 = ORIENTED_EDGE('',*,*,#382,.F.);
#885 = ORIENTED_EDGE('',*,*,#181,.F.);
#886 = PLANE('',#887);
#887 = AXIS2_PLACEMENT_3D('',#888,#889,#890);
#888 = CARTESIAN_POINT('',(-18.5,1.30438222497E-16,5.745242772206));
#889 = DIRECTION('',(-1.,-0.,-0.));
#890 = DIRECTION('',(0.,0.,-1.));
#891 = ( GEOMETRIC_REPRESENTATION_CONTEXT(3) 
GLOBAL_UNCERTAINTY_ASSIGNED_CONTEXT((#895)) GLOBAL_UNIT_ASSIGNED_CONTEXT
((#892,#893,#894)) REPRESENTATION_CONTEXT('Context #1',
  '3D Context with UNIT and UNCERTAINTY') );
#892 = ( LENGTH_UNIT() NAMED_UNIT(*) SI_UNIT(.MILLI.,.METRE.) );
#893 = ( NAMED_UNIT(*) PLANE_ANGLE_UNIT() SI_UNIT($,.RADIAN.) );
#894 = ( NAMED_UNIT(*) SI_UNIT($,.STERADIAN.) SOLID_ANGLE_UNIT() );
#895 = UNCERTAINTY_MEASURE_WITH_UNIT(LENGTH_MEASURE(1.E-07),#892,
  'distance_accuracy_value','confusion accuracy');
#896 = PRODUCT_RELATED_PRODUCT_CATEGORY('part',$,(#7));
ENDSEC;
END-ISO-10303-21;
