ISO-10303-21;
HEADER;
FILE_DESCRIPTION(('FreeCAD Model'),'2;1');
FILE_NAME('Open CASCADE Shape Model','2026-09-20T14:47:03',('FreeCAD'),(
    'FreeCAD'),'Open CASCADE STEP processor 7.8','FreeCAD','Unknown');
FILE_SCHEMA(('AUTOMOTIVE_DESIGN { 1 0 10303 214 1 1 1 1 }'));
ENDSEC;
DATA;
#1 = APPLICATION_PROTOCOL_DEFINITION('international standard',
  'automotive_design',2000,#2);
#2 = APPLICATION_CONTEXT(
  'core data for automotive mechanical design processes');
#3 = SHAPE_DEFINITION_REPRESENTATION(#4,#10);
#4 = PRODUCT_DEFINITION_SHAPE('','',#5);
#5 = PRODUCT_DEFINITION('design','',#6,#9);
#6 = PRODUCT_DEFINITION_FORMATION('','',#7);
#7 = PRODUCT('Open CASCADE STEP translator 7.8 2',
  'Open CASCADE STEP translator 7.8 2','',(#8));
#8 = PRODUCT_CONTEXT('',#2,'mechanical');
#9 = PRODUCT_DEFINITION_CONTEXT('part definition',#2,'design');
#10 = ADVANCED_BREP_SHAPE_REPRESENTATION('',(#11,#15),#1493);
#11 = AXIS2_PLACEMENT_3D('',#12,#13,#14);
#12 = CARTESIAN_POINT('',(0.,0.,0.));
#13 = DIRECTION('',(0.,0.,1.));
#14 = DIRECTION('',(1.,0.,-0.));
#15 = MANIFOLD_SOLID_BREP('',#16);
#16 = CLOSED_SHELL('',(#17,#57,#88,#112,#316,#333,#368,#392,#526,#550,
    #574,#591,#615,#639,#656,#673,#704,#760,#807,#831,#882,#913,#969,
    #1016,#1040,#1091,#1103,#1138,#1162,#1186,#1203,#1238,#1262,#1286,
    #1303,#1316,#1339,#1356,#1374,#1386,#1399,#1422,#1439,#1457,#1469,
    #1481));
#17 = ADVANCED_FACE('',(#18),#52,.F.);
#18 = FACE_BOUND('',#19,.F.);
#19 = EDGE_LOOP('',(#20,#30,#38,#46));
#20 = ORIENTED_EDGE('',*,*,#21,.F.);
#21 = EDGE_CURVE('',#22,#24,#26,.T.);
#22 = VERTEX_POINT('',#23);
#23 = CARTESIAN_POINT('',(-340.,-147.5,0.));
#24 = VERTEX_POINT('',#25);
#25 = CARTESIAN_POINT('',(-340.,147.5,0.));
#26 = LINE('',#27,#28);
#27 = CARTESIAN_POINT('',(-340.,-147.5,0.));
#28 = VECTOR('',#29,1.);
#29 = DIRECTION('',(-0.,1.,0.));
#30 = ORIENTED_EDGE('',*,*,#31,.T.);
#31 = EDGE_CURVE('',#22,#32,#34,.T.);
#32 = VERTEX_POINT('',#33);
#33 = CARTESIAN_POINT('',(-140.,-147.5,0.));
#34 = LINE('',#35,#36);
#35 = CARTESIAN_POINT('',(-340.,-147.5,0.));
#36 = VECTOR('',#37,1.);
#37 = DIRECTION('',(1.,0.,-0.));
#38 = ORIENTED_EDGE('',*,*,#39,.T.);
#39 = EDGE_CURVE('',#32,#40,#42,.T.);
#40 = VERTEX_POINT('',#41);
#41 = CARTESIAN_POINT('',(-140.,147.5,0.));
#42 = LINE('',#43,#44);
#43 = CARTESIAN_POINT('',(-140.,-147.5,0.));
#44 = VECTOR('',#45,1.);
#45 = DIRECTION('',(-0.,1.,0.));
#46 = ORIENTED_EDGE('',*,*,#47,.F.);
#47 = EDGE_CURVE('',#24,#40,#48,.T.);
#48 = LINE('',#49,#50);
#49 = CARTESIAN_POINT('',(-340.,147.5,0.));
#50 = VECTOR('',#51,1.);
#51 = DIRECTION('',(1.,0.,-0.));
#52 = PLANE('',#53);
#53 = AXIS2_PLACEMENT_3D('',#54,#55,#56);
#54 = CARTESIAN_POINT('',(-340.,-147.5,0.));
#55 = DIRECTION('',(0.,0.,1.));
#56 = DIRECTION('',(1.,0.,-0.));
#57 = ADVANCED_FACE('',(#58),#83,.T.);
#58 = FACE_BOUND('',#59,.T.);
#59 = EDGE_LOOP('',(#60,#68,#76,#82));
#60 = ORIENTED_EDGE('',*,*,#61,.T.);
#61 = EDGE_CURVE('',#22,#62,#64,.T.);
#62 = VERTEX_POINT('',#63);
#63 = CARTESIAN_POINT('',(-340.,-147.5,14.));
#64 = LINE('',#65,#66);
#65 = CARTESIAN_POINT('',(-340.,-147.5,0.));
#66 = VECTOR('',#67,1.);
#67 = DIRECTION('',(0.,0.,1.));
#68 = ORIENTED_EDGE('',*,*,#69,.T.);
#69 = EDGE_CURVE('',#62,#70,#72,.T.);
#70 = VERTEX_POINT('',#71);
#71 = CARTESIAN_POINT('',(-340.,147.5,14.));
#72 = LINE('',#73,#74);
#73 = CARTESIAN_POINT('',(-340.,-147.5,14.));
#74 = VECTOR('',#75,1.);
#75 = DIRECTION('',(-0.,1.,0.));
#76 = ORIENTED_EDGE('',*,*,#77,.F.);
#77 = EDGE_CURVE('',#24,#70,#78,.T.);
#78 = LINE('',#79,#80);
#79 = CARTESIAN_POINT('',(-340.,147.5,4.));
#80 = VECTOR('',#81,1.);
#81 = DIRECTION('',(0.,0.,1.));
#82 = ORIENTED_EDGE('',*,*,#21,.F.);
#83 = PLANE('',#84);
#84 = AXIS2_PLACEMENT_3D('',#85,#86,#87);
#85 = CARTESIAN_POINT('',(-340.,0.,7.));
#86 = DIRECTION('',(-1.,-0.,-0.));
#87 = DIRECTION('',(0.,0.,-1.));
#88 = ADVANCED_FACE('',(#89),#107,.T.);
#89 = FACE_BOUND('',#90,.T.);
#90 = EDGE_LOOP('',(#91,#92,#93,#101));
#91 = ORIENTED_EDGE('',*,*,#47,.F.);
#92 = ORIENTED_EDGE('',*,*,#77,.T.);
#93 = ORIENTED_EDGE('',*,*,#94,.T.);
#94 = EDGE_CURVE('',#70,#95,#97,.T.);
#95 = VERTEX_POINT('',#96);
#96 = CARTESIAN_POINT('',(-140.,147.5,14.));
#97 = LINE('',#98,#99);
#98 = CARTESIAN_POINT('',(-340.,147.5,14.));
#99 = VECTOR('',#100,1.);
#100 = DIRECTION('',(1.,0.,-0.));
#101 = ORIENTED_EDGE('',*,*,#102,.F.);
#102 = EDGE_CURVE('',#40,#95,#103,.T.);
#103 = LINE('',#104,#105);
#104 = CARTESIAN_POINT('',(-140.,147.5,4.));
#105 = VECTOR('',#106,1.);
#106 = DIRECTION('',(0.,0.,1.));
#107 = PLANE('',#108);
#108 = AXIS2_PLACEMENT_3D('',#109,#110,#111);
#109 = CARTESIAN_POINT('',(-240.,147.5,7.));
#110 = DIRECTION('',(0.,1.,0.));
#111 = DIRECTION('',(0.,-0.,1.));
#112 = ADVANCED_FACE('',(#113,#227,#269),#311,.T.);
#113 = FACE_BOUND('',#114,.T.);
#114 = EDGE_LOOP('',(#115,#123,#124,#125,#133,#141,#149,#157,#165,#173,
    #181,#189,#197,#205,#213,#221));
#115 = ORIENTED_EDGE('',*,*,#116,.F.);
#116 = EDGE_CURVE('',#32,#117,#119,.T.);
#117 = VERTEX_POINT('',#118);
#118 = CARTESIAN_POINT('',(-140.,-147.5,14.));
#119 = LINE('',#120,#121);
#120 = CARTESIAN_POINT('',(-140.,-147.5,0.));
#121 = VECTOR('',#122,1.);
#122 = DIRECTION('',(0.,0.,1.));
#123 = ORIENTED_EDGE('',*,*,#39,.T.);
#124 = ORIENTED_EDGE('',*,*,#102,.T.);
#125 = ORIENTED_EDGE('',*,*,#126,.F.);
#126 = EDGE_CURVE('',#127,#95,#129,.T.);
#127 = VERTEX_POINT('',#128);
#128 = CARTESIAN_POINT('',(-140.,139.5,14.));
#129 = LINE('',#130,#131);
#130 = CARTESIAN_POINT('',(-140.,139.5,14.));
#131 = VECTOR('',#132,1.);
#132 = DIRECTION('',(-0.,1.,0.));
#133 = ORIENTED_EDGE('',*,*,#134,.F.);
#134 = EDGE_CURVE('',#135,#127,#137,.T.);
#135 = VERTEX_POINT('',#136);
#136 = CARTESIAN_POINT('',(-140.,139.5,4.));
#137 = LINE('',#138,#139);
#138 = CARTESIAN_POINT('',(-140.,139.5,4.));
#139 = VECTOR('',#140,1.);
#140 = DIRECTION('',(0.,0.,1.));
#141 = ORIENTED_EDGE('',*,*,#142,.F.);
#142 = EDGE_CURVE('',#143,#135,#145,.T.);
#143 = VERTEX_POINT('',#144);
#144 = CARTESIAN_POINT('',(-140.,115.,4.));
#145 = LINE('',#146,#147);
#146 = CARTESIAN_POINT('',(-140.,-147.5,4.));
#147 = VECTOR('',#148,1.);
#148 = DIRECTION('',(-0.,1.,0.));
#149 = ORIENTED_EDGE('',*,*,#150,.T.);
#150 = EDGE_CURVE('',#143,#151,#153,.T.);
#151 = VERTEX_POINT('',#152);
#152 = CARTESIAN_POINT('',(-140.,115.,24.));
#153 = LINE('',#154,#155);
#154 = CARTESIAN_POINT('',(-140.,115.,4.));
#155 = VECTOR('',#156,1.);
#156 = DIRECTION('',(0.,0.,1.));
#157 = ORIENTED_EDGE('',*,*,#158,.F.);
#158 = EDGE_CURVE('',#159,#151,#161,.T.);
#159 = VERTEX_POINT('',#160);
#160 = CARTESIAN_POINT('',(-140.,65.,24.));
#161 = LINE('',#162,#163);
#162 = CARTESIAN_POINT('',(-140.,65.,24.));
#163 = VECTOR('',#164,1.);
#164 = DIRECTION('',(-0.,1.,0.));
#165 = ORIENTED_EDGE('',*,*,#166,.F.);
#166 = EDGE_CURVE('',#167,#159,#169,.T.);
#167 = VERTEX_POINT('',#168);
#168 = CARTESIAN_POINT('',(-140.,65.,4.));
#169 = LINE('',#170,#171);
#170 = CARTESIAN_POINT('',(-140.,65.,4.));
#171 = VECTOR('',#172,1.);
#172 = DIRECTION('',(0.,0.,1.));
#173 = ORIENTED_EDGE('',*,*,#174,.F.);
#174 = EDGE_CURVE('',#175,#167,#177,.T.);
#175 = VERTEX_POINT('',#176);
#176 = CARTESIAN_POINT('',(-140.,-65.,4.));
#177 = LINE('',#178,#179);
#178 = CARTESIAN_POINT('',(-140.,-147.5,4.));
#179 = VECTOR('',#180,1.);
#180 = DIRECTION('',(-0.,1.,0.));
#181 = ORIENTED_EDGE('',*,*,#182,.T.);
#182 = EDGE_CURVE('',#175,#183,#185,.T.);
#183 = VERTEX_POINT('',#184);
#184 = CARTESIAN_POINT('',(-140.,-65.,24.));
#185 = LINE('',#186,#187);
#186 = CARTESIAN_POINT('',(-140.,-65.,4.));
#187 = VECTOR('',#188,1.);
#188 = DIRECTION('',(0.,0.,1.));
#189 = ORIENTED_EDGE('',*,*,#190,.F.);
#190 = EDGE_CURVE('',#191,#183,#193,.T.);
#191 = VERTEX_POINT('',#192);
#192 = CARTESIAN_POINT('',(-140.,-115.,24.));
#193 = LINE('',#194,#195);
#194 = CARTESIAN_POINT('',(-140.,-115.,24.));
#195 = VECTOR('',#196,1.);
#196 = DIRECTION('',(-0.,1.,0.));
#197 = ORIENTED_EDGE('',*,*,#198,.F.);
#198 = EDGE_CURVE('',#199,#191,#201,.T.);
#199 = VERTEX_POINT('',#200);
#200 = CARTESIAN_POINT('',(-140.,-115.,4.));
#201 = LINE('',#202,#203);
#202 = CARTESIAN_POINT('',(-140.,-115.,4.));
#203 = VECTOR('',#204,1.);
#204 = DIRECTION('',(0.,0.,1.));
#205 = ORIENTED_EDGE('',*,*,#206,.F.);
#206 = EDGE_CURVE('',#207,#199,#209,.T.);
#207 = VERTEX_POINT('',#208);
#208 = CARTESIAN_POINT('',(-140.,-139.5,4.));
#209 = LINE('',#210,#211);
#210 = CARTESIAN_POINT('',(-140.,-147.5,4.));
#211 = VECTOR('',#212,1.);
#212 = DIRECTION('',(-0.,1.,0.));
#213 = ORIENTED_EDGE('',*,*,#214,.T.);
#214 = EDGE_CURVE('',#207,#215,#217,.T.);
#215 = VERTEX_POINT('',#216);
#216 = CARTESIAN_POINT('',(-140.,-139.5,14.));
#217 = LINE('',#218,#219);
#218 = CARTESIAN_POINT('',(-140.,-139.5,4.));
#219 = VECTOR('',#220,1.);
#220 = DIRECTION('',(0.,0.,1.));
#221 = ORIENTED_EDGE('',*,*,#222,.F.);
#222 = EDGE_CURVE('',#117,#215,#223,.T.);
#223 = LINE('',#224,#225);
#224 = CARTESIAN_POINT('',(-140.,-147.5,14.));
#225 = VECTOR('',#226,1.);
#226 = DIRECTION('',(-0.,1.,0.));
#227 = FACE_BOUND('',#228,.T.);
#228 = EDGE_LOOP('',(#229,#239,#247,#255,#263));
#229 = ORIENTED_EDGE('',*,*,#230,.F.);
#230 = EDGE_CURVE('',#231,#233,#235,.T.);
#231 = VERTEX_POINT('',#232);
#232 = CARTESIAN_POINT('',(-140.,-102.,8.));
#233 = VERTEX_POINT('',#234);
#234 = CARTESIAN_POINT('',(-140.,-102.,4.));
#235 = LINE('',#236,#237);
#236 = CARTESIAN_POINT('',(-140.,-102.,6.));
#237 = VECTOR('',#238,1.);
#238 = DIRECTION('',(-0.,0.,-1.));
#239 = ORIENTED_EDGE('',*,*,#240,.F.);
#240 = EDGE_CURVE('',#241,#231,#243,.T.);
#241 = VERTEX_POINT('',#242);
#242 = CARTESIAN_POINT('',(-140.,-90.,20.));
#243 = LINE('',#244,#245);
#244 = CARTESIAN_POINT('',(-140.,-100.25,9.75));
#245 = VECTOR('',#246,1.);
#246 = DIRECTION('',(0.,-0.707106781187,-0.707106781187));
#247 = ORIENTED_EDGE('',*,*,#248,.F.);
#248 = EDGE_CURVE('',#249,#241,#251,.T.);
#249 = VERTEX_POINT('',#250);
#250 = CARTESIAN_POINT('',(-140.,-78.,8.));
#251 = LINE('',#252,#253);
#252 = CARTESIAN_POINT('',(-140.,-86.25,16.25));
#253 = VECTOR('',#254,1.);
#254 = DIRECTION('',(0.,-0.707106781187,0.707106781187));
#255 = ORIENTED_EDGE('',*,*,#256,.F.);
#256 = EDGE_CURVE('',#257,#249,#259,.T.);
#257 = VERTEX_POINT('',#258);
#258 = CARTESIAN_POINT('',(-140.,-78.,4.));
#259 = LINE('',#260,#261);
#260 = CARTESIAN_POINT('',(-140.,-78.,4.));
#261 = VECTOR('',#262,1.);
#262 = DIRECTION('',(0.,0.,1.));
#263 = ORIENTED_EDGE('',*,*,#264,.F.);
#264 = EDGE_CURVE('',#233,#257,#265,.T.);
#265 = LINE('',#266,#267);
#266 = CARTESIAN_POINT('',(-140.,-147.5,4.));
#267 = VECTOR('',#268,1.);
#268 = DIRECTION('',(-0.,1.,0.));
#269 = FACE_BOUND('',#270,.T.);
#270 = EDGE_LOOP('',(#271,#281,#289,#297,#305));
#271 = ORIENTED_EDGE('',*,*,#272,.F.);
#272 = EDGE_CURVE('',#273,#275,#277,.T.);
#273 = VERTEX_POINT('',#274);
#274 = CARTESIAN_POINT('',(-140.,78.,8.));
#275 = VERTEX_POINT('',#276);
#276 = CARTESIAN_POINT('',(-140.,78.,4.));
#277 = LINE('',#278,#279);
#278 = CARTESIAN_POINT('',(-140.,78.,6.));
#279 = VECTOR('',#280,1.);
#280 = DIRECTION('',(-0.,0.,-1.));
#281 = ORIENTED_EDGE('',*,*,#282,.F.);
#282 = EDGE_CURVE('',#283,#273,#285,.T.);
#283 = VERTEX_POINT('',#284);
#284 = CARTESIAN_POINT('',(-140.,90.,20.));
#285 = LINE('',#286,#287);
#286 = CARTESIAN_POINT('',(-140.,79.75,9.75));
#287 = VECTOR('',#288,1.);
#288 = DIRECTION('',(0.,-0.707106781187,-0.707106781187));
#289 = ORIENTED_EDGE('',*,*,#290,.F.);
#290 = EDGE_CURVE('',#291,#283,#293,.T.);
#291 = VERTEX_POINT('',#292);
#292 = CARTESIAN_POINT('',(-140.,102.,8.));
#293 = LINE('',#294,#295);
#294 = CARTESIAN_POINT('',(-140.,93.75,16.25));
#295 = VECTOR('',#296,1.);
#296 = DIRECTION('',(0.,-0.707106781187,0.707106781187));
#297 = ORIENTED_EDGE('',*,*,#298,.F.);
#298 = EDGE_CURVE('',#299,#291,#301,.T.);
#299 = VERTEX_POINT('',#300);
#300 = CARTESIAN_POINT('',(-140.,102.,4.));
#301 = LINE('',#302,#303);
#302 = CARTESIAN_POINT('',(-140.,102.,4.));
#303 = VECTOR('',#304,1.);
#304 = DIRECTION('',(0.,0.,1.));
#305 = ORIENTED_EDGE('',*,*,#306,.F.);
#306 = EDGE_CURVE('',#275,#299,#307,.T.);
#307 = LINE('',#308,#309);
#308 = CARTESIAN_POINT('',(-140.,-147.5,4.));
#309 = VECTOR('',#310,1.);
#310 = DIRECTION('',(-0.,1.,0.));
#311 = PLANE('',#312);
#312 = AXIS2_PLACEMENT_3D('',#313,#314,#315);
#313 = CARTESIAN_POINT('',(-140.,0.,6.735376044568));
#314 = DIRECTION('',(1.,0.,0.));
#315 = DIRECTION('',(-0.,0.,1.));
#316 = ADVANCED_FACE('',(#317),#328,.T.);
#317 = FACE_BOUND('',#318,.T.);
#318 = EDGE_LOOP('',(#319,#320,#321,#327));
#319 = ORIENTED_EDGE('',*,*,#31,.T.);
#320 = ORIENTED_EDGE('',*,*,#116,.T.);
#321 = ORIENTED_EDGE('',*,*,#322,.F.);
#322 = EDGE_CURVE('',#62,#117,#323,.T.);
#323 = LINE('',#324,#325);
#324 = CARTESIAN_POINT('',(-340.,-147.5,14.));
#325 = VECTOR('',#326,1.);
#326 = DIRECTION('',(1.,0.,-0.));
#327 = ORIENTED_EDGE('',*,*,#61,.F.);
#328 = PLANE('',#329);
#329 = AXIS2_PLACEMENT_3D('',#330,#331,#332);
#330 = CARTESIAN_POINT('',(-240.,-147.5,7.));
#331 = DIRECTION('',(-0.,-1.,-0.));
#332 = DIRECTION('',(0.,0.,-1.));
#333 = ADVANCED_FACE('',(#334),#363,.T.);
#334 = FACE_BOUND('',#335,.T.);
#335 = EDGE_LOOP('',(#336,#337,#338,#339,#347,#355,#361,#362));
#336 = ORIENTED_EDGE('',*,*,#69,.F.);
#337 = ORIENTED_EDGE('',*,*,#322,.T.);
#338 = ORIENTED_EDGE('',*,*,#222,.T.);
#339 = ORIENTED_EDGE('',*,*,#340,.F.);
#340 = EDGE_CURVE('',#341,#215,#343,.T.);
#341 = VERTEX_POINT('',#342);
#342 = CARTESIAN_POINT('',(-332.,-139.5,14.));
#343 = LINE('',#344,#345);
#344 = CARTESIAN_POINT('',(-340.,-139.5,14.));
#345 = VECTOR('',#346,1.);
#346 = DIRECTION('',(1.,0.,-0.));
#347 = ORIENTED_EDGE('',*,*,#348,.T.);
#348 = EDGE_CURVE('',#341,#349,#351,.T.);
#349 = VERTEX_POINT('',#350);
#350 = CARTESIAN_POINT('',(-332.,139.5,14.));
#351 = LINE('',#352,#353);
#352 = CARTESIAN_POINT('',(-332.,-147.5,14.));
#353 = VECTOR('',#354,1.);
#354 = DIRECTION('',(-0.,1.,0.));
#355 = ORIENTED_EDGE('',*,*,#356,.T.);
#356 = EDGE_CURVE('',#349,#127,#357,.T.);
#357 = LINE('',#358,#359);
#358 = CARTESIAN_POINT('',(-340.,139.5,14.));
#359 = VECTOR('',#360,1.);
#360 = DIRECTION('',(1.,0.,-0.));
#361 = ORIENTED_EDGE('',*,*,#126,.T.);
#362 = ORIENTED_EDGE('',*,*,#94,.F.);
#363 = PLANE('',#364);
#364 = AXIS2_PLACEMENT_3D('',#365,#366,#367);
#365 = CARTESIAN_POINT('',(-277.8689956331,0.,14.));
#366 = DIRECTION('',(0.,0.,1.));
#367 = DIRECTION('',(1.,0.,-0.));
#368 = ADVANCED_FACE('',(#369),#387,.F.);
#369 = FACE_BOUND('',#370,.F.);
#370 = EDGE_LOOP('',(#371,#379,#385,#386));
#371 = ORIENTED_EDGE('',*,*,#372,.F.);
#372 = EDGE_CURVE('',#373,#135,#375,.T.);
#373 = VERTEX_POINT('',#374);
#374 = CARTESIAN_POINT('',(-332.,139.5,4.));
#375 = LINE('',#376,#377);
#376 = CARTESIAN_POINT('',(-340.,139.5,4.));
#377 = VECTOR('',#378,1.);
#378 = DIRECTION('',(1.,0.,-0.));
#379 = ORIENTED_EDGE('',*,*,#380,.F.);
#380 = EDGE_CURVE('',#349,#373,#381,.T.);
#381 = LINE('',#382,#383);
#382 = CARTESIAN_POINT('',(-332.,139.5,4.));
#383 = VECTOR('',#384,1.);
#384 = DIRECTION('',(-0.,0.,-1.));
#385 = ORIENTED_EDGE('',*,*,#356,.T.);
#386 = ORIENTED_EDGE('',*,*,#134,.F.);
#387 = PLANE('',#388);
#388 = AXIS2_PLACEMENT_3D('',#389,#390,#391);
#389 = CARTESIAN_POINT('',(-340.,139.5,4.));
#390 = DIRECTION('',(-0.,1.,0.));
#391 = DIRECTION('',(0.,0.,1.));
#392 = ADVANCED_FACE('',(#393),#521,.T.);
#393 = FACE_BOUND('',#394,.T.);
#394 = EDGE_LOOP('',(#395,#403,#409,#410,#418,#426,#434,#442,#450,#458,
    #464,#465,#473,#481,#489,#497,#505,#513,#519,#520));
#395 = ORIENTED_EDGE('',*,*,#396,.F.);
#396 = EDGE_CURVE('',#397,#373,#399,.T.);
#397 = VERTEX_POINT('',#398);
#398 = CARTESIAN_POINT('',(-332.,-139.5,4.));
#399 = LINE('',#400,#401);
#400 = CARTESIAN_POINT('',(-332.,-147.5,4.));
#401 = VECTOR('',#402,1.);
#402 = DIRECTION('',(-0.,1.,0.));
#403 = ORIENTED_EDGE('',*,*,#404,.T.);
#404 = EDGE_CURVE('',#397,#207,#405,.T.);
#405 = LINE('',#406,#407);
#406 = CARTESIAN_POINT('',(-340.,-139.5,4.));
#407 = VECTOR('',#408,1.);
#408 = DIRECTION('',(1.,0.,-0.));
#409 = ORIENTED_EDGE('',*,*,#206,.T.);
#410 = ORIENTED_EDGE('',*,*,#411,.F.);
#411 = EDGE_CURVE('',#412,#199,#414,.T.);
#412 = VERTEX_POINT('',#413);
#413 = CARTESIAN_POINT('',(-165.,-115.,4.));
#414 = LINE('',#415,#416);
#415 = CARTESIAN_POINT('',(-165.,-115.,4.));
#416 = VECTOR('',#417,1.);
#417 = DIRECTION('',(1.,0.,-0.));
#418 = ORIENTED_EDGE('',*,*,#419,.T.);
#419 = EDGE_CURVE('',#412,#420,#422,.T.);
#420 = VERTEX_POINT('',#421);
#421 = CARTESIAN_POINT('',(-165.,-99.23991491602,4.));
#422 = LINE('',#423,#424);
#423 = CARTESIAN_POINT('',(-165.,-115.,4.));
#424 = VECTOR('',#425,1.);
#425 = DIRECTION('',(-0.,1.,0.));
#426 = ORIENTED_EDGE('',*,*,#427,.T.);
#427 = EDGE_CURVE('',#420,#428,#430,.T.);
#428 = VERTEX_POINT('',#429);
#429 = CARTESIAN_POINT('',(-327.228250949,-135.9138546252,4.));
#430 = LINE('',#431,#432);
#431 = CARTESIAN_POINT('',(-139.228250949,-93.41385462525,4.));
#432 = VECTOR('',#433,1.);
#433 = DIRECTION('',(-0.975387035788,-0.220499728835,0.));
#434 = ORIENTED_EDGE('',*,*,#435,.F.);
#435 = EDGE_CURVE('',#436,#428,#438,.T.);
#436 = VERTEX_POINT('',#437);
#437 = CARTESIAN_POINT('',(-328.7717490509,-129.0861453747,4.));
#438 = LINE('',#439,#440);
#439 = CARTESIAN_POINT('',(-328.7717490509,-129.0861453747,4.));
#440 = VECTOR('',#441,1.);
#441 = DIRECTION('',(0.220499728835,-0.975387035788,0.));
#442 = ORIENTED_EDGE('',*,*,#443,.F.);
#443 = EDGE_CURVE('',#444,#436,#446,.T.);
#444 = VERTEX_POINT('',#445);
#445 = CARTESIAN_POINT('',(-165.,-92.06327657333,4.));
#446 = LINE('',#447,#448);
#447 = CARTESIAN_POINT('',(-140.7717490509,-86.58614537474,4.));
#448 = VECTOR('',#449,1.);
#449 = DIRECTION('',(-0.975387035788,-0.220499728835,0.));
#450 = ORIENTED_EDGE('',*,*,#451,.T.);
#451 = EDGE_CURVE('',#444,#452,#454,.T.);
#452 = VERTEX_POINT('',#453);
#453 = CARTESIAN_POINT('',(-165.,-65.,4.));
#454 = LINE('',#455,#456);
#455 = CARTESIAN_POINT('',(-165.,-115.,4.));
#456 = VECTOR('',#457,1.);
#457 = DIRECTION('',(-0.,1.,0.));
#458 = ORIENTED_EDGE('',*,*,#459,.T.);
#459 = EDGE_CURVE('',#452,#175,#460,.T.);
#460 = LINE('',#461,#462);
#461 = CARTESIAN_POINT('',(-165.,-65.,4.));
#462 = VECTOR('',#463,1.);
#463 = DIRECTION('',(1.,0.,-0.));
#464 = ORIENTED_EDGE('',*,*,#174,.T.);
#465 = ORIENTED_EDGE('',*,*,#466,.F.);
#466 = EDGE_CURVE('',#467,#167,#469,.T.);
#467 = VERTEX_POINT('',#468);
#468 = CARTESIAN_POINT('',(-165.,65.,4.));
#469 = LINE('',#470,#471);
#470 = CARTESIAN_POINT('',(-165.,65.,4.));
#471 = VECTOR('',#472,1.);
#472 = DIRECTION('',(1.,0.,-0.));
#473 = ORIENTED_EDGE('',*,*,#474,.T.);
#474 = EDGE_CURVE('',#467,#475,#477,.T.);
#475 = VERTEX_POINT('',#476);
#476 = CARTESIAN_POINT('',(-165.,92.063276573336,4.));
#477 = LINE('',#478,#479);
#478 = CARTESIAN_POINT('',(-165.,65.,4.));
#479 = VECTOR('',#480,1.);
#480 = DIRECTION('',(-0.,1.,0.));
#481 = ORIENTED_EDGE('',*,*,#482,.T.);
#482 = EDGE_CURVE('',#475,#483,#485,.T.);
#483 = VERTEX_POINT('',#484);
#484 = CARTESIAN_POINT('',(-328.7717490509,129.08614537474,4.));
#485 = LINE('',#486,#487);
#486 = CARTESIAN_POINT('',(-140.7717490509,86.586145374741,4.));
#487 = VECTOR('',#488,1.);
#488 = DIRECTION('',(-0.975387035788,0.220499728835,0.));
#489 = ORIENTED_EDGE('',*,*,#490,.F.);
#490 = EDGE_CURVE('',#491,#483,#493,.T.);
#491 = VERTEX_POINT('',#492);
#492 = CARTESIAN_POINT('',(-327.228250949,135.91385462525,4.));
#493 = LINE('',#494,#495);
#494 = CARTESIAN_POINT('',(-327.228250949,135.91385462525,4.));
#495 = VECTOR('',#496,1.);
#496 = DIRECTION('',(-0.220499728835,-0.975387035788,0.));
#497 = ORIENTED_EDGE('',*,*,#498,.F.);
#498 = EDGE_CURVE('',#499,#491,#501,.T.);
#499 = VERTEX_POINT('',#500);
#500 = CARTESIAN_POINT('',(-165.,99.239914916026,4.));
#501 = LINE('',#502,#503);
#502 = CARTESIAN_POINT('',(-139.228250949,93.413854625259,4.));
#503 = VECTOR('',#504,1.);
#504 = DIRECTION('',(-0.975387035788,0.220499728835,0.));
#505 = ORIENTED_EDGE('',*,*,#506,.T.);
#506 = EDGE_CURVE('',#499,#507,#509,.T.);
#507 = VERTEX_POINT('',#508);
#508 = CARTESIAN_POINT('',(-165.,115.,4.));
#509 = LINE('',#510,#511);
#510 = CARTESIAN_POINT('',(-165.,65.,4.));
#511 = VECTOR('',#512,1.);
#512 = DIRECTION('',(-0.,1.,0.));
#513 = ORIENTED_EDGE('',*,*,#514,.T.);
#514 = EDGE_CURVE('',#507,#143,#515,.T.);
#515 = LINE('',#516,#517);
#516 = CARTESIAN_POINT('',(-165.,115.,4.));
#517 = VECTOR('',#518,1.);
#518 = DIRECTION('',(1.,0.,-0.));
#519 = ORIENTED_EDGE('',*,*,#142,.T.);
#520 = ORIENTED_EDGE('',*,*,#372,.F.);
#521 = PLANE('',#522);
#522 = AXIS2_PLACEMENT_3D('',#523,#524,#525);
#523 = CARTESIAN_POINT('',(-340.,-147.5,4.));
#524 = DIRECTION('',(0.,0.,1.));
#525 = DIRECTION('',(1.,0.,-0.));
#526 = ADVANCED_FACE('',(#527),#545,.T.);
#527 = FACE_BOUND('',#528,.T.);
#528 = EDGE_LOOP('',(#529,#530,#538,#544));
#529 = ORIENTED_EDGE('',*,*,#514,.F.);
#530 = ORIENTED_EDGE('',*,*,#531,.T.);
#531 = EDGE_CURVE('',#507,#532,#534,.T.);
#532 = VERTEX_POINT('',#533);
#533 = CARTESIAN_POINT('',(-165.,115.,24.));
#534 = LINE('',#535,#536);
#535 = CARTESIAN_POINT('',(-165.,115.,4.));
#536 = VECTOR('',#537,1.);
#537 = DIRECTION('',(0.,0.,1.));
#538 = ORIENTED_EDGE('',*,*,#539,.T.);
#539 = EDGE_CURVE('',#532,#151,#540,.T.);
#540 = LINE('',#541,#542);
#541 = CARTESIAN_POINT('',(-165.,115.,24.));
#542 = VECTOR('',#543,1.);
#543 = DIRECTION('',(1.,0.,-0.));
#544 = ORIENTED_EDGE('',*,*,#150,.F.);
#545 = PLANE('',#546);
#546 = AXIS2_PLACEMENT_3D('',#547,#548,#549);
#547 = CARTESIAN_POINT('',(-165.,115.,4.));
#548 = DIRECTION('',(-0.,1.,0.));
#549 = DIRECTION('',(0.,0.,1.));
#550 = ADVANCED_FACE('',(#551),#569,.T.);
#551 = FACE_BOUND('',#552,.T.);
#552 = EDGE_LOOP('',(#553,#561,#567,#568));
#553 = ORIENTED_EDGE('',*,*,#554,.F.);
#554 = EDGE_CURVE('',#555,#532,#557,.T.);
#555 = VERTEX_POINT('',#556);
#556 = CARTESIAN_POINT('',(-165.,65.,24.));
#557 = LINE('',#558,#559);
#558 = CARTESIAN_POINT('',(-165.,65.,24.));
#559 = VECTOR('',#560,1.);
#560 = DIRECTION('',(-0.,1.,0.));
#561 = ORIENTED_EDGE('',*,*,#562,.T.);
#562 = EDGE_CURVE('',#555,#159,#563,.T.);
#563 = LINE('',#564,#565);
#564 = CARTESIAN_POINT('',(-165.,65.,24.));
#565 = VECTOR('',#566,1.);
#566 = DIRECTION('',(1.,0.,-0.));
#567 = ORIENTED_EDGE('',*,*,#158,.T.);
#568 = ORIENTED_EDGE('',*,*,#539,.F.);
#569 = PLANE('',#570);
#570 = AXIS2_PLACEMENT_3D('',#571,#572,#573);
#571 = CARTESIAN_POINT('',(-165.,65.,24.));
#572 = DIRECTION('',(0.,0.,1.));
#573 = DIRECTION('',(1.,0.,-0.));
#574 = ADVANCED_FACE('',(#575),#586,.F.);
#575 = FACE_BOUND('',#576,.F.);
#576 = EDGE_LOOP('',(#577,#578,#584,#585));
#577 = ORIENTED_EDGE('',*,*,#466,.F.);
#578 = ORIENTED_EDGE('',*,*,#579,.T.);
#579 = EDGE_CURVE('',#467,#555,#580,.T.);
#580 = LINE('',#581,#582);
#581 = CARTESIAN_POINT('',(-165.,65.,4.));
#582 = VECTOR('',#583,1.);
#583 = DIRECTION('',(0.,0.,1.));
#584 = ORIENTED_EDGE('',*,*,#562,.T.);
#585 = ORIENTED_EDGE('',*,*,#166,.F.);
#586 = PLANE('',#587);
#587 = AXIS2_PLACEMENT_3D('',#588,#589,#590);
#588 = CARTESIAN_POINT('',(-165.,65.,4.));
#589 = DIRECTION('',(-0.,1.,0.));
#590 = DIRECTION('',(0.,0.,1.));
#591 = ADVANCED_FACE('',(#592),#610,.T.);
#592 = FACE_BOUND('',#593,.T.);
#593 = EDGE_LOOP('',(#594,#595,#603,#609));
#594 = ORIENTED_EDGE('',*,*,#459,.F.);
#595 = ORIENTED_EDGE('',*,*,#596,.T.);
#596 = EDGE_CURVE('',#452,#597,#599,.T.);
#597 = VERTEX_POINT('',#598);
#598 = CARTESIAN_POINT('',(-165.,-65.,24.));
#599 = LINE('',#600,#601);
#600 = CARTESIAN_POINT('',(-165.,-65.,4.));
#601 = VECTOR('',#602,1.);
#602 = DIRECTION('',(0.,0.,1.));
#603 = ORIENTED_EDGE('',*,*,#604,.T.);
#604 = EDGE_CURVE('',#597,#183,#605,.T.);
#605 = LINE('',#606,#607);
#606 = CARTESIAN_POINT('',(-165.,-65.,24.));
#607 = VECTOR('',#608,1.);
#608 = DIRECTION('',(1.,0.,-0.));
#609 = ORIENTED_EDGE('',*,*,#182,.F.);
#610 = PLANE('',#611);
#611 = AXIS2_PLACEMENT_3D('',#612,#613,#614);
#612 = CARTESIAN_POINT('',(-165.,-65.,4.));
#613 = DIRECTION('',(-0.,1.,0.));
#614 = DIRECTION('',(0.,0.,1.));
#615 = ADVANCED_FACE('',(#616),#634,.T.);
#616 = FACE_BOUND('',#617,.T.);
#617 = EDGE_LOOP('',(#618,#626,#632,#633));
#618 = ORIENTED_EDGE('',*,*,#619,.F.);
#619 = EDGE_CURVE('',#620,#597,#622,.T.);
#620 = VERTEX_POINT('',#621);
#621 = CARTESIAN_POINT('',(-165.,-115.,24.));
#622 = LINE('',#623,#624);
#623 = CARTESIAN_POINT('',(-165.,-115.,24.));
#624 = VECTOR('',#625,1.);
#625 = DIRECTION('',(-0.,1.,0.));
#626 = ORIENTED_EDGE('',*,*,#627,.T.);
#627 = EDGE_CURVE('',#620,#191,#628,.T.);
#628 = LINE('',#629,#630);
#629 = CARTESIAN_POINT('',(-165.,-115.,24.));
#630 = VECTOR('',#631,1.);
#631 = DIRECTION('',(1.,0.,-0.));
#632 = ORIENTED_EDGE('',*,*,#190,.T.);
#633 = ORIENTED_EDGE('',*,*,#604,.F.);
#634 = PLANE('',#635);
#635 = AXIS2_PLACEMENT_3D('',#636,#637,#638);
#636 = CARTESIAN_POINT('',(-165.,-115.,24.));
#637 = DIRECTION('',(0.,0.,1.));
#638 = DIRECTION('',(1.,0.,-0.));
#639 = ADVANCED_FACE('',(#640),#651,.F.);
#640 = FACE_BOUND('',#641,.F.);
#641 = EDGE_LOOP('',(#642,#643,#649,#650));
#642 = ORIENTED_EDGE('',*,*,#411,.F.);
#643 = ORIENTED_EDGE('',*,*,#644,.T.);
#644 = EDGE_CURVE('',#412,#620,#645,.T.);
#645 = LINE('',#646,#647);
#646 = CARTESIAN_POINT('',(-165.,-115.,4.));
#647 = VECTOR('',#648,1.);
#648 = DIRECTION('',(0.,0.,1.));
#649 = ORIENTED_EDGE('',*,*,#627,.T.);
#650 = ORIENTED_EDGE('',*,*,#198,.F.);
#651 = PLANE('',#652);
#652 = AXIS2_PLACEMENT_3D('',#653,#654,#655);
#653 = CARTESIAN_POINT('',(-165.,-115.,4.));
#654 = DIRECTION('',(-0.,1.,0.));
#655 = DIRECTION('',(0.,0.,1.));
#656 = ADVANCED_FACE('',(#657),#668,.T.);
#657 = FACE_BOUND('',#658,.T.);
#658 = EDGE_LOOP('',(#659,#660,#666,#667));
#659 = ORIENTED_EDGE('',*,*,#404,.F.);
#660 = ORIENTED_EDGE('',*,*,#661,.F.);
#661 = EDGE_CURVE('',#341,#397,#662,.T.);
#662 = LINE('',#663,#664);
#663 = CARTESIAN_POINT('',(-332.,-139.5,4.));
#664 = VECTOR('',#665,1.);
#665 = DIRECTION('',(-0.,0.,-1.));
#666 = ORIENTED_EDGE('',*,*,#340,.T.);
#667 = ORIENTED_EDGE('',*,*,#214,.F.);
#668 = PLANE('',#669);
#669 = AXIS2_PLACEMENT_3D('',#670,#671,#672);
#670 = CARTESIAN_POINT('',(-340.,-139.5,4.));
#671 = DIRECTION('',(-0.,1.,0.));
#672 = DIRECTION('',(0.,0.,1.));
#673 = ADVANCED_FACE('',(#674),#699,.F.);
#674 = FACE_BOUND('',#675,.F.);
#675 = EDGE_LOOP('',(#676,#677,#685,#693));
#676 = ORIENTED_EDGE('',*,*,#230,.F.);
#677 = ORIENTED_EDGE('',*,*,#678,.T.);
#678 = EDGE_CURVE('',#231,#679,#681,.T.);
#679 = VERTEX_POINT('',#680);
#680 = CARTESIAN_POINT('',(-90.,-102.,8.));
#681 = LINE('',#682,#683);
#682 = CARTESIAN_POINT('',(-148.,-102.,8.));
#683 = VECTOR('',#684,1.);
#684 = DIRECTION('',(1.,0.,0.));
#685 = ORIENTED_EDGE('',*,*,#686,.T.);
#686 = EDGE_CURVE('',#679,#687,#689,.T.);
#687 = VERTEX_POINT('',#688);
#688 = CARTESIAN_POINT('',(-90.,-102.,4.));
#689 = LINE('',#690,#691);
#690 = CARTESIAN_POINT('',(-90.,-102.,8.));
#691 = VECTOR('',#692,1.);
#692 = DIRECTION('',(0.,0.,-1.));
#693 = ORIENTED_EDGE('',*,*,#694,.F.);
#694 = EDGE_CURVE('',#233,#687,#695,.T.);
#695 = LINE('',#696,#697);
#696 = CARTESIAN_POINT('',(-148.,-102.,4.));
#697 = VECTOR('',#698,1.);
#698 = DIRECTION('',(1.,0.,0.));
#699 = PLANE('',#700);
#700 = AXIS2_PLACEMENT_3D('',#701,#702,#703);
#701 = CARTESIAN_POINT('',(-148.,-102.,8.));
#702 = DIRECTION('',(-0.,1.,0.));
#703 = DIRECTION('',(0.,0.,-1.));
#704 = ADVANCED_FACE('',(#705),#755,.F.);
#705 = FACE_BOUND('',#706,.F.);
#706 = EDGE_LOOP('',(#707,#708,#716,#724,#732,#740,#748,#754));
#707 = ORIENTED_EDGE('',*,*,#240,.F.);
#708 = ORIENTED_EDGE('',*,*,#709,.T.);
#709 = EDGE_CURVE('',#241,#710,#712,.T.);
#710 = VERTEX_POINT('',#711);
#711 = CARTESIAN_POINT('',(-119.3,-90.,20.));
#712 = LINE('',#713,#714);
#713 = CARTESIAN_POINT('',(-148.,-90.,20.));
#714 = VECTOR('',#715,1.);
#715 = DIRECTION('',(1.,0.,0.));
#716 = ORIENTED_EDGE('',*,*,#717,.T.);
#717 = EDGE_CURVE('',#710,#718,#720,.T.);
#718 = VERTEX_POINT('',#719);
#719 = CARTESIAN_POINT('',(-119.3,-96.3,13.7));
#720 = LINE('',#721,#722);
#721 = CARTESIAN_POINT('',(-119.3,-96.825,13.175));
#722 = VECTOR('',#723,1.);
#723 = DIRECTION('',(0.,-0.707106781187,-0.707106781187));
#724 = ORIENTED_EDGE('',*,*,#725,.T.);
#725 = EDGE_CURVE('',#718,#726,#728,.T.);
#726 = VERTEX_POINT('',#727);
#727 = CARTESIAN_POINT('',(-110.7,-96.3,13.7));
#728 = LINE('',#729,#730);
#729 = CARTESIAN_POINT('',(-133.65,-96.3,13.7));
#730 = VECTOR('',#731,1.);
#731 = DIRECTION('',(1.,0.,0.));
#732 = ORIENTED_EDGE('',*,*,#733,.F.);
#733 = EDGE_CURVE('',#734,#726,#736,.T.);
#734 = VERTEX_POINT('',#735);
#735 = CARTESIAN_POINT('',(-110.7,-90.,20.));
#736 = LINE('',#737,#738);
#737 = CARTESIAN_POINT('',(-110.7,-96.825,13.175));
#738 = VECTOR('',#739,1.);
#739 = DIRECTION('',(0.,-0.707106781187,-0.707106781187));
#740 = ORIENTED_EDGE('',*,*,#741,.T.);
#741 = EDGE_CURVE('',#734,#742,#744,.T.);
#742 = VERTEX_POINT('',#743);
#743 = CARTESIAN_POINT('',(-90.,-90.,20.));
#744 = LINE('',#745,#746);
#745 = CARTESIAN_POINT('',(-148.,-90.,20.));
#746 = VECTOR('',#747,1.);
#747 = DIRECTION('',(1.,0.,0.));
#748 = ORIENTED_EDGE('',*,*,#749,.T.);
#749 = EDGE_CURVE('',#742,#679,#750,.T.);
#750 = LINE('',#751,#752);
#751 = CARTESIAN_POINT('',(-90.,-90.,20.));
#752 = VECTOR('',#753,1.);
#753 = DIRECTION('',(0.,-0.707106781187,-0.707106781187));
#754 = ORIENTED_EDGE('',*,*,#678,.F.);
#755 = PLANE('',#756);
#756 = AXIS2_PLACEMENT_3D('',#757,#758,#759);
#757 = CARTESIAN_POINT('',(-148.,-90.,20.));
#758 = DIRECTION('',(0.,0.707106781187,-0.707106781187));
#759 = DIRECTION('',(0.,-0.707106781187,-0.707106781187));
#760 = ADVANCED_FACE('',(#761),#802,.F.);
#761 = FACE_BOUND('',#762,.F.);
#762 = EDGE_LOOP('',(#763,#764,#772,#778,#779,#787,#795,#801));
#763 = ORIENTED_EDGE('',*,*,#248,.F.);
#764 = ORIENTED_EDGE('',*,*,#765,.T.);
#765 = EDGE_CURVE('',#249,#766,#768,.T.);
#766 = VERTEX_POINT('',#767);
#767 = CARTESIAN_POINT('',(-90.,-78.,8.));
#768 = LINE('',#769,#770);
#769 = CARTESIAN_POINT('',(-148.,-78.,8.));
#770 = VECTOR('',#771,1.);
#771 = DIRECTION('',(1.,0.,0.));
#772 = ORIENTED_EDGE('',*,*,#773,.T.);
#773 = EDGE_CURVE('',#766,#742,#774,.T.);
#774 = LINE('',#775,#776);
#775 = CARTESIAN_POINT('',(-90.,-78.,8.));
#776 = VECTOR('',#777,1.);
#777 = DIRECTION('',(0.,-0.707106781187,0.707106781187));
#778 = ORIENTED_EDGE('',*,*,#741,.F.);
#779 = ORIENTED_EDGE('',*,*,#780,.F.);
#780 = EDGE_CURVE('',#781,#734,#783,.T.);
#781 = VERTEX_POINT('',#782);
#782 = CARTESIAN_POINT('',(-110.7,-83.7,13.7));
#783 = LINE('',#784,#785);
#784 = CARTESIAN_POINT('',(-110.7,-80.325,10.325));
#785 = VECTOR('',#786,1.);
#786 = DIRECTION('',(0.,-0.707106781187,0.707106781187));
#787 = ORIENTED_EDGE('',*,*,#788,.F.);
#788 = EDGE_CURVE('',#789,#781,#791,.T.);
#789 = VERTEX_POINT('',#790);
#790 = CARTESIAN_POINT('',(-119.3,-83.7,13.7));
#791 = LINE('',#792,#793);
#792 = CARTESIAN_POINT('',(-133.65,-83.7,13.7));
#793 = VECTOR('',#794,1.);
#794 = DIRECTION('',(1.,0.,0.));
#795 = ORIENTED_EDGE('',*,*,#796,.T.);
#796 = EDGE_CURVE('',#789,#710,#797,.T.);
#797 = LINE('',#798,#799);
#798 = CARTESIAN_POINT('',(-119.3,-80.325,10.325));
#799 = VECTOR('',#800,1.);
#800 = DIRECTION('',(0.,-0.707106781187,0.707106781187));
#801 = ORIENTED_EDGE('',*,*,#709,.F.);
#802 = PLANE('',#803);
#803 = AXIS2_PLACEMENT_3D('',#804,#805,#806);
#804 = CARTESIAN_POINT('',(-148.,-78.,8.));
#805 = DIRECTION('',(0.,-0.707106781187,-0.707106781187));
#806 = DIRECTION('',(0.,-0.707106781187,0.707106781187));
#807 = ADVANCED_FACE('',(#808),#826,.F.);
#808 = FACE_BOUND('',#809,.F.);
#809 = EDGE_LOOP('',(#810,#811,#819,#825));
#810 = ORIENTED_EDGE('',*,*,#256,.F.);
#811 = ORIENTED_EDGE('',*,*,#812,.T.);
#812 = EDGE_CURVE('',#257,#813,#815,.T.);
#813 = VERTEX_POINT('',#814);
#814 = CARTESIAN_POINT('',(-90.,-78.,4.));
#815 = LINE('',#816,#817);
#816 = CARTESIAN_POINT('',(-148.,-78.,4.));
#817 = VECTOR('',#818,1.);
#818 = DIRECTION('',(1.,0.,0.));
#819 = ORIENTED_EDGE('',*,*,#820,.T.);
#820 = EDGE_CURVE('',#813,#766,#821,.T.);
#821 = LINE('',#822,#823);
#822 = CARTESIAN_POINT('',(-90.,-78.,4.));
#823 = VECTOR('',#824,1.);
#824 = DIRECTION('',(0.,0.,1.));
#825 = ORIENTED_EDGE('',*,*,#765,.F.);
#826 = PLANE('',#827);
#827 = AXIS2_PLACEMENT_3D('',#828,#829,#830);
#828 = CARTESIAN_POINT('',(-148.,-78.,4.));
#829 = DIRECTION('',(0.,-1.,0.));
#830 = DIRECTION('',(0.,0.,1.));
#831 = ADVANCED_FACE('',(#832,#843),#877,.T.);
#832 = FACE_BOUND('',#833,.T.);
#833 = EDGE_LOOP('',(#834,#835,#836,#842));
#834 = ORIENTED_EDGE('',*,*,#264,.T.);
#835 = ORIENTED_EDGE('',*,*,#812,.T.);
#836 = ORIENTED_EDGE('',*,*,#837,.F.);
#837 = EDGE_CURVE('',#687,#813,#838,.T.);
#838 = LINE('',#839,#840);
#839 = CARTESIAN_POINT('',(-90.,-102.,4.));
#840 = VECTOR('',#841,1.);
#841 = DIRECTION('',(0.,1.,0.));
#842 = ORIENTED_EDGE('',*,*,#694,.F.);
#843 = FACE_BOUND('',#844,.T.);
#844 = EDGE_LOOP('',(#845,#855,#863,#871));
#845 = ORIENTED_EDGE('',*,*,#846,.F.);
#846 = EDGE_CURVE('',#847,#849,#851,.T.);
#847 = VERTEX_POINT('',#848);
#848 = CARTESIAN_POINT('',(-119.3,-83.7,4.));
#849 = VERTEX_POINT('',#850);
#850 = CARTESIAN_POINT('',(-110.7,-83.7,4.));
#851 = LINE('',#852,#853);
#852 = CARTESIAN_POINT('',(-117.15,-83.7,4.));
#853 = VECTOR('',#854,1.);
#854 = DIRECTION('',(1.,0.,-0.));
#855 = ORIENTED_EDGE('',*,*,#856,.T.);
#856 = EDGE_CURVE('',#847,#857,#859,.T.);
#857 = VERTEX_POINT('',#858);
#858 = CARTESIAN_POINT('',(-119.3,-96.3,4.));
#859 = LINE('',#860,#861);
#860 = CARTESIAN_POINT('',(-119.3,-93.15,4.));
#861 = VECTOR('',#862,1.);
#862 = DIRECTION('',(0.,-1.,0.));
#863 = ORIENTED_EDGE('',*,*,#864,.T.);
#864 = EDGE_CURVE('',#857,#865,#867,.T.);
#865 = VERTEX_POINT('',#866);
#866 = CARTESIAN_POINT('',(-110.7,-96.3,4.));
#867 = LINE('',#868,#869);
#868 = CARTESIAN_POINT('',(-117.15,-96.3,4.));
#869 = VECTOR('',#870,1.);
#870 = DIRECTION('',(1.,0.,-0.));
#871 = ORIENTED_EDGE('',*,*,#872,.F.);
#872 = EDGE_CURVE('',#849,#865,#873,.T.);
#873 = LINE('',#874,#875);
#874 = CARTESIAN_POINT('',(-110.7,-93.15,4.));
#875 = VECTOR('',#876,1.);
#876 = DIRECTION('',(0.,-1.,0.));
#877 = PLANE('',#878);
#878 = AXIS2_PLACEMENT_3D('',#879,#880,#881);
#879 = CARTESIAN_POINT('',(-115.,-90.,4.));
#880 = DIRECTION('',(-0.,-0.,-1.));
#881 = DIRECTION('',(-1.,0.,0.));
#882 = ADVANCED_FACE('',(#883),#908,.F.);
#883 = FACE_BOUND('',#884,.F.);
#884 = EDGE_LOOP('',(#885,#886,#894,#902));
#885 = ORIENTED_EDGE('',*,*,#272,.F.);
#886 = ORIENTED_EDGE('',*,*,#887,.T.);
#887 = EDGE_CURVE('',#273,#888,#890,.T.);
#888 = VERTEX_POINT('',#889);
#889 = CARTESIAN_POINT('',(-90.,78.,8.));
#890 = LINE('',#891,#892);
#891 = CARTESIAN_POINT('',(-148.,78.,8.));
#892 = VECTOR('',#893,1.);
#893 = DIRECTION('',(1.,0.,0.));
#894 = ORIENTED_EDGE('',*,*,#895,.T.);
#895 = EDGE_CURVE('',#888,#896,#898,.T.);
#896 = VERTEX_POINT('',#897);
#897 = CARTESIAN_POINT('',(-90.,78.,4.));
#898 = LINE('',#899,#900);
#899 = CARTESIAN_POINT('',(-90.,78.,8.));
#900 = VECTOR('',#901,1.);
#901 = DIRECTION('',(0.,0.,-1.));
#902 = ORIENTED_EDGE('',*,*,#903,.F.);
#903 = EDGE_CURVE('',#275,#896,#904,.T.);
#904 = LINE('',#905,#906);
#905 = CARTESIAN_POINT('',(-148.,78.,4.));
#906 = VECTOR('',#907,1.);
#907 = DIRECTION('',(1.,0.,0.));
#908 = PLANE('',#909);
#909 = AXIS2_PLACEMENT_3D('',#910,#911,#912);
#910 = CARTESIAN_POINT('',(-148.,78.,8.));
#911 = DIRECTION('',(-0.,1.,0.));
#912 = DIRECTION('',(0.,0.,-1.));
#913 = ADVANCED_FACE('',(#914),#964,.F.);
#914 = FACE_BOUND('',#915,.F.);
#915 = EDGE_LOOP('',(#916,#917,#925,#933,#941,#949,#957,#963));
#916 = ORIENTED_EDGE('',*,*,#282,.F.);
#917 = ORIENTED_EDGE('',*,*,#918,.T.);
#918 = EDGE_CURVE('',#283,#919,#921,.T.);
#919 = VERTEX_POINT('',#920);
#920 = CARTESIAN_POINT('',(-119.3,90.,20.));
#921 = LINE('',#922,#923);
#922 = CARTESIAN_POINT('',(-148.,90.,20.));
#923 = VECTOR('',#924,1.);
#924 = DIRECTION('',(1.,0.,0.));
#925 = ORIENTED_EDGE('',*,*,#926,.T.);
#926 = EDGE_CURVE('',#919,#927,#929,.T.);
#927 = VERTEX_POINT('',#928);
#928 = CARTESIAN_POINT('',(-119.3,83.7,13.7));
#929 = LINE('',#930,#931);
#930 = CARTESIAN_POINT('',(-119.3,83.175,13.175));
#931 = VECTOR('',#932,1.);
#932 = DIRECTION('',(0.,-0.707106781187,-0.707106781187));
#933 = ORIENTED_EDGE('',*,*,#934,.T.);
#934 = EDGE_CURVE('',#927,#935,#937,.T.);
#935 = VERTEX_POINT('',#936);
#936 = CARTESIAN_POINT('',(-110.7,83.7,13.7));
#937 = LINE('',#938,#939);
#938 = CARTESIAN_POINT('',(-133.65,83.7,13.7));
#939 = VECTOR('',#940,1.);
#940 = DIRECTION('',(1.,0.,0.));
#941 = ORIENTED_EDGE('',*,*,#942,.F.);
#942 = EDGE_CURVE('',#943,#935,#945,.T.);
#943 = VERTEX_POINT('',#944);
#944 = CARTESIAN_POINT('',(-110.7,90.,20.));
#945 = LINE('',#946,#947);
#946 = CARTESIAN_POINT('',(-110.7,83.175,13.175));
#947 = VECTOR('',#948,1.);
#948 = DIRECTION('',(0.,-0.707106781187,-0.707106781187));
#949 = ORIENTED_EDGE('',*,*,#950,.T.);
#950 = EDGE_CURVE('',#943,#951,#953,.T.);
#951 = VERTEX_POINT('',#952);
#952 = CARTESIAN_POINT('',(-90.,90.,20.));
#953 = LINE('',#954,#955);
#954 = CARTESIAN_POINT('',(-148.,90.,20.));
#955 = VECTOR('',#956,1.);
#956 = DIRECTION('',(1.,0.,0.));
#957 = ORIENTED_EDGE('',*,*,#958,.T.);
#958 = EDGE_CURVE('',#951,#888,#959,.T.);
#959 = LINE('',#960,#961);
#960 = CARTESIAN_POINT('',(-90.,90.,20.));
#961 = VECTOR('',#962,1.);
#962 = DIRECTION('',(0.,-0.707106781187,-0.707106781187));
#963 = ORIENTED_EDGE('',*,*,#887,.F.);
#964 = PLANE('',#965);
#965 = AXIS2_PLACEMENT_3D('',#966,#967,#968);
#966 = CARTESIAN_POINT('',(-148.,90.,20.));
#967 = DIRECTION('',(0.,0.707106781187,-0.707106781187));
#968 = DIRECTION('',(0.,-0.707106781187,-0.707106781187));
#969 = ADVANCED_FACE('',(#970),#1011,.F.);
#970 = FACE_BOUND('',#971,.F.);
#971 = EDGE_LOOP('',(#972,#973,#981,#987,#988,#996,#1004,#1010));
#972 = ORIENTED_EDGE('',*,*,#290,.F.);
#973 = ORIENTED_EDGE('',*,*,#974,.T.);
#974 = EDGE_CURVE('',#291,#975,#977,.T.);
#975 = VERTEX_POINT('',#976);
#976 = CARTESIAN_POINT('',(-90.,102.,8.));
#977 = LINE('',#978,#979);
#978 = CARTESIAN_POINT('',(-148.,102.,8.));
#979 = VECTOR('',#980,1.);
#980 = DIRECTION('',(1.,0.,0.));
#981 = ORIENTED_EDGE('',*,*,#982,.T.);
#982 = EDGE_CURVE('',#975,#951,#983,.T.);
#983 = LINE('',#984,#985);
#984 = CARTESIAN_POINT('',(-90.,102.,8.));
#985 = VECTOR('',#986,1.);
#986 = DIRECTION('',(0.,-0.707106781187,0.707106781187));
#987 = ORIENTED_EDGE('',*,*,#950,.F.);
#988 = ORIENTED_EDGE('',*,*,#989,.F.);
#989 = EDGE_CURVE('',#990,#943,#992,.T.);
#990 = VERTEX_POINT('',#991);
#991 = CARTESIAN_POINT('',(-110.7,96.3,13.7));
#992 = LINE('',#993,#994);
#993 = CARTESIAN_POINT('',(-110.7,99.675,10.325));
#994 = VECTOR('',#995,1.);
#995 = DIRECTION('',(0.,-0.707106781187,0.707106781187));
#996 = ORIENTED_EDGE('',*,*,#997,.F.);
#997 = EDGE_CURVE('',#998,#990,#1000,.T.);
#998 = VERTEX_POINT('',#999);
#999 = CARTESIAN_POINT('',(-119.3,96.3,13.7));
#1000 = LINE('',#1001,#1002);
#1001 = CARTESIAN_POINT('',(-133.65,96.3,13.7));
#1002 = VECTOR('',#1003,1.);
#1003 = DIRECTION('',(1.,0.,0.));
#1004 = ORIENTED_EDGE('',*,*,#1005,.T.);
#1005 = EDGE_CURVE('',#998,#919,#1006,.T.);
#1006 = LINE('',#1007,#1008);
#1007 = CARTESIAN_POINT('',(-119.3,99.675,10.325));
#1008 = VECTOR('',#1009,1.);
#1009 = DIRECTION('',(0.,-0.707106781187,0.707106781187));
#1010 = ORIENTED_EDGE('',*,*,#918,.F.);
#1011 = PLANE('',#1012);
#1012 = AXIS2_PLACEMENT_3D('',#1013,#1014,#1015);
#1013 = CARTESIAN_POINT('',(-148.,102.,8.));
#1014 = DIRECTION('',(0.,-0.707106781187,-0.707106781187));
#1015 = DIRECTION('',(0.,-0.707106781187,0.707106781187));
#1016 = ADVANCED_FACE('',(#1017),#1035,.F.);
#1017 = FACE_BOUND('',#1018,.F.);
#1018 = EDGE_LOOP('',(#1019,#1020,#1028,#1034));
#1019 = ORIENTED_EDGE('',*,*,#298,.F.);
#1020 = ORIENTED_EDGE('',*,*,#1021,.T.);
#1021 = EDGE_CURVE('',#299,#1022,#1024,.T.);
#1022 = VERTEX_POINT('',#1023);
#1023 = CARTESIAN_POINT('',(-90.,102.,4.));
#1024 = LINE('',#1025,#1026);
#1025 = CARTESIAN_POINT('',(-148.,102.,4.));
#1026 = VECTOR('',#1027,1.);
#1027 = DIRECTION('',(1.,0.,0.));
#1028 = ORIENTED_EDGE('',*,*,#1029,.T.);
#1029 = EDGE_CURVE('',#1022,#975,#1030,.T.);
#1030 = LINE('',#1031,#1032);
#1031 = CARTESIAN_POINT('',(-90.,102.,4.));
#1032 = VECTOR('',#1033,1.);
#1033 = DIRECTION('',(0.,0.,1.));
#1034 = ORIENTED_EDGE('',*,*,#974,.F.);
#1035 = PLANE('',#1036);
#1036 = AXIS2_PLACEMENT_3D('',#1037,#1038,#1039);
#1037 = CARTESIAN_POINT('',(-148.,102.,4.));
#1038 = DIRECTION('',(0.,-1.,0.));
#1039 = DIRECTION('',(0.,0.,1.));
#1040 = ADVANCED_FACE('',(#1041,#1052),#1086,.T.);
#1041 = FACE_BOUND('',#1042,.T.);
#1042 = EDGE_LOOP('',(#1043,#1044,#1045,#1051));
#1043 = ORIENTED_EDGE('',*,*,#306,.T.);
#1044 = ORIENTED_EDGE('',*,*,#1021,.T.);
#1045 = ORIENTED_EDGE('',*,*,#1046,.F.);
#1046 = EDGE_CURVE('',#896,#1022,#1047,.T.);
#1047 = LINE('',#1048,#1049);
#1048 = CARTESIAN_POINT('',(-90.,78.,4.));
#1049 = VECTOR('',#1050,1.);
#1050 = DIRECTION('',(0.,1.,0.));
#1051 = ORIENTED_EDGE('',*,*,#903,.F.);
#1052 = FACE_BOUND('',#1053,.T.);
#1053 = EDGE_LOOP('',(#1054,#1064,#1072,#1080));
#1054 = ORIENTED_EDGE('',*,*,#1055,.F.);
#1055 = EDGE_CURVE('',#1056,#1058,#1060,.T.);
#1056 = VERTEX_POINT('',#1057);
#1057 = CARTESIAN_POINT('',(-119.3,96.3,4.));
#1058 = VERTEX_POINT('',#1059);
#1059 = CARTESIAN_POINT('',(-110.7,96.3,4.));
#1060 = LINE('',#1061,#1062);
#1061 = CARTESIAN_POINT('',(-117.15,96.3,4.));
#1062 = VECTOR('',#1063,1.);
#1063 = DIRECTION('',(1.,0.,-0.));
#1064 = ORIENTED_EDGE('',*,*,#1065,.T.);
#1065 = EDGE_CURVE('',#1056,#1066,#1068,.T.);
#1066 = VERTEX_POINT('',#1067);
#1067 = CARTESIAN_POINT('',(-119.3,83.7,4.));
#1068 = LINE('',#1069,#1070);
#1069 = CARTESIAN_POINT('',(-119.3,86.85,4.));
#1070 = VECTOR('',#1071,1.);
#1071 = DIRECTION('',(0.,-1.,0.));
#1072 = ORIENTED_EDGE('',*,*,#1073,.T.);
#1073 = EDGE_CURVE('',#1066,#1074,#1076,.T.);
#1074 = VERTEX_POINT('',#1075);
#1075 = CARTESIAN_POINT('',(-110.7,83.7,4.));
#1076 = LINE('',#1077,#1078);
#1077 = CARTESIAN_POINT('',(-117.15,83.7,4.));
#1078 = VECTOR('',#1079,1.);
#1079 = DIRECTION('',(1.,0.,-0.));
#1080 = ORIENTED_EDGE('',*,*,#1081,.F.);
#1081 = EDGE_CURVE('',#1058,#1074,#1082,.T.);
#1082 = LINE('',#1083,#1084);
#1083 = CARTESIAN_POINT('',(-110.7,86.85,4.));
#1084 = VECTOR('',#1085,1.);
#1085 = DIRECTION('',(0.,-1.,0.));
#1086 = PLANE('',#1087);
#1087 = AXIS2_PLACEMENT_3D('',#1088,#1089,#1090);
#1088 = CARTESIAN_POINT('',(-115.,90.,4.));
#1089 = DIRECTION('',(-0.,-0.,-1.));
#1090 = DIRECTION('',(-1.,0.,0.));
#1091 = ADVANCED_FACE('',(#1092),#1098,.T.);
#1092 = FACE_BOUND('',#1093,.T.);
#1093 = EDGE_LOOP('',(#1094,#1095,#1096,#1097));
#1094 = ORIENTED_EDGE('',*,*,#661,.T.);
#1095 = ORIENTED_EDGE('',*,*,#396,.T.);
#1096 = ORIENTED_EDGE('',*,*,#380,.F.);
#1097 = ORIENTED_EDGE('',*,*,#348,.F.);
#1098 = PLANE('',#1099);
#1099 = AXIS2_PLACEMENT_3D('',#1100,#1101,#1102);
#1100 = CARTESIAN_POINT('',(-332.,-147.5,4.));
#1101 = DIRECTION('',(1.,0.,-0.));
#1102 = DIRECTION('',(0.,0.,1.));
#1103 = ADVANCED_FACE('',(#1104),#1133,.F.);
#1104 = FACE_BOUND('',#1105,.F.);
#1105 = EDGE_LOOP('',(#1106,#1107,#1108,#1116,#1124,#1130,#1131,#1132));
#1106 = ORIENTED_EDGE('',*,*,#579,.F.);
#1107 = ORIENTED_EDGE('',*,*,#474,.T.);
#1108 = ORIENTED_EDGE('',*,*,#1109,.T.);
#1109 = EDGE_CURVE('',#475,#1110,#1112,.T.);
#1110 = VERTEX_POINT('',#1111);
#1111 = CARTESIAN_POINT('',(-165.,92.063276573336,14.));
#1112 = LINE('',#1113,#1114);
#1113 = CARTESIAN_POINT('',(-165.,92.063276573336,4.));
#1114 = VECTOR('',#1115,1.);
#1115 = DIRECTION('',(0.,0.,1.));
#1116 = ORIENTED_EDGE('',*,*,#1117,.T.);
#1117 = EDGE_CURVE('',#1110,#1118,#1120,.T.);
#1118 = VERTEX_POINT('',#1119);
#1119 = CARTESIAN_POINT('',(-165.,99.239914916026,14.));
#1120 = LINE('',#1121,#1122);
#1121 = CARTESIAN_POINT('',(-165.,79.206927312629,14.));
#1122 = VECTOR('',#1123,1.);
#1123 = DIRECTION('',(-0.,1.,0.));
#1124 = ORIENTED_EDGE('',*,*,#1125,.F.);
#1125 = EDGE_CURVE('',#499,#1118,#1126,.T.);
#1126 = LINE('',#1127,#1128);
#1127 = CARTESIAN_POINT('',(-165.,99.239914916026,4.));
#1128 = VECTOR('',#1129,1.);
#1129 = DIRECTION('',(0.,0.,1.));
#1130 = ORIENTED_EDGE('',*,*,#506,.T.);
#1131 = ORIENTED_EDGE('',*,*,#531,.T.);
#1132 = ORIENTED_EDGE('',*,*,#554,.F.);
#1133 = PLANE('',#1134);
#1134 = AXIS2_PLACEMENT_3D('',#1135,#1136,#1137);
#1135 = CARTESIAN_POINT('',(-165.,65.,4.));
#1136 = DIRECTION('',(1.,0.,-0.));
#1137 = DIRECTION('',(0.,0.,1.));
#1138 = ADVANCED_FACE('',(#1139),#1157,.F.);
#1139 = FACE_BOUND('',#1140,.F.);
#1140 = EDGE_LOOP('',(#1141,#1142,#1143,#1151));
#1141 = ORIENTED_EDGE('',*,*,#498,.F.);
#1142 = ORIENTED_EDGE('',*,*,#1125,.T.);
#1143 = ORIENTED_EDGE('',*,*,#1144,.T.);
#1144 = EDGE_CURVE('',#1118,#1145,#1147,.T.);
#1145 = VERTEX_POINT('',#1146);
#1146 = CARTESIAN_POINT('',(-327.228250949,135.91385462525,14.));
#1147 = LINE('',#1148,#1149);
#1148 = CARTESIAN_POINT('',(-139.228250949,93.413854625259,14.));
#1149 = VECTOR('',#1150,1.);
#1150 = DIRECTION('',(-0.975387035788,0.220499728835,0.));
#1151 = ORIENTED_EDGE('',*,*,#1152,.F.);
#1152 = EDGE_CURVE('',#491,#1145,#1153,.T.);
#1153 = LINE('',#1154,#1155);
#1154 = CARTESIAN_POINT('',(-327.228250949,135.91385462525,4.));
#1155 = VECTOR('',#1156,1.);
#1156 = DIRECTION('',(0.,0.,1.));
#1157 = PLANE('',#1158);
#1158 = AXIS2_PLACEMENT_3D('',#1159,#1160,#1161);
#1159 = CARTESIAN_POINT('',(-139.228250949,93.413854625259,4.));
#1160 = DIRECTION('',(-0.220499728835,-0.975387035788,0.));
#1161 = DIRECTION('',(0.,0.,1.));
#1162 = ADVANCED_FACE('',(#1163),#1181,.T.);
#1163 = FACE_BOUND('',#1164,.T.);
#1164 = EDGE_LOOP('',(#1165,#1166,#1167,#1175));
#1165 = ORIENTED_EDGE('',*,*,#1152,.F.);
#1166 = ORIENTED_EDGE('',*,*,#490,.T.);
#1167 = ORIENTED_EDGE('',*,*,#1168,.T.);
#1168 = EDGE_CURVE('',#483,#1169,#1171,.T.);
#1169 = VERTEX_POINT('',#1170);
#1170 = CARTESIAN_POINT('',(-328.7717490509,129.08614537474,14.));
#1171 = LINE('',#1172,#1173);
#1172 = CARTESIAN_POINT('',(-328.7717490509,129.08614537474,4.));
#1173 = VECTOR('',#1174,1.);
#1174 = DIRECTION('',(0.,0.,1.));
#1175 = ORIENTED_EDGE('',*,*,#1176,.F.);
#1176 = EDGE_CURVE('',#1145,#1169,#1177,.T.);
#1177 = LINE('',#1178,#1179);
#1178 = CARTESIAN_POINT('',(-327.228250949,135.91385462525,14.));
#1179 = VECTOR('',#1180,1.);
#1180 = DIRECTION('',(-0.220499728835,-0.975387035788,0.));
#1181 = PLANE('',#1182);
#1182 = AXIS2_PLACEMENT_3D('',#1183,#1184,#1185);
#1183 = CARTESIAN_POINT('',(-327.228250949,135.91385462525,4.));
#1184 = DIRECTION('',(-0.975387035788,0.220499728835,0.));
#1185 = DIRECTION('',(0.,0.,1.));
#1186 = ADVANCED_FACE('',(#1187),#1198,.T.);
#1187 = FACE_BOUND('',#1188,.T.);
#1188 = EDGE_LOOP('',(#1189,#1190,#1191,#1197));
#1189 = ORIENTED_EDGE('',*,*,#482,.F.);
#1190 = ORIENTED_EDGE('',*,*,#1109,.T.);
#1191 = ORIENTED_EDGE('',*,*,#1192,.T.);
#1192 = EDGE_CURVE('',#1110,#1169,#1193,.T.);
#1193 = LINE('',#1194,#1195);
#1194 = CARTESIAN_POINT('',(-140.7717490509,86.586145374741,14.));
#1195 = VECTOR('',#1196,1.);
#1196 = DIRECTION('',(-0.975387035788,0.220499728835,0.));
#1197 = ORIENTED_EDGE('',*,*,#1168,.F.);
#1198 = PLANE('',#1199);
#1199 = AXIS2_PLACEMENT_3D('',#1200,#1201,#1202);
#1200 = CARTESIAN_POINT('',(-140.7717490509,86.586145374741,4.));
#1201 = DIRECTION('',(-0.220499728835,-0.975387035788,0.));
#1202 = DIRECTION('',(0.,0.,1.));
#1203 = ADVANCED_FACE('',(#1204),#1233,.F.);
#1204 = FACE_BOUND('',#1205,.F.);
#1205 = EDGE_LOOP('',(#1206,#1207,#1208,#1216,#1224,#1230,#1231,#1232));
#1206 = ORIENTED_EDGE('',*,*,#644,.F.);
#1207 = ORIENTED_EDGE('',*,*,#419,.T.);
#1208 = ORIENTED_EDGE('',*,*,#1209,.T.);
#1209 = EDGE_CURVE('',#420,#1210,#1212,.T.);
#1210 = VERTEX_POINT('',#1211);
#1211 = CARTESIAN_POINT('',(-165.,-99.23991491602,14.));
#1212 = LINE('',#1213,#1214);
#1213 = CARTESIAN_POINT('',(-165.,-99.23991491602,4.));
#1214 = VECTOR('',#1215,1.);
#1215 = DIRECTION('',(0.,0.,1.));
#1216 = ORIENTED_EDGE('',*,*,#1217,.T.);
#1217 = EDGE_CURVE('',#1210,#1218,#1220,.T.);
#1218 = VERTEX_POINT('',#1219);
#1219 = CARTESIAN_POINT('',(-165.,-92.06327657333,14.));
#1220 = LINE('',#1221,#1222);
#1221 = CARTESIAN_POINT('',(-165.,-100.7930726873,14.));
#1222 = VECTOR('',#1223,1.);
#1223 = DIRECTION('',(-0.,1.,0.));
#1224 = ORIENTED_EDGE('',*,*,#1225,.F.);
#1225 = EDGE_CURVE('',#444,#1218,#1226,.T.);
#1226 = LINE('',#1227,#1228);
#1227 = CARTESIAN_POINT('',(-165.,-92.06327657333,4.));
#1228 = VECTOR('',#1229,1.);
#1229 = DIRECTION('',(0.,0.,1.));
#1230 = ORIENTED_EDGE('',*,*,#451,.T.);
#1231 = ORIENTED_EDGE('',*,*,#596,.T.);
#1232 = ORIENTED_EDGE('',*,*,#619,.F.);
#1233 = PLANE('',#1234);
#1234 = AXIS2_PLACEMENT_3D('',#1235,#1236,#1237);
#1235 = CARTESIAN_POINT('',(-165.,-115.,4.));
#1236 = DIRECTION('',(1.,0.,-0.));
#1237 = DIRECTION('',(0.,0.,1.));
#1238 = ADVANCED_FACE('',(#1239),#1257,.F.);
#1239 = FACE_BOUND('',#1240,.F.);
#1240 = EDGE_LOOP('',(#1241,#1242,#1243,#1251));
#1241 = ORIENTED_EDGE('',*,*,#443,.F.);
#1242 = ORIENTED_EDGE('',*,*,#1225,.T.);
#1243 = ORIENTED_EDGE('',*,*,#1244,.T.);
#1244 = EDGE_CURVE('',#1218,#1245,#1247,.T.);
#1245 = VERTEX_POINT('',#1246);
#1246 = CARTESIAN_POINT('',(-328.7717490509,-129.0861453747,14.));
#1247 = LINE('',#1248,#1249);
#1248 = CARTESIAN_POINT('',(-140.7717490509,-86.58614537474,14.));
#1249 = VECTOR('',#1250,1.);
#1250 = DIRECTION('',(-0.975387035788,-0.220499728835,0.));
#1251 = ORIENTED_EDGE('',*,*,#1252,.F.);
#1252 = EDGE_CURVE('',#436,#1245,#1253,.T.);
#1253 = LINE('',#1254,#1255);
#1254 = CARTESIAN_POINT('',(-328.7717490509,-129.0861453747,4.));
#1255 = VECTOR('',#1256,1.);
#1256 = DIRECTION('',(0.,0.,1.));
#1257 = PLANE('',#1258);
#1258 = AXIS2_PLACEMENT_3D('',#1259,#1260,#1261);
#1259 = CARTESIAN_POINT('',(-140.7717490509,-86.58614537474,4.));
#1260 = DIRECTION('',(0.220499728835,-0.975387035788,0.));
#1261 = DIRECTION('',(0.,0.,1.));
#1262 = ADVANCED_FACE('',(#1263),#1281,.T.);
#1263 = FACE_BOUND('',#1264,.T.);
#1264 = EDGE_LOOP('',(#1265,#1266,#1267,#1275));
#1265 = ORIENTED_EDGE('',*,*,#1252,.F.);
#1266 = ORIENTED_EDGE('',*,*,#435,.T.);
#1267 = ORIENTED_EDGE('',*,*,#1268,.T.);
#1268 = EDGE_CURVE('',#428,#1269,#1271,.T.);
#1269 = VERTEX_POINT('',#1270);
#1270 = CARTESIAN_POINT('',(-327.228250949,-135.9138546252,14.));
#1271 = LINE('',#1272,#1273);
#1272 = CARTESIAN_POINT('',(-327.228250949,-135.9138546252,4.));
#1273 = VECTOR('',#1274,1.);
#1274 = DIRECTION('',(0.,0.,1.));
#1275 = ORIENTED_EDGE('',*,*,#1276,.F.);
#1276 = EDGE_CURVE('',#1245,#1269,#1277,.T.);
#1277 = LINE('',#1278,#1279);
#1278 = CARTESIAN_POINT('',(-328.7717490509,-129.0861453747,14.));
#1279 = VECTOR('',#1280,1.);
#1280 = DIRECTION('',(0.220499728835,-0.975387035788,0.));
#1281 = PLANE('',#1282);
#1282 = AXIS2_PLACEMENT_3D('',#1283,#1284,#1285);
#1283 = CARTESIAN_POINT('',(-328.7717490509,-129.0861453747,4.));
#1284 = DIRECTION('',(-0.975387035788,-0.220499728835,0.));
#1285 = DIRECTION('',(0.,0.,1.));
#1286 = ADVANCED_FACE('',(#1287),#1298,.T.);
#1287 = FACE_BOUND('',#1288,.T.);
#1288 = EDGE_LOOP('',(#1289,#1290,#1291,#1297));
#1289 = ORIENTED_EDGE('',*,*,#427,.F.);
#1290 = ORIENTED_EDGE('',*,*,#1209,.T.);
#1291 = ORIENTED_EDGE('',*,*,#1292,.T.);
#1292 = EDGE_CURVE('',#1210,#1269,#1293,.T.);
#1293 = LINE('',#1294,#1295);
#1294 = CARTESIAN_POINT('',(-139.228250949,-93.41385462525,14.));
#1295 = VECTOR('',#1296,1.);
#1296 = DIRECTION('',(-0.975387035788,-0.220499728835,0.));
#1297 = ORIENTED_EDGE('',*,*,#1268,.F.);
#1298 = PLANE('',#1299);
#1299 = AXIS2_PLACEMENT_3D('',#1300,#1301,#1302);
#1300 = CARTESIAN_POINT('',(-139.228250949,-93.41385462525,4.));
#1301 = DIRECTION('',(0.220499728835,-0.975387035788,0.));
#1302 = DIRECTION('',(0.,0.,1.));
#1303 = ADVANCED_FACE('',(#1304),#1311,.T.);
#1304 = FACE_BOUND('',#1305,.T.);
#1305 = EDGE_LOOP('',(#1306,#1307,#1308,#1309,#1310));
#1306 = ORIENTED_EDGE('',*,*,#837,.T.);
#1307 = ORIENTED_EDGE('',*,*,#820,.T.);
#1308 = ORIENTED_EDGE('',*,*,#773,.T.);
#1309 = ORIENTED_EDGE('',*,*,#749,.T.);
#1310 = ORIENTED_EDGE('',*,*,#686,.T.);
#1311 = PLANE('',#1312);
#1312 = AXIS2_PLACEMENT_3D('',#1313,#1314,#1315);
#1313 = CARTESIAN_POINT('',(-90.,-90.,9.389826944734));
#1314 = DIRECTION('',(1.,0.,0.));
#1315 = DIRECTION('',(-0.,0.,1.));
#1316 = ADVANCED_FACE('',(#1317),#1334,.F.);
#1317 = FACE_BOUND('',#1318,.F.);
#1318 = EDGE_LOOP('',(#1319,#1325,#1326,#1332,#1333));
#1319 = ORIENTED_EDGE('',*,*,#1320,.F.);
#1320 = EDGE_CURVE('',#865,#726,#1321,.T.);
#1321 = LINE('',#1322,#1323);
#1322 = CARTESIAN_POINT('',(-110.7,-96.3,-1.));
#1323 = VECTOR('',#1324,1.);
#1324 = DIRECTION('',(0.,0.,1.));
#1325 = ORIENTED_EDGE('',*,*,#872,.F.);
#1326 = ORIENTED_EDGE('',*,*,#1327,.T.);
#1327 = EDGE_CURVE('',#849,#781,#1328,.T.);
#1328 = LINE('',#1329,#1330);
#1329 = CARTESIAN_POINT('',(-110.7,-83.7,-1.));
#1330 = VECTOR('',#1331,1.);
#1331 = DIRECTION('',(0.,0.,1.));
#1332 = ORIENTED_EDGE('',*,*,#780,.T.);
#1333 = ORIENTED_EDGE('',*,*,#733,.T.);
#1334 = PLANE('',#1335);
#1335 = AXIS2_PLACEMENT_3D('',#1336,#1337,#1338);
#1336 = CARTESIAN_POINT('',(-110.7,-96.3,-1.));
#1337 = DIRECTION('',(1.,0.,-0.));
#1338 = DIRECTION('',(0.,0.,1.));
#1339 = ADVANCED_FACE('',(#1340),#1351,.T.);
#1340 = FACE_BOUND('',#1341,.T.);
#1341 = EDGE_LOOP('',(#1342,#1343,#1344,#1350));
#1342 = ORIENTED_EDGE('',*,*,#1320,.F.);
#1343 = ORIENTED_EDGE('',*,*,#864,.F.);
#1344 = ORIENTED_EDGE('',*,*,#1345,.T.);
#1345 = EDGE_CURVE('',#857,#718,#1346,.T.);
#1346 = LINE('',#1347,#1348);
#1347 = CARTESIAN_POINT('',(-119.3,-96.3,-1.));
#1348 = VECTOR('',#1349,1.);
#1349 = DIRECTION('',(0.,0.,1.));
#1350 = ORIENTED_EDGE('',*,*,#725,.T.);
#1351 = PLANE('',#1352);
#1352 = AXIS2_PLACEMENT_3D('',#1353,#1354,#1355);
#1353 = CARTESIAN_POINT('',(-119.3,-96.3,-1.));
#1354 = DIRECTION('',(-0.,1.,0.));
#1355 = DIRECTION('',(0.,0.,1.));
#1356 = ADVANCED_FACE('',(#1357),#1369,.T.);
#1357 = FACE_BOUND('',#1358,.T.);
#1358 = EDGE_LOOP('',(#1359,#1360,#1361,#1367,#1368));
#1359 = ORIENTED_EDGE('',*,*,#1345,.F.);
#1360 = ORIENTED_EDGE('',*,*,#856,.F.);
#1361 = ORIENTED_EDGE('',*,*,#1362,.T.);
#1362 = EDGE_CURVE('',#847,#789,#1363,.T.);
#1363 = LINE('',#1364,#1365);
#1364 = CARTESIAN_POINT('',(-119.3,-83.7,-1.));
#1365 = VECTOR('',#1366,1.);
#1366 = DIRECTION('',(0.,0.,1.));
#1367 = ORIENTED_EDGE('',*,*,#796,.T.);
#1368 = ORIENTED_EDGE('',*,*,#717,.T.);
#1369 = PLANE('',#1370);
#1370 = AXIS2_PLACEMENT_3D('',#1371,#1372,#1373);
#1371 = CARTESIAN_POINT('',(-119.3,-96.3,-1.));
#1372 = DIRECTION('',(1.,0.,-0.));
#1373 = DIRECTION('',(0.,0.,1.));
#1374 = ADVANCED_FACE('',(#1375),#1381,.F.);
#1375 = FACE_BOUND('',#1376,.F.);
#1376 = EDGE_LOOP('',(#1377,#1378,#1379,#1380));
#1377 = ORIENTED_EDGE('',*,*,#1327,.F.);
#1378 = ORIENTED_EDGE('',*,*,#846,.F.);
#1379 = ORIENTED_EDGE('',*,*,#1362,.T.);
#1380 = ORIENTED_EDGE('',*,*,#788,.T.);
#1381 = PLANE('',#1382);
#1382 = AXIS2_PLACEMENT_3D('',#1383,#1384,#1385);
#1383 = CARTESIAN_POINT('',(-119.3,-83.7,-1.));
#1384 = DIRECTION('',(-0.,1.,0.));
#1385 = DIRECTION('',(0.,0.,1.));
#1386 = ADVANCED_FACE('',(#1387),#1394,.T.);
#1387 = FACE_BOUND('',#1388,.T.);
#1388 = EDGE_LOOP('',(#1389,#1390,#1391,#1392,#1393));
#1389 = ORIENTED_EDGE('',*,*,#1046,.T.);
#1390 = ORIENTED_EDGE('',*,*,#1029,.T.);
#1391 = ORIENTED_EDGE('',*,*,#982,.T.);
#1392 = ORIENTED_EDGE('',*,*,#958,.T.);
#1393 = ORIENTED_EDGE('',*,*,#895,.T.);
#1394 = PLANE('',#1395);
#1395 = AXIS2_PLACEMENT_3D('',#1396,#1397,#1398);
#1396 = CARTESIAN_POINT('',(-90.,90.,9.389826944734));
#1397 = DIRECTION('',(1.,0.,0.));
#1398 = DIRECTION('',(-0.,0.,1.));
#1399 = ADVANCED_FACE('',(#1400),#1417,.F.);
#1400 = FACE_BOUND('',#1401,.F.);
#1401 = EDGE_LOOP('',(#1402,#1408,#1409,#1415,#1416));
#1402 = ORIENTED_EDGE('',*,*,#1403,.F.);
#1403 = EDGE_CURVE('',#1074,#935,#1404,.T.);
#1404 = LINE('',#1405,#1406);
#1405 = CARTESIAN_POINT('',(-110.7,83.7,-1.));
#1406 = VECTOR('',#1407,1.);
#1407 = DIRECTION('',(0.,0.,1.));
#1408 = ORIENTED_EDGE('',*,*,#1081,.F.);
#1409 = ORIENTED_EDGE('',*,*,#1410,.T.);
#1410 = EDGE_CURVE('',#1058,#990,#1411,.T.);
#1411 = LINE('',#1412,#1413);
#1412 = CARTESIAN_POINT('',(-110.7,96.3,-1.));
#1413 = VECTOR('',#1414,1.);
#1414 = DIRECTION('',(0.,0.,1.));
#1415 = ORIENTED_EDGE('',*,*,#989,.T.);
#1416 = ORIENTED_EDGE('',*,*,#942,.T.);
#1417 = PLANE('',#1418);
#1418 = AXIS2_PLACEMENT_3D('',#1419,#1420,#1421);
#1419 = CARTESIAN_POINT('',(-110.7,83.7,-1.));
#1420 = DIRECTION('',(1.,0.,-0.));
#1421 = DIRECTION('',(0.,0.,1.));
#1422 = ADVANCED_FACE('',(#1423),#1434,.T.);
#1423 = FACE_BOUND('',#1424,.T.);
#1424 = EDGE_LOOP('',(#1425,#1426,#1427,#1433));
#1425 = ORIENTED_EDGE('',*,*,#1403,.F.);
#1426 = ORIENTED_EDGE('',*,*,#1073,.F.);
#1427 = ORIENTED_EDGE('',*,*,#1428,.T.);
#1428 = EDGE_CURVE('',#1066,#927,#1429,.T.);
#1429 = LINE('',#1430,#1431);
#1430 = CARTESIAN_POINT('',(-119.3,83.7,-1.));
#1431 = VECTOR('',#1432,1.);
#1432 = DIRECTION('',(0.,0.,1.));
#1433 = ORIENTED_EDGE('',*,*,#934,.T.);
#1434 = PLANE('',#1435);
#1435 = AXIS2_PLACEMENT_3D('',#1436,#1437,#1438);
#1436 = CARTESIAN_POINT('',(-119.3,83.7,-1.));
#1437 = DIRECTION('',(-0.,1.,0.));
#1438 = DIRECTION('',(0.,0.,1.));
#1439 = ADVANCED_FACE('',(#1440),#1452,.T.);
#1440 = FACE_BOUND('',#1441,.T.);
#1441 = EDGE_LOOP('',(#1442,#1443,#1444,#1450,#1451));
#1442 = ORIENTED_EDGE('',*,*,#1428,.F.);
#1443 = ORIENTED_EDGE('',*,*,#1065,.F.);
#1444 = ORIENTED_EDGE('',*,*,#1445,.T.);
#1445 = EDGE_CURVE('',#1056,#998,#1446,.T.);
#1446 = LINE('',#1447,#1448);
#1447 = CARTESIAN_POINT('',(-119.3,96.3,-1.));
#1448 = VECTOR('',#1449,1.);
#1449 = DIRECTION('',(0.,0.,1.));
#1450 = ORIENTED_EDGE('',*,*,#1005,.T.);
#1451 = ORIENTED_EDGE('',*,*,#926,.T.);
#1452 = PLANE('',#1453);
#1453 = AXIS2_PLACEMENT_3D('',#1454,#1455,#1456);
#1454 = CARTESIAN_POINT('',(-119.3,83.7,-1.));
#1455 = DIRECTION('',(1.,0.,-0.));
#1456 = DIRECTION('',(0.,0.,1.));
#1457 = ADVANCED_FACE('',(#1458),#1464,.F.);
#1458 = FACE_BOUND('',#1459,.F.);
#1459 = EDGE_LOOP('',(#1460,#1461,#1462,#1463));
#1460 = ORIENTED_EDGE('',*,*,#1410,.F.);
#1461 = ORIENTED_EDGE('',*,*,#1055,.F.);
#1462 = ORIENTED_EDGE('',*,*,#1445,.T.);
#1463 = ORIENTED_EDGE('',*,*,#997,.T.);
#1464 = PLANE('',#1465);
#1465 = AXIS2_PLACEMENT_3D('',#1466,#1467,#1468);
#1466 = CARTESIAN_POINT('',(-119.3,96.3,-1.));
#1467 = DIRECTION('',(-0.,1.,0.));
#1468 = DIRECTION('',(0.,0.,1.));
#1469 = ADVANCED_FACE('',(#1470),#1476,.T.);
#1470 = FACE_BOUND('',#1471,.T.);
#1471 = EDGE_LOOP('',(#1472,#1473,#1474,#1475));
#1472 = ORIENTED_EDGE('',*,*,#1192,.F.);
#1473 = ORIENTED_EDGE('',*,*,#1117,.T.);
#1474 = ORIENTED_EDGE('',*,*,#1144,.T.);
#1475 = ORIENTED_EDGE('',*,*,#1176,.T.);
#1476 = PLANE('',#1477);
#1477 = AXIS2_PLACEMENT_3D('',#1478,#1479,#1480);
#1478 = CARTESIAN_POINT('',(-139.228250949,93.413854625259,14.));
#1479 = DIRECTION('',(0.,0.,1.));
#1480 = DIRECTION('',(-0.975387035788,0.220499728835,0.));
#1481 = ADVANCED_FACE('',(#1482),#1488,.T.);
#1482 = FACE_BOUND('',#1483,.T.);
#1483 = EDGE_LOOP('',(#1484,#1485,#1486,#1487));
#1484 = ORIENTED_EDGE('',*,*,#1292,.F.);
#1485 = ORIENTED_EDGE('',*,*,#1217,.T.);
#1486 = ORIENTED_EDGE('',*,*,#1244,.T.);
#1487 = ORIENTED_EDGE('',*,*,#1276,.T.);
#1488 = PLANE('',#1489);
#1489 = AXIS2_PLACEMENT_3D('',#1490,#1491,#1492);
#1490 = CARTESIAN_POINT('',(-140.7717490509,-86.58614537474,14.));
#1491 = DIRECTION('',(0.,0.,1.));
#1492 = DIRECTION('',(-0.975387035788,-0.220499728835,0.));
#1493 = ( GEOMETRIC_REPRESENTATION_CONTEXT(3) 
GLOBAL_UNCERTAINTY_ASSIGNED_CONTEXT((#1497)) 
GLOBAL_UNIT_ASSIGNED_CONTEXT((#1494,#1495,#1496)) REPRESENTATION_CONTEXT
('Context #1','3D Context with UNIT and UNCERTAINTY') );
#1494 = ( LENGTH_UNIT() NAMED_UNIT(*) SI_UNIT(.MILLI.,.METRE.) );
#1495 = ( NAMED_UNIT(*) PLANE_ANGLE_UNIT() SI_UNIT($,.RADIAN.) );
#1496 = ( NAMED_UNIT(*) SI_UNIT($,.STERADIAN.) SOLID_ANGLE_UNIT() );
#1497 = UNCERTAINTY_MEASURE_WITH_UNIT(LENGTH_MEASURE(1.E-07),#1494,
  'distance_accuracy_value','confusion accuracy');
#1498 = PRODUCT_RELATED_PRODUCT_CATEGORY('part',$,(#7));
ENDSEC;
END-ISO-10303-21;
