ISO-10303-21;
HEADER;
FILE_DESCRIPTION(('FreeCAD Model'),'2;1');
FILE_NAME('Open CASCADE Shape Model','2026-09-20T08:13:44',('FreeCAD'),(
    'FreeCAD'),'Open CASCADE STEP processor 7.8','FreeCAD','Unknown');
FILE_SCHEMA(('AUTOMOTIVE_DESIGN { 1 0 10303 214 1 1 1 1 }'));
ENDSEC;
DATA;
#1 = APPLICATION_PROTOCOL_DEFINITION('international standard',
  'automotive_design',2000,#2);
#2 = APPLICATION_CONTEXT(
  'core data for automotive mechanical design processes');
#3 = SHAPE_DEFINITION_REPRESENTATION(#4,#10);
#4 = PRODUCT_DEFINITION_SHAPE('','',#5);
#5 = PRODUCT_DEFINITION('design','',#6,#9);
#6 = PRODUCT_DEFINITION_FORMATION('','',#7);
#7 = PRODUCT('Open CASCADE STEP translator 7.8 3',
  'Open CASCADE STEP translator 7.8 3','',(#8));
#8 = PRODUCT_CONTEXT('',#2,'mechanical');
#9 = PRODUCT_DEFINITION_CONTEXT('part definition',#2,'design');
#10 = ADVANCED_BREP_SHAPE_REPRESENTATION('',(#11,#15),#1493);
#11 = AXIS2_PLACEMENT_3D('',#12,#13,#14);
#12 = CARTESIAN_POINT('',(0.,0.,0.));
#13 = DIRECTION('',(0.,0.,1.));
#14 = DIRECTION('',(1.,0.,-0.));
#15 = MANIFOLD_SOLID_BREP('',#16);
#16 = CLOSED_SHELL('',(#17,#185,#378,#402,#449,#473,#497,#514,#531,#555,
    #602,#626,#650,#667,#684,#708,#732,#749,#780,#808,#820,#832,#856,
    #873,#938,#962,#1018,#1065,#1082,#1147,#1171,#1227,#1274,#1291,#1303
    ,#1315,#1327,#1340,#1362,#1380,#1397,#1410,#1423,#1445,#1463,#1480)
  );
#17 = ADVANCED_FACE('',(#18),#180,.T.);
#18 = FACE_BOUND('',#19,.T.);
#19 = EDGE_LOOP('',(#20,#30,#38,#46,#54,#62,#70,#78,#86,#94,#102,#110,
    #118,#126,#134,#142,#150,#158,#166,#174));
#20 = ORIENTED_EDGE('',*,*,#21,.F.);
#21 = EDGE_CURVE('',#22,#24,#26,.T.);
#22 = VERTEX_POINT('',#23);
#23 = CARTESIAN_POINT('',(140.,-139.5,4.));
#24 = VERTEX_POINT('',#25);
#25 = CARTESIAN_POINT('',(140.,-115.,4.));
#26 = LINE('',#27,#28);
#27 = CARTESIAN_POINT('',(140.,-147.5,4.));
#28 = VECTOR('',#29,1.);
#29 = DIRECTION('',(-0.,1.,0.));
#30 = ORIENTED_EDGE('',*,*,#31,.T.);
#31 = EDGE_CURVE('',#22,#32,#34,.T.);
#32 = VERTEX_POINT('',#33);
#33 = CARTESIAN_POINT('',(332.,-139.5,4.));
#34 = LINE('',#35,#36);
#35 = CARTESIAN_POINT('',(140.,-139.5,4.));
#36 = VECTOR('',#37,1.);
#37 = DIRECTION('',(1.,0.,-0.));
#38 = ORIENTED_EDGE('',*,*,#39,.T.);
#39 = EDGE_CURVE('',#32,#40,#42,.T.);
#40 = VERTEX_POINT('',#41);
#41 = CARTESIAN_POINT('',(332.,139.5,4.));
#42 = LINE('',#43,#44);
#43 = CARTESIAN_POINT('',(332.,-147.5,4.));
#44 = VECTOR('',#45,1.);
#45 = DIRECTION('',(-0.,1.,0.));
#46 = ORIENTED_EDGE('',*,*,#47,.F.);
#47 = EDGE_CURVE('',#48,#40,#50,.T.);
#48 = VERTEX_POINT('',#49);
#49 = CARTESIAN_POINT('',(140.,139.5,4.));
#50 = LINE('',#51,#52);
#51 = CARTESIAN_POINT('',(140.,139.5,4.));
#52 = VECTOR('',#53,1.);
#53 = DIRECTION('',(1.,0.,-0.));
#54 = ORIENTED_EDGE('',*,*,#55,.F.);
#55 = EDGE_CURVE('',#56,#48,#58,.T.);
#56 = VERTEX_POINT('',#57);
#57 = CARTESIAN_POINT('',(140.,115.,4.));
#58 = LINE('',#59,#60);
#59 = CARTESIAN_POINT('',(140.,-147.5,4.));
#60 = VECTOR('',#61,1.);
#61 = DIRECTION('',(-0.,1.,0.));
#62 = ORIENTED_EDGE('',*,*,#63,.T.);
#63 = EDGE_CURVE('',#56,#64,#66,.T.);
#64 = VERTEX_POINT('',#65);
#65 = CARTESIAN_POINT('',(165.,115.,4.));
#66 = LINE('',#67,#68);
#67 = CARTESIAN_POINT('',(140.,115.,4.));
#68 = VECTOR('',#69,1.);
#69 = DIRECTION('',(1.,0.,-0.));
#70 = ORIENTED_EDGE('',*,*,#71,.F.);
#71 = EDGE_CURVE('',#72,#64,#74,.T.);
#72 = VERTEX_POINT('',#73);
#73 = CARTESIAN_POINT('',(165.,99.239914916026,4.));
#74 = LINE('',#75,#76);
#75 = CARTESIAN_POINT('',(165.,65.,4.));
#76 = VECTOR('',#77,1.);
#77 = DIRECTION('',(-0.,1.,0.));
#78 = ORIENTED_EDGE('',*,*,#79,.T.);
#79 = EDGE_CURVE('',#72,#80,#82,.T.);
#80 = VERTEX_POINT('',#81);
#81 = CARTESIAN_POINT('',(327.22825094907,135.91385462525,4.));
#82 = LINE('',#83,#84);
#83 = CARTESIAN_POINT('',(139.22825094907,93.413854625259,4.));
#84 = VECTOR('',#85,1.);
#85 = DIRECTION('',(0.975387035788,0.220499728835,0.));
#86 = ORIENTED_EDGE('',*,*,#87,.F.);
#87 = EDGE_CURVE('',#88,#80,#90,.T.);
#88 = VERTEX_POINT('',#89);
#89 = CARTESIAN_POINT('',(328.77174905092,129.08614537474,4.));
#90 = LINE('',#91,#92);
#91 = CARTESIAN_POINT('',(328.77174905092,129.08614537474,4.));
#92 = VECTOR('',#93,1.);
#93 = DIRECTION('',(-0.220499728835,0.975387035788,0.));
#94 = ORIENTED_EDGE('',*,*,#95,.F.);
#95 = EDGE_CURVE('',#96,#88,#98,.T.);
#96 = VERTEX_POINT('',#97);
#97 = CARTESIAN_POINT('',(165.,92.063276573336,4.));
#98 = LINE('',#99,#100);
#99 = CARTESIAN_POINT('',(140.77174905092,86.586145374741,4.));
#100 = VECTOR('',#101,1.);
#101 = DIRECTION('',(0.975387035788,0.220499728835,0.));
#102 = ORIENTED_EDGE('',*,*,#103,.F.);
#103 = EDGE_CURVE('',#104,#96,#106,.T.);
#104 = VERTEX_POINT('',#105);
#105 = CARTESIAN_POINT('',(165.,65.,4.));
#106 = LINE('',#107,#108);
#107 = CARTESIAN_POINT('',(165.,65.,4.));
#108 = VECTOR('',#109,1.);
#109 = DIRECTION('',(-0.,1.,0.));
#110 = ORIENTED_EDGE('',*,*,#111,.F.);
#111 = EDGE_CURVE('',#112,#104,#114,.T.);
#112 = VERTEX_POINT('',#113);
#113 = CARTESIAN_POINT('',(140.,65.,4.));
#114 = LINE('',#115,#116);
#115 = CARTESIAN_POINT('',(140.,65.,4.));
#116 = VECTOR('',#117,1.);
#117 = DIRECTION('',(1.,0.,-0.));
#118 = ORIENTED_EDGE('',*,*,#119,.F.);
#119 = EDGE_CURVE('',#120,#112,#122,.T.);
#120 = VERTEX_POINT('',#121);
#121 = CARTESIAN_POINT('',(140.,-65.,4.));
#122 = LINE('',#123,#124);
#123 = CARTESIAN_POINT('',(140.,-147.5,4.));
#124 = VECTOR('',#125,1.);
#125 = DIRECTION('',(-0.,1.,0.));
#126 = ORIENTED_EDGE('',*,*,#127,.T.);
#127 = EDGE_CURVE('',#120,#128,#130,.T.);
#128 = VERTEX_POINT('',#129);
#129 = CARTESIAN_POINT('',(165.,-65.,4.));
#130 = LINE('',#131,#132);
#131 = CARTESIAN_POINT('',(140.,-65.,4.));
#132 = VECTOR('',#133,1.);
#133 = DIRECTION('',(1.,0.,-0.));
#134 = ORIENTED_EDGE('',*,*,#135,.F.);
#135 = EDGE_CURVE('',#136,#128,#138,.T.);
#136 = VERTEX_POINT('',#137);
#137 = CARTESIAN_POINT('',(165.,-92.06327657333,4.));
#138 = LINE('',#139,#140);
#139 = CARTESIAN_POINT('',(165.,-115.,4.));
#140 = VECTOR('',#141,1.);
#141 = DIRECTION('',(-0.,1.,0.));
#142 = ORIENTED_EDGE('',*,*,#143,.T.);
#143 = EDGE_CURVE('',#136,#144,#146,.T.);
#144 = VERTEX_POINT('',#145);
#145 = CARTESIAN_POINT('',(328.77174905092,-129.0861453747,4.));
#146 = LINE('',#147,#148);
#147 = CARTESIAN_POINT('',(140.77174905092,-86.58614537474,4.));
#148 = VECTOR('',#149,1.);
#149 = DIRECTION('',(0.975387035788,-0.220499728835,0.));
#150 = ORIENTED_EDGE('',*,*,#151,.F.);
#151 = EDGE_CURVE('',#152,#144,#154,.T.);
#152 = VERTEX_POINT('',#153);
#153 = CARTESIAN_POINT('',(327.22825094907,-135.9138546252,4.));
#154 = LINE('',#155,#156);
#155 = CARTESIAN_POINT('',(327.22825094907,-135.9138546252,4.));
#156 = VECTOR('',#157,1.);
#157 = DIRECTION('',(0.220499728835,0.975387035788,0.));
#158 = ORIENTED_EDGE('',*,*,#159,.F.);
#159 = EDGE_CURVE('',#160,#152,#162,.T.);
#160 = VERTEX_POINT('',#161);
#161 = CARTESIAN_POINT('',(165.,-99.23991491602,4.));
#162 = LINE('',#163,#164);
#163 = CARTESIAN_POINT('',(139.22825094907,-93.41385462525,4.));
#164 = VECTOR('',#165,1.);
#165 = DIRECTION('',(0.975387035788,-0.220499728835,0.));
#166 = ORIENTED_EDGE('',*,*,#167,.F.);
#167 = EDGE_CURVE('',#168,#160,#170,.T.);
#168 = VERTEX_POINT('',#169);
#169 = CARTESIAN_POINT('',(165.,-115.,4.));
#170 = LINE('',#171,#172);
#171 = CARTESIAN_POINT('',(165.,-115.,4.));
#172 = VECTOR('',#173,1.);
#173 = DIRECTION('',(-0.,1.,0.));
#174 = ORIENTED_EDGE('',*,*,#175,.F.);
#175 = EDGE_CURVE('',#24,#168,#176,.T.);
#176 = LINE('',#177,#178);
#177 = CARTESIAN_POINT('',(140.,-115.,4.));
#178 = VECTOR('',#179,1.);
#179 = DIRECTION('',(1.,0.,-0.));
#180 = PLANE('',#181);
#181 = AXIS2_PLACEMENT_3D('',#182,#183,#184);
#182 = CARTESIAN_POINT('',(140.,-147.5,4.));
#183 = DIRECTION('',(0.,0.,1.));
#184 = DIRECTION('',(1.,0.,-0.));
#185 = ADVANCED_FACE('',(#186,#289,#331),#373,.T.);
#186 = FACE_BOUND('',#187,.T.);
#187 = EDGE_LOOP('',(#188,#198,#206,#212,#213,#221,#229,#235,#236,#244,
    #252,#258,#259,#267,#275,#283));
#188 = ORIENTED_EDGE('',*,*,#189,.T.);
#189 = EDGE_CURVE('',#190,#192,#194,.T.);
#190 = VERTEX_POINT('',#191);
#191 = CARTESIAN_POINT('',(140.,-147.5,0.));
#192 = VERTEX_POINT('',#193);
#193 = CARTESIAN_POINT('',(140.,-147.5,14.));
#194 = LINE('',#195,#196);
#195 = CARTESIAN_POINT('',(140.,-147.5,0.));
#196 = VECTOR('',#197,1.);
#197 = DIRECTION('',(0.,0.,1.));
#198 = ORIENTED_EDGE('',*,*,#199,.T.);
#199 = EDGE_CURVE('',#192,#200,#202,.T.);
#200 = VERTEX_POINT('',#201);
#201 = CARTESIAN_POINT('',(140.,-139.5,14.));
#202 = LINE('',#203,#204);
#203 = CARTESIAN_POINT('',(140.,-147.5,14.));
#204 = VECTOR('',#205,1.);
#205 = DIRECTION('',(-0.,1.,0.));
#206 = ORIENTED_EDGE('',*,*,#207,.F.);
#207 = EDGE_CURVE('',#22,#200,#208,.T.);
#208 = LINE('',#209,#210);
#209 = CARTESIAN_POINT('',(140.,-139.5,4.));
#210 = VECTOR('',#211,1.);
#211 = DIRECTION('',(0.,0.,1.));
#212 = ORIENTED_EDGE('',*,*,#21,.T.);
#213 = ORIENTED_EDGE('',*,*,#214,.T.);
#214 = EDGE_CURVE('',#24,#215,#217,.T.);
#215 = VERTEX_POINT('',#216);
#216 = CARTESIAN_POINT('',(140.,-115.,24.));
#217 = LINE('',#218,#219);
#218 = CARTESIAN_POINT('',(140.,-115.,4.));
#219 = VECTOR('',#220,1.);
#220 = DIRECTION('',(0.,0.,1.));
#221 = ORIENTED_EDGE('',*,*,#222,.T.);
#222 = EDGE_CURVE('',#215,#223,#225,.T.);
#223 = VERTEX_POINT('',#224);
#224 = CARTESIAN_POINT('',(140.,-65.,24.));
#225 = LINE('',#226,#227);
#226 = CARTESIAN_POINT('',(140.,-115.,24.));
#227 = VECTOR('',#228,1.);
#228 = DIRECTION('',(-0.,1.,0.));
#229 = ORIENTED_EDGE('',*,*,#230,.F.);
#230 = EDGE_CURVE('',#120,#223,#231,.T.);
#231 = LINE('',#232,#233);
#232 = CARTESIAN_POINT('',(140.,-65.,4.));
#233 = VECTOR('',#234,1.);
#234 = DIRECTION('',(0.,0.,1.));
#235 = ORIENTED_EDGE('',*,*,#119,.T.);
#236 = ORIENTED_EDGE('',*,*,#237,.T.);
#237 = EDGE_CURVE('',#112,#238,#240,.T.);
#238 = VERTEX_POINT('',#239);
#239 = CARTESIAN_POINT('',(140.,65.,24.));
#240 = LINE('',#241,#242);
#241 = CARTESIAN_POINT('',(140.,65.,4.));
#242 = VECTOR('',#243,1.);
#243 = DIRECTION('',(0.,0.,1.));
#244 = ORIENTED_EDGE('',*,*,#245,.T.);
#245 = EDGE_CURVE('',#238,#246,#248,.T.);
#246 = VERTEX_POINT('',#247);
#247 = CARTESIAN_POINT('',(140.,115.,24.));
#248 = LINE('',#249,#250);
#249 = CARTESIAN_POINT('',(140.,65.,24.));
#250 = VECTOR('',#251,1.);
#251 = DIRECTION('',(-0.,1.,0.));
#252 = ORIENTED_EDGE('',*,*,#253,.F.);
#253 = EDGE_CURVE('',#56,#246,#254,.T.);
#254 = LINE('',#255,#256);
#255 = CARTESIAN_POINT('',(140.,115.,4.));
#256 = VECTOR('',#257,1.);
#257 = DIRECTION('',(0.,0.,1.));
#258 = ORIENTED_EDGE('',*,*,#55,.T.);
#259 = ORIENTED_EDGE('',*,*,#260,.T.);
#260 = EDGE_CURVE('',#48,#261,#263,.T.);
#261 = VERTEX_POINT('',#262);
#262 = CARTESIAN_POINT('',(140.,139.5,14.));
#263 = LINE('',#264,#265);
#264 = CARTESIAN_POINT('',(140.,139.5,4.));
#265 = VECTOR('',#266,1.);
#266 = DIRECTION('',(0.,0.,1.));
#267 = ORIENTED_EDGE('',*,*,#268,.T.);
#268 = EDGE_CURVE('',#261,#269,#271,.T.);
#269 = VERTEX_POINT('',#270);
#270 = CARTESIAN_POINT('',(140.,147.5,14.));
#271 = LINE('',#272,#273);
#272 = CARTESIAN_POINT('',(140.,139.5,14.));
#273 = VECTOR('',#274,1.);
#274 = DIRECTION('',(-0.,1.,0.));
#275 = ORIENTED_EDGE('',*,*,#276,.F.);
#276 = EDGE_CURVE('',#277,#269,#279,.T.);
#277 = VERTEX_POINT('',#278);
#278 = CARTESIAN_POINT('',(140.,147.5,0.));
#279 = LINE('',#280,#281);
#280 = CARTESIAN_POINT('',(140.,147.5,4.));
#281 = VECTOR('',#282,1.);
#282 = DIRECTION('',(0.,0.,1.));
#283 = ORIENTED_EDGE('',*,*,#284,.F.);
#284 = EDGE_CURVE('',#190,#277,#285,.T.);
#285 = LINE('',#286,#287);
#286 = CARTESIAN_POINT('',(140.,-147.5,0.));
#287 = VECTOR('',#288,1.);
#288 = DIRECTION('',(-0.,1.,0.));
#289 = FACE_BOUND('',#290,.T.);
#290 = EDGE_LOOP('',(#291,#301,#309,#317,#325));
#291 = ORIENTED_EDGE('',*,*,#292,.T.);
#292 = EDGE_CURVE('',#293,#295,#297,.T.);
#293 = VERTEX_POINT('',#294);
#294 = CARTESIAN_POINT('',(140.,-102.,4.));
#295 = VERTEX_POINT('',#296);
#296 = CARTESIAN_POINT('',(140.,-78.,4.));
#297 = LINE('',#298,#299);
#298 = CARTESIAN_POINT('',(140.,-147.5,4.));
#299 = VECTOR('',#300,1.);
#300 = DIRECTION('',(-0.,1.,0.));
#301 = ORIENTED_EDGE('',*,*,#302,.T.);
#302 = EDGE_CURVE('',#295,#303,#305,.T.);
#303 = VERTEX_POINT('',#304);
#304 = CARTESIAN_POINT('',(140.,-78.,8.));
#305 = LINE('',#306,#307);
#306 = CARTESIAN_POINT('',(140.,-78.,4.));
#307 = VECTOR('',#308,1.);
#308 = DIRECTION('',(0.,0.,1.));
#309 = ORIENTED_EDGE('',*,*,#310,.T.);
#310 = EDGE_CURVE('',#303,#311,#313,.T.);
#311 = VERTEX_POINT('',#312);
#312 = CARTESIAN_POINT('',(140.,-90.,20.));
#313 = LINE('',#314,#315);
#314 = CARTESIAN_POINT('',(140.,-86.25,16.25));
#315 = VECTOR('',#316,1.);
#316 = DIRECTION('',(0.,-0.707106781187,0.707106781187));
#317 = ORIENTED_EDGE('',*,*,#318,.T.);
#318 = EDGE_CURVE('',#311,#319,#321,.T.);
#319 = VERTEX_POINT('',#320);
#320 = CARTESIAN_POINT('',(140.,-102.,8.));
#321 = LINE('',#322,#323);
#322 = CARTESIAN_POINT('',(140.,-100.25,9.75));
#323 = VECTOR('',#324,1.);
#324 = DIRECTION('',(0.,-0.707106781187,-0.707106781187));
#325 = ORIENTED_EDGE('',*,*,#326,.T.);
#326 = EDGE_CURVE('',#319,#293,#327,.T.);
#327 = LINE('',#328,#329);
#328 = CARTESIAN_POINT('',(140.,-102.,6.));
#329 = VECTOR('',#330,1.);
#330 = DIRECTION('',(-0.,0.,-1.));
#331 = FACE_BOUND('',#332,.T.);
#332 = EDGE_LOOP('',(#333,#343,#351,#359,#367));
#333 = ORIENTED_EDGE('',*,*,#334,.T.);
#334 = EDGE_CURVE('',#335,#337,#339,.T.);
#335 = VERTEX_POINT('',#336);
#336 = CARTESIAN_POINT('',(140.,78.,4.));
#337 = VERTEX_POINT('',#338);
#338 = CARTESIAN_POINT('',(140.,102.,4.));
#339 = LINE('',#340,#341);
#340 = CARTESIAN_POINT('',(140.,-147.5,4.));
#341 = VECTOR('',#342,1.);
#342 = DIRECTION('',(-0.,1.,0.));
#343 = ORIENTED_EDGE('',*,*,#344,.T.);
#344 = EDGE_CURVE('',#337,#345,#347,.T.);
#345 = VERTEX_POINT('',#346);
#346 = CARTESIAN_POINT('',(140.,102.,8.));
#347 = LINE('',#348,#349);
#348 = CARTESIAN_POINT('',(140.,102.,4.));
#349 = VECTOR('',#350,1.);
#350 = DIRECTION('',(0.,0.,1.));
#351 = ORIENTED_EDGE('',*,*,#352,.T.);
#352 = EDGE_CURVE('',#345,#353,#355,.T.);
#353 = VERTEX_POINT('',#354);
#354 = CARTESIAN_POINT('',(140.,90.,20.));
#355 = LINE('',#356,#357);
#356 = CARTESIAN_POINT('',(140.,93.75,16.25));
#357 = VECTOR('',#358,1.);
#358 = DIRECTION('',(0.,-0.707106781187,0.707106781187));
#359 = ORIENTED_EDGE('',*,*,#360,.T.);
#360 = EDGE_CURVE('',#353,#361,#363,.T.);
#361 = VERTEX_POINT('',#362);
#362 = CARTESIAN_POINT('',(140.,78.,8.));
#363 = LINE('',#364,#365);
#364 = CARTESIAN_POINT('',(140.,79.75,9.75));
#365 = VECTOR('',#366,1.);
#366 = DIRECTION('',(0.,-0.707106781187,-0.707106781187));
#367 = ORIENTED_EDGE('',*,*,#368,.T.);
#368 = EDGE_CURVE('',#361,#335,#369,.T.);
#369 = LINE('',#370,#371);
#370 = CARTESIAN_POINT('',(140.,78.,6.));
#371 = VECTOR('',#372,1.);
#372 = DIRECTION('',(-0.,0.,-1.));
#373 = PLANE('',#374);
#374 = AXIS2_PLACEMENT_3D('',#375,#376,#377);
#375 = CARTESIAN_POINT('',(140.,0.,6.735376044568));
#376 = DIRECTION('',(-1.,-0.,-0.));
#377 = DIRECTION('',(0.,0.,-1.));
#378 = ADVANCED_FACE('',(#379),#397,.F.);
#379 = FACE_BOUND('',#380,.F.);
#380 = EDGE_LOOP('',(#381,#382,#383,#391));
#381 = ORIENTED_EDGE('',*,*,#175,.F.);
#382 = ORIENTED_EDGE('',*,*,#214,.T.);
#383 = ORIENTED_EDGE('',*,*,#384,.T.);
#384 = EDGE_CURVE('',#215,#385,#387,.T.);
#385 = VERTEX_POINT('',#386);
#386 = CARTESIAN_POINT('',(165.,-115.,24.));
#387 = LINE('',#388,#389);
#388 = CARTESIAN_POINT('',(140.,-115.,24.));
#389 = VECTOR('',#390,1.);
#390 = DIRECTION('',(1.,0.,-0.));
#391 = ORIENTED_EDGE('',*,*,#392,.F.);
#392 = EDGE_CURVE('',#168,#385,#393,.T.);
#393 = LINE('',#394,#395);
#394 = CARTESIAN_POINT('',(165.,-115.,4.));
#395 = VECTOR('',#396,1.);
#396 = DIRECTION('',(0.,0.,1.));
#397 = PLANE('',#398);
#398 = AXIS2_PLACEMENT_3D('',#399,#400,#401);
#399 = CARTESIAN_POINT('',(140.,-115.,4.));
#400 = DIRECTION('',(-0.,1.,0.));
#401 = DIRECTION('',(0.,0.,1.));
#402 = ADVANCED_FACE('',(#403),#444,.T.);
#403 = FACE_BOUND('',#404,.T.);
#404 = EDGE_LOOP('',(#405,#406,#407,#415,#423,#429,#430,#438));
#405 = ORIENTED_EDGE('',*,*,#392,.F.);
#406 = ORIENTED_EDGE('',*,*,#167,.T.);
#407 = ORIENTED_EDGE('',*,*,#408,.F.);
#408 = EDGE_CURVE('',#409,#160,#411,.T.);
#409 = VERTEX_POINT('',#410);
#410 = CARTESIAN_POINT('',(165.,-99.23991491602,14.));
#411 = LINE('',#412,#413);
#412 = CARTESIAN_POINT('',(165.,-99.23991491602,4.));
#413 = VECTOR('',#414,1.);
#414 = DIRECTION('',(-0.,0.,-1.));
#415 = ORIENTED_EDGE('',*,*,#416,.T.);
#416 = EDGE_CURVE('',#409,#417,#419,.T.);
#417 = VERTEX_POINT('',#418);
#418 = CARTESIAN_POINT('',(165.,-92.06327657333,14.));
#419 = LINE('',#420,#421);
#420 = CARTESIAN_POINT('',(165.,-104.2069273126,14.));
#421 = VECTOR('',#422,1.);
#422 = DIRECTION('',(-0.,1.,0.));
#423 = ORIENTED_EDGE('',*,*,#424,.T.);
#424 = EDGE_CURVE('',#417,#136,#425,.T.);
#425 = LINE('',#426,#427);
#426 = CARTESIAN_POINT('',(165.,-92.06327657333,4.));
#427 = VECTOR('',#428,1.);
#428 = DIRECTION('',(-0.,0.,-1.));
#429 = ORIENTED_EDGE('',*,*,#135,.T.);
#430 = ORIENTED_EDGE('',*,*,#431,.T.);
#431 = EDGE_CURVE('',#128,#432,#434,.T.);
#432 = VERTEX_POINT('',#433);
#433 = CARTESIAN_POINT('',(165.,-65.,24.));
#434 = LINE('',#435,#436);
#435 = CARTESIAN_POINT('',(165.,-65.,4.));
#436 = VECTOR('',#437,1.);
#437 = DIRECTION('',(0.,0.,1.));
#438 = ORIENTED_EDGE('',*,*,#439,.F.);
#439 = EDGE_CURVE('',#385,#432,#440,.T.);
#440 = LINE('',#441,#442);
#441 = CARTESIAN_POINT('',(165.,-115.,24.));
#442 = VECTOR('',#443,1.);
#443 = DIRECTION('',(-0.,1.,0.));
#444 = PLANE('',#445);
#445 = AXIS2_PLACEMENT_3D('',#446,#447,#448);
#446 = CARTESIAN_POINT('',(165.,-115.,4.));
#447 = DIRECTION('',(1.,0.,-0.));
#448 = DIRECTION('',(0.,0.,1.));
#449 = ADVANCED_FACE('',(#450),#468,.F.);
#450 = FACE_BOUND('',#451,.F.);
#451 = EDGE_LOOP('',(#452,#453,#454,#462));
#452 = ORIENTED_EDGE('',*,*,#159,.F.);
#453 = ORIENTED_EDGE('',*,*,#408,.F.);
#454 = ORIENTED_EDGE('',*,*,#455,.T.);
#455 = EDGE_CURVE('',#409,#456,#458,.T.);
#456 = VERTEX_POINT('',#457);
#457 = CARTESIAN_POINT('',(327.22825094907,-135.9138546252,14.));
#458 = LINE('',#459,#460);
#459 = CARTESIAN_POINT('',(139.22825094907,-93.41385462525,14.));
#460 = VECTOR('',#461,1.);
#461 = DIRECTION('',(0.975387035788,-0.220499728835,0.));
#462 = ORIENTED_EDGE('',*,*,#463,.F.);
#463 = EDGE_CURVE('',#152,#456,#464,.T.);
#464 = LINE('',#465,#466);
#465 = CARTESIAN_POINT('',(327.22825094907,-135.9138546252,4.));
#466 = VECTOR('',#467,1.);
#467 = DIRECTION('',(0.,0.,1.));
#468 = PLANE('',#469);
#469 = AXIS2_PLACEMENT_3D('',#470,#471,#472);
#470 = CARTESIAN_POINT('',(139.22825094907,-93.41385462525,4.));
#471 = DIRECTION('',(0.220499728835,0.975387035788,0.));
#472 = DIRECTION('',(0.,0.,1.));
#473 = ADVANCED_FACE('',(#474),#492,.T.);
#474 = FACE_BOUND('',#475,.T.);
#475 = EDGE_LOOP('',(#476,#477,#478,#486));
#476 = ORIENTED_EDGE('',*,*,#463,.F.);
#477 = ORIENTED_EDGE('',*,*,#151,.T.);
#478 = ORIENTED_EDGE('',*,*,#479,.T.);
#479 = EDGE_CURVE('',#144,#480,#482,.T.);
#480 = VERTEX_POINT('',#481);
#481 = CARTESIAN_POINT('',(328.77174905092,-129.0861453747,14.));
#482 = LINE('',#483,#484);
#483 = CARTESIAN_POINT('',(328.77174905092,-129.0861453747,4.));
#484 = VECTOR('',#485,1.);
#485 = DIRECTION('',(0.,0.,1.));
#486 = ORIENTED_EDGE('',*,*,#487,.F.);
#487 = EDGE_CURVE('',#456,#480,#488,.T.);
#488 = LINE('',#489,#490);
#489 = CARTESIAN_POINT('',(327.22825094907,-135.9138546252,14.));
#490 = VECTOR('',#491,1.);
#491 = DIRECTION('',(0.220499728835,0.975387035788,0.));
#492 = PLANE('',#493);
#493 = AXIS2_PLACEMENT_3D('',#494,#495,#496);
#494 = CARTESIAN_POINT('',(327.22825094907,-135.9138546252,4.));
#495 = DIRECTION('',(0.975387035788,-0.220499728835,0.));
#496 = DIRECTION('',(0.,0.,1.));
#497 = ADVANCED_FACE('',(#498),#509,.T.);
#498 = FACE_BOUND('',#499,.T.);
#499 = EDGE_LOOP('',(#500,#501,#502,#508));
#500 = ORIENTED_EDGE('',*,*,#143,.F.);
#501 = ORIENTED_EDGE('',*,*,#424,.F.);
#502 = ORIENTED_EDGE('',*,*,#503,.T.);
#503 = EDGE_CURVE('',#417,#480,#504,.T.);
#504 = LINE('',#505,#506);
#505 = CARTESIAN_POINT('',(140.77174905092,-86.58614537474,14.));
#506 = VECTOR('',#507,1.);
#507 = DIRECTION('',(0.975387035788,-0.220499728835,0.));
#508 = ORIENTED_EDGE('',*,*,#479,.F.);
#509 = PLANE('',#510);
#510 = AXIS2_PLACEMENT_3D('',#511,#512,#513);
#511 = CARTESIAN_POINT('',(140.77174905092,-86.58614537474,4.));
#512 = DIRECTION('',(0.220499728835,0.975387035788,0.));
#513 = DIRECTION('',(0.,0.,1.));
#514 = ADVANCED_FACE('',(#515),#526,.T.);
#515 = FACE_BOUND('',#516,.T.);
#516 = EDGE_LOOP('',(#517,#518,#519,#525));
#517 = ORIENTED_EDGE('',*,*,#127,.F.);
#518 = ORIENTED_EDGE('',*,*,#230,.T.);
#519 = ORIENTED_EDGE('',*,*,#520,.T.);
#520 = EDGE_CURVE('',#223,#432,#521,.T.);
#521 = LINE('',#522,#523);
#522 = CARTESIAN_POINT('',(140.,-65.,24.));
#523 = VECTOR('',#524,1.);
#524 = DIRECTION('',(1.,0.,-0.));
#525 = ORIENTED_EDGE('',*,*,#431,.F.);
#526 = PLANE('',#527);
#527 = AXIS2_PLACEMENT_3D('',#528,#529,#530);
#528 = CARTESIAN_POINT('',(140.,-65.,4.));
#529 = DIRECTION('',(-0.,1.,0.));
#530 = DIRECTION('',(0.,0.,1.));
#531 = ADVANCED_FACE('',(#532),#550,.F.);
#532 = FACE_BOUND('',#533,.F.);
#533 = EDGE_LOOP('',(#534,#535,#536,#544));
#534 = ORIENTED_EDGE('',*,*,#111,.F.);
#535 = ORIENTED_EDGE('',*,*,#237,.T.);
#536 = ORIENTED_EDGE('',*,*,#537,.T.);
#537 = EDGE_CURVE('',#238,#538,#540,.T.);
#538 = VERTEX_POINT('',#539);
#539 = CARTESIAN_POINT('',(165.,65.,24.));
#540 = LINE('',#541,#542);
#541 = CARTESIAN_POINT('',(140.,65.,24.));
#542 = VECTOR('',#543,1.);
#543 = DIRECTION('',(1.,0.,-0.));
#544 = ORIENTED_EDGE('',*,*,#545,.F.);
#545 = EDGE_CURVE('',#104,#538,#546,.T.);
#546 = LINE('',#547,#548);
#547 = CARTESIAN_POINT('',(165.,65.,4.));
#548 = VECTOR('',#549,1.);
#549 = DIRECTION('',(0.,0.,1.));
#550 = PLANE('',#551);
#551 = AXIS2_PLACEMENT_3D('',#552,#553,#554);
#552 = CARTESIAN_POINT('',(140.,65.,4.));
#553 = DIRECTION('',(-0.,1.,0.));
#554 = DIRECTION('',(0.,0.,1.));
#555 = ADVANCED_FACE('',(#556),#597,.T.);
#556 = FACE_BOUND('',#557,.T.);
#557 = EDGE_LOOP('',(#558,#559,#560,#568,#576,#582,#583,#591));
#558 = ORIENTED_EDGE('',*,*,#545,.F.);
#559 = ORIENTED_EDGE('',*,*,#103,.T.);
#560 = ORIENTED_EDGE('',*,*,#561,.F.);
#561 = EDGE_CURVE('',#562,#96,#564,.T.);
#562 = VERTEX_POINT('',#563);
#563 = CARTESIAN_POINT('',(165.,92.063276573336,14.));
#564 = LINE('',#565,#566);
#565 = CARTESIAN_POINT('',(165.,92.063276573336,4.));
#566 = VECTOR('',#567,1.);
#567 = DIRECTION('',(-0.,0.,-1.));
#568 = ORIENTED_EDGE('',*,*,#569,.T.);
#569 = EDGE_CURVE('',#562,#570,#572,.T.);
#570 = VERTEX_POINT('',#571);
#571 = CARTESIAN_POINT('',(165.,99.239914916026,14.));
#572 = LINE('',#573,#574);
#573 = CARTESIAN_POINT('',(165.,75.793072687371,14.));
#574 = VECTOR('',#575,1.);
#575 = DIRECTION('',(-0.,1.,0.));
#576 = ORIENTED_EDGE('',*,*,#577,.T.);
#577 = EDGE_CURVE('',#570,#72,#578,.T.);
#578 = LINE('',#579,#580);
#579 = CARTESIAN_POINT('',(165.,99.239914916026,4.));
#580 = VECTOR('',#581,1.);
#581 = DIRECTION('',(-0.,0.,-1.));
#582 = ORIENTED_EDGE('',*,*,#71,.T.);
#583 = ORIENTED_EDGE('',*,*,#584,.T.);
#584 = EDGE_CURVE('',#64,#585,#587,.T.);
#585 = VERTEX_POINT('',#586);
#586 = CARTESIAN_POINT('',(165.,115.,24.));
#587 = LINE('',#588,#589);
#588 = CARTESIAN_POINT('',(165.,115.,4.));
#589 = VECTOR('',#590,1.);
#590 = DIRECTION('',(0.,0.,1.));
#591 = ORIENTED_EDGE('',*,*,#592,.F.);
#592 = EDGE_CURVE('',#538,#585,#593,.T.);
#593 = LINE('',#594,#595);
#594 = CARTESIAN_POINT('',(165.,65.,24.));
#595 = VECTOR('',#596,1.);
#596 = DIRECTION('',(-0.,1.,0.));
#597 = PLANE('',#598);
#598 = AXIS2_PLACEMENT_3D('',#599,#600,#601);
#599 = CARTESIAN_POINT('',(165.,65.,4.));
#600 = DIRECTION('',(1.,0.,-0.));
#601 = DIRECTION('',(0.,0.,1.));
#602 = ADVANCED_FACE('',(#603),#621,.F.);
#603 = FACE_BOUND('',#604,.F.);
#604 = EDGE_LOOP('',(#605,#606,#607,#615));
#605 = ORIENTED_EDGE('',*,*,#95,.F.);
#606 = ORIENTED_EDGE('',*,*,#561,.F.);
#607 = ORIENTED_EDGE('',*,*,#608,.T.);
#608 = EDGE_CURVE('',#562,#609,#611,.T.);
#609 = VERTEX_POINT('',#610);
#610 = CARTESIAN_POINT('',(328.77174905092,129.08614537474,14.));
#611 = LINE('',#612,#613);
#612 = CARTESIAN_POINT('',(140.77174905092,86.586145374741,14.));
#613 = VECTOR('',#614,1.);
#614 = DIRECTION('',(0.975387035788,0.220499728835,0.));
#615 = ORIENTED_EDGE('',*,*,#616,.F.);
#616 = EDGE_CURVE('',#88,#609,#617,.T.);
#617 = LINE('',#618,#619);
#618 = CARTESIAN_POINT('',(328.77174905092,129.08614537474,4.));
#619 = VECTOR('',#620,1.);
#620 = DIRECTION('',(0.,0.,1.));
#621 = PLANE('',#622);
#622 = AXIS2_PLACEMENT_3D('',#623,#624,#625);
#623 = CARTESIAN_POINT('',(140.77174905092,86.586145374741,4.));
#624 = DIRECTION('',(-0.220499728835,0.975387035788,0.));
#625 = DIRECTION('',(0.,0.,1.));
#626 = ADVANCED_FACE('',(#627),#645,.T.);
#627 = FACE_BOUND('',#628,.T.);
#628 = EDGE_LOOP('',(#629,#630,#631,#639));
#629 = ORIENTED_EDGE('',*,*,#616,.F.);
#630 = ORIENTED_EDGE('',*,*,#87,.T.);
#631 = ORIENTED_EDGE('',*,*,#632,.T.);
#632 = EDGE_CURVE('',#80,#633,#635,.T.);
#633 = VERTEX_POINT('',#634);
#634 = CARTESIAN_POINT('',(327.22825094907,135.91385462525,14.));
#635 = LINE('',#636,#637);
#636 = CARTESIAN_POINT('',(327.22825094907,135.91385462525,4.));
#637 = VECTOR('',#638,1.);
#638 = DIRECTION('',(0.,0.,1.));
#639 = ORIENTED_EDGE('',*,*,#640,.F.);
#640 = EDGE_CURVE('',#609,#633,#641,.T.);
#641 = LINE('',#642,#643);
#642 = CARTESIAN_POINT('',(328.77174905092,129.08614537474,14.));
#643 = VECTOR('',#644,1.);
#644 = DIRECTION('',(-0.220499728835,0.975387035788,0.));
#645 = PLANE('',#646);
#646 = AXIS2_PLACEMENT_3D('',#647,#648,#649);
#647 = CARTESIAN_POINT('',(328.77174905092,129.08614537474,4.));
#648 = DIRECTION('',(0.975387035788,0.220499728835,0.));
#649 = DIRECTION('',(0.,0.,1.));
#650 = ADVANCED_FACE('',(#651),#662,.T.);
#651 = FACE_BOUND('',#652,.T.);
#652 = EDGE_LOOP('',(#653,#654,#655,#661));
#653 = ORIENTED_EDGE('',*,*,#79,.F.);
#654 = ORIENTED_EDGE('',*,*,#577,.F.);
#655 = ORIENTED_EDGE('',*,*,#656,.T.);
#656 = EDGE_CURVE('',#570,#633,#657,.T.);
#657 = LINE('',#658,#659);
#658 = CARTESIAN_POINT('',(139.22825094907,93.413854625259,14.));
#659 = VECTOR('',#660,1.);
#660 = DIRECTION('',(0.975387035788,0.220499728835,0.));
#661 = ORIENTED_EDGE('',*,*,#632,.F.);
#662 = PLANE('',#663);
#663 = AXIS2_PLACEMENT_3D('',#664,#665,#666);
#664 = CARTESIAN_POINT('',(139.22825094907,93.413854625259,4.));
#665 = DIRECTION('',(-0.220499728835,0.975387035788,0.));
#666 = DIRECTION('',(0.,0.,1.));
#667 = ADVANCED_FACE('',(#668),#679,.T.);
#668 = FACE_BOUND('',#669,.T.);
#669 = EDGE_LOOP('',(#670,#671,#672,#678));
#670 = ORIENTED_EDGE('',*,*,#63,.F.);
#671 = ORIENTED_EDGE('',*,*,#253,.T.);
#672 = ORIENTED_EDGE('',*,*,#673,.T.);
#673 = EDGE_CURVE('',#246,#585,#674,.T.);
#674 = LINE('',#675,#676);
#675 = CARTESIAN_POINT('',(140.,115.,24.));
#676 = VECTOR('',#677,1.);
#677 = DIRECTION('',(1.,0.,-0.));
#678 = ORIENTED_EDGE('',*,*,#584,.F.);
#679 = PLANE('',#680);
#680 = AXIS2_PLACEMENT_3D('',#681,#682,#683);
#681 = CARTESIAN_POINT('',(140.,115.,4.));
#682 = DIRECTION('',(-0.,1.,0.));
#683 = DIRECTION('',(0.,0.,1.));
#684 = ADVANCED_FACE('',(#685),#703,.F.);
#685 = FACE_BOUND('',#686,.F.);
#686 = EDGE_LOOP('',(#687,#688,#689,#697));
#687 = ORIENTED_EDGE('',*,*,#47,.F.);
#688 = ORIENTED_EDGE('',*,*,#260,.T.);
#689 = ORIENTED_EDGE('',*,*,#690,.T.);
#690 = EDGE_CURVE('',#261,#691,#693,.T.);
#691 = VERTEX_POINT('',#692);
#692 = CARTESIAN_POINT('',(332.,139.5,14.));
#693 = LINE('',#694,#695);
#694 = CARTESIAN_POINT('',(140.,139.5,14.));
#695 = VECTOR('',#696,1.);
#696 = DIRECTION('',(1.,0.,-0.));
#697 = ORIENTED_EDGE('',*,*,#698,.T.);
#698 = EDGE_CURVE('',#691,#40,#699,.T.);
#699 = LINE('',#700,#701);
#700 = CARTESIAN_POINT('',(332.,139.5,4.));
#701 = VECTOR('',#702,1.);
#702 = DIRECTION('',(-0.,0.,-1.));
#703 = PLANE('',#704);
#704 = AXIS2_PLACEMENT_3D('',#705,#706,#707);
#705 = CARTESIAN_POINT('',(140.,139.5,4.));
#706 = DIRECTION('',(-0.,1.,0.));
#707 = DIRECTION('',(0.,0.,1.));
#708 = ADVANCED_FACE('',(#709),#727,.F.);
#709 = FACE_BOUND('',#710,.F.);
#710 = EDGE_LOOP('',(#711,#719,#720,#721));
#711 = ORIENTED_EDGE('',*,*,#712,.T.);
#712 = EDGE_CURVE('',#713,#32,#715,.T.);
#713 = VERTEX_POINT('',#714);
#714 = CARTESIAN_POINT('',(332.,-139.5,14.));
#715 = LINE('',#716,#717);
#716 = CARTESIAN_POINT('',(332.,-139.5,4.));
#717 = VECTOR('',#718,1.);
#718 = DIRECTION('',(-0.,0.,-1.));
#719 = ORIENTED_EDGE('',*,*,#39,.T.);
#720 = ORIENTED_EDGE('',*,*,#698,.F.);
#721 = ORIENTED_EDGE('',*,*,#722,.F.);
#722 = EDGE_CURVE('',#713,#691,#723,.T.);
#723 = LINE('',#724,#725);
#724 = CARTESIAN_POINT('',(332.,-147.5,14.));
#725 = VECTOR('',#726,1.);
#726 = DIRECTION('',(-0.,1.,0.));
#727 = PLANE('',#728);
#728 = AXIS2_PLACEMENT_3D('',#729,#730,#731);
#729 = CARTESIAN_POINT('',(332.,-147.5,4.));
#730 = DIRECTION('',(1.,0.,-0.));
#731 = DIRECTION('',(0.,0.,1.));
#732 = ADVANCED_FACE('',(#733),#744,.T.);
#733 = FACE_BOUND('',#734,.T.);
#734 = EDGE_LOOP('',(#735,#736,#737,#743));
#735 = ORIENTED_EDGE('',*,*,#31,.F.);
#736 = ORIENTED_EDGE('',*,*,#207,.T.);
#737 = ORIENTED_EDGE('',*,*,#738,.T.);
#738 = EDGE_CURVE('',#200,#713,#739,.T.);
#739 = LINE('',#740,#741);
#740 = CARTESIAN_POINT('',(140.,-139.5,14.));
#741 = VECTOR('',#742,1.);
#742 = DIRECTION('',(1.,0.,-0.));
#743 = ORIENTED_EDGE('',*,*,#712,.T.);
#744 = PLANE('',#745);
#745 = AXIS2_PLACEMENT_3D('',#746,#747,#748);
#746 = CARTESIAN_POINT('',(140.,-139.5,4.));
#747 = DIRECTION('',(-0.,1.,0.));
#748 = DIRECTION('',(0.,0.,1.));
#749 = ADVANCED_FACE('',(#750),#775,.T.);
#750 = FACE_BOUND('',#751,.T.);
#751 = EDGE_LOOP('',(#752,#760,#768,#774));
#752 = ORIENTED_EDGE('',*,*,#753,.T.);
#753 = EDGE_CURVE('',#190,#754,#756,.T.);
#754 = VERTEX_POINT('',#755);
#755 = CARTESIAN_POINT('',(340.,-147.5,0.));
#756 = LINE('',#757,#758);
#757 = CARTESIAN_POINT('',(140.,-147.5,0.));
#758 = VECTOR('',#759,1.);
#759 = DIRECTION('',(1.,0.,-0.));
#760 = ORIENTED_EDGE('',*,*,#761,.T.);
#761 = EDGE_CURVE('',#754,#762,#764,.T.);
#762 = VERTEX_POINT('',#763);
#763 = CARTESIAN_POINT('',(340.,-147.5,14.));
#764 = LINE('',#765,#766);
#765 = CARTESIAN_POINT('',(340.,-147.5,0.));
#766 = VECTOR('',#767,1.);
#767 = DIRECTION('',(0.,0.,1.));
#768 = ORIENTED_EDGE('',*,*,#769,.F.);
#769 = EDGE_CURVE('',#192,#762,#770,.T.);
#770 = LINE('',#771,#772);
#771 = CARTESIAN_POINT('',(140.,-147.5,14.));
#772 = VECTOR('',#773,1.);
#773 = DIRECTION('',(1.,0.,-0.));
#774 = ORIENTED_EDGE('',*,*,#189,.F.);
#775 = PLANE('',#776);
#776 = AXIS2_PLACEMENT_3D('',#777,#778,#779);
#777 = CARTESIAN_POINT('',(240.,-147.5,7.));
#778 = DIRECTION('',(-0.,-1.,-0.));
#779 = DIRECTION('',(0.,0.,-1.));
#780 = ADVANCED_FACE('',(#781),#803,.T.);
#781 = FACE_BOUND('',#782,.T.);
#782 = EDGE_LOOP('',(#783,#784,#785,#786,#794,#800,#801,#802));
#783 = ORIENTED_EDGE('',*,*,#738,.F.);
#784 = ORIENTED_EDGE('',*,*,#199,.F.);
#785 = ORIENTED_EDGE('',*,*,#769,.T.);
#786 = ORIENTED_EDGE('',*,*,#787,.T.);
#787 = EDGE_CURVE('',#762,#788,#790,.T.);
#788 = VERTEX_POINT('',#789);
#789 = CARTESIAN_POINT('',(340.,147.5,14.));
#790 = LINE('',#791,#792);
#791 = CARTESIAN_POINT('',(340.,139.5,14.));
#792 = VECTOR('',#793,1.);
#793 = DIRECTION('',(-0.,1.,0.));
#794 = ORIENTED_EDGE('',*,*,#795,.F.);
#795 = EDGE_CURVE('',#269,#788,#796,.T.);
#796 = LINE('',#797,#798);
#797 = CARTESIAN_POINT('',(140.,147.5,14.));
#798 = VECTOR('',#799,1.);
#799 = DIRECTION('',(1.,0.,-0.));
#800 = ORIENTED_EDGE('',*,*,#268,.F.);
#801 = ORIENTED_EDGE('',*,*,#690,.T.);
#802 = ORIENTED_EDGE('',*,*,#722,.F.);
#803 = PLANE('',#804);
#804 = AXIS2_PLACEMENT_3D('',#805,#806,#807);
#805 = CARTESIAN_POINT('',(277.86899563318,0.,14.));
#806 = DIRECTION('',(0.,0.,1.));
#807 = DIRECTION('',(1.,0.,-0.));
#808 = ADVANCED_FACE('',(#809),#815,.T.);
#809 = FACE_BOUND('',#810,.T.);
#810 = EDGE_LOOP('',(#811,#812,#813,#814));
#811 = ORIENTED_EDGE('',*,*,#222,.F.);
#812 = ORIENTED_EDGE('',*,*,#384,.T.);
#813 = ORIENTED_EDGE('',*,*,#439,.T.);
#814 = ORIENTED_EDGE('',*,*,#520,.F.);
#815 = PLANE('',#816);
#816 = AXIS2_PLACEMENT_3D('',#817,#818,#819);
#817 = CARTESIAN_POINT('',(140.,-115.,24.));
#818 = DIRECTION('',(0.,0.,1.));
#819 = DIRECTION('',(1.,0.,-0.));
#820 = ADVANCED_FACE('',(#821),#827,.T.);
#821 = FACE_BOUND('',#822,.T.);
#822 = EDGE_LOOP('',(#823,#824,#825,#826));
#823 = ORIENTED_EDGE('',*,*,#245,.F.);
#824 = ORIENTED_EDGE('',*,*,#537,.T.);
#825 = ORIENTED_EDGE('',*,*,#592,.T.);
#826 = ORIENTED_EDGE('',*,*,#673,.F.);
#827 = PLANE('',#828);
#828 = AXIS2_PLACEMENT_3D('',#829,#830,#831);
#829 = CARTESIAN_POINT('',(140.,65.,24.));
#830 = DIRECTION('',(0.,0.,1.));
#831 = DIRECTION('',(1.,0.,-0.));
#832 = ADVANCED_FACE('',(#833),#851,.T.);
#833 = FACE_BOUND('',#834,.T.);
#834 = EDGE_LOOP('',(#835,#843,#844,#845));
#835 = ORIENTED_EDGE('',*,*,#836,.F.);
#836 = EDGE_CURVE('',#277,#837,#839,.T.);
#837 = VERTEX_POINT('',#838);
#838 = CARTESIAN_POINT('',(340.,147.5,0.));
#839 = LINE('',#840,#841);
#840 = CARTESIAN_POINT('',(140.,147.5,0.));
#841 = VECTOR('',#842,1.);
#842 = DIRECTION('',(1.,0.,-0.));
#843 = ORIENTED_EDGE('',*,*,#276,.T.);
#844 = ORIENTED_EDGE('',*,*,#795,.T.);
#845 = ORIENTED_EDGE('',*,*,#846,.F.);
#846 = EDGE_CURVE('',#837,#788,#847,.T.);
#847 = LINE('',#848,#849);
#848 = CARTESIAN_POINT('',(340.,147.5,4.));
#849 = VECTOR('',#850,1.);
#850 = DIRECTION('',(0.,0.,1.));
#851 = PLANE('',#852);
#852 = AXIS2_PLACEMENT_3D('',#853,#854,#855);
#853 = CARTESIAN_POINT('',(240.,147.5,7.));
#854 = DIRECTION('',(0.,1.,0.));
#855 = DIRECTION('',(0.,-0.,1.));
#856 = ADVANCED_FACE('',(#857),#868,.F.);
#857 = FACE_BOUND('',#858,.F.);
#858 = EDGE_LOOP('',(#859,#860,#861,#867));
#859 = ORIENTED_EDGE('',*,*,#284,.F.);
#860 = ORIENTED_EDGE('',*,*,#753,.T.);
#861 = ORIENTED_EDGE('',*,*,#862,.T.);
#862 = EDGE_CURVE('',#754,#837,#863,.T.);
#863 = LINE('',#864,#865);
#864 = CARTESIAN_POINT('',(340.,-147.5,0.));
#865 = VECTOR('',#866,1.);
#866 = DIRECTION('',(-0.,1.,0.));
#867 = ORIENTED_EDGE('',*,*,#836,.F.);
#868 = PLANE('',#869);
#869 = AXIS2_PLACEMENT_3D('',#870,#871,#872);
#870 = CARTESIAN_POINT('',(140.,-147.5,0.));
#871 = DIRECTION('',(0.,0.,1.));
#872 = DIRECTION('',(1.,0.,-0.));
#873 = ADVANCED_FACE('',(#874,#899),#933,.T.);
#874 = FACE_BOUND('',#875,.T.);
#875 = EDGE_LOOP('',(#876,#886,#892,#893));
#876 = ORIENTED_EDGE('',*,*,#877,.T.);
#877 = EDGE_CURVE('',#878,#880,#882,.T.);
#878 = VERTEX_POINT('',#879);
#879 = CARTESIAN_POINT('',(90.,-102.,4.));
#880 = VERTEX_POINT('',#881);
#881 = CARTESIAN_POINT('',(90.,-78.,4.));
#882 = LINE('',#883,#884);
#883 = CARTESIAN_POINT('',(90.,-102.,4.));
#884 = VECTOR('',#885,1.);
#885 = DIRECTION('',(0.,1.,0.));
#886 = ORIENTED_EDGE('',*,*,#887,.T.);
#887 = EDGE_CURVE('',#880,#295,#888,.T.);
#888 = LINE('',#889,#890);
#889 = CARTESIAN_POINT('',(90.,-78.,4.));
#890 = VECTOR('',#891,1.);
#891 = DIRECTION('',(1.,0.,0.));
#892 = ORIENTED_EDGE('',*,*,#292,.F.);
#893 = ORIENTED_EDGE('',*,*,#894,.F.);
#894 = EDGE_CURVE('',#878,#293,#895,.T.);
#895 = LINE('',#896,#897);
#896 = CARTESIAN_POINT('',(90.,-102.,4.));
#897 = VECTOR('',#898,1.);
#898 = DIRECTION('',(1.,0.,0.));
#899 = FACE_BOUND('',#900,.T.);
#900 = EDGE_LOOP('',(#901,#911,#919,#927));
#901 = ORIENTED_EDGE('',*,*,#902,.F.);
#902 = EDGE_CURVE('',#903,#905,#907,.T.);
#903 = VERTEX_POINT('',#904);
#904 = CARTESIAN_POINT('',(110.7,-83.7,4.));
#905 = VERTEX_POINT('',#906);
#906 = CARTESIAN_POINT('',(119.3,-83.7,4.));
#907 = LINE('',#908,#909);
#908 = CARTESIAN_POINT('',(112.85,-83.7,4.));
#909 = VECTOR('',#910,1.);
#910 = DIRECTION('',(1.,0.,-0.));
#911 = ORIENTED_EDGE('',*,*,#912,.T.);
#912 = EDGE_CURVE('',#903,#913,#915,.T.);
#913 = VERTEX_POINT('',#914);
#914 = CARTESIAN_POINT('',(110.7,-96.3,4.));
#915 = LINE('',#916,#917);
#916 = CARTESIAN_POINT('',(110.7,-93.15,4.));
#917 = VECTOR('',#918,1.);
#918 = DIRECTION('',(0.,-1.,0.));
#919 = ORIENTED_EDGE('',*,*,#920,.T.);
#920 = EDGE_CURVE('',#913,#921,#923,.T.);
#921 = VERTEX_POINT('',#922);
#922 = CARTESIAN_POINT('',(119.3,-96.3,4.));
#923 = LINE('',#924,#925);
#924 = CARTESIAN_POINT('',(112.85,-96.3,4.));
#925 = VECTOR('',#926,1.);
#926 = DIRECTION('',(1.,0.,-0.));
#927 = ORIENTED_EDGE('',*,*,#928,.F.);
#928 = EDGE_CURVE('',#905,#921,#929,.T.);
#929 = LINE('',#930,#931);
#930 = CARTESIAN_POINT('',(119.3,-93.15,4.));
#931 = VECTOR('',#932,1.);
#932 = DIRECTION('',(0.,-1.,0.));
#933 = PLANE('',#934);
#934 = AXIS2_PLACEMENT_3D('',#935,#936,#937);
#935 = CARTESIAN_POINT('',(115.,-90.,4.));
#936 = DIRECTION('',(-0.,-0.,-1.));
#937 = DIRECTION('',(-1.,0.,0.));
#938 = ADVANCED_FACE('',(#939),#957,.F.);
#939 = FACE_BOUND('',#940,.F.);
#940 = EDGE_LOOP('',(#941,#949,#950,#951));
#941 = ORIENTED_EDGE('',*,*,#942,.F.);
#942 = EDGE_CURVE('',#880,#943,#945,.T.);
#943 = VERTEX_POINT('',#944);
#944 = CARTESIAN_POINT('',(90.,-78.,8.));
#945 = LINE('',#946,#947);
#946 = CARTESIAN_POINT('',(90.,-78.,4.));
#947 = VECTOR('',#948,1.);
#948 = DIRECTION('',(0.,0.,1.));
#949 = ORIENTED_EDGE('',*,*,#887,.T.);
#950 = ORIENTED_EDGE('',*,*,#302,.T.);
#951 = ORIENTED_EDGE('',*,*,#952,.F.);
#952 = EDGE_CURVE('',#943,#303,#953,.T.);
#953 = LINE('',#954,#955);
#954 = CARTESIAN_POINT('',(90.,-78.,8.));
#955 = VECTOR('',#956,1.);
#956 = DIRECTION('',(1.,0.,0.));
#957 = PLANE('',#958);
#958 = AXIS2_PLACEMENT_3D('',#959,#960,#961);
#959 = CARTESIAN_POINT('',(90.,-78.,4.));
#960 = DIRECTION('',(0.,-1.,0.));
#961 = DIRECTION('',(0.,0.,1.));
#962 = ADVANCED_FACE('',(#963),#1013,.F.);
#963 = FACE_BOUND('',#964,.F.);
#964 = EDGE_LOOP('',(#965,#973,#974,#975,#983,#991,#999,#1007));
#965 = ORIENTED_EDGE('',*,*,#966,.F.);
#966 = EDGE_CURVE('',#943,#967,#969,.T.);
#967 = VERTEX_POINT('',#968);
#968 = CARTESIAN_POINT('',(90.,-90.,20.));
#969 = LINE('',#970,#971);
#970 = CARTESIAN_POINT('',(90.,-78.,8.));
#971 = VECTOR('',#972,1.);
#972 = DIRECTION('',(0.,-0.707106781187,0.707106781187));
#973 = ORIENTED_EDGE('',*,*,#952,.T.);
#974 = ORIENTED_EDGE('',*,*,#310,.T.);
#975 = ORIENTED_EDGE('',*,*,#976,.F.);
#976 = EDGE_CURVE('',#977,#311,#979,.T.);
#977 = VERTEX_POINT('',#978);
#978 = CARTESIAN_POINT('',(119.3,-90.,20.));
#979 = LINE('',#980,#981);
#980 = CARTESIAN_POINT('',(90.,-90.,20.));
#981 = VECTOR('',#982,1.);
#982 = DIRECTION('',(1.,0.,0.));
#983 = ORIENTED_EDGE('',*,*,#984,.F.);
#984 = EDGE_CURVE('',#985,#977,#987,.T.);
#985 = VERTEX_POINT('',#986);
#986 = CARTESIAN_POINT('',(119.3,-83.7,13.7));
#987 = LINE('',#988,#989);
#988 = CARTESIAN_POINT('',(119.3,-80.325,10.325));
#989 = VECTOR('',#990,1.);
#990 = DIRECTION('',(0.,-0.707106781187,0.707106781187));
#991 = ORIENTED_EDGE('',*,*,#992,.F.);
#992 = EDGE_CURVE('',#993,#985,#995,.T.);
#993 = VERTEX_POINT('',#994);
#994 = CARTESIAN_POINT('',(110.7,-83.7,13.7));
#995 = LINE('',#996,#997);
#996 = CARTESIAN_POINT('',(100.35,-83.7,13.7));
#997 = VECTOR('',#998,1.);
#998 = DIRECTION('',(1.,0.,0.));
#999 = ORIENTED_EDGE('',*,*,#1000,.T.);
#1000 = EDGE_CURVE('',#993,#1001,#1003,.T.);
#1001 = VERTEX_POINT('',#1002);
#1002 = CARTESIAN_POINT('',(110.7,-90.,20.));
#1003 = LINE('',#1004,#1005);
#1004 = CARTESIAN_POINT('',(110.7,-80.325,10.325));
#1005 = VECTOR('',#1006,1.);
#1006 = DIRECTION('',(0.,-0.707106781187,0.707106781187));
#1007 = ORIENTED_EDGE('',*,*,#1008,.F.);
#1008 = EDGE_CURVE('',#967,#1001,#1009,.T.);
#1009 = LINE('',#1010,#1011);
#1010 = CARTESIAN_POINT('',(90.,-90.,20.));
#1011 = VECTOR('',#1012,1.);
#1012 = DIRECTION('',(1.,0.,0.));
#1013 = PLANE('',#1014);
#1014 = AXIS2_PLACEMENT_3D('',#1015,#1016,#1017);
#1015 = CARTESIAN_POINT('',(90.,-78.,8.));
#1016 = DIRECTION('',(0.,-0.707106781187,-0.707106781187));
#1017 = DIRECTION('',(0.,-0.707106781187,0.707106781187));
#1018 = ADVANCED_FACE('',(#1019),#1060,.F.);
#1019 = FACE_BOUND('',#1020,.F.);
#1020 = EDGE_LOOP('',(#1021,#1029,#1030,#1038,#1046,#1052,#1053,#1054));
#1021 = ORIENTED_EDGE('',*,*,#1022,.F.);
#1022 = EDGE_CURVE('',#967,#1023,#1025,.T.);
#1023 = VERTEX_POINT('',#1024);
#1024 = CARTESIAN_POINT('',(90.,-102.,8.));
#1025 = LINE('',#1026,#1027);
#1026 = CARTESIAN_POINT('',(90.,-90.,20.));
#1027 = VECTOR('',#1028,1.);
#1028 = DIRECTION('',(0.,-0.707106781187,-0.707106781187));
#1029 = ORIENTED_EDGE('',*,*,#1008,.T.);
#1030 = ORIENTED_EDGE('',*,*,#1031,.T.);
#1031 = EDGE_CURVE('',#1001,#1032,#1034,.T.);
#1032 = VERTEX_POINT('',#1033);
#1033 = CARTESIAN_POINT('',(110.7,-96.3,13.7));
#1034 = LINE('',#1035,#1036);
#1035 = CARTESIAN_POINT('',(110.7,-96.825,13.175));
#1036 = VECTOR('',#1037,1.);
#1037 = DIRECTION('',(0.,-0.707106781187,-0.707106781187));
#1038 = ORIENTED_EDGE('',*,*,#1039,.T.);
#1039 = EDGE_CURVE('',#1032,#1040,#1042,.T.);
#1040 = VERTEX_POINT('',#1041);
#1041 = CARTESIAN_POINT('',(119.3,-96.3,13.7));
#1042 = LINE('',#1043,#1044);
#1043 = CARTESIAN_POINT('',(100.35,-96.3,13.7));
#1044 = VECTOR('',#1045,1.);
#1045 = DIRECTION('',(1.,0.,0.));
#1046 = ORIENTED_EDGE('',*,*,#1047,.F.);
#1047 = EDGE_CURVE('',#977,#1040,#1048,.T.);
#1048 = LINE('',#1049,#1050);
#1049 = CARTESIAN_POINT('',(119.3,-96.825,13.175));
#1050 = VECTOR('',#1051,1.);
#1051 = DIRECTION('',(0.,-0.707106781187,-0.707106781187));
#1052 = ORIENTED_EDGE('',*,*,#976,.T.);
#1053 = ORIENTED_EDGE('',*,*,#318,.T.);
#1054 = ORIENTED_EDGE('',*,*,#1055,.F.);
#1055 = EDGE_CURVE('',#1023,#319,#1056,.T.);
#1056 = LINE('',#1057,#1058);
#1057 = CARTESIAN_POINT('',(90.,-102.,8.));
#1058 = VECTOR('',#1059,1.);
#1059 = DIRECTION('',(1.,0.,0.));
#1060 = PLANE('',#1061);
#1061 = AXIS2_PLACEMENT_3D('',#1062,#1063,#1064);
#1062 = CARTESIAN_POINT('',(90.,-90.,20.));
#1063 = DIRECTION('',(0.,0.707106781187,-0.707106781187));
#1064 = DIRECTION('',(0.,-0.707106781187,-0.707106781187));
#1065 = ADVANCED_FACE('',(#1066),#1077,.F.);
#1066 = FACE_BOUND('',#1067,.F.);
#1067 = EDGE_LOOP('',(#1068,#1074,#1075,#1076));
#1068 = ORIENTED_EDGE('',*,*,#1069,.F.);
#1069 = EDGE_CURVE('',#1023,#878,#1070,.T.);
#1070 = LINE('',#1071,#1072);
#1071 = CARTESIAN_POINT('',(90.,-102.,8.));
#1072 = VECTOR('',#1073,1.);
#1073 = DIRECTION('',(0.,0.,-1.));
#1074 = ORIENTED_EDGE('',*,*,#1055,.T.);
#1075 = ORIENTED_EDGE('',*,*,#326,.T.);
#1076 = ORIENTED_EDGE('',*,*,#894,.F.);
#1077 = PLANE('',#1078);
#1078 = AXIS2_PLACEMENT_3D('',#1079,#1080,#1081);
#1079 = CARTESIAN_POINT('',(90.,-102.,8.));
#1080 = DIRECTION('',(-0.,1.,0.));
#1081 = DIRECTION('',(0.,0.,-1.));
#1082 = ADVANCED_FACE('',(#1083,#1108),#1142,.T.);
#1083 = FACE_BOUND('',#1084,.T.);
#1084 = EDGE_LOOP('',(#1085,#1095,#1101,#1102));
#1085 = ORIENTED_EDGE('',*,*,#1086,.T.);
#1086 = EDGE_CURVE('',#1087,#1089,#1091,.T.);
#1087 = VERTEX_POINT('',#1088);
#1088 = CARTESIAN_POINT('',(90.,78.,4.));
#1089 = VERTEX_POINT('',#1090);
#1090 = CARTESIAN_POINT('',(90.,102.,4.));
#1091 = LINE('',#1092,#1093);
#1092 = CARTESIAN_POINT('',(90.,78.,4.));
#1093 = VECTOR('',#1094,1.);
#1094 = DIRECTION('',(0.,1.,0.));
#1095 = ORIENTED_EDGE('',*,*,#1096,.T.);
#1096 = EDGE_CURVE('',#1089,#337,#1097,.T.);
#1097 = LINE('',#1098,#1099);
#1098 = CARTESIAN_POINT('',(90.,102.,4.));
#1099 = VECTOR('',#1100,1.);
#1100 = DIRECTION('',(1.,0.,0.));
#1101 = ORIENTED_EDGE('',*,*,#334,.F.);
#1102 = ORIENTED_EDGE('',*,*,#1103,.F.);
#1103 = EDGE_CURVE('',#1087,#335,#1104,.T.);
#1104 = LINE('',#1105,#1106);
#1105 = CARTESIAN_POINT('',(90.,78.,4.));
#1106 = VECTOR('',#1107,1.);
#1107 = DIRECTION('',(1.,0.,0.));
#1108 = FACE_BOUND('',#1109,.T.);
#1109 = EDGE_LOOP('',(#1110,#1120,#1128,#1136));
#1110 = ORIENTED_EDGE('',*,*,#1111,.F.);
#1111 = EDGE_CURVE('',#1112,#1114,#1116,.T.);
#1112 = VERTEX_POINT('',#1113);
#1113 = CARTESIAN_POINT('',(110.7,96.3,4.));
#1114 = VERTEX_POINT('',#1115);
#1115 = CARTESIAN_POINT('',(119.3,96.3,4.));
#1116 = LINE('',#1117,#1118);
#1117 = CARTESIAN_POINT('',(112.85,96.3,4.));
#1118 = VECTOR('',#1119,1.);
#1119 = DIRECTION('',(1.,0.,-0.));
#1120 = ORIENTED_EDGE('',*,*,#1121,.T.);
#1121 = EDGE_CURVE('',#1112,#1122,#1124,.T.);
#1122 = VERTEX_POINT('',#1123);
#1123 = CARTESIAN_POINT('',(110.7,83.7,4.));
#1124 = LINE('',#1125,#1126);
#1125 = CARTESIAN_POINT('',(110.7,86.85,4.));
#1126 = VECTOR('',#1127,1.);
#1127 = DIRECTION('',(0.,-1.,0.));
#1128 = ORIENTED_EDGE('',*,*,#1129,.T.);
#1129 = EDGE_CURVE('',#1122,#1130,#1132,.T.);
#1130 = VERTEX_POINT('',#1131);
#1131 = CARTESIAN_POINT('',(119.3,83.7,4.));
#1132 = LINE('',#1133,#1134);
#1133 = CARTESIAN_POINT('',(112.85,83.7,4.));
#1134 = VECTOR('',#1135,1.);
#1135 = DIRECTION('',(1.,0.,-0.));
#1136 = ORIENTED_EDGE('',*,*,#1137,.F.);
#1137 = EDGE_CURVE('',#1114,#1130,#1138,.T.);
#1138 = LINE('',#1139,#1140);
#1139 = CARTESIAN_POINT('',(119.3,86.85,4.));
#1140 = VECTOR('',#1141,1.);
#1141 = DIRECTION('',(0.,-1.,0.));
#1142 = PLANE('',#1143);
#1143 = AXIS2_PLACEMENT_3D('',#1144,#1145,#1146);
#1144 = CARTESIAN_POINT('',(115.,90.,4.));
#1145 = DIRECTION('',(-0.,-0.,-1.));
#1146 = DIRECTION('',(-1.,0.,0.));
#1147 = ADVANCED_FACE('',(#1148),#1166,.F.);
#1148 = FACE_BOUND('',#1149,.F.);
#1149 = EDGE_LOOP('',(#1150,#1158,#1159,#1160));
#1150 = ORIENTED_EDGE('',*,*,#1151,.F.);
#1151 = EDGE_CURVE('',#1089,#1152,#1154,.T.);
#1152 = VERTEX_POINT('',#1153);
#1153 = CARTESIAN_POINT('',(90.,102.,8.));
#1154 = LINE('',#1155,#1156);
#1155 = CARTESIAN_POINT('',(90.,102.,4.));
#1156 = VECTOR('',#1157,1.);
#1157 = DIRECTION('',(0.,0.,1.));
#1158 = ORIENTED_EDGE('',*,*,#1096,.T.);
#1159 = ORIENTED_EDGE('',*,*,#344,.T.);
#1160 = ORIENTED_EDGE('',*,*,#1161,.F.);
#1161 = EDGE_CURVE('',#1152,#345,#1162,.T.);
#1162 = LINE('',#1163,#1164);
#1163 = CARTESIAN_POINT('',(90.,102.,8.));
#1164 = VECTOR('',#1165,1.);
#1165 = DIRECTION('',(1.,0.,0.));
#1166 = PLANE('',#1167);
#1167 = AXIS2_PLACEMENT_3D('',#1168,#1169,#1170);
#1168 = CARTESIAN_POINT('',(90.,102.,4.));
#1169 = DIRECTION('',(0.,-1.,0.));
#1170 = DIRECTION('',(0.,0.,1.));
#1171 = ADVANCED_FACE('',(#1172),#1222,.F.);
#1172 = FACE_BOUND('',#1173,.F.);
#1173 = EDGE_LOOP('',(#1174,#1182,#1183,#1184,#1192,#1200,#1208,#1216));
#1174 = ORIENTED_EDGE('',*,*,#1175,.F.);
#1175 = EDGE_CURVE('',#1152,#1176,#1178,.T.);
#1176 = VERTEX_POINT('',#1177);
#1177 = CARTESIAN_POINT('',(90.,90.,20.));
#1178 = LINE('',#1179,#1180);
#1179 = CARTESIAN_POINT('',(90.,102.,8.));
#1180 = VECTOR('',#1181,1.);
#1181 = DIRECTION('',(0.,-0.707106781187,0.707106781187));
#1182 = ORIENTED_EDGE('',*,*,#1161,.T.);
#1183 = ORIENTED_EDGE('',*,*,#352,.T.);
#1184 = ORIENTED_EDGE('',*,*,#1185,.F.);
#1185 = EDGE_CURVE('',#1186,#353,#1188,.T.);
#1186 = VERTEX_POINT('',#1187);
#1187 = CARTESIAN_POINT('',(119.3,90.,20.));
#1188 = LINE('',#1189,#1190);
#1189 = CARTESIAN_POINT('',(90.,90.,20.));
#1190 = VECTOR('',#1191,1.);
#1191 = DIRECTION('',(1.,0.,0.));
#1192 = ORIENTED_EDGE('',*,*,#1193,.F.);
#1193 = EDGE_CURVE('',#1194,#1186,#1196,.T.);
#1194 = VERTEX_POINT('',#1195);
#1195 = CARTESIAN_POINT('',(119.3,96.3,13.7));
#1196 = LINE('',#1197,#1198);
#1197 = CARTESIAN_POINT('',(119.3,99.675,10.325));
#1198 = VECTOR('',#1199,1.);
#1199 = DIRECTION('',(0.,-0.707106781187,0.707106781187));
#1200 = ORIENTED_EDGE('',*,*,#1201,.F.);
#1201 = EDGE_CURVE('',#1202,#1194,#1204,.T.);
#1202 = VERTEX_POINT('',#1203);
#1203 = CARTESIAN_POINT('',(110.7,96.3,13.7));
#1204 = LINE('',#1205,#1206);
#1205 = CARTESIAN_POINT('',(100.35,96.3,13.7));
#1206 = VECTOR('',#1207,1.);
#1207 = DIRECTION('',(1.,0.,0.));
#1208 = ORIENTED_EDGE('',*,*,#1209,.T.);
#1209 = EDGE_CURVE('',#1202,#1210,#1212,.T.);
#1210 = VERTEX_POINT('',#1211);
#1211 = CARTESIAN_POINT('',(110.7,90.,20.));
#1212 = LINE('',#1213,#1214);
#1213 = CARTESIAN_POINT('',(110.7,99.675,10.325));
#1214 = VECTOR('',#1215,1.);
#1215 = DIRECTION('',(0.,-0.707106781187,0.707106781187));
#1216 = ORIENTED_EDGE('',*,*,#1217,.F.);
#1217 = EDGE_CURVE('',#1176,#1210,#1218,.T.);
#1218 = LINE('',#1219,#1220);
#1219 = CARTESIAN_POINT('',(90.,90.,20.));
#1220 = VECTOR('',#1221,1.);
#1221 = DIRECTION('',(1.,0.,0.));
#1222 = PLANE('',#1223);
#1223 = AXIS2_PLACEMENT_3D('',#1224,#1225,#1226);
#1224 = CARTESIAN_POINT('',(90.,102.,8.));
#1225 = DIRECTION('',(0.,-0.707106781187,-0.707106781187));
#1226 = DIRECTION('',(0.,-0.707106781187,0.707106781187));
#1227 = ADVANCED_FACE('',(#1228),#1269,.F.);
#1228 = FACE_BOUND('',#1229,.F.);
#1229 = EDGE_LOOP('',(#1230,#1238,#1239,#1247,#1255,#1261,#1262,#1263));
#1230 = ORIENTED_EDGE('',*,*,#1231,.F.);
#1231 = EDGE_CURVE('',#1176,#1232,#1234,.T.);
#1232 = VERTEX_POINT('',#1233);
#1233 = CARTESIAN_POINT('',(90.,78.,8.));
#1234 = LINE('',#1235,#1236);
#1235 = CARTESIAN_POINT('',(90.,90.,20.));
#1236 = VECTOR('',#1237,1.);
#1237 = DIRECTION('',(0.,-0.707106781187,-0.707106781187));
#1238 = ORIENTED_EDGE('',*,*,#1217,.T.);
#1239 = ORIENTED_EDGE('',*,*,#1240,.T.);
#1240 = EDGE_CURVE('',#1210,#1241,#1243,.T.);
#1241 = VERTEX_POINT('',#1242);
#1242 = CARTESIAN_POINT('',(110.7,83.7,13.7));
#1243 = LINE('',#1244,#1245);
#1244 = CARTESIAN_POINT('',(110.7,83.175,13.175));
#1245 = VECTOR('',#1246,1.);
#1246 = DIRECTION('',(0.,-0.707106781187,-0.707106781187));
#1247 = ORIENTED_EDGE('',*,*,#1248,.T.);
#1248 = EDGE_CURVE('',#1241,#1249,#1251,.T.);
#1249 = VERTEX_POINT('',#1250);
#1250 = CARTESIAN_POINT('',(119.3,83.7,13.7));
#1251 = LINE('',#1252,#1253);
#1252 = CARTESIAN_POINT('',(100.35,83.7,13.7));
#1253 = VECTOR('',#1254,1.);
#1254 = DIRECTION('',(1.,0.,0.));
#1255 = ORIENTED_EDGE('',*,*,#1256,.F.);
#1256 = EDGE_CURVE('',#1186,#1249,#1257,.T.);
#1257 = LINE('',#1258,#1259);
#1258 = CARTESIAN_POINT('',(119.3,83.175,13.175));
#1259 = VECTOR('',#1260,1.);
#1260 = DIRECTION('',(0.,-0.707106781187,-0.707106781187));
#1261 = ORIENTED_EDGE('',*,*,#1185,.T.);
#1262 = ORIENTED_EDGE('',*,*,#360,.T.);
#1263 = ORIENTED_EDGE('',*,*,#1264,.F.);
#1264 = EDGE_CURVE('',#1232,#361,#1265,.T.);
#1265 = LINE('',#1266,#1267);
#1266 = CARTESIAN_POINT('',(90.,78.,8.));
#1267 = VECTOR('',#1268,1.);
#1268 = DIRECTION('',(1.,0.,0.));
#1269 = PLANE('',#1270);
#1270 = AXIS2_PLACEMENT_3D('',#1271,#1272,#1273);
#1271 = CARTESIAN_POINT('',(90.,90.,20.));
#1272 = DIRECTION('',(0.,0.707106781187,-0.707106781187));
#1273 = DIRECTION('',(0.,-0.707106781187,-0.707106781187));
#1274 = ADVANCED_FACE('',(#1275),#1286,.F.);
#1275 = FACE_BOUND('',#1276,.F.);
#1276 = EDGE_LOOP('',(#1277,#1283,#1284,#1285));
#1277 = ORIENTED_EDGE('',*,*,#1278,.F.);
#1278 = EDGE_CURVE('',#1232,#1087,#1279,.T.);
#1279 = LINE('',#1280,#1281);
#1280 = CARTESIAN_POINT('',(90.,78.,8.));
#1281 = VECTOR('',#1282,1.);
#1282 = DIRECTION('',(0.,0.,-1.));
#1283 = ORIENTED_EDGE('',*,*,#1264,.T.);
#1284 = ORIENTED_EDGE('',*,*,#368,.T.);
#1285 = ORIENTED_EDGE('',*,*,#1103,.F.);
#1286 = PLANE('',#1287);
#1287 = AXIS2_PLACEMENT_3D('',#1288,#1289,#1290);
#1288 = CARTESIAN_POINT('',(90.,78.,8.));
#1289 = DIRECTION('',(-0.,1.,0.));
#1290 = DIRECTION('',(0.,0.,-1.));
#1291 = ADVANCED_FACE('',(#1292),#1298,.T.);
#1292 = FACE_BOUND('',#1293,.T.);
#1293 = EDGE_LOOP('',(#1294,#1295,#1296,#1297));
#1294 = ORIENTED_EDGE('',*,*,#503,.F.);
#1295 = ORIENTED_EDGE('',*,*,#416,.F.);
#1296 = ORIENTED_EDGE('',*,*,#455,.T.);
#1297 = ORIENTED_EDGE('',*,*,#487,.T.);
#1298 = PLANE('',#1299);
#1299 = AXIS2_PLACEMENT_3D('',#1300,#1301,#1302);
#1300 = CARTESIAN_POINT('',(139.22825094907,-93.41385462525,14.));
#1301 = DIRECTION('',(0.,0.,1.));
#1302 = DIRECTION('',(0.975387035788,-0.220499728835,0.));
#1303 = ADVANCED_FACE('',(#1304),#1310,.T.);
#1304 = FACE_BOUND('',#1305,.T.);
#1305 = EDGE_LOOP('',(#1306,#1307,#1308,#1309));
#1306 = ORIENTED_EDGE('',*,*,#656,.F.);
#1307 = ORIENTED_EDGE('',*,*,#569,.F.);
#1308 = ORIENTED_EDGE('',*,*,#608,.T.);
#1309 = ORIENTED_EDGE('',*,*,#640,.T.);
#1310 = PLANE('',#1311);
#1311 = AXIS2_PLACEMENT_3D('',#1312,#1313,#1314);
#1312 = CARTESIAN_POINT('',(140.77174905092,86.586145374741,14.));
#1313 = DIRECTION('',(0.,0.,1.));
#1314 = DIRECTION('',(0.975387035788,0.220499728835,0.));
#1315 = ADVANCED_FACE('',(#1316),#1322,.T.);
#1316 = FACE_BOUND('',#1317,.T.);
#1317 = EDGE_LOOP('',(#1318,#1319,#1320,#1321));
#1318 = ORIENTED_EDGE('',*,*,#761,.F.);
#1319 = ORIENTED_EDGE('',*,*,#862,.T.);
#1320 = ORIENTED_EDGE('',*,*,#846,.T.);
#1321 = ORIENTED_EDGE('',*,*,#787,.F.);
#1322 = PLANE('',#1323);
#1323 = AXIS2_PLACEMENT_3D('',#1324,#1325,#1326);
#1324 = CARTESIAN_POINT('',(340.,0.,7.));
#1325 = DIRECTION('',(1.,0.,0.));
#1326 = DIRECTION('',(-0.,0.,1.));
#1327 = ADVANCED_FACE('',(#1328),#1335,.F.);
#1328 = FACE_BOUND('',#1329,.F.);
#1329 = EDGE_LOOP('',(#1330,#1331,#1332,#1333,#1334));
#1330 = ORIENTED_EDGE('',*,*,#877,.T.);
#1331 = ORIENTED_EDGE('',*,*,#942,.T.);
#1332 = ORIENTED_EDGE('',*,*,#966,.T.);
#1333 = ORIENTED_EDGE('',*,*,#1022,.T.);
#1334 = ORIENTED_EDGE('',*,*,#1069,.T.);
#1335 = PLANE('',#1336);
#1336 = AXIS2_PLACEMENT_3D('',#1337,#1338,#1339);
#1337 = CARTESIAN_POINT('',(90.,-90.,9.389826944734));
#1338 = DIRECTION('',(1.,0.,0.));
#1339 = DIRECTION('',(-0.,0.,1.));
#1340 = ADVANCED_FACE('',(#1341),#1357,.F.);
#1341 = FACE_BOUND('',#1342,.F.);
#1342 = EDGE_LOOP('',(#1343,#1349,#1350,#1356));
#1343 = ORIENTED_EDGE('',*,*,#1344,.F.);
#1344 = EDGE_CURVE('',#905,#985,#1345,.T.);
#1345 = LINE('',#1346,#1347);
#1346 = CARTESIAN_POINT('',(119.3,-83.7,-1.));
#1347 = VECTOR('',#1348,1.);
#1348 = DIRECTION('',(0.,0.,1.));
#1349 = ORIENTED_EDGE('',*,*,#902,.F.);
#1350 = ORIENTED_EDGE('',*,*,#1351,.T.);
#1351 = EDGE_CURVE('',#903,#993,#1352,.T.);
#1352 = LINE('',#1353,#1354);
#1353 = CARTESIAN_POINT('',(110.7,-83.7,-1.));
#1354 = VECTOR('',#1355,1.);
#1355 = DIRECTION('',(0.,0.,1.));
#1356 = ORIENTED_EDGE('',*,*,#992,.T.);
#1357 = PLANE('',#1358);
#1358 = AXIS2_PLACEMENT_3D('',#1359,#1360,#1361);
#1359 = CARTESIAN_POINT('',(110.7,-83.7,-1.));
#1360 = DIRECTION('',(-0.,1.,0.));
#1361 = DIRECTION('',(0.,0.,1.));
#1362 = ADVANCED_FACE('',(#1363),#1375,.F.);
#1363 = FACE_BOUND('',#1364,.F.);
#1364 = EDGE_LOOP('',(#1365,#1371,#1372,#1373,#1374));
#1365 = ORIENTED_EDGE('',*,*,#1366,.F.);
#1366 = EDGE_CURVE('',#921,#1040,#1367,.T.);
#1367 = LINE('',#1368,#1369);
#1368 = CARTESIAN_POINT('',(119.3,-96.3,-1.));
#1369 = VECTOR('',#1370,1.);
#1370 = DIRECTION('',(0.,0.,1.));
#1371 = ORIENTED_EDGE('',*,*,#928,.F.);
#1372 = ORIENTED_EDGE('',*,*,#1344,.T.);
#1373 = ORIENTED_EDGE('',*,*,#984,.T.);
#1374 = ORIENTED_EDGE('',*,*,#1047,.T.);
#1375 = PLANE('',#1376);
#1376 = AXIS2_PLACEMENT_3D('',#1377,#1378,#1379);
#1377 = CARTESIAN_POINT('',(119.3,-96.3,-1.));
#1378 = DIRECTION('',(1.,0.,-0.));
#1379 = DIRECTION('',(0.,0.,1.));
#1380 = ADVANCED_FACE('',(#1381),#1392,.T.);
#1381 = FACE_BOUND('',#1382,.T.);
#1382 = EDGE_LOOP('',(#1383,#1384,#1385,#1391));
#1383 = ORIENTED_EDGE('',*,*,#1366,.F.);
#1384 = ORIENTED_EDGE('',*,*,#920,.F.);
#1385 = ORIENTED_EDGE('',*,*,#1386,.T.);
#1386 = EDGE_CURVE('',#913,#1032,#1387,.T.);
#1387 = LINE('',#1388,#1389);
#1388 = CARTESIAN_POINT('',(110.7,-96.3,-1.));
#1389 = VECTOR('',#1390,1.);
#1390 = DIRECTION('',(0.,0.,1.));
#1391 = ORIENTED_EDGE('',*,*,#1039,.T.);
#1392 = PLANE('',#1393);
#1393 = AXIS2_PLACEMENT_3D('',#1394,#1395,#1396);
#1394 = CARTESIAN_POINT('',(110.7,-96.3,-1.));
#1395 = DIRECTION('',(-0.,1.,0.));
#1396 = DIRECTION('',(0.,0.,1.));
#1397 = ADVANCED_FACE('',(#1398),#1405,.T.);
#1398 = FACE_BOUND('',#1399,.T.);
#1399 = EDGE_LOOP('',(#1400,#1401,#1402,#1403,#1404));
#1400 = ORIENTED_EDGE('',*,*,#1386,.F.);
#1401 = ORIENTED_EDGE('',*,*,#912,.F.);
#1402 = ORIENTED_EDGE('',*,*,#1351,.T.);
#1403 = ORIENTED_EDGE('',*,*,#1000,.T.);
#1404 = ORIENTED_EDGE('',*,*,#1031,.T.);
#1405 = PLANE('',#1406);
#1406 = AXIS2_PLACEMENT_3D('',#1407,#1408,#1409);
#1407 = CARTESIAN_POINT('',(110.7,-96.3,-1.));
#1408 = DIRECTION('',(1.,0.,-0.));
#1409 = DIRECTION('',(0.,0.,1.));
#1410 = ADVANCED_FACE('',(#1411),#1418,.F.);
#1411 = FACE_BOUND('',#1412,.F.);
#1412 = EDGE_LOOP('',(#1413,#1414,#1415,#1416,#1417));
#1413 = ORIENTED_EDGE('',*,*,#1086,.T.);
#1414 = ORIENTED_EDGE('',*,*,#1151,.T.);
#1415 = ORIENTED_EDGE('',*,*,#1175,.T.);
#1416 = ORIENTED_EDGE('',*,*,#1231,.T.);
#1417 = ORIENTED_EDGE('',*,*,#1278,.T.);
#1418 = PLANE('',#1419);
#1419 = AXIS2_PLACEMENT_3D('',#1420,#1421,#1422);
#1420 = CARTESIAN_POINT('',(90.,90.,9.389826944734));
#1421 = DIRECTION('',(1.,0.,0.));
#1422 = DIRECTION('',(-0.,0.,1.));
#1423 = ADVANCED_FACE('',(#1424),#1440,.F.);
#1424 = FACE_BOUND('',#1425,.F.);
#1425 = EDGE_LOOP('',(#1426,#1432,#1433,#1439));
#1426 = ORIENTED_EDGE('',*,*,#1427,.F.);
#1427 = EDGE_CURVE('',#1114,#1194,#1428,.T.);
#1428 = LINE('',#1429,#1430);
#1429 = CARTESIAN_POINT('',(119.3,96.3,-1.));
#1430 = VECTOR('',#1431,1.);
#1431 = DIRECTION('',(0.,0.,1.));
#1432 = ORIENTED_EDGE('',*,*,#1111,.F.);
#1433 = ORIENTED_EDGE('',*,*,#1434,.T.);
#1434 = EDGE_CURVE('',#1112,#1202,#1435,.T.);
#1435 = LINE('',#1436,#1437);
#1436 = CARTESIAN_POINT('',(110.7,96.3,-1.));
#1437 = VECTOR('',#1438,1.);
#1438 = DIRECTION('',(0.,0.,1.));
#1439 = ORIENTED_EDGE('',*,*,#1201,.T.);
#1440 = PLANE('',#1441);
#1441 = AXIS2_PLACEMENT_3D('',#1442,#1443,#1444);
#1442 = CARTESIAN_POINT('',(110.7,96.3,-1.));
#1443 = DIRECTION('',(-0.,1.,0.));
#1444 = DIRECTION('',(0.,0.,1.));
#1445 = ADVANCED_FACE('',(#1446),#1458,.F.);
#1446 = FACE_BOUND('',#1447,.F.);
#1447 = EDGE_LOOP('',(#1448,#1454,#1455,#1456,#1457));
#1448 = ORIENTED_EDGE('',*,*,#1449,.F.);
#1449 = EDGE_CURVE('',#1130,#1249,#1450,.T.);
#1450 = LINE('',#1451,#1452);
#1451 = CARTESIAN_POINT('',(119.3,83.7,-1.));
#1452 = VECTOR('',#1453,1.);
#1453 = DIRECTION('',(0.,0.,1.));
#1454 = ORIENTED_EDGE('',*,*,#1137,.F.);
#1455 = ORIENTED_EDGE('',*,*,#1427,.T.);
#1456 = ORIENTED_EDGE('',*,*,#1193,.T.);
#1457 = ORIENTED_EDGE('',*,*,#1256,.T.);
#1458 = PLANE('',#1459);
#1459 = AXIS2_PLACEMENT_3D('',#1460,#1461,#1462);
#1460 = CARTESIAN_POINT('',(119.3,83.7,-1.));
#1461 = DIRECTION('',(1.,0.,-0.));
#1462 = DIRECTION('',(0.,0.,1.));
#1463 = ADVANCED_FACE('',(#1464),#1475,.T.);
#1464 = FACE_BOUND('',#1465,.T.);
#1465 = EDGE_LOOP('',(#1466,#1467,#1468,#1474));
#1466 = ORIENTED_EDGE('',*,*,#1449,.F.);
#1467 = ORIENTED_EDGE('',*,*,#1129,.F.);
#1468 = ORIENTED_EDGE('',*,*,#1469,.T.);
#1469 = EDGE_CURVE('',#1122,#1241,#1470,.T.);
#1470 = LINE('',#1471,#1472);
#1471 = CARTESIAN_POINT('',(110.7,83.7,-1.));
#1472 = VECTOR('',#1473,1.);
#1473 = DIRECTION('',(0.,0.,1.));
#1474 = ORIENTED_EDGE('',*,*,#1248,.T.);
#1475 = PLANE('',#1476);
#1476 = AXIS2_PLACEMENT_3D('',#1477,#1478,#1479);
#1477 = CARTESIAN_POINT('',(110.7,83.7,-1.));
#1478 = DIRECTION('',(-0.,1.,0.));
#1479 = DIRECTION('',(0.,0.,1.));
#1480 = ADVANCED_FACE('',(#1481),#1488,.T.);
#1481 = FACE_BOUND('',#1482,.T.);
#1482 = EDGE_LOOP('',(#1483,#1484,#1485,#1486,#1487));
#1483 = ORIENTED_EDGE('',*,*,#1469,.F.);
#1484 = ORIENTED_EDGE('',*,*,#1121,.F.);
#1485 = ORIENTED_EDGE('',*,*,#1434,.T.);
#1486 = ORIENTED_EDGE('',*,*,#1209,.T.);
#1487 = ORIENTED_EDGE('',*,*,#1240,.T.);
#1488 = PLANE('',#1489);
#1489 = AXIS2_PLACEMENT_3D('',#1490,#1491,#1492);
#1490 = CARTESIAN_POINT('',(110.7,83.7,-1.));
#1491 = DIRECTION('',(1.,0.,-0.));
#1492 = DIRECTION('',(0.,0.,1.));
#1493 = ( GEOMETRIC_REPRESENTATION_CONTEXT(3) 
GLOBAL_UNCERTAINTY_ASSIGNED_CONTEXT((#1497)) 
GLOBAL_UNIT_ASSIGNED_CONTEXT((#1494,#1495,#1496)) REPRESENTATION_CONTEXT
('Context #1','3D Context with UNIT and UNCERTAINTY') );
#1494 = ( LENGTH_UNIT() NAMED_UNIT(*) SI_UNIT(.MILLI.,.METRE.) );
#1495 = ( NAMED_UNIT(*) PLANE_ANGLE_UNIT() SI_UNIT($,.RADIAN.) );
#1496 = ( NAMED_UNIT(*) SI_UNIT($,.STERADIAN.) SOLID_ANGLE_UNIT() );
#1497 = UNCERTAINTY_MEASURE_WITH_UNIT(LENGTH_MEASURE(1.E-07),#1494,
  'distance_accuracy_value','confusion accuracy');
#1498 = PRODUCT_RELATED_PRODUCT_CATEGORY('part',$,(#7));
ENDSEC;
END-ISO-10303-21;
