ISO-10303-21;
HEADER;
FILE_DESCRIPTION(('FreeCAD Model'),'2;1');
FILE_NAME('Open CASCADE Shape Model','2026-09-20T11:40:32',('FreeCAD'),(
    'FreeCAD'),'Open CASCADE STEP processor 7.8','FreeCAD','Unknown');
FILE_SCHEMA(('AUTOMOTIVE_DESIGN { 1 0 10303 214 1 1 1 1 }'));
ENDSEC;
DATA;
#1 = APPLICATION_PROTOCOL_DEFINITION('international standard',
  'automotive_design',2000,#2);
#2 = APPLICATION_CONTEXT(
  'core data for automotive mechanical design processes');
#3 = SHAPE_DEFINITION_REPRESENTATION(#4,#10);
#4 = PRODUCT_DEFINITION_SHAPE('','',#5);
#5 = PRODUCT_DEFINITION('design','',#6,#9);
#6 = PRODUCT_DEFINITION_FORMATION('','',#7);
#7 = PRODUCT('Open CASCADE STEP translator 7.8 2',
  'Open CASCADE STEP translator 7.8 2','',(#8));
#8 = PRODUCT_CONTEXT('',#2,'mechanical');
#9 = PRODUCT_DEFINITION_CONTEXT('part definition',#2,'design');
#10 = ADVANCED_BREP_SHAPE_REPRESENTATION('',(#11,#15),#334);
#11 = AXIS2_PLACEMENT_3D('',#12,#13,#14);
#12 = CARTESIAN_POINT('',(0.,0.,0.));
#13 = DIRECTION('',(0.,0.,1.));
#14 = DIRECTION('',(1.,0.,-0.));
#15 = MANIFOLD_SOLID_BREP('',#16);
#16 = CLOSED_SHELL('',(#17,#57,#88,#154,#178,#237,#249,#271,#288,#305,
    #322));
#17 = ADVANCED_FACE('',(#18),#52,.F.);
#18 = FACE_BOUND('',#19,.F.);
#19 = EDGE_LOOP('',(#20,#30,#38,#46));
#20 = ORIENTED_EDGE('',*,*,#21,.F.);
#21 = EDGE_CURVE('',#22,#24,#26,.T.);
#22 = VERTEX_POINT('',#23);
#23 = CARTESIAN_POINT('',(-17.3,-5.3,0.));
#24 = VERTEX_POINT('',#25);
#25 = CARTESIAN_POINT('',(-17.3,-5.3,20.));
#26 = LINE('',#27,#28);
#27 = CARTESIAN_POINT('',(-17.3,-5.3,0.));
#28 = VECTOR('',#29,1.);
#29 = DIRECTION('',(0.,0.,1.));
#30 = ORIENTED_EDGE('',*,*,#31,.T.);
#31 = EDGE_CURVE('',#22,#32,#34,.T.);
#32 = VERTEX_POINT('',#33);
#33 = CARTESIAN_POINT('',(-17.3,21.3,0.));
#34 = LINE('',#35,#36);
#35 = CARTESIAN_POINT('',(-17.3,-5.3,0.));
#36 = VECTOR('',#37,1.);
#37 = DIRECTION('',(-0.,1.,0.));
#38 = ORIENTED_EDGE('',*,*,#39,.T.);
#39 = EDGE_CURVE('',#32,#40,#42,.T.);
#40 = VERTEX_POINT('',#41);
#41 = CARTESIAN_POINT('',(-17.3,21.3,20.));
#42 = LINE('',#43,#44);
#43 = CARTESIAN_POINT('',(-17.3,21.3,0.));
#44 = VECTOR('',#45,1.);
#45 = DIRECTION('',(0.,0.,1.));
#46 = ORIENTED_EDGE('',*,*,#47,.F.);
#47 = EDGE_CURVE('',#24,#40,#48,.T.);
#48 = LINE('',#49,#50);
#49 = CARTESIAN_POINT('',(-17.3,-5.3,20.));
#50 = VECTOR('',#51,1.);
#51 = DIRECTION('',(-0.,1.,0.));
#52 = PLANE('',#53);
#53 = AXIS2_PLACEMENT_3D('',#54,#55,#56);
#54 = CARTESIAN_POINT('',(-17.3,-5.3,0.));
#55 = DIRECTION('',(1.,0.,-0.));
#56 = DIRECTION('',(0.,0.,1.));
#57 = ADVANCED_FACE('',(#58),#83,.F.);
#58 = FACE_BOUND('',#59,.F.);
#59 = EDGE_LOOP('',(#60,#68,#69,#77));
#60 = ORIENTED_EDGE('',*,*,#61,.F.);
#61 = EDGE_CURVE('',#22,#62,#64,.T.);
#62 = VERTEX_POINT('',#63);
#63 = CARTESIAN_POINT('',(17.3,-5.3,0.));
#64 = LINE('',#65,#66);
#65 = CARTESIAN_POINT('',(-17.3,-5.3,0.));
#66 = VECTOR('',#67,1.);
#67 = DIRECTION('',(1.,0.,-0.));
#68 = ORIENTED_EDGE('',*,*,#21,.T.);
#69 = ORIENTED_EDGE('',*,*,#70,.T.);
#70 = EDGE_CURVE('',#24,#71,#73,.T.);
#71 = VERTEX_POINT('',#72);
#72 = CARTESIAN_POINT('',(17.3,-5.3,20.));
#73 = LINE('',#74,#75);
#74 = CARTESIAN_POINT('',(-17.3,-5.3,20.));
#75 = VECTOR('',#76,1.);
#76 = DIRECTION('',(1.,0.,-0.));
#77 = ORIENTED_EDGE('',*,*,#78,.F.);
#78 = EDGE_CURVE('',#62,#71,#79,.T.);
#79 = LINE('',#80,#81);
#80 = CARTESIAN_POINT('',(17.3,-5.3,0.));
#81 = VECTOR('',#82,1.);
#82 = DIRECTION('',(0.,0.,1.));
#83 = PLANE('',#84);
#84 = AXIS2_PLACEMENT_3D('',#85,#86,#87);
#85 = CARTESIAN_POINT('',(-17.3,-5.3,0.));
#86 = DIRECTION('',(-0.,1.,0.));
#87 = DIRECTION('',(0.,0.,1.));
#88 = ADVANCED_FACE('',(#89,#107),#149,.T.);
#89 = FACE_BOUND('',#90,.T.);
#90 = EDGE_LOOP('',(#91,#92,#93,#101));
#91 = ORIENTED_EDGE('',*,*,#47,.F.);
#92 = ORIENTED_EDGE('',*,*,#70,.T.);
#93 = ORIENTED_EDGE('',*,*,#94,.T.);
#94 = EDGE_CURVE('',#71,#95,#97,.T.);
#95 = VERTEX_POINT('',#96);
#96 = CARTESIAN_POINT('',(17.3,21.3,20.));
#97 = LINE('',#98,#99);
#98 = CARTESIAN_POINT('',(17.3,-5.3,20.));
#99 = VECTOR('',#100,1.);
#100 = DIRECTION('',(-0.,1.,0.));
#101 = ORIENTED_EDGE('',*,*,#102,.F.);
#102 = EDGE_CURVE('',#40,#95,#103,.T.);
#103 = LINE('',#104,#105);
#104 = CARTESIAN_POINT('',(-17.3,21.3,20.));
#105 = VECTOR('',#106,1.);
#106 = DIRECTION('',(1.,0.,-0.));
#107 = FACE_BOUND('',#108,.T.);
#108 = EDGE_LOOP('',(#109,#119,#127,#135,#143));
#109 = ORIENTED_EDGE('',*,*,#110,.T.);
#110 = EDGE_CURVE('',#111,#113,#115,.T.);
#111 = VERTEX_POINT('',#112);
#112 = CARTESIAN_POINT('',(12.3,4.3,20.));
#113 = VERTEX_POINT('',#114);
#114 = CARTESIAN_POINT('',(12.3,-0.3,20.));
#115 = LINE('',#116,#117);
#116 = CARTESIAN_POINT('',(12.3,-2.8,20.));
#117 = VECTOR('',#118,1.);
#118 = DIRECTION('',(0.,-1.,0.));
#119 = ORIENTED_EDGE('',*,*,#120,.T.);
#120 = EDGE_CURVE('',#113,#121,#123,.T.);
#121 = VERTEX_POINT('',#122);
#122 = CARTESIAN_POINT('',(-12.3,-0.3,20.));
#123 = LINE('',#124,#125);
#124 = CARTESIAN_POINT('',(-14.8,-0.3,20.));
#125 = VECTOR('',#126,1.);
#126 = DIRECTION('',(-1.,0.,0.));
#127 = ORIENTED_EDGE('',*,*,#128,.T.);
#128 = EDGE_CURVE('',#121,#129,#131,.T.);
#129 = VERTEX_POINT('',#130);
#130 = CARTESIAN_POINT('',(-12.3,4.3,20.));
#131 = LINE('',#132,#133);
#132 = CARTESIAN_POINT('',(-12.3,-0.5,20.));
#133 = VECTOR('',#134,1.);
#134 = DIRECTION('',(-0.,1.,0.));
#135 = ORIENTED_EDGE('',*,*,#136,.T.);
#136 = EDGE_CURVE('',#129,#137,#139,.T.);
#137 = VERTEX_POINT('',#138);
#138 = CARTESIAN_POINT('',(0.,16.3,20.));
#139 = LINE('',#140,#141);
#140 = CARTESIAN_POINT('',(-9.830128009753,6.709631209997,20.));
#141 = VECTOR('',#142,1.);
#142 = DIRECTION('',(0.715781948377,0.698323852075,-0.));
#143 = ORIENTED_EDGE('',*,*,#144,.T.);
#144 = EDGE_CURVE('',#137,#111,#145,.T.);
#145 = LINE('',#146,#147);
#146 = CARTESIAN_POINT('',(7.116580310881,9.356994818653,20.));
#147 = VECTOR('',#148,1.);
#148 = DIRECTION('',(0.715781948377,-0.698323852075,0.));
#149 = PLANE('',#150);
#150 = AXIS2_PLACEMENT_3D('',#151,#152,#153);
#151 = CARTESIAN_POINT('',(-17.3,-5.3,20.));
#152 = DIRECTION('',(0.,0.,1.));
#153 = DIRECTION('',(1.,0.,-0.));
#154 = ADVANCED_FACE('',(#155),#173,.T.);
#155 = FACE_BOUND('',#156,.T.);
#156 = EDGE_LOOP('',(#157,#165,#166,#167));
#157 = ORIENTED_EDGE('',*,*,#158,.F.);
#158 = EDGE_CURVE('',#32,#159,#161,.T.);
#159 = VERTEX_POINT('',#160);
#160 = CARTESIAN_POINT('',(17.3,21.3,0.));
#161 = LINE('',#162,#163);
#162 = CARTESIAN_POINT('',(-17.3,21.3,0.));
#163 = VECTOR('',#164,1.);
#164 = DIRECTION('',(1.,0.,-0.));
#165 = ORIENTED_EDGE('',*,*,#39,.T.);
#166 = ORIENTED_EDGE('',*,*,#102,.T.);
#167 = ORIENTED_EDGE('',*,*,#168,.F.);
#168 = EDGE_CURVE('',#159,#95,#169,.T.);
#169 = LINE('',#170,#171);
#170 = CARTESIAN_POINT('',(17.3,21.3,0.));
#171 = VECTOR('',#172,1.);
#172 = DIRECTION('',(0.,0.,1.));
#173 = PLANE('',#174);
#174 = AXIS2_PLACEMENT_3D('',#175,#176,#177);
#175 = CARTESIAN_POINT('',(-17.3,21.3,0.));
#176 = DIRECTION('',(-0.,1.,0.));
#177 = DIRECTION('',(0.,0.,1.));
#178 = ADVANCED_FACE('',(#179,#190),#232,.F.);
#179 = FACE_BOUND('',#180,.F.);
#180 = EDGE_LOOP('',(#181,#182,#183,#189));
#181 = ORIENTED_EDGE('',*,*,#31,.F.);
#182 = ORIENTED_EDGE('',*,*,#61,.T.);
#183 = ORIENTED_EDGE('',*,*,#184,.T.);
#184 = EDGE_CURVE('',#62,#159,#185,.T.);
#185 = LINE('',#186,#187);
#186 = CARTESIAN_POINT('',(17.3,-5.3,0.));
#187 = VECTOR('',#188,1.);
#188 = DIRECTION('',(-0.,1.,0.));
#189 = ORIENTED_EDGE('',*,*,#158,.F.);
#190 = FACE_BOUND('',#191,.F.);
#191 = EDGE_LOOP('',(#192,#202,#210,#218,#226));
#192 = ORIENTED_EDGE('',*,*,#193,.T.);
#193 = EDGE_CURVE('',#194,#196,#198,.T.);
#194 = VERTEX_POINT('',#195);
#195 = CARTESIAN_POINT('',(12.3,4.3,0.));
#196 = VERTEX_POINT('',#197);
#197 = CARTESIAN_POINT('',(12.3,-0.3,0.));
#198 = LINE('',#199,#200);
#199 = CARTESIAN_POINT('',(12.3,-2.8,0.));
#200 = VECTOR('',#201,1.);
#201 = DIRECTION('',(0.,-1.,0.));
#202 = ORIENTED_EDGE('',*,*,#203,.T.);
#203 = EDGE_CURVE('',#196,#204,#206,.T.);
#204 = VERTEX_POINT('',#205);
#205 = CARTESIAN_POINT('',(-12.3,-0.3,0.));
#206 = LINE('',#207,#208);
#207 = CARTESIAN_POINT('',(-14.8,-0.3,0.));
#208 = VECTOR('',#209,1.);
#209 = DIRECTION('',(-1.,0.,0.));
#210 = ORIENTED_EDGE('',*,*,#211,.T.);
#211 = EDGE_CURVE('',#204,#212,#214,.T.);
#212 = VERTEX_POINT('',#213);
#213 = CARTESIAN_POINT('',(-12.3,4.3,0.));
#214 = LINE('',#215,#216);
#215 = CARTESIAN_POINT('',(-12.3,-0.5,0.));
#216 = VECTOR('',#217,1.);
#217 = DIRECTION('',(-0.,1.,0.));
#218 = ORIENTED_EDGE('',*,*,#219,.T.);
#219 = EDGE_CURVE('',#212,#220,#222,.T.);
#220 = VERTEX_POINT('',#221);
#221 = CARTESIAN_POINT('',(0.,16.3,0.));
#222 = LINE('',#223,#224);
#223 = CARTESIAN_POINT('',(-9.830128009753,6.709631209997,0.));
#224 = VECTOR('',#225,1.);
#225 = DIRECTION('',(0.715781948377,0.698323852075,-0.));
#226 = ORIENTED_EDGE('',*,*,#227,.T.);
#227 = EDGE_CURVE('',#220,#194,#228,.T.);
#228 = LINE('',#229,#230);
#229 = CARTESIAN_POINT('',(7.116580310881,9.356994818653,0.));
#230 = VECTOR('',#231,1.);
#231 = DIRECTION('',(0.715781948377,-0.698323852075,0.));
#232 = PLANE('',#233);
#233 = AXIS2_PLACEMENT_3D('',#234,#235,#236);
#234 = CARTESIAN_POINT('',(-17.3,-5.3,0.));
#235 = DIRECTION('',(0.,0.,1.));
#236 = DIRECTION('',(1.,0.,-0.));
#237 = ADVANCED_FACE('',(#238),#244,.T.);
#238 = FACE_BOUND('',#239,.T.);
#239 = EDGE_LOOP('',(#240,#241,#242,#243));
#240 = ORIENTED_EDGE('',*,*,#78,.F.);
#241 = ORIENTED_EDGE('',*,*,#184,.T.);
#242 = ORIENTED_EDGE('',*,*,#168,.T.);
#243 = ORIENTED_EDGE('',*,*,#94,.F.);
#244 = PLANE('',#245);
#245 = AXIS2_PLACEMENT_3D('',#246,#247,#248);
#246 = CARTESIAN_POINT('',(17.3,-5.3,0.));
#247 = DIRECTION('',(1.,0.,-0.));
#248 = DIRECTION('',(0.,0.,1.));
#249 = ADVANCED_FACE('',(#250),#266,.T.);
#250 = FACE_BOUND('',#251,.T.);
#251 = EDGE_LOOP('',(#252,#253,#259,#260));
#252 = ORIENTED_EDGE('',*,*,#193,.T.);
#253 = ORIENTED_EDGE('',*,*,#254,.T.);
#254 = EDGE_CURVE('',#196,#113,#255,.T.);
#255 = LINE('',#256,#257);
#256 = CARTESIAN_POINT('',(12.3,-0.3,-1.));
#257 = VECTOR('',#258,1.);
#258 = DIRECTION('',(0.,0.,1.));
#259 = ORIENTED_EDGE('',*,*,#110,.F.);
#260 = ORIENTED_EDGE('',*,*,#261,.F.);
#261 = EDGE_CURVE('',#194,#111,#262,.T.);
#262 = LINE('',#263,#264);
#263 = CARTESIAN_POINT('',(12.3,4.3,-1.));
#264 = VECTOR('',#265,1.);
#265 = DIRECTION('',(0.,0.,1.));
#266 = PLANE('',#267);
#267 = AXIS2_PLACEMENT_3D('',#268,#269,#270);
#268 = CARTESIAN_POINT('',(12.3,-0.3,-1.));
#269 = DIRECTION('',(-1.,0.,0.));
#270 = DIRECTION('',(0.,1.,0.));
#271 = ADVANCED_FACE('',(#272),#283,.T.);
#272 = FACE_BOUND('',#273,.T.);
#273 = EDGE_LOOP('',(#274,#275,#276,#277));
#274 = ORIENTED_EDGE('',*,*,#227,.T.);
#275 = ORIENTED_EDGE('',*,*,#261,.T.);
#276 = ORIENTED_EDGE('',*,*,#144,.F.);
#277 = ORIENTED_EDGE('',*,*,#278,.F.);
#278 = EDGE_CURVE('',#220,#137,#279,.T.);
#279 = LINE('',#280,#281);
#280 = CARTESIAN_POINT('',(0.,16.3,-1.));
#281 = VECTOR('',#282,1.);
#282 = DIRECTION('',(0.,0.,1.));
#283 = PLANE('',#284);
#284 = AXIS2_PLACEMENT_3D('',#285,#286,#287);
#285 = CARTESIAN_POINT('',(12.3,4.3,-1.));
#286 = DIRECTION('',(-0.698323852075,-0.715781948377,0.));
#287 = DIRECTION('',(-0.715781948377,0.698323852075,0.));
#288 = ADVANCED_FACE('',(#289),#300,.T.);
#289 = FACE_BOUND('',#290,.T.);
#290 = EDGE_LOOP('',(#291,#292,#293,#294));
#291 = ORIENTED_EDGE('',*,*,#219,.T.);
#292 = ORIENTED_EDGE('',*,*,#278,.T.);
#293 = ORIENTED_EDGE('',*,*,#136,.F.);
#294 = ORIENTED_EDGE('',*,*,#295,.F.);
#295 = EDGE_CURVE('',#212,#129,#296,.T.);
#296 = LINE('',#297,#298);
#297 = CARTESIAN_POINT('',(-12.3,4.3,-1.));
#298 = VECTOR('',#299,1.);
#299 = DIRECTION('',(0.,0.,1.));
#300 = PLANE('',#301);
#301 = AXIS2_PLACEMENT_3D('',#302,#303,#304);
#302 = CARTESIAN_POINT('',(0.,16.3,-1.));
#303 = DIRECTION('',(0.698323852075,-0.715781948377,0.));
#304 = DIRECTION('',(-0.715781948377,-0.698323852075,0.));
#305 = ADVANCED_FACE('',(#306),#317,.T.);
#306 = FACE_BOUND('',#307,.T.);
#307 = EDGE_LOOP('',(#308,#309,#310,#311));
#308 = ORIENTED_EDGE('',*,*,#211,.T.);
#309 = ORIENTED_EDGE('',*,*,#295,.T.);
#310 = ORIENTED_EDGE('',*,*,#128,.F.);
#311 = ORIENTED_EDGE('',*,*,#312,.F.);
#312 = EDGE_CURVE('',#204,#121,#313,.T.);
#313 = LINE('',#314,#315);
#314 = CARTESIAN_POINT('',(-12.3,-0.3,-1.));
#315 = VECTOR('',#316,1.);
#316 = DIRECTION('',(0.,0.,1.));
#317 = PLANE('',#318);
#318 = AXIS2_PLACEMENT_3D('',#319,#320,#321);
#319 = CARTESIAN_POINT('',(-12.3,4.3,-1.));
#320 = DIRECTION('',(1.,0.,-0.));
#321 = DIRECTION('',(0.,-1.,0.));
#322 = ADVANCED_FACE('',(#323),#329,.T.);
#323 = FACE_BOUND('',#324,.T.);
#324 = EDGE_LOOP('',(#325,#326,#327,#328));
#325 = ORIENTED_EDGE('',*,*,#203,.T.);
#326 = ORIENTED_EDGE('',*,*,#312,.T.);
#327 = ORIENTED_EDGE('',*,*,#120,.F.);
#328 = ORIENTED_EDGE('',*,*,#254,.F.);
#329 = PLANE('',#330);
#330 = AXIS2_PLACEMENT_3D('',#331,#332,#333);
#331 = CARTESIAN_POINT('',(-12.3,-0.3,-1.));
#332 = DIRECTION('',(0.,1.,0.));
#333 = DIRECTION('',(1.,0.,0.));
#334 = ( GEOMETRIC_REPRESENTATION_CONTEXT(3) 
GLOBAL_UNCERTAINTY_ASSIGNED_CONTEXT((#338)) GLOBAL_UNIT_ASSIGNED_CONTEXT
((#335,#336,#337)) REPRESENTATION_CONTEXT('Context #1',
  '3D Context with UNIT and UNCERTAINTY') );
#335 = ( LENGTH_UNIT() NAMED_UNIT(*) SI_UNIT(.MILLI.,.METRE.) );
#336 = ( NAMED_UNIT(*) PLANE_ANGLE_UNIT() SI_UNIT($,.RADIAN.) );
#337 = ( NAMED_UNIT(*) SI_UNIT($,.STERADIAN.) SOLID_ANGLE_UNIT() );
#338 = UNCERTAINTY_MEASURE_WITH_UNIT(LENGTH_MEASURE(1.E-07),#335,
  'distance_accuracy_value','confusion accuracy');
#339 = PRODUCT_RELATED_PRODUCT_CATEGORY('part',$,(#7));
ENDSEC;
END-ISO-10303-21;
