ISO-10303-21;
HEADER;
FILE_DESCRIPTION(('FreeCAD Model'),'2;1');
FILE_NAME('Open CASCADE Shape Model','2026-09-20T08:25:01',('FreeCAD'),(
    'FreeCAD'),'Open CASCADE STEP processor 7.8','FreeCAD','Unknown');
FILE_SCHEMA(('AUTOMOTIVE_DESIGN { 1 0 10303 214 1 1 1 1 }'));
ENDSEC;
DATA;
#1 = APPLICATION_PROTOCOL_DEFINITION('international standard',
  'automotive_design',2000,#2);
#2 = APPLICATION_CONTEXT(
  'core data for automotive mechanical design processes');
#3 = SHAPE_DEFINITION_REPRESENTATION(#4,#10);
#4 = PRODUCT_DEFINITION_SHAPE('','',#5);
#5 = PRODUCT_DEFINITION('design','',#6,#9);
#6 = PRODUCT_DEFINITION_FORMATION('','',#7);
#7 = PRODUCT('Open CASCADE STEP translator 7.8 4',
  'Open CASCADE STEP translator 7.8 4','',(#8));
#8 = PRODUCT_CONTEXT('',#2,'mechanical');
#9 = PRODUCT_DEFINITION_CONTEXT('part definition',#2,'design');
#10 = ADVANCED_BREP_SHAPE_REPRESENTATION('',(#11,#15),#1973);
#11 = AXIS2_PLACEMENT_3D('',#12,#13,#14);
#12 = CARTESIAN_POINT('',(0.,0.,0.));
#13 = DIRECTION('',(0.,0.,1.));
#14 = DIRECTION('',(1.,0.,-0.));
#15 = MANIFOLD_SOLID_BREP('',#16);
#16 = CLOSED_SHELL('',(#17,#154,#174,#239,#270,#358,#382,#470,#494,#558,
    #589,#677,#701,#789,#813,#838,#912,#959,#983,#1008,#1032,#1079,#1146
    ,#1187,#1212,#1244,#1267,#1284,#1301,#1318,#1331,#1358,#1390,#1414,
    #1438,#1462,#1480,#1505,#1529,#1554,#1571,#1638,#1672,#1697,#1729,
    #1752,#1769,#1786,#1803,#1816,#1843,#1866,#1883,#1900,#1917,#1930,
    #1949,#1961));
#17 = ADVANCED_FACE('',(#18),#149,.T.);
#18 = FACE_BOUND('',#19,.T.);
#19 = EDGE_LOOP('',(#20,#29,#37,#46,#55,#63,#72,#80,#89,#98,#107,#115,
    #124,#132,#141,#148));
#20 = ORIENTED_EDGE('',*,*,#21,.T.);
#21 = EDGE_CURVE('',#22,#22,#24,.T.);
#22 = VERTEX_POINT('',#23);
#23 = CARTESIAN_POINT('',(75.,-64.,0.));
#24 = CIRCLE('',#25,75.);
#25 = AXIS2_PLACEMENT_3D('',#26,#27,#28);
#26 = CARTESIAN_POINT('',(0.,-64.,0.));
#27 = DIRECTION('',(0.,0.,1.));
#28 = DIRECTION('',(1.,0.,0.));
#29 = ORIENTED_EDGE('',*,*,#30,.T.);
#30 = EDGE_CURVE('',#22,#31,#33,.T.);
#31 = VERTEX_POINT('',#32);
#32 = CARTESIAN_POINT('',(75.,-64.,8.));
#33 = LINE('',#34,#35);
#34 = CARTESIAN_POINT('',(75.,-64.,0.));
#35 = VECTOR('',#36,1.);
#36 = DIRECTION('',(0.,0.,1.));
#37 = ORIENTED_EDGE('',*,*,#38,.F.);
#38 = EDGE_CURVE('',#39,#31,#41,.T.);
#39 = VERTEX_POINT('',#40);
#40 = CARTESIAN_POINT('',(-73.65176148596,-49.84309249817,8.));
#41 = CIRCLE('',#42,75.);
#42 = AXIS2_PLACEMENT_3D('',#43,#44,#45);
#43 = CARTESIAN_POINT('',(0.,-64.,8.));
#44 = DIRECTION('',(0.,0.,1.));
#45 = DIRECTION('',(1.,0.,0.));
#46 = ORIENTED_EDGE('',*,*,#47,.F.);
#47 = EDGE_CURVE('',#48,#39,#50,.T.);
#48 = VERTEX_POINT('',#49);
#49 = CARTESIAN_POINT('',(-71.17574856959,-40.3565481463,8.));
#50 = CIRCLE('',#51,75.);
#51 = AXIS2_PLACEMENT_3D('',#52,#53,#54);
#52 = CARTESIAN_POINT('',(0.,-64.,8.));
#53 = DIRECTION('',(0.,0.,1.));
#54 = DIRECTION('',(1.,0.,0.));
#55 = ORIENTED_EDGE('',*,*,#56,.F.);
#56 = EDGE_CURVE('',#57,#48,#59,.T.);
#57 = VERTEX_POINT('',#58);
#58 = CARTESIAN_POINT('',(-71.17574856959,-40.3565481463,7.6));
#59 = LINE('',#60,#61);
#60 = CARTESIAN_POINT('',(-71.17574856959,-40.3565481463,0.));
#61 = VECTOR('',#62,1.);
#62 = DIRECTION('',(0.,0.,1.));
#63 = ORIENTED_EDGE('',*,*,#64,.F.);
#64 = EDGE_CURVE('',#65,#57,#67,.T.);
#65 = VERTEX_POINT('',#66);
#66 = CARTESIAN_POINT('',(-61.94478098113,-21.7170943619,7.6));
#67 = CIRCLE('',#68,75.);
#68 = AXIS2_PLACEMENT_3D('',#69,#70,#71);
#69 = CARTESIAN_POINT('',(0.,-64.,7.6));
#70 = DIRECTION('',(0.,0.,1.));
#71 = DIRECTION('',(1.,0.,-0.));
#72 = ORIENTED_EDGE('',*,*,#73,.T.);
#73 = EDGE_CURVE('',#65,#74,#76,.T.);
#74 = VERTEX_POINT('',#75);
#75 = CARTESIAN_POINT('',(-61.94478098113,-21.7170943619,8.));
#76 = LINE('',#77,#78);
#77 = CARTESIAN_POINT('',(-61.94478098113,-21.7170943619,0.));
#78 = VECTOR('',#79,1.);
#79 = DIRECTION('',(0.,0.,1.));
#80 = ORIENTED_EDGE('',*,*,#81,.F.);
#81 = EDGE_CURVE('',#82,#74,#84,.T.);
#82 = VERTEX_POINT('',#83);
#83 = CARTESIAN_POINT('',(-55.89990073891,-13.99798906664,8.));
#84 = CIRCLE('',#85,75.);
#85 = AXIS2_PLACEMENT_3D('',#86,#87,#88);
#86 = CARTESIAN_POINT('',(0.,-64.,8.));
#87 = DIRECTION('',(0.,0.,1.));
#88 = DIRECTION('',(1.,0.,0.));
#89 = ORIENTED_EDGE('',*,*,#90,.F.);
#90 = EDGE_CURVE('',#91,#82,#93,.T.);
#91 = VERTEX_POINT('',#92);
#92 = CARTESIAN_POINT('',(55.899900738913,-13.99798906664,8.));
#93 = CIRCLE('',#94,75.);
#94 = AXIS2_PLACEMENT_3D('',#95,#96,#97);
#95 = CARTESIAN_POINT('',(0.,-64.,8.));
#96 = DIRECTION('',(0.,0.,1.));
#97 = DIRECTION('',(1.,0.,0.));
#98 = ORIENTED_EDGE('',*,*,#99,.F.);
#99 = EDGE_CURVE('',#100,#91,#102,.T.);
#100 = VERTEX_POINT('',#101);
#101 = CARTESIAN_POINT('',(61.94478098113,-21.7170943619,8.));
#102 = CIRCLE('',#103,75.);
#103 = AXIS2_PLACEMENT_3D('',#104,#105,#106);
#104 = CARTESIAN_POINT('',(0.,-64.,8.));
#105 = DIRECTION('',(0.,0.,1.));
#106 = DIRECTION('',(1.,0.,0.));
#107 = ORIENTED_EDGE('',*,*,#108,.F.);
#108 = EDGE_CURVE('',#109,#100,#111,.T.);
#109 = VERTEX_POINT('',#110);
#110 = CARTESIAN_POINT('',(61.94478098113,-21.7170943619,7.6));
#111 = LINE('',#112,#113);
#112 = CARTESIAN_POINT('',(61.94478098113,-21.7170943619,0.));
#113 = VECTOR('',#114,1.);
#114 = DIRECTION('',(0.,0.,1.));
#115 = ORIENTED_EDGE('',*,*,#116,.F.);
#116 = EDGE_CURVE('',#117,#109,#119,.T.);
#117 = VERTEX_POINT('',#118);
#118 = CARTESIAN_POINT('',(71.175748569594,-40.3565481463,7.6));
#119 = CIRCLE('',#120,75.);
#120 = AXIS2_PLACEMENT_3D('',#121,#122,#123);
#121 = CARTESIAN_POINT('',(0.,-64.,7.6));
#122 = DIRECTION('',(0.,0.,1.));
#123 = DIRECTION('',(1.,0.,-0.));
#124 = ORIENTED_EDGE('',*,*,#125,.T.);
#125 = EDGE_CURVE('',#117,#126,#128,.T.);
#126 = VERTEX_POINT('',#127);
#127 = CARTESIAN_POINT('',(71.175748569594,-40.3565481463,8.));
#128 = LINE('',#129,#130);
#129 = CARTESIAN_POINT('',(71.175748569594,-40.3565481463,0.));
#130 = VECTOR('',#131,1.);
#131 = DIRECTION('',(0.,0.,1.));
#132 = ORIENTED_EDGE('',*,*,#133,.F.);
#133 = EDGE_CURVE('',#134,#126,#136,.T.);
#134 = VERTEX_POINT('',#135);
#135 = CARTESIAN_POINT('',(73.651761485961,-49.84309249817,8.));
#136 = CIRCLE('',#137,75.);
#137 = AXIS2_PLACEMENT_3D('',#138,#139,#140);
#138 = CARTESIAN_POINT('',(0.,-64.,8.));
#139 = DIRECTION('',(0.,0.,1.));
#140 = DIRECTION('',(1.,0.,0.));
#141 = ORIENTED_EDGE('',*,*,#142,.F.);
#142 = EDGE_CURVE('',#31,#134,#143,.T.);
#143 = CIRCLE('',#144,75.);
#144 = AXIS2_PLACEMENT_3D('',#145,#146,#147);
#145 = CARTESIAN_POINT('',(0.,-64.,8.));
#146 = DIRECTION('',(0.,0.,1.));
#147 = DIRECTION('',(1.,0.,0.));
#148 = ORIENTED_EDGE('',*,*,#30,.F.);
#149 = CYLINDRICAL_SURFACE('',#150,75.);
#150 = AXIS2_PLACEMENT_3D('',#151,#152,#153);
#151 = CARTESIAN_POINT('',(0.,-64.,0.));
#152 = DIRECTION('',(0.,0.,1.));
#153 = DIRECTION('',(1.,0.,0.));
#154 = ADVANCED_FACE('',(#155,#158),#169,.F.);
#155 = FACE_BOUND('',#156,.F.);
#156 = EDGE_LOOP('',(#157));
#157 = ORIENTED_EDGE('',*,*,#21,.T.);
#158 = FACE_BOUND('',#159,.F.);
#159 = EDGE_LOOP('',(#160));
#160 = ORIENTED_EDGE('',*,*,#161,.F.);
#161 = EDGE_CURVE('',#162,#162,#164,.T.);
#162 = VERTEX_POINT('',#163);
#163 = CARTESIAN_POINT('',(15.3,-64.,0.));
#164 = CIRCLE('',#165,15.3);
#165 = AXIS2_PLACEMENT_3D('',#166,#167,#168);
#166 = CARTESIAN_POINT('',(0.,-64.,0.));
#167 = DIRECTION('',(0.,0.,1.));
#168 = DIRECTION('',(1.,0.,0.));
#169 = PLANE('',#170);
#170 = AXIS2_PLACEMENT_3D('',#171,#172,#173);
#171 = CARTESIAN_POINT('',(0.,-64.,0.));
#172 = DIRECTION('',(0.,0.,1.));
#173 = DIRECTION('',(1.,0.,0.));
#174 = ADVANCED_FACE('',(#175),#234,.T.);
#175 = FACE_BOUND('',#176,.T.);
#176 = EDGE_LOOP('',(#177,#185,#186,#187,#195,#203,#211,#220,#228));
#177 = ORIENTED_EDGE('',*,*,#178,.T.);
#178 = EDGE_CURVE('',#179,#39,#181,.T.);
#179 = VERTEX_POINT('',#180);
#180 = CARTESIAN_POINT('',(-36.65588553296,-68.1648596368,8.));
#181 = LINE('',#182,#183);
#182 = CARTESIAN_POINT('',(-36.65588553296,-68.1648596368,8.));
#183 = VECTOR('',#184,1.);
#184 = DIRECTION('',(-0.896127585788,0.443796518676,0.));
#185 = ORIENTED_EDGE('',*,*,#38,.T.);
#186 = ORIENTED_EDGE('',*,*,#142,.T.);
#187 = ORIENTED_EDGE('',*,*,#188,.F.);
#188 = EDGE_CURVE('',#189,#134,#191,.T.);
#189 = VERTEX_POINT('',#190);
#190 = CARTESIAN_POINT('',(36.655885532963,-68.1648596368,8.));
#191 = LINE('',#192,#193);
#192 = CARTESIAN_POINT('',(36.655885532963,-68.1648596368,8.));
#193 = VECTOR('',#194,1.);
#194 = DIRECTION('',(0.896127585788,0.443796518676,0.));
#195 = ORIENTED_EDGE('',*,*,#196,.T.);
#196 = EDGE_CURVE('',#189,#197,#199,.T.);
#197 = VERTEX_POINT('',#198);
#198 = CARTESIAN_POINT('',(34.43690293958,-63.68422170786,8.));
#199 = LINE('',#200,#201);
#200 = CARTESIAN_POINT('',(36.655885532963,-68.1648596368,8.));
#201 = VECTOR('',#202,1.);
#202 = DIRECTION('',(-0.443796518676,0.896127585788,0.));
#203 = ORIENTED_EDGE('',*,*,#204,.F.);
#204 = EDGE_CURVE('',#205,#197,#207,.T.);
#205 = VERTEX_POINT('',#206);
#206 = CARTESIAN_POINT('',(29.939025409886,-65.91174200828,8.));
#207 = LINE('',#208,#209);
#208 = CARTESIAN_POINT('',(22.787244324333,-69.45357645065,8.));
#209 = VECTOR('',#210,1.);
#210 = DIRECTION('',(0.896127585788,0.443796518676,0.));
#211 = ORIENTED_EDGE('',*,*,#212,.F.);
#212 = EDGE_CURVE('',#213,#205,#215,.T.);
#213 = VERTEX_POINT('',#214);
#214 = CARTESIAN_POINT('',(-29.93902540988,-65.91174200828,8.));
#215 = CIRCLE('',#216,30.);
#216 = AXIS2_PLACEMENT_3D('',#217,#218,#219);
#217 = CARTESIAN_POINT('',(0.,-64.,8.));
#218 = DIRECTION('',(0.,0.,1.));
#219 = DIRECTION('',(1.,0.,0.));
#220 = ORIENTED_EDGE('',*,*,#221,.T.);
#221 = EDGE_CURVE('',#213,#222,#224,.T.);
#222 = VERTEX_POINT('',#223);
#223 = CARTESIAN_POINT('',(-34.43690293958,-63.68422170785,8.));
#224 = LINE('',#225,#226);
#225 = CARTESIAN_POINT('',(-22.78724432433,-69.45357645065,8.));
#226 = VECTOR('',#227,1.);
#227 = DIRECTION('',(-0.896127585788,0.443796518676,0.));
#228 = ORIENTED_EDGE('',*,*,#229,.T.);
#229 = EDGE_CURVE('',#222,#179,#230,.T.);
#230 = LINE('',#231,#232);
#231 = CARTESIAN_POINT('',(-18.90402478591,-32.31975620527,8.));
#232 = VECTOR('',#233,1.);
#233 = DIRECTION('',(-0.443796518676,-0.896127585788,0.));
#234 = PLANE('',#235);
#235 = AXIS2_PLACEMENT_3D('',#236,#237,#238);
#236 = CARTESIAN_POINT('',(0.,-64.,8.));
#237 = DIRECTION('',(0.,0.,1.));
#238 = DIRECTION('',(1.,0.,0.));
#239 = ADVANCED_FACE('',(#240),#265,.F.);
#240 = FACE_BOUND('',#241,.F.);
#241 = EDGE_LOOP('',(#242,#243,#251,#259));
#242 = ORIENTED_EDGE('',*,*,#133,.F.);
#243 = ORIENTED_EDGE('',*,*,#244,.T.);
#244 = EDGE_CURVE('',#134,#245,#247,.T.);
#245 = VERTEX_POINT('',#246);
#246 = CARTESIAN_POINT('',(85.046775165536,-44.19984762829,8.));
#247 = LINE('',#248,#249);
#248 = CARTESIAN_POINT('',(36.655885532963,-68.1648596368,8.));
#249 = VECTOR('',#250,1.);
#250 = DIRECTION('',(0.896127585788,0.443796518676,0.));
#251 = ORIENTED_EDGE('',*,*,#252,.T.);
#252 = EDGE_CURVE('',#245,#253,#255,.T.);
#253 = VERTEX_POINT('',#254);
#254 = CARTESIAN_POINT('',(80.786328586245,-35.59702280472,8.));
#255 = LINE('',#256,#257);
#256 = CARTESIAN_POINT('',(85.046775165536,-44.19984762829,8.));
#257 = VECTOR('',#258,1.);
#258 = DIRECTION('',(-0.443796518676,0.896127585788,0.));
#259 = ORIENTED_EDGE('',*,*,#260,.T.);
#260 = EDGE_CURVE('',#253,#126,#261,.T.);
#261 = LINE('',#262,#263);
#262 = CARTESIAN_POINT('',(34.008468608091,-58.76320107962,8.));
#263 = VECTOR('',#264,1.);
#264 = DIRECTION('',(-0.896127585788,-0.443796518676,0.));
#265 = PLANE('',#266);
#266 = AXIS2_PLACEMENT_3D('',#267,#268,#269);
#267 = CARTESIAN_POINT('',(36.655885532963,-68.1648596368,8.));
#268 = DIRECTION('',(0.,0.,1.));
#269 = DIRECTION('',(0.896127585788,0.443796518676,0.));
#270 = ADVANCED_FACE('',(#271),#353,.T.);
#271 = FACE_BOUND('',#272,.T.);
#272 = EDGE_LOOP('',(#273,#283,#291,#299,#307,#315,#323,#331,#339,#345,
    #346,#347));
#273 = ORIENTED_EDGE('',*,*,#274,.F.);
#274 = EDGE_CURVE('',#275,#277,#279,.T.);
#275 = VERTEX_POINT('',#276);
#276 = CARTESIAN_POINT('',(35.62149826251,-57.964367346,13.4));
#277 = VERTEX_POINT('',#278);
#278 = CARTESIAN_POINT('',(35.62149826251,-57.964367346,7.6));
#279 = LINE('',#280,#281);
#280 = CARTESIAN_POINT('',(35.62149826251,-57.964367346,13.4));
#281 = VECTOR('',#282,1.);
#282 = DIRECTION('',(0.,0.,-1.));
#283 = ORIENTED_EDGE('',*,*,#284,.T.);
#284 = EDGE_CURVE('',#275,#285,#287,.T.);
#285 = VERTEX_POINT('',#286);
#286 = CARTESIAN_POINT('',(55.605143425591,-48.06770497952,13.4));
#287 = LINE('',#288,#289);
#288 = CARTESIAN_POINT('',(35.62149826251,-57.964367346,13.4));
#289 = VECTOR('',#290,1.);
#290 = DIRECTION('',(0.896127585788,0.443796518676,0.));
#291 = ORIENTED_EDGE('',*,*,#292,.F.);
#292 = EDGE_CURVE('',#293,#285,#295,.T.);
#293 = VERTEX_POINT('',#294);
#294 = CARTESIAN_POINT('',(55.246692391276,-48.24522358699,13.));
#295 = LINE('',#296,#297);
#296 = CARTESIAN_POINT('',(51.998229892793,-49.85398596719,9.375));
#297 = VECTOR('',#298,1.);
#298 = DIRECTION('',(0.633657892719,0.313811527823,0.707106781187));
#299 = ORIENTED_EDGE('',*,*,#300,.F.);
#300 = EDGE_CURVE('',#301,#293,#303,.T.);
#301 = VERTEX_POINT('',#302);
#302 = CARTESIAN_POINT('',(55.246692391276,-48.24522358699,9.));
#303 = LINE('',#304,#305);
#304 = CARTESIAN_POINT('',(55.246692391276,-48.24522358699,13.2));
#305 = VECTOR('',#306,1.);
#306 = DIRECTION('',(0.,0.,1.));
#307 = ORIENTED_EDGE('',*,*,#308,.F.);
#308 = EDGE_CURVE('',#309,#301,#311,.T.);
#309 = VERTEX_POINT('',#310);
#310 = CARTESIAN_POINT('',(61.519585491795,-45.13864795626,9.));
#311 = LINE('',#312,#313);
#312 = CARTESIAN_POINT('',(45.434095326893,-53.1047954665,9.));
#313 = VECTOR('',#314,1.);
#314 = DIRECTION('',(-0.896127585788,-0.443796518676,-0.));
#315 = ORIENTED_EDGE('',*,*,#316,.F.);
#316 = EDGE_CURVE('',#317,#309,#319,.T.);
#317 = VERTEX_POINT('',#318);
#318 = CARTESIAN_POINT('',(61.519585491795,-45.13864795626,13.));
#319 = LINE('',#320,#321);
#320 = CARTESIAN_POINT('',(61.519585491795,-45.13864795626,11.2));
#321 = VECTOR('',#322,1.);
#322 = DIRECTION('',(0.,0.,-1.));
#323 = ORIENTED_EDGE('',*,*,#324,.F.);
#324 = EDGE_CURVE('',#325,#317,#327,.T.);
#325 = VERTEX_POINT('',#326);
#326 = CARTESIAN_POINT('',(61.161134457479,-45.31616656373,13.4));
#327 = LINE('',#328,#329);
#328 = CARTESIAN_POINT('',(54.955450925895,-48.38945745556,20.325));
#329 = VECTOR('',#330,1.);
#330 = DIRECTION('',(0.633657892719,0.313811527823,-0.707106781187));
#331 = ORIENTED_EDGE('',*,*,#332,.T.);
#332 = EDGE_CURVE('',#325,#333,#335,.T.);
#333 = VERTEX_POINT('',#334);
#334 = CARTESIAN_POINT('',(80.786328586245,-35.59702280472,13.4));
#335 = LINE('',#336,#337);
#336 = CARTESIAN_POINT('',(35.62149826251,-57.964367346,13.4));
#337 = VECTOR('',#338,1.);
#338 = DIRECTION('',(0.896127585788,0.443796518676,0.));
#339 = ORIENTED_EDGE('',*,*,#340,.F.);
#340 = EDGE_CURVE('',#253,#333,#341,.T.);
#341 = LINE('',#342,#343);
#342 = CARTESIAN_POINT('',(80.786328586245,-35.59702280472,10.7));
#343 = VECTOR('',#344,1.);
#344 = DIRECTION('',(0.,-0.,1.));
#345 = ORIENTED_EDGE('',*,*,#260,.T.);
#346 = ORIENTED_EDGE('',*,*,#125,.F.);
#347 = ORIENTED_EDGE('',*,*,#348,.F.);
#348 = EDGE_CURVE('',#277,#117,#349,.T.);
#349 = LINE('',#350,#351);
#350 = CARTESIAN_POINT('',(35.62149826251,-57.964367346,7.6));
#351 = VECTOR('',#352,1.);
#352 = DIRECTION('',(0.896127585788,0.443796518676,0.));
#353 = PLANE('',#354);
#354 = AXIS2_PLACEMENT_3D('',#355,#356,#357);
#355 = CARTESIAN_POINT('',(35.62149826251,-57.964367346,13.4));
#356 = DIRECTION('',(-0.443796518676,0.896127585788,0.));
#357 = DIRECTION('',(0.,0.,-1.));
#358 = ADVANCED_FACE('',(#359),#377,.T.);
#359 = FACE_BOUND('',#360,.T.);
#360 = EDGE_LOOP('',(#361,#369,#370,#371));
#361 = ORIENTED_EDGE('',*,*,#362,.F.);
#362 = EDGE_CURVE('',#277,#363,#365,.T.);
#363 = VERTEX_POINT('',#364);
#364 = CARTESIAN_POINT('',(26.390530674046,-39.3249135616,7.6));
#365 = LINE('',#366,#367);
#366 = CARTESIAN_POINT('',(35.62149826251,-57.964367346,7.6));
#367 = VECTOR('',#368,1.);
#368 = DIRECTION('',(-0.443796518676,0.896127585788,0.));
#369 = ORIENTED_EDGE('',*,*,#348,.T.);
#370 = ORIENTED_EDGE('',*,*,#116,.T.);
#371 = ORIENTED_EDGE('',*,*,#372,.F.);
#372 = EDGE_CURVE('',#363,#109,#373,.T.);
#373 = LINE('',#374,#375);
#374 = CARTESIAN_POINT('',(26.390530674046,-39.3249135616,7.6));
#375 = VECTOR('',#376,1.);
#376 = DIRECTION('',(0.896127585788,0.443796518676,0.));
#377 = PLANE('',#378);
#378 = AXIS2_PLACEMENT_3D('',#379,#380,#381);
#379 = CARTESIAN_POINT('',(35.62149826251,-57.964367346,7.6));
#380 = DIRECTION('',(0.,0.,1.));
#381 = DIRECTION('',(-0.443796518676,0.896127585788,0.));
#382 = ADVANCED_FACE('',(#383),#465,.T.);
#383 = FACE_BOUND('',#384,.T.);
#384 = EDGE_LOOP('',(#385,#393,#394,#395,#403,#411,#419,#427,#435,#443,
    #451,#459));
#385 = ORIENTED_EDGE('',*,*,#386,.F.);
#386 = EDGE_CURVE('',#363,#387,#389,.T.);
#387 = VERTEX_POINT('',#388);
#388 = CARTESIAN_POINT('',(26.390530674046,-39.3249135616,13.4));
#389 = LINE('',#390,#391);
#390 = CARTESIAN_POINT('',(26.390530674046,-39.3249135616,7.6));
#391 = VECTOR('',#392,1.);
#392 = DIRECTION('',(0.,0.,1.));
#393 = ORIENTED_EDGE('',*,*,#372,.T.);
#394 = ORIENTED_EDGE('',*,*,#108,.T.);
#395 = ORIENTED_EDGE('',*,*,#396,.T.);
#396 = EDGE_CURVE('',#100,#397,#399,.T.);
#397 = VERTEX_POINT('',#398);
#398 = CARTESIAN_POINT('',(71.555360997781,-16.95756902032,8.));
#399 = LINE('',#400,#401);
#400 = CARTESIAN_POINT('',(24.777501019627,-40.12374729522,8.));
#401 = VECTOR('',#402,1.);
#402 = DIRECTION('',(0.896127585788,0.443796518676,-0.));
#403 = ORIENTED_EDGE('',*,*,#404,.F.);
#404 = EDGE_CURVE('',#405,#397,#407,.T.);
#405 = VERTEX_POINT('',#406);
#406 = CARTESIAN_POINT('',(71.555360997781,-16.95756902032,13.4));
#407 = LINE('',#408,#409);
#408 = CARTESIAN_POINT('',(71.555360997781,-16.95756902032,7.8));
#409 = VECTOR('',#410,1.);
#410 = DIRECTION('',(0.,0.,-1.));
#411 = ORIENTED_EDGE('',*,*,#412,.F.);
#412 = EDGE_CURVE('',#413,#405,#415,.T.);
#413 = VERTEX_POINT('',#414);
#414 = CARTESIAN_POINT('',(51.930166869015,-26.67671277933,13.4));
#415 = LINE('',#416,#417);
#416 = CARTESIAN_POINT('',(26.390530674046,-39.3249135616,13.4));
#417 = VECTOR('',#418,1.);
#418 = DIRECTION('',(0.896127585788,0.443796518676,0.));
#419 = ORIENTED_EDGE('',*,*,#420,.F.);
#420 = EDGE_CURVE('',#421,#413,#423,.T.);
#421 = VERTEX_POINT('',#422);
#422 = CARTESIAN_POINT('',(52.288617903331,-26.49919417186,13.));
#423 = LINE('',#424,#425);
#424 = CARTESIAN_POINT('',(47.023868336824,-29.10649871908,18.875));
#425 = VECTOR('',#426,1.);
#426 = DIRECTION('',(-0.633657892719,-0.313811527823,0.707106781187));
#427 = ORIENTED_EDGE('',*,*,#428,.F.);
#428 = EDGE_CURVE('',#429,#421,#431,.T.);
#429 = VERTEX_POINT('',#430);
#430 = CARTESIAN_POINT('',(52.288617903331,-26.49919417186,9.));
#431 = LINE('',#432,#433);
#432 = CARTESIAN_POINT('',(52.288617903331,-26.49919417186,8.3));
#433 = VECTOR('',#434,1.);
#434 = DIRECTION('',(-0.,0.,1.));
#435 = ORIENTED_EDGE('',*,*,#436,.F.);
#436 = EDGE_CURVE('',#437,#429,#439,.T.);
#437 = VERTEX_POINT('',#438);
#438 = CARTESIAN_POINT('',(46.015724802812,-29.60576980259,9.));
#439 = LINE('',#440,#441);
#440 = CARTESIAN_POINT('',(36.203127738429,-34.4653416821,9.));
#441 = VECTOR('',#442,1.);
#442 = DIRECTION('',(0.896127585788,0.443796518676,0.));
#443 = ORIENTED_EDGE('',*,*,#444,.F.);
#444 = EDGE_CURVE('',#445,#437,#447,.T.);
#445 = VERTEX_POINT('',#446);
#446 = CARTESIAN_POINT('',(46.015724802812,-29.60576980259,13.));
#447 = LINE('',#448,#449);
#448 = CARTESIAN_POINT('',(46.015724802812,-29.60576980259,10.3));
#449 = VECTOR('',#450,1.);
#450 = DIRECTION('',(0.,-0.,-1.));
#451 = ORIENTED_EDGE('',*,*,#452,.F.);
#452 = EDGE_CURVE('',#453,#445,#455,.T.);
#453 = VERTEX_POINT('',#454);
#454 = CARTESIAN_POINT('',(46.374175837127,-29.42825119512,13.4));
#455 = LINE('',#456,#457);
#456 = CARTESIAN_POINT('',(41.467877304936,-31.85803713488,7.925));
#457 = VECTOR('',#458,1.);
#458 = DIRECTION('',(-0.633657892719,-0.313811527823,-0.707106781187));
#459 = ORIENTED_EDGE('',*,*,#460,.F.);
#460 = EDGE_CURVE('',#387,#453,#461,.T.);
#461 = LINE('',#462,#463);
#462 = CARTESIAN_POINT('',(26.390530674046,-39.3249135616,13.4));
#463 = VECTOR('',#464,1.);
#464 = DIRECTION('',(0.896127585788,0.443796518676,0.));
#465 = PLANE('',#466);
#466 = AXIS2_PLACEMENT_3D('',#467,#468,#469);
#467 = CARTESIAN_POINT('',(26.390530674046,-39.3249135616,7.6));
#468 = DIRECTION('',(0.443796518676,-0.896127585788,0.));
#469 = DIRECTION('',(0.,0.,1.));
#470 = ADVANCED_FACE('',(#471),#489,.F.);
#471 = FACE_BOUND('',#472,.F.);
#472 = EDGE_LOOP('',(#473,#474,#475,#483));
#473 = ORIENTED_EDGE('',*,*,#99,.F.);
#474 = ORIENTED_EDGE('',*,*,#396,.T.);
#475 = ORIENTED_EDGE('',*,*,#476,.T.);
#476 = EDGE_CURVE('',#397,#477,#479,.T.);
#477 = VERTEX_POINT('',#478);
#478 = CARTESIAN_POINT('',(67.29491441849,-8.354744196759,8.));
#479 = LINE('',#480,#481);
#480 = CARTESIAN_POINT('',(85.046775165536,-44.19984762829,8.));
#481 = VECTOR('',#482,1.);
#482 = DIRECTION('',(-0.443796518676,0.896127585788,0.));
#483 = ORIENTED_EDGE('',*,*,#484,.F.);
#484 = EDGE_CURVE('',#91,#477,#485,.T.);
#485 = LINE('',#486,#487);
#486 = CARTESIAN_POINT('',(18.904024785917,-32.31975620527,8.));
#487 = VECTOR('',#488,1.);
#488 = DIRECTION('',(0.896127585788,0.443796518676,0.));
#489 = PLANE('',#490);
#490 = AXIS2_PLACEMENT_3D('',#491,#492,#493);
#491 = CARTESIAN_POINT('',(36.655885532963,-68.1648596368,8.));
#492 = DIRECTION('',(0.,0.,1.));
#493 = DIRECTION('',(0.896127585788,0.443796518676,0.));
#494 = ADVANCED_FACE('',(#495),#553,.T.);
#495 = FACE_BOUND('',#496,.T.);
#496 = EDGE_LOOP('',(#497,#505,#506,#514,#522,#530,#539,#547));
#497 = ORIENTED_EDGE('',*,*,#498,.T.);
#498 = EDGE_CURVE('',#499,#91,#501,.T.);
#499 = VERTEX_POINT('',#500);
#500 = CARTESIAN_POINT('',(18.904024785917,-32.31975620527,8.));
#501 = LINE('',#502,#503);
#502 = CARTESIAN_POINT('',(18.904024785917,-32.31975620527,8.));
#503 = VECTOR('',#504,1.);
#504 = DIRECTION('',(0.896127585788,0.443796518676,0.));
#505 = ORIENTED_EDGE('',*,*,#90,.T.);
#506 = ORIENTED_EDGE('',*,*,#507,.F.);
#507 = EDGE_CURVE('',#508,#82,#510,.T.);
#508 = VERTEX_POINT('',#509);
#509 = CARTESIAN_POINT('',(-18.90402478591,-32.31975620527,8.));
#510 = LINE('',#511,#512);
#511 = CARTESIAN_POINT('',(-18.90402478591,-32.31975620527,8.));
#512 = VECTOR('',#513,1.);
#513 = DIRECTION('',(-0.896127585788,0.443796518676,0.));
#514 = ORIENTED_EDGE('',*,*,#515,.T.);
#515 = EDGE_CURVE('',#508,#516,#518,.T.);
#516 = VERTEX_POINT('',#517);
#517 = CARTESIAN_POINT('',(-21.12300737929,-36.80039413421,8.));
#518 = LINE('',#519,#520);
#519 = CARTESIAN_POINT('',(-18.90402478591,-32.31975620527,8.));
#520 = VECTOR('',#521,1.);
#521 = DIRECTION('',(-0.443796518676,-0.896127585788,0.));
#522 = ORIENTED_EDGE('',*,*,#523,.F.);
#523 = EDGE_CURVE('',#524,#516,#526,.T.);
#524 = VERTEX_POINT('',#525);
#525 = CARTESIAN_POINT('',(-16.6251298496,-39.02791443463,8.));
#526 = LINE('',#527,#528);
#527 = CARTESIAN_POINT('',(-9.473348764049,-42.569748877,8.));
#528 = VECTOR('',#529,1.);
#529 = DIRECTION('',(-0.896127585788,0.443796518676,0.));
#530 = ORIENTED_EDGE('',*,*,#531,.F.);
#531 = EDGE_CURVE('',#532,#524,#534,.T.);
#532 = VERTEX_POINT('',#533);
#533 = CARTESIAN_POINT('',(16.625129849602,-39.02791443463,8.));
#534 = CIRCLE('',#535,30.);
#535 = AXIS2_PLACEMENT_3D('',#536,#537,#538);
#536 = CARTESIAN_POINT('',(0.,-64.,8.));
#537 = DIRECTION('',(0.,0.,1.));
#538 = DIRECTION('',(1.,0.,0.));
#539 = ORIENTED_EDGE('',*,*,#540,.T.);
#540 = EDGE_CURVE('',#532,#541,#543,.T.);
#541 = VERTEX_POINT('',#542);
#542 = CARTESIAN_POINT('',(21.123007379296,-36.80039413421,8.));
#543 = LINE('',#544,#545);
#544 = CARTESIAN_POINT('',(9.473348764049,-42.569748877,8.));
#545 = VECTOR('',#546,1.);
#546 = DIRECTION('',(0.896127585788,0.443796518676,0.));
#547 = ORIENTED_EDGE('',*,*,#548,.T.);
#548 = EDGE_CURVE('',#541,#499,#549,.T.);
#549 = LINE('',#550,#551);
#550 = CARTESIAN_POINT('',(36.655885532963,-68.1648596368,8.));
#551 = VECTOR('',#552,1.);
#552 = DIRECTION('',(-0.443796518676,0.896127585788,0.));
#553 = PLANE('',#554);
#554 = AXIS2_PLACEMENT_3D('',#555,#556,#557);
#555 = CARTESIAN_POINT('',(0.,-64.,8.));
#556 = DIRECTION('',(0.,0.,1.));
#557 = DIRECTION('',(1.,0.,0.));
#558 = ADVANCED_FACE('',(#559),#584,.F.);
#559 = FACE_BOUND('',#560,.F.);
#560 = EDGE_LOOP('',(#561,#562,#570,#578));
#561 = ORIENTED_EDGE('',*,*,#81,.F.);
#562 = ORIENTED_EDGE('',*,*,#563,.T.);
#563 = EDGE_CURVE('',#82,#564,#566,.T.);
#564 = VERTEX_POINT('',#565);
#565 = CARTESIAN_POINT('',(-67.29491441849,-8.354744196759,8.));
#566 = LINE('',#567,#568);
#567 = CARTESIAN_POINT('',(-18.90402478591,-32.31975620527,8.));
#568 = VECTOR('',#569,1.);
#569 = DIRECTION('',(-0.896127585788,0.443796518676,0.));
#570 = ORIENTED_EDGE('',*,*,#571,.T.);
#571 = EDGE_CURVE('',#564,#572,#574,.T.);
#572 = VERTEX_POINT('',#573);
#573 = CARTESIAN_POINT('',(-71.55536099778,-16.95756902032,8.));
#574 = LINE('',#575,#576);
#575 = CARTESIAN_POINT('',(-67.29491441849,-8.354744196759,8.));
#576 = VECTOR('',#577,1.);
#577 = DIRECTION('',(-0.443796518676,-0.896127585788,0.));
#578 = ORIENTED_EDGE('',*,*,#579,.T.);
#579 = EDGE_CURVE('',#572,#74,#580,.T.);
#580 = LINE('',#581,#582);
#581 = CARTESIAN_POINT('',(-24.77750101962,-40.12374729522,8.));
#582 = VECTOR('',#583,1.);
#583 = DIRECTION('',(0.896127585788,-0.443796518676,0.));
#584 = PLANE('',#585);
#585 = AXIS2_PLACEMENT_3D('',#586,#587,#588);
#586 = CARTESIAN_POINT('',(-18.90402478591,-32.31975620527,8.));
#587 = DIRECTION('',(0.,0.,1.));
#588 = DIRECTION('',(-0.896127585788,0.443796518676,0.));
#589 = ADVANCED_FACE('',(#590),#672,.T.);
#590 = FACE_BOUND('',#591,.T.);
#591 = EDGE_LOOP('',(#592,#602,#610,#618,#626,#634,#642,#650,#658,#664,
    #665,#666));
#592 = ORIENTED_EDGE('',*,*,#593,.F.);
#593 = EDGE_CURVE('',#594,#596,#598,.T.);
#594 = VERTEX_POINT('',#595);
#595 = CARTESIAN_POINT('',(-26.39053067404,-39.3249135616,13.4));
#596 = VERTEX_POINT('',#597);
#597 = CARTESIAN_POINT('',(-26.39053067404,-39.3249135616,7.6));
#598 = LINE('',#599,#600);
#599 = CARTESIAN_POINT('',(-26.39053067404,-39.3249135616,13.4));
#600 = VECTOR('',#601,1.);
#601 = DIRECTION('',(-0.,0.,-1.));
#602 = ORIENTED_EDGE('',*,*,#603,.T.);
#603 = EDGE_CURVE('',#594,#604,#606,.T.);
#604 = VERTEX_POINT('',#605);
#605 = CARTESIAN_POINT('',(-46.37417583712,-29.42825119512,13.4));
#606 = LINE('',#607,#608);
#607 = CARTESIAN_POINT('',(-26.39053067404,-39.3249135616,13.4));
#608 = VECTOR('',#609,1.);
#609 = DIRECTION('',(-0.896127585788,0.443796518676,0.));
#610 = ORIENTED_EDGE('',*,*,#611,.F.);
#611 = EDGE_CURVE('',#612,#604,#614,.T.);
#612 = VERTEX_POINT('',#613);
#613 = CARTESIAN_POINT('',(-46.01572480281,-29.60576980259,13.));
#614 = LINE('',#615,#616);
#615 = CARTESIAN_POINT('',(-42.76726230432,-31.21453218279,9.375));
#616 = VECTOR('',#617,1.);
#617 = DIRECTION('',(-0.633657892719,0.313811527823,0.707106781187));
#618 = ORIENTED_EDGE('',*,*,#619,.F.);
#619 = EDGE_CURVE('',#620,#612,#622,.T.);
#620 = VERTEX_POINT('',#621);
#621 = CARTESIAN_POINT('',(-46.01572480281,-29.60576980259,9.));
#622 = LINE('',#623,#624);
#623 = CARTESIAN_POINT('',(-46.01572480281,-29.60576980259,13.2));
#624 = VECTOR('',#625,1.);
#625 = DIRECTION('',(0.,0.,1.));
#626 = ORIENTED_EDGE('',*,*,#627,.F.);
#627 = EDGE_CURVE('',#628,#620,#630,.T.);
#628 = VERTEX_POINT('',#629);
#629 = CARTESIAN_POINT('',(-52.28861790333,-26.49919417186,9.));
#630 = LINE('',#631,#632);
#631 = CARTESIAN_POINT('',(-36.20312773842,-34.4653416821,9.));
#632 = VECTOR('',#633,1.);
#633 = DIRECTION('',(0.896127585788,-0.443796518676,-0.));
#634 = ORIENTED_EDGE('',*,*,#635,.F.);
#635 = EDGE_CURVE('',#636,#628,#638,.T.);
#636 = VERTEX_POINT('',#637);
#637 = CARTESIAN_POINT('',(-52.28861790333,-26.49919417186,13.));
#638 = LINE('',#639,#640);
#639 = CARTESIAN_POINT('',(-52.28861790333,-26.49919417186,11.2));
#640 = VECTOR('',#641,1.);
#641 = DIRECTION('',(-0.,0.,-1.));
#642 = ORIENTED_EDGE('',*,*,#643,.F.);
#643 = EDGE_CURVE('',#644,#636,#646,.T.);
#644 = VERTEX_POINT('',#645);
#645 = CARTESIAN_POINT('',(-51.93016686901,-26.67671277933,13.4));
#646 = LINE('',#647,#648);
#647 = CARTESIAN_POINT('',(-45.72448333743,-29.75000367116,20.325));
#648 = VECTOR('',#649,1.);
#649 = DIRECTION('',(-0.633657892719,0.313811527823,-0.707106781187));
#650 = ORIENTED_EDGE('',*,*,#651,.T.);
#651 = EDGE_CURVE('',#644,#652,#654,.T.);
#652 = VERTEX_POINT('',#653);
#653 = CARTESIAN_POINT('',(-71.55536099778,-16.95756902032,13.4));
#654 = LINE('',#655,#656);
#655 = CARTESIAN_POINT('',(-26.39053067404,-39.3249135616,13.4));
#656 = VECTOR('',#657,1.);
#657 = DIRECTION('',(-0.896127585788,0.443796518676,0.));
#658 = ORIENTED_EDGE('',*,*,#659,.F.);
#659 = EDGE_CURVE('',#572,#652,#660,.T.);
#660 = LINE('',#661,#662);
#661 = CARTESIAN_POINT('',(-71.55536099778,-16.95756902032,10.7));
#662 = VECTOR('',#663,1.);
#663 = DIRECTION('',(0.,0.,1.));
#664 = ORIENTED_EDGE('',*,*,#579,.T.);
#665 = ORIENTED_EDGE('',*,*,#73,.F.);
#666 = ORIENTED_EDGE('',*,*,#667,.F.);
#667 = EDGE_CURVE('',#596,#65,#668,.T.);
#668 = LINE('',#669,#670);
#669 = CARTESIAN_POINT('',(-26.39053067404,-39.3249135616,7.6));
#670 = VECTOR('',#671,1.);
#671 = DIRECTION('',(-0.896127585788,0.443796518676,0.));
#672 = PLANE('',#673);
#673 = AXIS2_PLACEMENT_3D('',#674,#675,#676);
#674 = CARTESIAN_POINT('',(-26.39053067404,-39.3249135616,13.4));
#675 = DIRECTION('',(-0.443796518676,-0.896127585788,0.));
#676 = DIRECTION('',(-0.,0.,-1.));
#677 = ADVANCED_FACE('',(#678),#696,.T.);
#678 = FACE_BOUND('',#679,.T.);
#679 = EDGE_LOOP('',(#680,#688,#689,#690));
#680 = ORIENTED_EDGE('',*,*,#681,.F.);
#681 = EDGE_CURVE('',#596,#682,#684,.T.);
#682 = VERTEX_POINT('',#683);
#683 = CARTESIAN_POINT('',(-35.62149826251,-57.964367346,7.6));
#684 = LINE('',#685,#686);
#685 = CARTESIAN_POINT('',(-26.39053067404,-39.3249135616,7.6));
#686 = VECTOR('',#687,1.);
#687 = DIRECTION('',(-0.443796518676,-0.896127585788,0.));
#688 = ORIENTED_EDGE('',*,*,#667,.T.);
#689 = ORIENTED_EDGE('',*,*,#64,.T.);
#690 = ORIENTED_EDGE('',*,*,#691,.F.);
#691 = EDGE_CURVE('',#682,#57,#692,.T.);
#692 = LINE('',#693,#694);
#693 = CARTESIAN_POINT('',(-35.62149826251,-57.964367346,7.6));
#694 = VECTOR('',#695,1.);
#695 = DIRECTION('',(-0.896127585788,0.443796518676,0.));
#696 = PLANE('',#697);
#697 = AXIS2_PLACEMENT_3D('',#698,#699,#700);
#698 = CARTESIAN_POINT('',(-26.39053067404,-39.3249135616,7.6));
#699 = DIRECTION('',(0.,0.,1.));
#700 = DIRECTION('',(-0.443796518676,-0.896127585788,0.));
#701 = ADVANCED_FACE('',(#702),#784,.T.);
#702 = FACE_BOUND('',#703,.T.);
#703 = EDGE_LOOP('',(#704,#712,#713,#714,#722,#730,#738,#746,#754,#762,
    #770,#778));
#704 = ORIENTED_EDGE('',*,*,#705,.F.);
#705 = EDGE_CURVE('',#682,#706,#708,.T.);
#706 = VERTEX_POINT('',#707);
#707 = CARTESIAN_POINT('',(-35.62149826251,-57.964367346,13.4));
#708 = LINE('',#709,#710);
#709 = CARTESIAN_POINT('',(-35.62149826251,-57.964367346,7.6));
#710 = VECTOR('',#711,1.);
#711 = DIRECTION('',(0.,0.,1.));
#712 = ORIENTED_EDGE('',*,*,#691,.T.);
#713 = ORIENTED_EDGE('',*,*,#56,.T.);
#714 = ORIENTED_EDGE('',*,*,#715,.T.);
#715 = EDGE_CURVE('',#48,#716,#718,.T.);
#716 = VERTEX_POINT('',#717);
#717 = CARTESIAN_POINT('',(-80.78632858624,-35.59702280472,8.));
#718 = LINE('',#719,#720);
#719 = CARTESIAN_POINT('',(-34.00846860809,-58.76320107962,8.));
#720 = VECTOR('',#721,1.);
#721 = DIRECTION('',(-0.896127585788,0.443796518676,0.));
#722 = ORIENTED_EDGE('',*,*,#723,.F.);
#723 = EDGE_CURVE('',#724,#716,#726,.T.);
#724 = VERTEX_POINT('',#725);
#725 = CARTESIAN_POINT('',(-80.78632858624,-35.59702280472,13.4));
#726 = LINE('',#727,#728);
#727 = CARTESIAN_POINT('',(-80.78632858624,-35.59702280472,7.8));
#728 = VECTOR('',#729,1.);
#729 = DIRECTION('',(0.,0.,-1.));
#730 = ORIENTED_EDGE('',*,*,#731,.F.);
#731 = EDGE_CURVE('',#732,#724,#734,.T.);
#732 = VERTEX_POINT('',#733);
#733 = CARTESIAN_POINT('',(-61.16113445747,-45.31616656373,13.4));
#734 = LINE('',#735,#736);
#735 = CARTESIAN_POINT('',(-35.62149826251,-57.964367346,13.4));
#736 = VECTOR('',#737,1.);
#737 = DIRECTION('',(-0.896127585788,0.443796518676,0.));
#738 = ORIENTED_EDGE('',*,*,#739,.F.);
#739 = EDGE_CURVE('',#740,#732,#742,.T.);
#740 = VERTEX_POINT('',#741);
#741 = CARTESIAN_POINT('',(-61.51958549179,-45.13864795626,13.));
#742 = LINE('',#743,#744);
#743 = CARTESIAN_POINT('',(-56.25483592528,-47.74595250348,18.875));
#744 = VECTOR('',#745,1.);
#745 = DIRECTION('',(0.633657892719,-0.313811527823,0.707106781187));
#746 = ORIENTED_EDGE('',*,*,#747,.F.);
#747 = EDGE_CURVE('',#748,#740,#750,.T.);
#748 = VERTEX_POINT('',#749);
#749 = CARTESIAN_POINT('',(-61.51958549179,-45.13864795626,9.));
#750 = LINE('',#751,#752);
#751 = CARTESIAN_POINT('',(-61.51958549179,-45.13864795626,8.3));
#752 = VECTOR('',#753,1.);
#753 = DIRECTION('',(0.,-0.,1.));
#754 = ORIENTED_EDGE('',*,*,#755,.F.);
#755 = EDGE_CURVE('',#756,#748,#758,.T.);
#756 = VERTEX_POINT('',#757);
#757 = CARTESIAN_POINT('',(-55.24669239127,-48.24522358699,9.));
#758 = LINE('',#759,#760);
#759 = CARTESIAN_POINT('',(-45.43409532689,-53.1047954665,9.));
#760 = VECTOR('',#761,1.);
#761 = DIRECTION('',(-0.896127585788,0.443796518676,0.));
#762 = ORIENTED_EDGE('',*,*,#763,.F.);
#763 = EDGE_CURVE('',#764,#756,#766,.T.);
#764 = VERTEX_POINT('',#765);
#765 = CARTESIAN_POINT('',(-55.24669239127,-48.24522358699,13.));
#766 = LINE('',#767,#768);
#767 = CARTESIAN_POINT('',(-55.24669239127,-48.24522358699,10.3));
#768 = VECTOR('',#769,1.);
#769 = DIRECTION('',(0.,0.,-1.));
#770 = ORIENTED_EDGE('',*,*,#771,.F.);
#771 = EDGE_CURVE('',#772,#764,#774,.T.);
#772 = VERTEX_POINT('',#773);
#773 = CARTESIAN_POINT('',(-55.60514342559,-48.06770497952,13.4));
#774 = LINE('',#775,#776);
#775 = CARTESIAN_POINT('',(-50.6988448934,-50.49749091927,7.925));
#776 = VECTOR('',#777,1.);
#777 = DIRECTION('',(0.633657892719,-0.313811527823,-0.707106781187));
#778 = ORIENTED_EDGE('',*,*,#779,.F.);
#779 = EDGE_CURVE('',#706,#772,#780,.T.);
#780 = LINE('',#781,#782);
#781 = CARTESIAN_POINT('',(-35.62149826251,-57.964367346,13.4));
#782 = VECTOR('',#783,1.);
#783 = DIRECTION('',(-0.896127585788,0.443796518676,0.));
#784 = PLANE('',#785);
#785 = AXIS2_PLACEMENT_3D('',#786,#787,#788);
#786 = CARTESIAN_POINT('',(-35.62149826251,-57.964367346,7.6));
#787 = DIRECTION('',(0.443796518676,0.896127585788,0.));
#788 = DIRECTION('',(0.,0.,1.));
#789 = ADVANCED_FACE('',(#790),#808,.F.);
#790 = FACE_BOUND('',#791,.F.);
#791 = EDGE_LOOP('',(#792,#793,#794,#802));
#792 = ORIENTED_EDGE('',*,*,#47,.F.);
#793 = ORIENTED_EDGE('',*,*,#715,.T.);
#794 = ORIENTED_EDGE('',*,*,#795,.T.);
#795 = EDGE_CURVE('',#716,#796,#798,.T.);
#796 = VERTEX_POINT('',#797);
#797 = CARTESIAN_POINT('',(-85.04677516553,-44.19984762829,8.));
#798 = LINE('',#799,#800);
#799 = CARTESIAN_POINT('',(-67.29491441849,-8.354744196759,8.));
#800 = VECTOR('',#801,1.);
#801 = DIRECTION('',(-0.443796518676,-0.896127585788,0.));
#802 = ORIENTED_EDGE('',*,*,#803,.F.);
#803 = EDGE_CURVE('',#39,#796,#804,.T.);
#804 = LINE('',#805,#806);
#805 = CARTESIAN_POINT('',(-36.65588553296,-68.1648596368,8.));
#806 = VECTOR('',#807,1.);
#807 = DIRECTION('',(-0.896127585788,0.443796518676,0.));
#808 = PLANE('',#809);
#809 = AXIS2_PLACEMENT_3D('',#810,#811,#812);
#810 = CARTESIAN_POINT('',(-18.90402478591,-32.31975620527,8.));
#811 = DIRECTION('',(0.,0.,1.));
#812 = DIRECTION('',(-0.896127585788,0.443796518676,0.));
#813 = ADVANCED_FACE('',(#814),#833,.F.);
#814 = FACE_BOUND('',#815,.F.);
#815 = EDGE_LOOP('',(#816,#825,#831,#832));
#816 = ORIENTED_EDGE('',*,*,#817,.F.);
#817 = EDGE_CURVE('',#818,#818,#820,.T.);
#818 = VERTEX_POINT('',#819);
#819 = CARTESIAN_POINT('',(15.3,-64.,16.));
#820 = CIRCLE('',#821,15.3);
#821 = AXIS2_PLACEMENT_3D('',#822,#823,#824);
#822 = CARTESIAN_POINT('',(0.,-64.,16.));
#823 = DIRECTION('',(0.,0.,1.));
#824 = DIRECTION('',(1.,0.,0.));
#825 = ORIENTED_EDGE('',*,*,#826,.F.);
#826 = EDGE_CURVE('',#162,#818,#827,.T.);
#827 = LINE('',#828,#829);
#828 = CARTESIAN_POINT('',(15.3,-64.,-1.));
#829 = VECTOR('',#830,1.);
#830 = DIRECTION('',(0.,0.,1.));
#831 = ORIENTED_EDGE('',*,*,#161,.T.);
#832 = ORIENTED_EDGE('',*,*,#826,.T.);
#833 = CYLINDRICAL_SURFACE('',#834,15.3);
#834 = AXIS2_PLACEMENT_3D('',#835,#836,#837);
#835 = CARTESIAN_POINT('',(0.,-64.,-1.));
#836 = DIRECTION('',(0.,0.,1.));
#837 = DIRECTION('',(1.,0.,0.));
#838 = ADVANCED_FACE('',(#839,#865),#907,.T.);
#839 = FACE_BOUND('',#840,.T.);
#840 = EDGE_LOOP('',(#841,#842,#850,#858,#864));
#841 = ORIENTED_EDGE('',*,*,#178,.F.);
#842 = ORIENTED_EDGE('',*,*,#843,.T.);
#843 = EDGE_CURVE('',#179,#844,#846,.T.);
#844 = VERTEX_POINT('',#845);
#845 = CARTESIAN_POINT('',(-36.65588553296,-68.1648596368,27.));
#846 = LINE('',#847,#848);
#847 = CARTESIAN_POINT('',(-36.65588553296,-68.1648596368,8.));
#848 = VECTOR('',#849,1.);
#849 = DIRECTION('',(0.,0.,1.));
#850 = ORIENTED_EDGE('',*,*,#851,.T.);
#851 = EDGE_CURVE('',#844,#852,#854,.T.);
#852 = VERTEX_POINT('',#853);
#853 = CARTESIAN_POINT('',(-85.04677516553,-44.19984762829,27.));
#854 = LINE('',#855,#856);
#855 = CARTESIAN_POINT('',(-36.65588553296,-68.1648596368,27.));
#856 = VECTOR('',#857,1.);
#857 = DIRECTION('',(-0.896127585788,0.443796518676,0.));
#858 = ORIENTED_EDGE('',*,*,#859,.F.);
#859 = EDGE_CURVE('',#796,#852,#860,.T.);
#860 = LINE('',#861,#862);
#861 = CARTESIAN_POINT('',(-85.04677516553,-44.19984762829,8.));
#862 = VECTOR('',#863,1.);
#863 = DIRECTION('',(0.,0.,1.));
#864 = ORIENTED_EDGE('',*,*,#803,.F.);
#865 = FACE_BOUND('',#866,.T.);
#866 = EDGE_LOOP('',(#867,#877,#885,#893,#901));
#867 = ORIENTED_EDGE('',*,*,#868,.F.);
#868 = EDGE_CURVE('',#869,#871,#873,.T.);
#869 = VERTEX_POINT('',#870);
#870 = CARTESIAN_POINT('',(-65.78003207108,-53.74147277983,9.));
#871 = VERTEX_POINT('',#872);
#872 = CARTESIAN_POINT('',(-59.50713897056,-56.84804841056,9.));
#873 = LINE('',#874,#875);
#874 = CARTESIAN_POINT('',(-48.08151225176,-62.50645402368,9.));
#875 = VECTOR('',#876,1.);
#876 = DIRECTION('',(0.896127585788,-0.443796518676,-0.));
#877 = ORIENTED_EDGE('',*,*,#878,.F.);
#878 = EDGE_CURVE('',#879,#869,#881,.T.);
#879 = VERTEX_POINT('',#880);
#880 = CARTESIAN_POINT('',(-65.78003207108,-53.74147277983,13.));
#881 = LINE('',#882,#883);
#882 = CARTESIAN_POINT('',(-65.78003207108,-53.74147277983,8.5));
#883 = VECTOR('',#884,1.);
#884 = DIRECTION('',(-0.,0.,-1.));
#885 = ORIENTED_EDGE('',*,*,#886,.F.);
#886 = EDGE_CURVE('',#887,#879,#889,.T.);
#887 = VERTEX_POINT('',#888);
#888 = CARTESIAN_POINT('',(-62.64358552082,-55.29476059519,16.5));
#889 = LINE('',#890,#891);
#890 = CARTESIAN_POINT('',(-59.61915491879,-56.79257384573,19.875));
#891 = VECTOR('',#892,1.);
#892 = DIRECTION('',(-0.633657892719,0.313811527823,-0.707106781187));
#893 = ORIENTED_EDGE('',*,*,#894,.F.);
#894 = EDGE_CURVE('',#895,#887,#897,.T.);
#895 = VERTEX_POINT('',#896);
#896 = CARTESIAN_POINT('',(-59.50713897056,-56.84804841056,13.));
#897 = LINE('',#898,#899);
#898 = CARTESIAN_POINT('',(-54.24238940406,-59.45535295778,7.125));
#899 = VECTOR('',#900,1.);
#900 = DIRECTION('',(-0.633657892719,0.313811527823,0.707106781187));
#901 = ORIENTED_EDGE('',*,*,#902,.F.);
#902 = EDGE_CURVE('',#871,#895,#903,.T.);
#903 = LINE('',#904,#905);
#904 = CARTESIAN_POINT('',(-59.50713897056,-56.84804841056,10.5));
#905 = VECTOR('',#906,1.);
#906 = DIRECTION('',(0.,0.,1.));
#907 = PLANE('',#908);
#908 = AXIS2_PLACEMENT_3D('',#909,#910,#911);
#909 = CARTESIAN_POINT('',(-36.65588553296,-68.1648596368,8.));
#910 = DIRECTION('',(-0.443796518676,-0.896127585788,0.));
#911 = DIRECTION('',(0.,0.,1.));
#912 = ADVANCED_FACE('',(#913),#954,.F.);
#913 = FACE_BOUND('',#914,.F.);
#914 = EDGE_LOOP('',(#915,#923,#924,#932,#940,#946,#947,#948));
#915 = ORIENTED_EDGE('',*,*,#916,.F.);
#916 = EDGE_CURVE('',#508,#917,#919,.T.);
#917 = VERTEX_POINT('',#918);
#918 = CARTESIAN_POINT('',(-18.90402478591,-32.31975620527,27.));
#919 = LINE('',#920,#921);
#920 = CARTESIAN_POINT('',(-18.90402478591,-32.31975620527,8.));
#921 = VECTOR('',#922,1.);
#922 = DIRECTION('',(0.,0.,1.));
#923 = ORIENTED_EDGE('',*,*,#515,.T.);
#924 = ORIENTED_EDGE('',*,*,#925,.F.);
#925 = EDGE_CURVE('',#926,#516,#928,.T.);
#926 = VERTEX_POINT('',#927);
#927 = CARTESIAN_POINT('',(-21.12300737929,-36.80039413421,16.));
#928 = LINE('',#929,#930);
#929 = CARTESIAN_POINT('',(-21.12300737929,-36.80039413421,8.));
#930 = VECTOR('',#931,1.);
#931 = DIRECTION('',(-0.,0.,-1.));
#932 = ORIENTED_EDGE('',*,*,#933,.T.);
#933 = EDGE_CURVE('',#926,#934,#936,.T.);
#934 = VERTEX_POINT('',#935);
#935 = CARTESIAN_POINT('',(-34.43690293958,-63.68422170785,16.));
#936 = LINE('',#937,#938);
#937 = CARTESIAN_POINT('',(-20.65862962376,-35.8627082817,16.));
#938 = VECTOR('',#939,1.);
#939 = DIRECTION('',(-0.443796518676,-0.896127585788,0.));
#940 = ORIENTED_EDGE('',*,*,#941,.T.);
#941 = EDGE_CURVE('',#934,#222,#942,.T.);
#942 = LINE('',#943,#944);
#943 = CARTESIAN_POINT('',(-34.43690293958,-63.68422170785,8.));
#944 = VECTOR('',#945,1.);
#945 = DIRECTION('',(-0.,0.,-1.));
#946 = ORIENTED_EDGE('',*,*,#229,.T.);
#947 = ORIENTED_EDGE('',*,*,#843,.T.);
#948 = ORIENTED_EDGE('',*,*,#949,.F.);
#949 = EDGE_CURVE('',#917,#844,#950,.T.);
#950 = LINE('',#951,#952);
#951 = CARTESIAN_POINT('',(-18.90402478591,-32.31975620527,27.));
#952 = VECTOR('',#953,1.);
#953 = DIRECTION('',(-0.443796518676,-0.896127585788,0.));
#954 = PLANE('',#955);
#955 = AXIS2_PLACEMENT_3D('',#956,#957,#958);
#956 = CARTESIAN_POINT('',(-18.90402478591,-32.31975620527,8.));
#957 = DIRECTION('',(-0.896127585788,0.443796518676,0.));
#958 = DIRECTION('',(0.,0.,1.));
#959 = ADVANCED_FACE('',(#960),#978,.T.);
#960 = FACE_BOUND('',#961,.T.);
#961 = EDGE_LOOP('',(#962,#963,#971,#977));
#962 = ORIENTED_EDGE('',*,*,#221,.F.);
#963 = ORIENTED_EDGE('',*,*,#964,.T.);
#964 = EDGE_CURVE('',#213,#965,#967,.T.);
#965 = VERTEX_POINT('',#966);
#966 = CARTESIAN_POINT('',(-29.93902540988,-65.91174200828,16.));
#967 = LINE('',#968,#969);
#968 = CARTESIAN_POINT('',(-29.93902540988,-65.91174200828,8.));
#969 = VECTOR('',#970,1.);
#970 = DIRECTION('',(0.,0.,1.));
#971 = ORIENTED_EDGE('',*,*,#972,.T.);
#972 = EDGE_CURVE('',#965,#934,#973,.T.);
#973 = LINE('',#974,#975);
#974 = CARTESIAN_POINT('',(-22.78724432433,-69.45357645065,16.));
#975 = VECTOR('',#976,1.);
#976 = DIRECTION('',(-0.896127585788,0.443796518676,0.));
#977 = ORIENTED_EDGE('',*,*,#941,.T.);
#978 = PLANE('',#979);
#979 = AXIS2_PLACEMENT_3D('',#980,#981,#982);
#980 = CARTESIAN_POINT('',(-22.78724432433,-69.45357645065,8.));
#981 = DIRECTION('',(-0.443796518676,-0.896127585788,0.));
#982 = DIRECTION('',(0.,0.,1.));
#983 = ADVANCED_FACE('',(#984),#1003,.T.);
#984 = FACE_BOUND('',#985,.T.);
#985 = EDGE_LOOP('',(#986,#994,#1001,#1002));
#986 = ORIENTED_EDGE('',*,*,#987,.T.);
#987 = EDGE_CURVE('',#205,#988,#990,.T.);
#988 = VERTEX_POINT('',#989);
#989 = CARTESIAN_POINT('',(29.939025409886,-65.91174200828,16.));
#990 = LINE('',#991,#992);
#991 = CARTESIAN_POINT('',(29.939025409885,-65.91174200828,8.));
#992 = VECTOR('',#993,1.);
#993 = DIRECTION('',(0.,0.,1.));
#994 = ORIENTED_EDGE('',*,*,#995,.F.);
#995 = EDGE_CURVE('',#965,#988,#996,.T.);
#996 = CIRCLE('',#997,30.);
#997 = AXIS2_PLACEMENT_3D('',#998,#999,#1000);
#998 = CARTESIAN_POINT('',(0.,-64.,16.));
#999 = DIRECTION('',(0.,0.,1.));
#1000 = DIRECTION('',(1.,0.,0.));
#1001 = ORIENTED_EDGE('',*,*,#964,.F.);
#1002 = ORIENTED_EDGE('',*,*,#212,.T.);
#1003 = CYLINDRICAL_SURFACE('',#1004,30.);
#1004 = AXIS2_PLACEMENT_3D('',#1005,#1006,#1007);
#1005 = CARTESIAN_POINT('',(0.,-64.,8.));
#1006 = DIRECTION('',(0.,0.,1.));
#1007 = DIRECTION('',(1.,0.,0.));
#1008 = ADVANCED_FACE('',(#1009),#1027,.F.);
#1009 = FACE_BOUND('',#1010,.F.);
#1010 = EDGE_LOOP('',(#1011,#1012,#1013,#1021));
#1011 = ORIENTED_EDGE('',*,*,#204,.F.);
#1012 = ORIENTED_EDGE('',*,*,#987,.T.);
#1013 = ORIENTED_EDGE('',*,*,#1014,.T.);
#1014 = EDGE_CURVE('',#988,#1015,#1017,.T.);
#1015 = VERTEX_POINT('',#1016);
#1016 = CARTESIAN_POINT('',(34.43690293958,-63.68422170786,16.));
#1017 = LINE('',#1018,#1019);
#1018 = CARTESIAN_POINT('',(22.787244324333,-69.45357645065,16.));
#1019 = VECTOR('',#1020,1.);
#1020 = DIRECTION('',(0.896127585788,0.443796518676,0.));
#1021 = ORIENTED_EDGE('',*,*,#1022,.T.);
#1022 = EDGE_CURVE('',#1015,#197,#1023,.T.);
#1023 = LINE('',#1024,#1025);
#1024 = CARTESIAN_POINT('',(34.43690293958,-63.68422170786,8.));
#1025 = VECTOR('',#1026,1.);
#1026 = DIRECTION('',(0.,0.,-1.));
#1027 = PLANE('',#1028);
#1028 = AXIS2_PLACEMENT_3D('',#1029,#1030,#1031);
#1029 = CARTESIAN_POINT('',(22.787244324333,-69.45357645065,8.));
#1030 = DIRECTION('',(-0.443796518676,0.896127585788,0.));
#1031 = DIRECTION('',(0.,0.,1.));
#1032 = ADVANCED_FACE('',(#1033),#1074,.F.);
#1033 = FACE_BOUND('',#1034,.F.);
#1034 = EDGE_LOOP('',(#1035,#1043,#1044,#1045,#1053,#1059,#1060,#1068));
#1035 = ORIENTED_EDGE('',*,*,#1036,.F.);
#1036 = EDGE_CURVE('',#189,#1037,#1039,.T.);
#1037 = VERTEX_POINT('',#1038);
#1038 = CARTESIAN_POINT('',(36.655885532963,-68.1648596368,27.));
#1039 = LINE('',#1040,#1041);
#1040 = CARTESIAN_POINT('',(36.655885532963,-68.1648596368,8.));
#1041 = VECTOR('',#1042,1.);
#1042 = DIRECTION('',(0.,0.,1.));
#1043 = ORIENTED_EDGE('',*,*,#196,.T.);
#1044 = ORIENTED_EDGE('',*,*,#1022,.F.);
#1045 = ORIENTED_EDGE('',*,*,#1046,.T.);
#1046 = EDGE_CURVE('',#1015,#1047,#1049,.T.);
#1047 = VERTEX_POINT('',#1048);
#1048 = CARTESIAN_POINT('',(21.123007379296,-36.80039413421,16.));
#1049 = LINE('',#1050,#1051);
#1050 = CARTESIAN_POINT('',(29.534559997291,-53.78525999747,16.));
#1051 = VECTOR('',#1052,1.);
#1052 = DIRECTION('',(-0.443796518676,0.896127585788,0.));
#1053 = ORIENTED_EDGE('',*,*,#1054,.T.);
#1054 = EDGE_CURVE('',#1047,#541,#1055,.T.);
#1055 = LINE('',#1056,#1057);
#1056 = CARTESIAN_POINT('',(21.123007379296,-36.80039413421,8.));
#1057 = VECTOR('',#1058,1.);
#1058 = DIRECTION('',(0.,0.,-1.));
#1059 = ORIENTED_EDGE('',*,*,#548,.T.);
#1060 = ORIENTED_EDGE('',*,*,#1061,.T.);
#1061 = EDGE_CURVE('',#499,#1062,#1064,.T.);
#1062 = VERTEX_POINT('',#1063);
#1063 = CARTESIAN_POINT('',(18.904024785917,-32.31975620527,27.));
#1064 = LINE('',#1065,#1066);
#1065 = CARTESIAN_POINT('',(18.904024785917,-32.31975620527,8.));
#1066 = VECTOR('',#1067,1.);
#1067 = DIRECTION('',(0.,0.,1.));
#1068 = ORIENTED_EDGE('',*,*,#1069,.F.);
#1069 = EDGE_CURVE('',#1037,#1062,#1070,.T.);
#1070 = LINE('',#1071,#1072);
#1071 = CARTESIAN_POINT('',(36.655885532963,-68.1648596368,27.));
#1072 = VECTOR('',#1073,1.);
#1073 = DIRECTION('',(-0.443796518676,0.896127585788,0.));
#1074 = PLANE('',#1075);
#1075 = AXIS2_PLACEMENT_3D('',#1076,#1077,#1078);
#1076 = CARTESIAN_POINT('',(36.655885532963,-68.1648596368,8.));
#1077 = DIRECTION('',(0.896127585788,0.443796518676,0.));
#1078 = DIRECTION('',(0.,0.,1.));
#1079 = ADVANCED_FACE('',(#1080,#1099),#1141,.F.);
#1080 = FACE_BOUND('',#1081,.F.);
#1081 = EDGE_LOOP('',(#1082,#1083,#1084,#1092,#1098));
#1082 = ORIENTED_EDGE('',*,*,#188,.F.);
#1083 = ORIENTED_EDGE('',*,*,#1036,.T.);
#1084 = ORIENTED_EDGE('',*,*,#1085,.T.);
#1085 = EDGE_CURVE('',#1037,#1086,#1088,.T.);
#1086 = VERTEX_POINT('',#1087);
#1087 = CARTESIAN_POINT('',(85.046775165536,-44.19984762829,27.));
#1088 = LINE('',#1089,#1090);
#1089 = CARTESIAN_POINT('',(36.655885532963,-68.1648596368,27.));
#1090 = VECTOR('',#1091,1.);
#1091 = DIRECTION('',(0.896127585788,0.443796518676,0.));
#1092 = ORIENTED_EDGE('',*,*,#1093,.F.);
#1093 = EDGE_CURVE('',#245,#1086,#1094,.T.);
#1094 = LINE('',#1095,#1096);
#1095 = CARTESIAN_POINT('',(85.046775165536,-44.19984762829,8.));
#1096 = VECTOR('',#1097,1.);
#1097 = DIRECTION('',(0.,0.,1.));
#1098 = ORIENTED_EDGE('',*,*,#244,.F.);
#1099 = FACE_BOUND('',#1100,.F.);
#1100 = EDGE_LOOP('',(#1101,#1111,#1119,#1127,#1135));
#1101 = ORIENTED_EDGE('',*,*,#1102,.F.);
#1102 = EDGE_CURVE('',#1103,#1105,#1107,.T.);
#1103 = VERTEX_POINT('',#1104);
#1104 = CARTESIAN_POINT('',(65.780032071086,-53.74147277983,9.));
#1105 = VERTEX_POINT('',#1106);
#1106 = CARTESIAN_POINT('',(59.507138970567,-56.84804841056,9.));
#1107 = LINE('',#1108,#1109);
#1108 = CARTESIAN_POINT('',(48.081512251765,-62.50645402368,9.));
#1109 = VECTOR('',#1110,1.);
#1110 = DIRECTION('',(-0.896127585788,-0.443796518676,-0.));
#1111 = ORIENTED_EDGE('',*,*,#1112,.F.);
#1112 = EDGE_CURVE('',#1113,#1103,#1115,.T.);
#1113 = VERTEX_POINT('',#1114);
#1114 = CARTESIAN_POINT('',(65.780032071086,-53.74147277983,13.));
#1115 = LINE('',#1116,#1117);
#1116 = CARTESIAN_POINT('',(65.780032071086,-53.74147277983,8.5));
#1117 = VECTOR('',#1118,1.);
#1118 = DIRECTION('',(0.,0.,-1.));
#1119 = ORIENTED_EDGE('',*,*,#1120,.F.);
#1120 = EDGE_CURVE('',#1121,#1113,#1123,.T.);
#1121 = VERTEX_POINT('',#1122);
#1122 = CARTESIAN_POINT('',(62.643585520826,-55.29476059519,16.5));
#1123 = LINE('',#1124,#1125);
#1124 = CARTESIAN_POINT('',(59.619154918791,-56.79257384573,19.875));
#1125 = VECTOR('',#1126,1.);
#1126 = DIRECTION('',(0.633657892719,0.313811527823,-0.707106781187));
#1127 = ORIENTED_EDGE('',*,*,#1128,.F.);
#1128 = EDGE_CURVE('',#1129,#1121,#1131,.T.);
#1129 = VERTEX_POINT('',#1130);
#1130 = CARTESIAN_POINT('',(59.507138970567,-56.84804841056,13.));
#1131 = LINE('',#1132,#1133);
#1132 = CARTESIAN_POINT('',(54.24238940406,-59.45535295778,7.125));
#1133 = VECTOR('',#1134,1.);
#1134 = DIRECTION('',(0.633657892719,0.313811527823,0.707106781187));
#1135 = ORIENTED_EDGE('',*,*,#1136,.F.);
#1136 = EDGE_CURVE('',#1105,#1129,#1137,.T.);
#1137 = LINE('',#1138,#1139);
#1138 = CARTESIAN_POINT('',(59.507138970567,-56.84804841056,10.5));
#1139 = VECTOR('',#1140,1.);
#1140 = DIRECTION('',(0.,0.,1.));
#1141 = PLANE('',#1142);
#1142 = AXIS2_PLACEMENT_3D('',#1143,#1144,#1145);
#1143 = CARTESIAN_POINT('',(36.655885532963,-68.1648596368,8.));
#1144 = DIRECTION('',(-0.443796518676,0.896127585788,0.));
#1145 = DIRECTION('',(0.,0.,1.));
#1146 = ADVANCED_FACE('',(#1147),#1182,.T.);
#1147 = FACE_BOUND('',#1148,.T.);
#1148 = EDGE_LOOP('',(#1149,#1157,#1158,#1159,#1160,#1168,#1174,#1175,
    #1176));
#1149 = ORIENTED_EDGE('',*,*,#1150,.F.);
#1150 = EDGE_CURVE('',#1086,#1151,#1153,.T.);
#1151 = VERTEX_POINT('',#1152);
#1152 = CARTESIAN_POINT('',(67.29491441849,-8.354744196759,27.));
#1153 = LINE('',#1154,#1155);
#1154 = CARTESIAN_POINT('',(85.046775165536,-44.19984762829,27.));
#1155 = VECTOR('',#1156,1.);
#1156 = DIRECTION('',(-0.443796518676,0.896127585788,0.));
#1157 = ORIENTED_EDGE('',*,*,#1093,.F.);
#1158 = ORIENTED_EDGE('',*,*,#252,.T.);
#1159 = ORIENTED_EDGE('',*,*,#340,.T.);
#1160 = ORIENTED_EDGE('',*,*,#1161,.T.);
#1161 = EDGE_CURVE('',#333,#1162,#1164,.T.);
#1162 = VERTEX_POINT('',#1163);
#1163 = CARTESIAN_POINT('',(76.170844792013,-26.27729591252,23.4));
#1164 = LINE('',#1165,#1166);
#1165 = CARTESIAN_POINT('',(80.184116154215,-34.38101693235,
    14.70476556495));
#1166 = VECTOR('',#1167,1.);
#1167 = DIRECTION('',(-0.31990320475,0.645958394207,0.693108716252));
#1168 = ORIENTED_EDGE('',*,*,#1169,.T.);
#1169 = EDGE_CURVE('',#1162,#405,#1170,.T.);
#1170 = LINE('',#1171,#1172);
#1171 = CARTESIAN_POINT('',(74.461767683734,-22.8262748285,
    19.697079169869));
#1172 = VECTOR('',#1173,1.);
#1173 = DIRECTION('',(-0.31990320475,0.645958394207,-0.693108716252));
#1174 = ORIENTED_EDGE('',*,*,#404,.T.);
#1175 = ORIENTED_EDGE('',*,*,#476,.T.);
#1176 = ORIENTED_EDGE('',*,*,#1177,.T.);
#1177 = EDGE_CURVE('',#477,#1151,#1178,.T.);
#1178 = LINE('',#1179,#1180);
#1179 = CARTESIAN_POINT('',(67.29491441849,-8.354744196759,8.));
#1180 = VECTOR('',#1181,1.);
#1181 = DIRECTION('',(0.,0.,1.));
#1182 = PLANE('',#1183);
#1183 = AXIS2_PLACEMENT_3D('',#1184,#1185,#1186);
#1184 = CARTESIAN_POINT('',(85.046775165536,-44.19984762829,8.));
#1185 = DIRECTION('',(0.896127585788,0.443796518676,0.));
#1186 = DIRECTION('',(0.,0.,1.));
#1187 = ADVANCED_FACE('',(#1188),#1207,.T.);
#1188 = FACE_BOUND('',#1189,.T.);
#1189 = EDGE_LOOP('',(#1190,#1191,#1192,#1200,#1206));
#1190 = ORIENTED_EDGE('',*,*,#362,.T.);
#1191 = ORIENTED_EDGE('',*,*,#386,.T.);
#1192 = ORIENTED_EDGE('',*,*,#1193,.T.);
#1193 = EDGE_CURVE('',#387,#1194,#1196,.T.);
#1194 = VERTEX_POINT('',#1195);
#1195 = CARTESIAN_POINT('',(31.006014468278,-48.6446404538,23.4));
#1196 = LINE('',#1197,#1198);
#1197 = CARTESIAN_POINT('',(26.390530674046,-39.3249135616,13.4));
#1198 = VECTOR('',#1199,1.);
#1199 = DIRECTION('',(0.31990320475,-0.645958394207,0.693108716252));
#1200 = ORIENTED_EDGE('',*,*,#1201,.T.);
#1201 = EDGE_CURVE('',#1194,#275,#1202,.T.);
#1202 = LINE('',#1203,#1204);
#1203 = CARTESIAN_POINT('',(31.006014468278,-48.6446404538,23.4));
#1204 = VECTOR('',#1205,1.);
#1205 = DIRECTION('',(0.31990320475,-0.645958394207,-0.693108716252));
#1206 = ORIENTED_EDGE('',*,*,#274,.T.);
#1207 = PLANE('',#1208);
#1208 = AXIS2_PLACEMENT_3D('',#1209,#1210,#1211);
#1209 = CARTESIAN_POINT('',(31.006014468278,-48.6446404538,
    13.236708715361));
#1210 = DIRECTION('',(0.896127585788,0.443796518676,0.));
#1211 = DIRECTION('',(0.,0.,1.));
#1212 = ADVANCED_FACE('',(#1213),#1239,.T.);
#1213 = FACE_BOUND('',#1214,.T.);
#1214 = EDGE_LOOP('',(#1215,#1216,#1222,#1223,#1224,#1232,#1238));
#1215 = ORIENTED_EDGE('',*,*,#1201,.F.);
#1216 = ORIENTED_EDGE('',*,*,#1217,.T.);
#1217 = EDGE_CURVE('',#1194,#1162,#1218,.T.);
#1218 = LINE('',#1219,#1220);
#1219 = CARTESIAN_POINT('',(31.006014468278,-48.6446404538,23.4));
#1220 = VECTOR('',#1221,1.);
#1221 = DIRECTION('',(0.896127585788,0.443796518676,0.));
#1222 = ORIENTED_EDGE('',*,*,#1161,.F.);
#1223 = ORIENTED_EDGE('',*,*,#332,.F.);
#1224 = ORIENTED_EDGE('',*,*,#1225,.F.);
#1225 = EDGE_CURVE('',#1226,#325,#1228,.T.);
#1226 = VERTEX_POINT('',#1227);
#1227 = CARTESIAN_POINT('',(56.952338965323,-43.80282043504,16.5));
#1228 = LINE('',#1229,#1230);
#1229 = CARTESIAN_POINT('',(53.360313247706,-42.51124468041,
    19.145716510903));
#1230 = VECTOR('',#1231,1.);
#1231 = DIRECTION('',(0.773406819399,-0.278091966744,-0.569654939187));
#1232 = ORIENTED_EDGE('',*,*,#1233,.F.);
#1233 = EDGE_CURVE('',#285,#1226,#1234,.T.);
#1234 = LINE('',#1235,#1236);
#1235 = CARTESIAN_POINT('',(55.013689248704,-49.94010115616,
    12.039018691589));
#1236 = VECTOR('',#1237,1.);
#1237 = DIRECTION('',(0.247560191374,0.78371372446,0.569654939187));
#1238 = ORIENTED_EDGE('',*,*,#284,.F.);
#1239 = PLANE('',#1240);
#1240 = AXIS2_PLACEMENT_3D('',#1241,#1242,#1243);
#1241 = CARTESIAN_POINT('',(31.006014468278,-48.6446404538,23.4));
#1242 = DIRECTION('',(-0.307599235337,0.621113840584,-0.720833064902));
#1243 = DIRECTION('',(0.31990320475,-0.645958394207,-0.693108716252));
#1244 = ADVANCED_FACE('',(#1245),#1262,.F.);
#1245 = FACE_BOUND('',#1246,.F.);
#1246 = EDGE_LOOP('',(#1247,#1248,#1254,#1255,#1256));
#1247 = ORIENTED_EDGE('',*,*,#1120,.T.);
#1248 = ORIENTED_EDGE('',*,*,#1249,.T.);
#1249 = EDGE_CURVE('',#1113,#317,#1250,.T.);
#1250 = LINE('',#1251,#1252);
#1251 = CARTESIAN_POINT('',(67.111421627114,-56.42985553719,13.));
#1252 = VECTOR('',#1253,1.);
#1253 = DIRECTION('',(-0.443796518676,0.896127585788,0.));
#1254 = ORIENTED_EDGE('',*,*,#324,.F.);
#1255 = ORIENTED_EDGE('',*,*,#1225,.F.);
#1256 = ORIENTED_EDGE('',*,*,#1257,.F.);
#1257 = EDGE_CURVE('',#1121,#1226,#1258,.T.);
#1258 = LINE('',#1259,#1260);
#1259 = CARTESIAN_POINT('',(63.974975076855,-57.98314335256,16.5));
#1260 = VECTOR('',#1261,1.);
#1261 = DIRECTION('',(-0.443796518676,0.896127585788,0.));
#1262 = PLANE('',#1263);
#1263 = AXIS2_PLACEMENT_3D('',#1264,#1265,#1266);
#1264 = CARTESIAN_POINT('',(67.111421627114,-56.42985553719,13.));
#1265 = DIRECTION('',(0.633657892719,0.313811527823,0.707106781187));
#1266 = DIRECTION('',(-0.633657892719,-0.313811527823,0.707106781187));
#1267 = ADVANCED_FACE('',(#1268),#1279,.F.);
#1268 = FACE_BOUND('',#1269,.F.);
#1269 = EDGE_LOOP('',(#1270,#1271,#1277,#1278));
#1270 = ORIENTED_EDGE('',*,*,#1112,.T.);
#1271 = ORIENTED_EDGE('',*,*,#1272,.T.);
#1272 = EDGE_CURVE('',#1103,#309,#1273,.T.);
#1273 = LINE('',#1274,#1275);
#1274 = CARTESIAN_POINT('',(67.111421627114,-56.42985553719,9.));
#1275 = VECTOR('',#1276,1.);
#1276 = DIRECTION('',(-0.443796518676,0.896127585788,0.));
#1277 = ORIENTED_EDGE('',*,*,#316,.F.);
#1278 = ORIENTED_EDGE('',*,*,#1249,.F.);
#1279 = PLANE('',#1280);
#1280 = AXIS2_PLACEMENT_3D('',#1281,#1282,#1283);
#1281 = CARTESIAN_POINT('',(67.111421627114,-56.42985553719,9.));
#1282 = DIRECTION('',(0.896127585788,0.443796518676,0.));
#1283 = DIRECTION('',(0.,0.,1.));
#1284 = ADVANCED_FACE('',(#1285),#1296,.F.);
#1285 = FACE_BOUND('',#1286,.F.);
#1286 = EDGE_LOOP('',(#1287,#1288,#1294,#1295));
#1287 = ORIENTED_EDGE('',*,*,#1102,.T.);
#1288 = ORIENTED_EDGE('',*,*,#1289,.T.);
#1289 = EDGE_CURVE('',#1105,#301,#1290,.T.);
#1290 = LINE('',#1291,#1292);
#1291 = CARTESIAN_POINT('',(60.838528526596,-59.53643116793,9.));
#1292 = VECTOR('',#1293,1.);
#1293 = DIRECTION('',(-0.443796518676,0.896127585788,0.));
#1294 = ORIENTED_EDGE('',*,*,#308,.F.);
#1295 = ORIENTED_EDGE('',*,*,#1272,.F.);
#1296 = PLANE('',#1297);
#1297 = AXIS2_PLACEMENT_3D('',#1298,#1299,#1300);
#1298 = CARTESIAN_POINT('',(60.838528526596,-59.53643116793,9.));
#1299 = DIRECTION('',(0.,0.,-1.));
#1300 = DIRECTION('',(0.896127585788,0.443796518676,0.));
#1301 = ADVANCED_FACE('',(#1302),#1313,.F.);
#1302 = FACE_BOUND('',#1303,.F.);
#1303 = EDGE_LOOP('',(#1304,#1305,#1311,#1312));
#1304 = ORIENTED_EDGE('',*,*,#1136,.T.);
#1305 = ORIENTED_EDGE('',*,*,#1306,.T.);
#1306 = EDGE_CURVE('',#1129,#293,#1307,.T.);
#1307 = LINE('',#1308,#1309);
#1308 = CARTESIAN_POINT('',(60.838528526596,-59.53643116793,13.));
#1309 = VECTOR('',#1310,1.);
#1310 = DIRECTION('',(-0.443796518676,0.896127585788,0.));
#1311 = ORIENTED_EDGE('',*,*,#300,.F.);
#1312 = ORIENTED_EDGE('',*,*,#1289,.F.);
#1313 = PLANE('',#1314);
#1314 = AXIS2_PLACEMENT_3D('',#1315,#1316,#1317);
#1315 = CARTESIAN_POINT('',(60.838528526596,-59.53643116793,13.));
#1316 = DIRECTION('',(-0.896127585788,-0.443796518676,0.));
#1317 = DIRECTION('',(0.,0.,-1.));
#1318 = ADVANCED_FACE('',(#1319),#1326,.F.);
#1319 = FACE_BOUND('',#1320,.F.);
#1320 = EDGE_LOOP('',(#1321,#1322,#1323,#1324,#1325));
#1321 = ORIENTED_EDGE('',*,*,#1128,.T.);
#1322 = ORIENTED_EDGE('',*,*,#1257,.T.);
#1323 = ORIENTED_EDGE('',*,*,#1233,.F.);
#1324 = ORIENTED_EDGE('',*,*,#292,.F.);
#1325 = ORIENTED_EDGE('',*,*,#1306,.F.);
#1326 = PLANE('',#1327);
#1327 = AXIS2_PLACEMENT_3D('',#1328,#1329,#1330);
#1328 = CARTESIAN_POINT('',(63.974975076855,-57.98314335256,16.5));
#1329 = DIRECTION('',(-0.633657892719,-0.313811527823,0.707106781187));
#1330 = DIRECTION('',(-0.633657892719,-0.313811527823,-0.707106781187));
#1331 = ADVANCED_FACE('',(#1332),#1353,.T.);
#1332 = FACE_BOUND('',#1333,.T.);
#1333 = EDGE_LOOP('',(#1334,#1335,#1336,#1344,#1350,#1351,#1352));
#1334 = ORIENTED_EDGE('',*,*,#1193,.F.);
#1335 = ORIENTED_EDGE('',*,*,#460,.T.);
#1336 = ORIENTED_EDGE('',*,*,#1337,.F.);
#1337 = EDGE_CURVE('',#1338,#453,#1340,.T.);
#1338 = VERTEX_POINT('',#1339);
#1339 = CARTESIAN_POINT('',(50.582971329283,-30.94159732381,16.5));
#1340 = LINE('',#1341,#1342);
#1341 = CARTESIAN_POINT('',(50.479453823836,-30.9043757918,
    16.423753894081));
#1342 = VECTOR('',#1343,1.);
#1343 = DIRECTION('',(-0.773406819399,0.278091966744,-0.569654939187));
#1344 = ORIENTED_EDGE('',*,*,#1345,.F.);
#1345 = EDGE_CURVE('',#413,#1338,#1346,.T.);
#1346 = LINE('',#1347,#1348);
#1347 = CARTESIAN_POINT('',(47.527683203287,-40.6138763087,
    23.530451713396));
#1348 = VECTOR('',#1349,1.);
#1349 = DIRECTION('',(-0.247560191374,-0.78371372446,0.569654939187));
#1350 = ORIENTED_EDGE('',*,*,#412,.T.);
#1351 = ORIENTED_EDGE('',*,*,#1169,.F.);
#1352 = ORIENTED_EDGE('',*,*,#1217,.F.);
#1353 = PLANE('',#1354);
#1354 = AXIS2_PLACEMENT_3D('',#1355,#1356,#1357);
#1355 = CARTESIAN_POINT('',(26.390530674046,-39.3249135616,13.4));
#1356 = DIRECTION('',(0.307599235337,-0.621113840584,-0.720833064902));
#1357 = DIRECTION('',(0.31990320475,-0.645958394207,0.693108716252));
#1358 = ADVANCED_FACE('',(#1359),#1385,.F.);
#1359 = FACE_BOUND('',#1360,.F.);
#1360 = EDGE_LOOP('',(#1361,#1362,#1370,#1378,#1384));
#1361 = ORIENTED_EDGE('',*,*,#1337,.F.);
#1362 = ORIENTED_EDGE('',*,*,#1363,.T.);
#1363 = EDGE_CURVE('',#1338,#1364,#1366,.T.);
#1364 = VERTEX_POINT('',#1365);
#1365 = CARTESIAN_POINT('',(44.89172477378,-19.44965716366,16.5));
#1366 = LINE('',#1367,#1368);
#1367 = CARTESIAN_POINT('',(63.974975076855,-57.98314335256,16.5));
#1368 = VECTOR('',#1369,1.);
#1369 = DIRECTION('',(-0.443796518676,0.896127585788,0.));
#1370 = ORIENTED_EDGE('',*,*,#1371,.F.);
#1371 = EDGE_CURVE('',#1372,#1364,#1374,.T.);
#1372 = VERTEX_POINT('',#1373);
#1373 = CARTESIAN_POINT('',(41.755278223521,-21.00294497903,13.));
#1374 = LINE('',#1375,#1376);
#1375 = CARTESIAN_POINT('',(36.490528657014,-23.61024952625,7.125));
#1376 = VECTOR('',#1377,1.);
#1377 = DIRECTION('',(0.633657892719,0.313811527823,0.707106781187));
#1378 = ORIENTED_EDGE('',*,*,#1379,.F.);
#1379 = EDGE_CURVE('',#445,#1372,#1380,.T.);
#1380 = LINE('',#1381,#1382);
#1381 = CARTESIAN_POINT('',(60.838528526596,-59.53643116793,13.));
#1382 = VECTOR('',#1383,1.);
#1383 = DIRECTION('',(-0.443796518676,0.896127585788,0.));
#1384 = ORIENTED_EDGE('',*,*,#452,.F.);
#1385 = PLANE('',#1386);
#1386 = AXIS2_PLACEMENT_3D('',#1387,#1388,#1389);
#1387 = CARTESIAN_POINT('',(63.974975076855,-57.98314335256,16.5));
#1388 = DIRECTION('',(-0.633657892719,-0.313811527823,0.707106781187));
#1389 = DIRECTION('',(-0.633657892719,-0.313811527823,-0.707106781187));
#1390 = ADVANCED_FACE('',(#1391),#1409,.F.);
#1391 = FACE_BOUND('',#1392,.F.);
#1392 = EDGE_LOOP('',(#1393,#1394,#1395,#1403));
#1393 = ORIENTED_EDGE('',*,*,#444,.F.);
#1394 = ORIENTED_EDGE('',*,*,#1379,.T.);
#1395 = ORIENTED_EDGE('',*,*,#1396,.F.);
#1396 = EDGE_CURVE('',#1397,#1372,#1399,.T.);
#1397 = VERTEX_POINT('',#1398);
#1398 = CARTESIAN_POINT('',(41.755278223521,-21.00294497903,9.));
#1399 = LINE('',#1400,#1401);
#1400 = CARTESIAN_POINT('',(41.755278223521,-21.00294497903,10.5));
#1401 = VECTOR('',#1402,1.);
#1402 = DIRECTION('',(0.,0.,1.));
#1403 = ORIENTED_EDGE('',*,*,#1404,.F.);
#1404 = EDGE_CURVE('',#437,#1397,#1405,.T.);
#1405 = LINE('',#1406,#1407);
#1406 = CARTESIAN_POINT('',(60.838528526596,-59.53643116793,9.));
#1407 = VECTOR('',#1408,1.);
#1408 = DIRECTION('',(-0.443796518676,0.896127585788,0.));
#1409 = PLANE('',#1410);
#1410 = AXIS2_PLACEMENT_3D('',#1411,#1412,#1413);
#1411 = CARTESIAN_POINT('',(60.838528526596,-59.53643116793,13.));
#1412 = DIRECTION('',(-0.896127585788,-0.443796518676,0.));
#1413 = DIRECTION('',(0.,0.,-1.));
#1414 = ADVANCED_FACE('',(#1415),#1433,.F.);
#1415 = FACE_BOUND('',#1416,.F.);
#1416 = EDGE_LOOP('',(#1417,#1418,#1419,#1427));
#1417 = ORIENTED_EDGE('',*,*,#436,.F.);
#1418 = ORIENTED_EDGE('',*,*,#1404,.T.);
#1419 = ORIENTED_EDGE('',*,*,#1420,.F.);
#1420 = EDGE_CURVE('',#1421,#1397,#1423,.T.);
#1421 = VERTEX_POINT('',#1422);
#1422 = CARTESIAN_POINT('',(48.02817132404,-17.89636934829,9.));
#1423 = LINE('',#1424,#1425);
#1424 = CARTESIAN_POINT('',(30.329651504719,-26.66135059215,9.));
#1425 = VECTOR('',#1426,1.);
#1426 = DIRECTION('',(-0.896127585788,-0.443796518676,-0.));
#1427 = ORIENTED_EDGE('',*,*,#1428,.F.);
#1428 = EDGE_CURVE('',#429,#1421,#1429,.T.);
#1429 = LINE('',#1430,#1431);
#1430 = CARTESIAN_POINT('',(67.111421627114,-56.42985553719,9.));
#1431 = VECTOR('',#1432,1.);
#1432 = DIRECTION('',(-0.443796518676,0.896127585788,0.));
#1433 = PLANE('',#1434);
#1434 = AXIS2_PLACEMENT_3D('',#1435,#1436,#1437);
#1435 = CARTESIAN_POINT('',(60.838528526596,-59.53643116793,9.));
#1436 = DIRECTION('',(0.,0.,-1.));
#1437 = DIRECTION('',(0.896127585788,0.443796518676,0.));
#1438 = ADVANCED_FACE('',(#1439),#1457,.F.);
#1439 = FACE_BOUND('',#1440,.F.);
#1440 = EDGE_LOOP('',(#1441,#1442,#1443,#1451));
#1441 = ORIENTED_EDGE('',*,*,#428,.F.);
#1442 = ORIENTED_EDGE('',*,*,#1428,.T.);
#1443 = ORIENTED_EDGE('',*,*,#1444,.F.);
#1444 = EDGE_CURVE('',#1445,#1421,#1447,.T.);
#1445 = VERTEX_POINT('',#1446);
#1446 = CARTESIAN_POINT('',(48.02817132404,-17.89636934829,13.));
#1447 = LINE('',#1448,#1449);
#1448 = CARTESIAN_POINT('',(48.02817132404,-17.89636934829,8.5));
#1449 = VECTOR('',#1450,1.);
#1450 = DIRECTION('',(0.,0.,-1.));
#1451 = ORIENTED_EDGE('',*,*,#1452,.F.);
#1452 = EDGE_CURVE('',#421,#1445,#1453,.T.);
#1453 = LINE('',#1454,#1455);
#1454 = CARTESIAN_POINT('',(67.111421627114,-56.42985553719,13.));
#1455 = VECTOR('',#1456,1.);
#1456 = DIRECTION('',(-0.443796518676,0.896127585788,0.));
#1457 = PLANE('',#1458);
#1458 = AXIS2_PLACEMENT_3D('',#1459,#1460,#1461);
#1459 = CARTESIAN_POINT('',(67.111421627114,-56.42985553719,9.));
#1460 = DIRECTION('',(0.896127585788,0.443796518676,0.));
#1461 = DIRECTION('',(0.,0.,1.));
#1462 = ADVANCED_FACE('',(#1463),#1475,.F.);
#1463 = FACE_BOUND('',#1464,.F.);
#1464 = EDGE_LOOP('',(#1465,#1466,#1467,#1473,#1474));
#1465 = ORIENTED_EDGE('',*,*,#420,.F.);
#1466 = ORIENTED_EDGE('',*,*,#1452,.T.);
#1467 = ORIENTED_EDGE('',*,*,#1468,.F.);
#1468 = EDGE_CURVE('',#1364,#1445,#1469,.T.);
#1469 = LINE('',#1470,#1471);
#1470 = CARTESIAN_POINT('',(41.867294171744,-20.94747041419,19.875));
#1471 = VECTOR('',#1472,1.);
#1472 = DIRECTION('',(0.633657892719,0.313811527823,-0.707106781187));
#1473 = ORIENTED_EDGE('',*,*,#1363,.F.);
#1474 = ORIENTED_EDGE('',*,*,#1345,.F.);
#1475 = PLANE('',#1476);
#1476 = AXIS2_PLACEMENT_3D('',#1477,#1478,#1479);
#1477 = CARTESIAN_POINT('',(67.111421627114,-56.42985553719,13.));
#1478 = DIRECTION('',(0.633657892719,0.313811527823,0.707106781187));
#1479 = DIRECTION('',(-0.633657892719,-0.313811527823,0.707106781187));
#1480 = ADVANCED_FACE('',(#1481,#1493),#1500,.T.);
#1481 = FACE_BOUND('',#1482,.T.);
#1482 = EDGE_LOOP('',(#1483,#1484,#1485,#1491,#1492));
#1483 = ORIENTED_EDGE('',*,*,#498,.F.);
#1484 = ORIENTED_EDGE('',*,*,#1061,.T.);
#1485 = ORIENTED_EDGE('',*,*,#1486,.T.);
#1486 = EDGE_CURVE('',#1062,#1151,#1487,.T.);
#1487 = LINE('',#1488,#1489);
#1488 = CARTESIAN_POINT('',(18.904024785917,-32.31975620527,27.));
#1489 = VECTOR('',#1490,1.);
#1490 = DIRECTION('',(0.896127585788,0.443796518676,0.));
#1491 = ORIENTED_EDGE('',*,*,#1177,.F.);
#1492 = ORIENTED_EDGE('',*,*,#484,.F.);
#1493 = FACE_BOUND('',#1494,.T.);
#1494 = EDGE_LOOP('',(#1495,#1496,#1497,#1498,#1499));
#1495 = ORIENTED_EDGE('',*,*,#1420,.F.);
#1496 = ORIENTED_EDGE('',*,*,#1444,.F.);
#1497 = ORIENTED_EDGE('',*,*,#1468,.F.);
#1498 = ORIENTED_EDGE('',*,*,#1371,.F.);
#1499 = ORIENTED_EDGE('',*,*,#1396,.F.);
#1500 = PLANE('',#1501);
#1501 = AXIS2_PLACEMENT_3D('',#1502,#1503,#1504);
#1502 = CARTESIAN_POINT('',(18.904024785917,-32.31975620527,8.));
#1503 = DIRECTION('',(-0.443796518676,0.896127585788,0.));
#1504 = DIRECTION('',(0.,0.,1.));
#1505 = ADVANCED_FACE('',(#1506),#1524,.T.);
#1506 = FACE_BOUND('',#1507,.T.);
#1507 = EDGE_LOOP('',(#1508,#1509,#1517,#1523));
#1508 = ORIENTED_EDGE('',*,*,#540,.F.);
#1509 = ORIENTED_EDGE('',*,*,#1510,.T.);
#1510 = EDGE_CURVE('',#532,#1511,#1513,.T.);
#1511 = VERTEX_POINT('',#1512);
#1512 = CARTESIAN_POINT('',(16.625129849602,-39.02791443463,16.));
#1513 = LINE('',#1514,#1515);
#1514 = CARTESIAN_POINT('',(16.625129849601,-39.02791443463,8.));
#1515 = VECTOR('',#1516,1.);
#1516 = DIRECTION('',(0.,0.,1.));
#1517 = ORIENTED_EDGE('',*,*,#1518,.T.);
#1518 = EDGE_CURVE('',#1511,#1047,#1519,.T.);
#1519 = LINE('',#1520,#1521);
#1520 = CARTESIAN_POINT('',(9.473348764049,-42.569748877,16.));
#1521 = VECTOR('',#1522,1.);
#1522 = DIRECTION('',(0.896127585788,0.443796518676,0.));
#1523 = ORIENTED_EDGE('',*,*,#1054,.T.);
#1524 = PLANE('',#1525);
#1525 = AXIS2_PLACEMENT_3D('',#1526,#1527,#1528);
#1526 = CARTESIAN_POINT('',(9.473348764049,-42.569748877,8.));
#1527 = DIRECTION('',(-0.443796518676,0.896127585788,0.));
#1528 = DIRECTION('',(0.,0.,1.));
#1529 = ADVANCED_FACE('',(#1530),#1549,.T.);
#1530 = FACE_BOUND('',#1531,.T.);
#1531 = EDGE_LOOP('',(#1532,#1541,#1542,#1543));
#1532 = ORIENTED_EDGE('',*,*,#1533,.F.);
#1533 = EDGE_CURVE('',#1511,#1534,#1536,.T.);
#1534 = VERTEX_POINT('',#1535);
#1535 = CARTESIAN_POINT('',(-16.6251298496,-39.02791443463,16.));
#1536 = CIRCLE('',#1537,30.);
#1537 = AXIS2_PLACEMENT_3D('',#1538,#1539,#1540);
#1538 = CARTESIAN_POINT('',(0.,-64.,16.));
#1539 = DIRECTION('',(0.,0.,1.));
#1540 = DIRECTION('',(1.,0.,0.));
#1541 = ORIENTED_EDGE('',*,*,#1510,.F.);
#1542 = ORIENTED_EDGE('',*,*,#531,.T.);
#1543 = ORIENTED_EDGE('',*,*,#1544,.T.);
#1544 = EDGE_CURVE('',#524,#1534,#1545,.T.);
#1545 = LINE('',#1546,#1547);
#1546 = CARTESIAN_POINT('',(-16.6251298496,-39.02791443463,8.));
#1547 = VECTOR('',#1548,1.);
#1548 = DIRECTION('',(0.,0.,1.));
#1549 = CYLINDRICAL_SURFACE('',#1550,30.);
#1550 = AXIS2_PLACEMENT_3D('',#1551,#1552,#1553);
#1551 = CARTESIAN_POINT('',(0.,-64.,8.));
#1552 = DIRECTION('',(0.,0.,1.));
#1553 = DIRECTION('',(1.,0.,0.));
#1554 = ADVANCED_FACE('',(#1555),#1566,.F.);
#1555 = FACE_BOUND('',#1556,.F.);
#1556 = EDGE_LOOP('',(#1557,#1558,#1559,#1565));
#1557 = ORIENTED_EDGE('',*,*,#523,.F.);
#1558 = ORIENTED_EDGE('',*,*,#1544,.T.);
#1559 = ORIENTED_EDGE('',*,*,#1560,.T.);
#1560 = EDGE_CURVE('',#1534,#926,#1561,.T.);
#1561 = LINE('',#1562,#1563);
#1562 = CARTESIAN_POINT('',(-9.473348764049,-42.569748877,16.));
#1563 = VECTOR('',#1564,1.);
#1564 = DIRECTION('',(-0.896127585788,0.443796518676,0.));
#1565 = ORIENTED_EDGE('',*,*,#925,.T.);
#1566 = PLANE('',#1567);
#1567 = AXIS2_PLACEMENT_3D('',#1568,#1569,#1570);
#1568 = CARTESIAN_POINT('',(-9.473348764049,-42.569748877,8.));
#1569 = DIRECTION('',(-0.443796518676,-0.896127585788,0.));
#1570 = DIRECTION('',(0.,0.,1.));
#1571 = ADVANCED_FACE('',(#1572,#1591),#1633,.F.);
#1572 = FACE_BOUND('',#1573,.F.);
#1573 = EDGE_LOOP('',(#1574,#1575,#1576,#1584,#1590));
#1574 = ORIENTED_EDGE('',*,*,#507,.F.);
#1575 = ORIENTED_EDGE('',*,*,#916,.T.);
#1576 = ORIENTED_EDGE('',*,*,#1577,.T.);
#1577 = EDGE_CURVE('',#917,#1578,#1580,.T.);
#1578 = VERTEX_POINT('',#1579);
#1579 = CARTESIAN_POINT('',(-67.29491441849,-8.354744196759,27.));
#1580 = LINE('',#1581,#1582);
#1581 = CARTESIAN_POINT('',(-18.90402478591,-32.31975620527,27.));
#1582 = VECTOR('',#1583,1.);
#1583 = DIRECTION('',(-0.896127585788,0.443796518676,0.));
#1584 = ORIENTED_EDGE('',*,*,#1585,.F.);
#1585 = EDGE_CURVE('',#564,#1578,#1586,.T.);
#1586 = LINE('',#1587,#1588);
#1587 = CARTESIAN_POINT('',(-67.29491441849,-8.354744196759,8.));
#1588 = VECTOR('',#1589,1.);
#1589 = DIRECTION('',(0.,0.,1.));
#1590 = ORIENTED_EDGE('',*,*,#563,.F.);
#1591 = FACE_BOUND('',#1592,.F.);
#1592 = EDGE_LOOP('',(#1593,#1603,#1611,#1619,#1627));
#1593 = ORIENTED_EDGE('',*,*,#1594,.F.);
#1594 = EDGE_CURVE('',#1595,#1597,#1599,.T.);
#1595 = VERTEX_POINT('',#1596);
#1596 = CARTESIAN_POINT('',(-48.02817132404,-17.89636934829,9.));
#1597 = VERTEX_POINT('',#1598);
#1598 = CARTESIAN_POINT('',(-41.75527822352,-21.00294497903,9.));
#1599 = LINE('',#1600,#1601);
#1600 = CARTESIAN_POINT('',(-30.32965150471,-26.66135059215,9.));
#1601 = VECTOR('',#1602,1.);
#1602 = DIRECTION('',(0.896127585788,-0.443796518676,-0.));
#1603 = ORIENTED_EDGE('',*,*,#1604,.F.);
#1604 = EDGE_CURVE('',#1605,#1595,#1607,.T.);
#1605 = VERTEX_POINT('',#1606);
#1606 = CARTESIAN_POINT('',(-48.02817132404,-17.89636934829,13.));
#1607 = LINE('',#1608,#1609);
#1608 = CARTESIAN_POINT('',(-48.02817132404,-17.89636934829,8.5));
#1609 = VECTOR('',#1610,1.);
#1610 = DIRECTION('',(-0.,0.,-1.));
#1611 = ORIENTED_EDGE('',*,*,#1612,.F.);
#1612 = EDGE_CURVE('',#1613,#1605,#1615,.T.);
#1613 = VERTEX_POINT('',#1614);
#1614 = CARTESIAN_POINT('',(-44.89172477378,-19.44965716366,16.5));
#1615 = LINE('',#1616,#1617);
#1616 = CARTESIAN_POINT('',(-41.86729417174,-20.94747041419,19.875));
#1617 = VECTOR('',#1618,1.);
#1618 = DIRECTION('',(-0.633657892719,0.313811527823,-0.707106781187));
#1619 = ORIENTED_EDGE('',*,*,#1620,.F.);
#1620 = EDGE_CURVE('',#1621,#1613,#1623,.T.);
#1621 = VERTEX_POINT('',#1622);
#1622 = CARTESIAN_POINT('',(-41.75527822352,-21.00294497903,13.));
#1623 = LINE('',#1624,#1625);
#1624 = CARTESIAN_POINT('',(-36.49052865701,-23.61024952625,7.125));
#1625 = VECTOR('',#1626,1.);
#1626 = DIRECTION('',(-0.633657892719,0.313811527823,0.707106781187));
#1627 = ORIENTED_EDGE('',*,*,#1628,.F.);
#1628 = EDGE_CURVE('',#1597,#1621,#1629,.T.);
#1629 = LINE('',#1630,#1631);
#1630 = CARTESIAN_POINT('',(-41.75527822352,-21.00294497903,10.5));
#1631 = VECTOR('',#1632,1.);
#1632 = DIRECTION('',(0.,0.,1.));
#1633 = PLANE('',#1634);
#1634 = AXIS2_PLACEMENT_3D('',#1635,#1636,#1637);
#1635 = CARTESIAN_POINT('',(-18.90402478591,-32.31975620527,8.));
#1636 = DIRECTION('',(-0.443796518676,-0.896127585788,0.));
#1637 = DIRECTION('',(0.,0.,1.));
#1638 = ADVANCED_FACE('',(#1639),#1667,.T.);
#1639 = FACE_BOUND('',#1640,.T.);
#1640 = EDGE_LOOP('',(#1641,#1647,#1648,#1649,#1650,#1658,#1664,#1665,
    #1666));
#1641 = ORIENTED_EDGE('',*,*,#1642,.F.);
#1642 = EDGE_CURVE('',#1578,#852,#1643,.T.);
#1643 = LINE('',#1644,#1645);
#1644 = CARTESIAN_POINT('',(-67.29491441849,-8.354744196759,27.));
#1645 = VECTOR('',#1646,1.);
#1646 = DIRECTION('',(-0.443796518676,-0.896127585788,0.));
#1647 = ORIENTED_EDGE('',*,*,#1585,.F.);
#1648 = ORIENTED_EDGE('',*,*,#571,.T.);
#1649 = ORIENTED_EDGE('',*,*,#659,.T.);
#1650 = ORIENTED_EDGE('',*,*,#1651,.T.);
#1651 = EDGE_CURVE('',#652,#1652,#1654,.T.);
#1652 = VERTEX_POINT('',#1653);
#1653 = CARTESIAN_POINT('',(-76.17084479201,-26.27729591252,23.4));
#1654 = LINE('',#1655,#1656);
#1655 = CARTESIAN_POINT('',(-72.15757342981,-18.17357489269,
    14.70476556495));
#1656 = VECTOR('',#1657,1.);
#1657 = DIRECTION('',(-0.31990320475,-0.645958394207,0.693108716252));
#1658 = ORIENTED_EDGE('',*,*,#1659,.T.);
#1659 = EDGE_CURVE('',#1652,#724,#1660,.T.);
#1660 = LINE('',#1661,#1662);
#1661 = CARTESIAN_POINT('',(-77.87992190029,-29.72831699655,
    19.697079169869));
#1662 = VECTOR('',#1663,1.);
#1663 = DIRECTION('',(-0.31990320475,-0.645958394207,-0.693108716252));
#1664 = ORIENTED_EDGE('',*,*,#723,.T.);
#1665 = ORIENTED_EDGE('',*,*,#795,.T.);
#1666 = ORIENTED_EDGE('',*,*,#859,.T.);
#1667 = PLANE('',#1668);
#1668 = AXIS2_PLACEMENT_3D('',#1669,#1670,#1671);
#1669 = CARTESIAN_POINT('',(-67.29491441849,-8.354744196759,8.));
#1670 = DIRECTION('',(-0.896127585788,0.443796518676,0.));
#1671 = DIRECTION('',(0.,0.,1.));
#1672 = ADVANCED_FACE('',(#1673),#1692,.T.);
#1673 = FACE_BOUND('',#1674,.T.);
#1674 = EDGE_LOOP('',(#1675,#1676,#1677,#1685,#1691));
#1675 = ORIENTED_EDGE('',*,*,#681,.T.);
#1676 = ORIENTED_EDGE('',*,*,#705,.T.);
#1677 = ORIENTED_EDGE('',*,*,#1678,.T.);
#1678 = EDGE_CURVE('',#706,#1679,#1681,.T.);
#1679 = VERTEX_POINT('',#1680);
#1680 = CARTESIAN_POINT('',(-31.00601446827,-48.6446404538,23.4));
#1681 = LINE('',#1682,#1683);
#1682 = CARTESIAN_POINT('',(-35.62149826251,-57.964367346,13.4));
#1683 = VECTOR('',#1684,1.);
#1684 = DIRECTION('',(0.31990320475,0.645958394207,0.693108716252));
#1685 = ORIENTED_EDGE('',*,*,#1686,.T.);
#1686 = EDGE_CURVE('',#1679,#594,#1687,.T.);
#1687 = LINE('',#1688,#1689);
#1688 = CARTESIAN_POINT('',(-31.00601446827,-48.6446404538,23.4));
#1689 = VECTOR('',#1690,1.);
#1690 = DIRECTION('',(0.31990320475,0.645958394207,-0.693108716252));
#1691 = ORIENTED_EDGE('',*,*,#593,.T.);
#1692 = PLANE('',#1693);
#1693 = AXIS2_PLACEMENT_3D('',#1694,#1695,#1696);
#1694 = CARTESIAN_POINT('',(-31.00601446827,-48.6446404538,
    13.236708715361));
#1695 = DIRECTION('',(-0.896127585788,0.443796518676,0.));
#1696 = DIRECTION('',(0.,0.,1.));
#1697 = ADVANCED_FACE('',(#1698),#1724,.T.);
#1698 = FACE_BOUND('',#1699,.T.);
#1699 = EDGE_LOOP('',(#1700,#1701,#1707,#1708,#1709,#1717,#1723));
#1700 = ORIENTED_EDGE('',*,*,#1686,.F.);
#1701 = ORIENTED_EDGE('',*,*,#1702,.T.);
#1702 = EDGE_CURVE('',#1679,#1652,#1703,.T.);
#1703 = LINE('',#1704,#1705);
#1704 = CARTESIAN_POINT('',(-31.00601446827,-48.6446404538,23.4));
#1705 = VECTOR('',#1706,1.);
#1706 = DIRECTION('',(-0.896127585788,0.443796518676,0.));
#1707 = ORIENTED_EDGE('',*,*,#1651,.F.);
#1708 = ORIENTED_EDGE('',*,*,#651,.F.);
#1709 = ORIENTED_EDGE('',*,*,#1710,.F.);
#1710 = EDGE_CURVE('',#1711,#644,#1713,.T.);
#1711 = VERTEX_POINT('',#1712);
#1712 = CARTESIAN_POINT('',(-50.58297132928,-30.94159732381,16.5));
#1713 = LINE('',#1714,#1715);
#1714 = CARTESIAN_POINT('',(-49.4331979477,-34.58149263233,
    19.145716510903));
#1715 = VECTOR('',#1716,1.);
#1716 = DIRECTION('',(-0.247560191374,0.78371372446,-0.569654939187));
#1717 = ORIENTED_EDGE('',*,*,#1718,.F.);
#1718 = EDGE_CURVE('',#604,#1711,#1719,.T.);
#1719 = LINE('',#1720,#1721);
#1720 = CARTESIAN_POINT('',(-44.52640422559,-28.7638525518,
    12.039018691589));
#1721 = VECTOR('',#1722,1.);
#1722 = DIRECTION('',(-0.773406819399,-0.278091966744,0.569654939187));
#1723 = ORIENTED_EDGE('',*,*,#603,.F.);
#1724 = PLANE('',#1725);
#1725 = AXIS2_PLACEMENT_3D('',#1726,#1727,#1728);
#1726 = CARTESIAN_POINT('',(-31.00601446827,-48.6446404538,23.4));
#1727 = DIRECTION('',(-0.307599235337,-0.621113840584,-0.720833064902));
#1728 = DIRECTION('',(0.31990320475,0.645958394207,-0.693108716252));
#1729 = ADVANCED_FACE('',(#1730),#1747,.F.);
#1730 = FACE_BOUND('',#1731,.F.);
#1731 = EDGE_LOOP('',(#1732,#1733,#1739,#1740,#1741));
#1732 = ORIENTED_EDGE('',*,*,#1612,.T.);
#1733 = ORIENTED_EDGE('',*,*,#1734,.T.);
#1734 = EDGE_CURVE('',#1605,#636,#1735,.T.);
#1735 = LINE('',#1736,#1737);
#1736 = CARTESIAN_POINT('',(-46.69678176801,-15.20798659093,13.));
#1737 = VECTOR('',#1738,1.);
#1738 = DIRECTION('',(-0.443796518676,-0.896127585788,0.));
#1739 = ORIENTED_EDGE('',*,*,#643,.F.);
#1740 = ORIENTED_EDGE('',*,*,#1710,.F.);
#1741 = ORIENTED_EDGE('',*,*,#1742,.F.);
#1742 = EDGE_CURVE('',#1613,#1711,#1743,.T.);
#1743 = LINE('',#1744,#1745);
#1744 = CARTESIAN_POINT('',(-43.56033521775,-16.76127440629,16.5));
#1745 = VECTOR('',#1746,1.);
#1746 = DIRECTION('',(-0.443796518676,-0.896127585788,0.));
#1747 = PLANE('',#1748);
#1748 = AXIS2_PLACEMENT_3D('',#1749,#1750,#1751);
#1749 = CARTESIAN_POINT('',(-46.69678176801,-15.20798659093,13.));
#1750 = DIRECTION('',(-0.633657892719,0.313811527823,0.707106781187));
#1751 = DIRECTION('',(0.633657892719,-0.313811527823,0.707106781187));
#1752 = ADVANCED_FACE('',(#1753),#1764,.F.);
#1753 = FACE_BOUND('',#1754,.F.);
#1754 = EDGE_LOOP('',(#1755,#1756,#1762,#1763));
#1755 = ORIENTED_EDGE('',*,*,#1604,.T.);
#1756 = ORIENTED_EDGE('',*,*,#1757,.T.);
#1757 = EDGE_CURVE('',#1595,#628,#1758,.T.);
#1758 = LINE('',#1759,#1760);
#1759 = CARTESIAN_POINT('',(-46.69678176801,-15.20798659093,9.));
#1760 = VECTOR('',#1761,1.);
#1761 = DIRECTION('',(-0.443796518676,-0.896127585788,0.));
#1762 = ORIENTED_EDGE('',*,*,#635,.F.);
#1763 = ORIENTED_EDGE('',*,*,#1734,.F.);
#1764 = PLANE('',#1765);
#1765 = AXIS2_PLACEMENT_3D('',#1766,#1767,#1768);
#1766 = CARTESIAN_POINT('',(-46.69678176801,-15.20798659093,9.));
#1767 = DIRECTION('',(-0.896127585788,0.443796518676,0.));
#1768 = DIRECTION('',(0.,0.,1.));
#1769 = ADVANCED_FACE('',(#1770),#1781,.F.);
#1770 = FACE_BOUND('',#1771,.F.);
#1771 = EDGE_LOOP('',(#1772,#1773,#1779,#1780));
#1772 = ORIENTED_EDGE('',*,*,#1594,.T.);
#1773 = ORIENTED_EDGE('',*,*,#1774,.T.);
#1774 = EDGE_CURVE('',#1597,#620,#1775,.T.);
#1775 = LINE('',#1776,#1777);
#1776 = CARTESIAN_POINT('',(-40.42388866749,-18.31456222166,9.));
#1777 = VECTOR('',#1778,1.);
#1778 = DIRECTION('',(-0.443796518676,-0.896127585788,0.));
#1779 = ORIENTED_EDGE('',*,*,#627,.F.);
#1780 = ORIENTED_EDGE('',*,*,#1757,.F.);
#1781 = PLANE('',#1782);
#1782 = AXIS2_PLACEMENT_3D('',#1783,#1784,#1785);
#1783 = CARTESIAN_POINT('',(-40.42388866749,-18.31456222166,9.));
#1784 = DIRECTION('',(-0.,0.,-1.));
#1785 = DIRECTION('',(-0.896127585788,0.443796518676,0.));
#1786 = ADVANCED_FACE('',(#1787),#1798,.F.);
#1787 = FACE_BOUND('',#1788,.F.);
#1788 = EDGE_LOOP('',(#1789,#1790,#1796,#1797));
#1789 = ORIENTED_EDGE('',*,*,#1628,.T.);
#1790 = ORIENTED_EDGE('',*,*,#1791,.T.);
#1791 = EDGE_CURVE('',#1621,#612,#1792,.T.);
#1792 = LINE('',#1793,#1794);
#1793 = CARTESIAN_POINT('',(-40.42388866749,-18.31456222166,13.));
#1794 = VECTOR('',#1795,1.);
#1795 = DIRECTION('',(-0.443796518676,-0.896127585788,0.));
#1796 = ORIENTED_EDGE('',*,*,#619,.F.);
#1797 = ORIENTED_EDGE('',*,*,#1774,.F.);
#1798 = PLANE('',#1799);
#1799 = AXIS2_PLACEMENT_3D('',#1800,#1801,#1802);
#1800 = CARTESIAN_POINT('',(-40.42388866749,-18.31456222166,13.));
#1801 = DIRECTION('',(0.896127585788,-0.443796518676,0.));
#1802 = DIRECTION('',(-0.,0.,-1.));
#1803 = ADVANCED_FACE('',(#1804),#1811,.F.);
#1804 = FACE_BOUND('',#1805,.F.);
#1805 = EDGE_LOOP('',(#1806,#1807,#1808,#1809,#1810));
#1806 = ORIENTED_EDGE('',*,*,#1620,.T.);
#1807 = ORIENTED_EDGE('',*,*,#1742,.T.);
#1808 = ORIENTED_EDGE('',*,*,#1718,.F.);
#1809 = ORIENTED_EDGE('',*,*,#611,.F.);
#1810 = ORIENTED_EDGE('',*,*,#1791,.F.);
#1811 = PLANE('',#1812);
#1812 = AXIS2_PLACEMENT_3D('',#1813,#1814,#1815);
#1813 = CARTESIAN_POINT('',(-43.56033521775,-16.76127440629,16.5));
#1814 = DIRECTION('',(0.633657892719,-0.313811527823,0.707106781187));
#1815 = DIRECTION('',(0.633657892719,-0.313811527823,-0.707106781187));
#1816 = ADVANCED_FACE('',(#1817),#1838,.T.);
#1817 = FACE_BOUND('',#1818,.T.);
#1818 = EDGE_LOOP('',(#1819,#1820,#1821,#1829,#1835,#1836,#1837));
#1819 = ORIENTED_EDGE('',*,*,#1678,.F.);
#1820 = ORIENTED_EDGE('',*,*,#779,.T.);
#1821 = ORIENTED_EDGE('',*,*,#1822,.F.);
#1822 = EDGE_CURVE('',#1823,#772,#1825,.T.);
#1823 = VERTEX_POINT('',#1824);
#1824 = CARTESIAN_POINT('',(-56.95233896532,-43.80282043504,16.5));
#1825 = LINE('',#1826,#1827);
#1826 = CARTESIAN_POINT('',(-56.91920399312,-43.90771747979,
    16.423753894081));
#1827 = VECTOR('',#1828,1.);
#1828 = DIRECTION('',(0.247560191374,-0.78371372446,-0.569654939187));
#1829 = ORIENTED_EDGE('',*,*,#1830,.F.);
#1830 = EDGE_CURVE('',#732,#1823,#1831,.T.);
#1831 = LINE('',#1832,#1833);
#1832 = CARTESIAN_POINT('',(-47.40726364946,-40.37072144041,
    23.530451713396));
#1833 = VECTOR('',#1834,1.);
#1834 = DIRECTION('',(0.773406819399,0.278091966744,0.569654939187));
#1835 = ORIENTED_EDGE('',*,*,#731,.T.);
#1836 = ORIENTED_EDGE('',*,*,#1659,.F.);
#1837 = ORIENTED_EDGE('',*,*,#1702,.F.);
#1838 = PLANE('',#1839);
#1839 = AXIS2_PLACEMENT_3D('',#1840,#1841,#1842);
#1840 = CARTESIAN_POINT('',(-35.62149826251,-57.964367346,13.4));
#1841 = DIRECTION('',(0.307599235337,0.621113840584,-0.720833064902));
#1842 = DIRECTION('',(0.31990320475,0.645958394207,0.693108716252));
#1843 = ADVANCED_FACE('',(#1844),#1861,.F.);
#1844 = FACE_BOUND('',#1845,.F.);
#1845 = EDGE_LOOP('',(#1846,#1847,#1853,#1854,#1860));
#1846 = ORIENTED_EDGE('',*,*,#1822,.F.);
#1847 = ORIENTED_EDGE('',*,*,#1848,.T.);
#1848 = EDGE_CURVE('',#1823,#887,#1849,.T.);
#1849 = LINE('',#1850,#1851);
#1850 = CARTESIAN_POINT('',(-43.56033521775,-16.76127440629,16.5));
#1851 = VECTOR('',#1852,1.);
#1852 = DIRECTION('',(-0.443796518676,-0.896127585788,0.));
#1853 = ORIENTED_EDGE('',*,*,#894,.F.);
#1854 = ORIENTED_EDGE('',*,*,#1855,.F.);
#1855 = EDGE_CURVE('',#764,#895,#1856,.T.);
#1856 = LINE('',#1857,#1858);
#1857 = CARTESIAN_POINT('',(-40.42388866749,-18.31456222166,13.));
#1858 = VECTOR('',#1859,1.);
#1859 = DIRECTION('',(-0.443796518676,-0.896127585788,0.));
#1860 = ORIENTED_EDGE('',*,*,#771,.F.);
#1861 = PLANE('',#1862);
#1862 = AXIS2_PLACEMENT_3D('',#1863,#1864,#1865);
#1863 = CARTESIAN_POINT('',(-43.56033521775,-16.76127440629,16.5));
#1864 = DIRECTION('',(0.633657892719,-0.313811527823,0.707106781187));
#1865 = DIRECTION('',(0.633657892719,-0.313811527823,-0.707106781187));
#1866 = ADVANCED_FACE('',(#1867),#1878,.F.);
#1867 = FACE_BOUND('',#1868,.F.);
#1868 = EDGE_LOOP('',(#1869,#1870,#1871,#1872));
#1869 = ORIENTED_EDGE('',*,*,#763,.F.);
#1870 = ORIENTED_EDGE('',*,*,#1855,.T.);
#1871 = ORIENTED_EDGE('',*,*,#902,.F.);
#1872 = ORIENTED_EDGE('',*,*,#1873,.F.);
#1873 = EDGE_CURVE('',#756,#871,#1874,.T.);
#1874 = LINE('',#1875,#1876);
#1875 = CARTESIAN_POINT('',(-40.42388866749,-18.31456222166,9.));
#1876 = VECTOR('',#1877,1.);
#1877 = DIRECTION('',(-0.443796518676,-0.896127585788,0.));
#1878 = PLANE('',#1879);
#1879 = AXIS2_PLACEMENT_3D('',#1880,#1881,#1882);
#1880 = CARTESIAN_POINT('',(-40.42388866749,-18.31456222166,13.));
#1881 = DIRECTION('',(0.896127585788,-0.443796518676,0.));
#1882 = DIRECTION('',(-0.,0.,-1.));
#1883 = ADVANCED_FACE('',(#1884),#1895,.F.);
#1884 = FACE_BOUND('',#1885,.F.);
#1885 = EDGE_LOOP('',(#1886,#1887,#1888,#1889));
#1886 = ORIENTED_EDGE('',*,*,#755,.F.);
#1887 = ORIENTED_EDGE('',*,*,#1873,.T.);
#1888 = ORIENTED_EDGE('',*,*,#868,.F.);
#1889 = ORIENTED_EDGE('',*,*,#1890,.F.);
#1890 = EDGE_CURVE('',#748,#869,#1891,.T.);
#1891 = LINE('',#1892,#1893);
#1892 = CARTESIAN_POINT('',(-46.69678176801,-15.20798659093,9.));
#1893 = VECTOR('',#1894,1.);
#1894 = DIRECTION('',(-0.443796518676,-0.896127585788,0.));
#1895 = PLANE('',#1896);
#1896 = AXIS2_PLACEMENT_3D('',#1897,#1898,#1899);
#1897 = CARTESIAN_POINT('',(-40.42388866749,-18.31456222166,9.));
#1898 = DIRECTION('',(-0.,0.,-1.));
#1899 = DIRECTION('',(-0.896127585788,0.443796518676,0.));
#1900 = ADVANCED_FACE('',(#1901),#1912,.F.);
#1901 = FACE_BOUND('',#1902,.F.);
#1902 = EDGE_LOOP('',(#1903,#1904,#1905,#1906));
#1903 = ORIENTED_EDGE('',*,*,#747,.F.);
#1904 = ORIENTED_EDGE('',*,*,#1890,.T.);
#1905 = ORIENTED_EDGE('',*,*,#878,.F.);
#1906 = ORIENTED_EDGE('',*,*,#1907,.F.);
#1907 = EDGE_CURVE('',#740,#879,#1908,.T.);
#1908 = LINE('',#1909,#1910);
#1909 = CARTESIAN_POINT('',(-46.69678176801,-15.20798659093,13.));
#1910 = VECTOR('',#1911,1.);
#1911 = DIRECTION('',(-0.443796518676,-0.896127585788,0.));
#1912 = PLANE('',#1913);
#1913 = AXIS2_PLACEMENT_3D('',#1914,#1915,#1916);
#1914 = CARTESIAN_POINT('',(-46.69678176801,-15.20798659093,9.));
#1915 = DIRECTION('',(-0.896127585788,0.443796518676,0.));
#1916 = DIRECTION('',(0.,0.,1.));
#1917 = ADVANCED_FACE('',(#1918),#1925,.F.);
#1918 = FACE_BOUND('',#1919,.F.);
#1919 = EDGE_LOOP('',(#1920,#1921,#1922,#1923,#1924));
#1920 = ORIENTED_EDGE('',*,*,#739,.F.);
#1921 = ORIENTED_EDGE('',*,*,#1907,.T.);
#1922 = ORIENTED_EDGE('',*,*,#886,.F.);
#1923 = ORIENTED_EDGE('',*,*,#1848,.F.);
#1924 = ORIENTED_EDGE('',*,*,#1830,.F.);
#1925 = PLANE('',#1926);
#1926 = AXIS2_PLACEMENT_3D('',#1927,#1928,#1929);
#1927 = CARTESIAN_POINT('',(-46.69678176801,-15.20798659093,13.));
#1928 = DIRECTION('',(-0.633657892719,0.313811527823,0.707106781187));
#1929 = DIRECTION('',(0.633657892719,-0.313811527823,0.707106781187));
#1930 = ADVANCED_FACE('',(#1931,#1941),#1944,.T.);
#1931 = FACE_BOUND('',#1932,.T.);
#1932 = EDGE_LOOP('',(#1933,#1934,#1935,#1936,#1937,#1938,#1939,#1940));
#1933 = ORIENTED_EDGE('',*,*,#1518,.F.);
#1934 = ORIENTED_EDGE('',*,*,#1533,.T.);
#1935 = ORIENTED_EDGE('',*,*,#1560,.T.);
#1936 = ORIENTED_EDGE('',*,*,#933,.T.);
#1937 = ORIENTED_EDGE('',*,*,#972,.F.);
#1938 = ORIENTED_EDGE('',*,*,#995,.T.);
#1939 = ORIENTED_EDGE('',*,*,#1014,.T.);
#1940 = ORIENTED_EDGE('',*,*,#1046,.T.);
#1941 = FACE_BOUND('',#1942,.T.);
#1942 = EDGE_LOOP('',(#1943));
#1943 = ORIENTED_EDGE('',*,*,#817,.F.);
#1944 = PLANE('',#1945);
#1945 = AXIS2_PLACEMENT_3D('',#1946,#1947,#1948);
#1946 = CARTESIAN_POINT('',(8.126045049446E-15,-50.50554790103,16.));
#1947 = DIRECTION('',(0.,0.,1.));
#1948 = DIRECTION('',(1.,0.,0.));
#1949 = ADVANCED_FACE('',(#1950),#1956,.T.);
#1950 = FACE_BOUND('',#1951,.T.);
#1951 = EDGE_LOOP('',(#1952,#1953,#1954,#1955));
#1952 = ORIENTED_EDGE('',*,*,#949,.F.);
#1953 = ORIENTED_EDGE('',*,*,#1577,.T.);
#1954 = ORIENTED_EDGE('',*,*,#1642,.T.);
#1955 = ORIENTED_EDGE('',*,*,#851,.F.);
#1956 = PLANE('',#1957);
#1957 = AXIS2_PLACEMENT_3D('',#1958,#1959,#1960);
#1958 = CARTESIAN_POINT('',(-18.90402478591,-32.31975620527,27.));
#1959 = DIRECTION('',(0.,0.,1.));
#1960 = DIRECTION('',(-0.896127585788,0.443796518676,0.));
#1961 = ADVANCED_FACE('',(#1962),#1968,.T.);
#1962 = FACE_BOUND('',#1963,.T.);
#1963 = EDGE_LOOP('',(#1964,#1965,#1966,#1967));
#1964 = ORIENTED_EDGE('',*,*,#1069,.F.);
#1965 = ORIENTED_EDGE('',*,*,#1085,.T.);
#1966 = ORIENTED_EDGE('',*,*,#1150,.T.);
#1967 = ORIENTED_EDGE('',*,*,#1486,.F.);
#1968 = PLANE('',#1969);
#1969 = AXIS2_PLACEMENT_3D('',#1970,#1971,#1972);
#1970 = CARTESIAN_POINT('',(36.655885532963,-68.1648596368,27.));
#1971 = DIRECTION('',(0.,0.,1.));
#1972 = DIRECTION('',(0.896127585788,0.443796518676,0.));
#1973 = ( GEOMETRIC_REPRESENTATION_CONTEXT(3) 
GLOBAL_UNCERTAINTY_ASSIGNED_CONTEXT((#1977)) 
GLOBAL_UNIT_ASSIGNED_CONTEXT((#1974,#1975,#1976)) REPRESENTATION_CONTEXT
('Context #1','3D Context with UNIT and UNCERTAINTY') );
#1974 = ( LENGTH_UNIT() NAMED_UNIT(*) SI_UNIT(.MILLI.,.METRE.) );
#1975 = ( NAMED_UNIT(*) PLANE_ANGLE_UNIT() SI_UNIT($,.RADIAN.) );
#1976 = ( NAMED_UNIT(*) SI_UNIT($,.STERADIAN.) SOLID_ANGLE_UNIT() );
#1977 = UNCERTAINTY_MEASURE_WITH_UNIT(LENGTH_MEASURE(1.E-07),#1974,
  'distance_accuracy_value','confusion accuracy');
#1978 = PRODUCT_RELATED_PRODUCT_CATEGORY('part',$,(#7));
ENDSEC;
END-ISO-10303-21;
