ISO-10303-21;
HEADER;
FILE_DESCRIPTION(('FreeCAD Model'),'2;1');
FILE_NAME('Open CASCADE Shape Model','2026-09-20T10:22:02',('FreeCAD'),(
    'FreeCAD'),'Open CASCADE STEP processor 7.8','FreeCAD','Unknown');
FILE_SCHEMA(('AUTOMOTIVE_DESIGN { 1 0 10303 214 1 1 1 1 }'));
ENDSEC;
DATA;
#1 = APPLICATION_PROTOCOL_DEFINITION('international standard',
  'automotive_design',2000,#2);
#2 = APPLICATION_CONTEXT(
  'core data for automotive mechanical design processes');
#3 = SHAPE_DEFINITION_REPRESENTATION(#4,#10);
#4 = PRODUCT_DEFINITION_SHAPE('','',#5);
#5 = PRODUCT_DEFINITION('design','',#6,#9);
#6 = PRODUCT_DEFINITION_FORMATION('','',#7);
#7 = PRODUCT('Open CASCADE STEP translator 7.8 1',
  'Open CASCADE STEP translator 7.8 1','',(#8));
#8 = PRODUCT_CONTEXT('',#2,'mechanical');
#9 = PRODUCT_DEFINITION_CONTEXT('part definition',#2,'design');
#10 = ADVANCED_BREP_SHAPE_REPRESENTATION('',(#11,#15),#726);
#11 = AXIS2_PLACEMENT_3D('',#12,#13,#14);
#12 = CARTESIAN_POINT('',(0.,0.,0.));
#13 = DIRECTION('',(0.,0.,1.));
#14 = DIRECTION('',(1.,0.,-0.));
#15 = MANIFOLD_SOLID_BREP('',#16);
#16 = CLOSED_SHELL('',(#17,#57,#88,#128,#159,#199,#230,#299,#323,#340,
    #352,#377,#408,#432,#456,#473,#493,#555,#580,#600,#625,#634,#651,
    #668,#680,#702,#714));
#17 = ADVANCED_FACE('',(#18),#52,.T.);
#18 = FACE_BOUND('',#19,.T.);
#19 = EDGE_LOOP('',(#20,#30,#38,#46));
#20 = ORIENTED_EDGE('',*,*,#21,.F.);
#21 = EDGE_CURVE('',#22,#24,#26,.T.);
#22 = VERTEX_POINT('',#23);
#23 = CARTESIAN_POINT('',(104.00814563568,-15.95225664584,3.5));
#24 = VERTEX_POINT('',#25);
#25 = CARTESIAN_POINT('',(103.62466036759,-11.56899997423,3.5));
#26 = LINE('',#27,#28);
#27 = CARTESIAN_POINT('',(104.00814563568,-15.95225664584,3.5));
#28 = VECTOR('',#29,1.);
#29 = DIRECTION('',(-8.715574274766E-02,0.996194698092,0.));
#30 = ORIENTED_EDGE('',*,*,#31,.T.);
#31 = EDGE_CURVE('',#22,#32,#34,.T.);
#32 = VERTEX_POINT('',#33);
#33 = CARTESIAN_POINT('',(108.39140230728,-15.56877137775,3.5));
#34 = LINE('',#35,#36);
#35 = CARTESIAN_POINT('',(104.00814563568,-15.95225664584,3.5));
#36 = VECTOR('',#37,1.);
#37 = DIRECTION('',(0.996194698092,8.715574274766E-02,0.));
#38 = ORIENTED_EDGE('',*,*,#39,.T.);
#39 = EDGE_CURVE('',#32,#40,#42,.T.);
#40 = VERTEX_POINT('',#41);
#41 = CARTESIAN_POINT('',(108.00791703919,-11.18551470614,3.5));
#42 = LINE('',#43,#44);
#43 = CARTESIAN_POINT('',(108.39140230728,-15.56877137775,3.5));
#44 = VECTOR('',#45,1.);
#45 = DIRECTION('',(-8.715574274766E-02,0.996194698092,0.));
#46 = ORIENTED_EDGE('',*,*,#47,.F.);
#47 = EDGE_CURVE('',#24,#40,#48,.T.);
#48 = LINE('',#49,#50);
#49 = CARTESIAN_POINT('',(103.62466036759,-11.56899997423,3.5));
#50 = VECTOR('',#51,1.);
#51 = DIRECTION('',(0.996194698092,8.715574274766E-02,0.));
#52 = PLANE('',#53);
#53 = AXIS2_PLACEMENT_3D('',#54,#55,#56);
#54 = CARTESIAN_POINT('',(104.00814563568,-15.95225664584,3.5));
#55 = DIRECTION('',(0.,0.,1.));
#56 = DIRECTION('',(0.996194698092,8.715574274766E-02,0.));
#57 = ADVANCED_FACE('',(#58),#83,.T.);
#58 = FACE_BOUND('',#59,.T.);
#59 = EDGE_LOOP('',(#60,#68,#69,#77));
#60 = ORIENTED_EDGE('',*,*,#61,.F.);
#61 = EDGE_CURVE('',#32,#62,#64,.T.);
#62 = VERTEX_POINT('',#63);
#63 = CARTESIAN_POINT('',(108.39140230728,-15.56877137775,10.));
#64 = LINE('',#65,#66);
#65 = CARTESIAN_POINT('',(108.39140230728,-15.56877137775,2.8));
#66 = VECTOR('',#67,1.);
#67 = DIRECTION('',(0.,0.,1.));
#68 = ORIENTED_EDGE('',*,*,#31,.F.);
#69 = ORIENTED_EDGE('',*,*,#70,.T.);
#70 = EDGE_CURVE('',#22,#71,#73,.T.);
#71 = VERTEX_POINT('',#72);
#72 = CARTESIAN_POINT('',(104.00814563568,-15.95225664584,10.));
#73 = LINE('',#74,#75);
#74 = CARTESIAN_POINT('',(104.00814563568,-15.95225664584,3.5));
#75 = VECTOR('',#76,1.);
#76 = DIRECTION('',(0.,0.,1.));
#77 = ORIENTED_EDGE('',*,*,#78,.F.);
#78 = EDGE_CURVE('',#62,#71,#79,.T.);
#79 = LINE('',#80,#81);
#80 = CARTESIAN_POINT('',(99.126791615031,-16.3793197853,10.));
#81 = VECTOR('',#82,1.);
#82 = DIRECTION('',(-0.996194698092,-8.715574274766E-02,0.));
#83 = PLANE('',#84);
#84 = AXIS2_PLACEMENT_3D('',#85,#86,#87);
#85 = CARTESIAN_POINT('',(106.19977397148,-15.76051401179,6.75));
#86 = DIRECTION('',(-8.715574274766E-02,0.996194698092,0.));
#87 = DIRECTION('',(0.996194698092,8.715574274766E-02,0.));
#88 = ADVANCED_FACE('',(#89),#123,.T.);
#89 = FACE_BOUND('',#90,.T.);
#90 = EDGE_LOOP('',(#91,#101,#109,#117));
#91 = ORIENTED_EDGE('',*,*,#92,.F.);
#92 = EDGE_CURVE('',#93,#95,#97,.T.);
#93 = VERTEX_POINT('',#94);
#94 = CARTESIAN_POINT('',(96.437065930184,-16.61464029072,3.5));
#95 = VERTEX_POINT('',#96);
#96 = CARTESIAN_POINT('',(96.053580662094,-12.23138361912,3.5));
#97 = LINE('',#98,#99);
#98 = CARTESIAN_POINT('',(96.437065930184,-16.61464029072,3.5));
#99 = VECTOR('',#100,1.);
#100 = DIRECTION('',(-8.715574274766E-02,0.996194698092,0.));
#101 = ORIENTED_EDGE('',*,*,#102,.T.);
#102 = EDGE_CURVE('',#93,#103,#105,.T.);
#103 = VERTEX_POINT('',#104);
#104 = CARTESIAN_POINT('',(100.82032260178,-16.23115502263,3.5));
#105 = LINE('',#106,#107);
#106 = CARTESIAN_POINT('',(96.437065930184,-16.61464029072,3.5));
#107 = VECTOR('',#108,1.);
#108 = DIRECTION('',(0.996194698092,8.715574274766E-02,0.));
#109 = ORIENTED_EDGE('',*,*,#110,.T.);
#110 = EDGE_CURVE('',#103,#111,#113,.T.);
#111 = VERTEX_POINT('',#112);
#112 = CARTESIAN_POINT('',(100.43683733369,-11.84789835103,3.5));
#113 = LINE('',#114,#115);
#114 = CARTESIAN_POINT('',(100.82032260178,-16.23115502263,3.5));
#115 = VECTOR('',#116,1.);
#116 = DIRECTION('',(-8.715574274766E-02,0.996194698092,0.));
#117 = ORIENTED_EDGE('',*,*,#118,.F.);
#118 = EDGE_CURVE('',#95,#111,#119,.T.);
#119 = LINE('',#120,#121);
#120 = CARTESIAN_POINT('',(96.053580662094,-12.23138361912,3.5));
#121 = VECTOR('',#122,1.);
#122 = DIRECTION('',(0.996194698092,8.715574274766E-02,0.));
#123 = PLANE('',#124);
#124 = AXIS2_PLACEMENT_3D('',#125,#126,#127);
#125 = CARTESIAN_POINT('',(96.437065930184,-16.61464029072,3.5));
#126 = DIRECTION('',(0.,0.,1.));
#127 = DIRECTION('',(0.996194698092,8.715574274766E-02,0.));
#128 = ADVANCED_FACE('',(#129),#154,.T.);
#129 = FACE_BOUND('',#130,.T.);
#130 = EDGE_LOOP('',(#131,#139,#140,#148));
#131 = ORIENTED_EDGE('',*,*,#132,.F.);
#132 = EDGE_CURVE('',#103,#133,#135,.T.);
#133 = VERTEX_POINT('',#134);
#134 = CARTESIAN_POINT('',(100.82032260178,-16.23115502263,10.));
#135 = LINE('',#136,#137);
#136 = CARTESIAN_POINT('',(100.82032260178,-16.23115502263,2.8));
#137 = VECTOR('',#138,1.);
#138 = DIRECTION('',(0.,0.,1.));
#139 = ORIENTED_EDGE('',*,*,#102,.F.);
#140 = ORIENTED_EDGE('',*,*,#141,.T.);
#141 = EDGE_CURVE('',#93,#142,#144,.T.);
#142 = VERTEX_POINT('',#143);
#143 = CARTESIAN_POINT('',(96.437065930184,-16.61464029072,10.));
#144 = LINE('',#145,#146);
#145 = CARTESIAN_POINT('',(96.437065930184,-16.61464029072,3.5));
#146 = VECTOR('',#147,1.);
#147 = DIRECTION('',(0.,0.,1.));
#148 = ORIENTED_EDGE('',*,*,#149,.F.);
#149 = EDGE_CURVE('',#133,#142,#150,.T.);
#150 = LINE('',#151,#152);
#151 = CARTESIAN_POINT('',(95.341251762283,-16.71051160774,10.));
#152 = VECTOR('',#153,1.);
#153 = DIRECTION('',(-0.996194698092,-8.715574274766E-02,0.));
#154 = PLANE('',#155);
#155 = AXIS2_PLACEMENT_3D('',#156,#157,#158);
#156 = CARTESIAN_POINT('',(98.628694265986,-16.42289765668,6.75));
#157 = DIRECTION('',(-8.715574274766E-02,0.996194698092,0.));
#158 = DIRECTION('',(0.996194698092,8.715574274766E-02,0.));
#159 = ADVANCED_FACE('',(#160),#194,.F.);
#160 = FACE_BOUND('',#161,.F.);
#161 = EDGE_LOOP('',(#162,#172,#180,#188));
#162 = ORIENTED_EDGE('',*,*,#163,.F.);
#163 = EDGE_CURVE('',#164,#166,#168,.T.);
#164 = VERTEX_POINT('',#165);
#165 = CARTESIAN_POINT('',(-45.,-110.,0.));
#166 = VERTEX_POINT('',#167);
#167 = CARTESIAN_POINT('',(-45.,-110.,4.));
#168 = LINE('',#169,#170);
#169 = CARTESIAN_POINT('',(-45.,-110.,0.));
#170 = VECTOR('',#171,1.);
#171 = DIRECTION('',(0.,0.,1.));
#172 = ORIENTED_EDGE('',*,*,#173,.T.);
#173 = EDGE_CURVE('',#164,#174,#176,.T.);
#174 = VERTEX_POINT('',#175);
#175 = CARTESIAN_POINT('',(-45.,45.,0.));
#176 = LINE('',#177,#178);
#177 = CARTESIAN_POINT('',(-45.,-110.,0.));
#178 = VECTOR('',#179,1.);
#179 = DIRECTION('',(-0.,1.,0.));
#180 = ORIENTED_EDGE('',*,*,#181,.T.);
#181 = EDGE_CURVE('',#174,#182,#184,.T.);
#182 = VERTEX_POINT('',#183);
#183 = CARTESIAN_POINT('',(-45.,45.,4.));
#184 = LINE('',#185,#186);
#185 = CARTESIAN_POINT('',(-45.,45.,0.));
#186 = VECTOR('',#187,1.);
#187 = DIRECTION('',(0.,0.,1.));
#188 = ORIENTED_EDGE('',*,*,#189,.F.);
#189 = EDGE_CURVE('',#166,#182,#190,.T.);
#190 = LINE('',#191,#192);
#191 = CARTESIAN_POINT('',(-45.,-110.,4.));
#192 = VECTOR('',#193,1.);
#193 = DIRECTION('',(-0.,1.,0.));
#194 = PLANE('',#195);
#195 = AXIS2_PLACEMENT_3D('',#196,#197,#198);
#196 = CARTESIAN_POINT('',(-45.,-110.,0.));
#197 = DIRECTION('',(1.,0.,-0.));
#198 = DIRECTION('',(0.,0.,1.));
#199 = ADVANCED_FACE('',(#200),#225,.F.);
#200 = FACE_BOUND('',#201,.F.);
#201 = EDGE_LOOP('',(#202,#210,#211,#219));
#202 = ORIENTED_EDGE('',*,*,#203,.F.);
#203 = EDGE_CURVE('',#164,#204,#206,.T.);
#204 = VERTEX_POINT('',#205);
#205 = CARTESIAN_POINT('',(135.,-110.,0.));
#206 = LINE('',#207,#208);
#207 = CARTESIAN_POINT('',(-45.,-110.,0.));
#208 = VECTOR('',#209,1.);
#209 = DIRECTION('',(1.,0.,-0.));
#210 = ORIENTED_EDGE('',*,*,#163,.T.);
#211 = ORIENTED_EDGE('',*,*,#212,.T.);
#212 = EDGE_CURVE('',#166,#213,#215,.T.);
#213 = VERTEX_POINT('',#214);
#214 = CARTESIAN_POINT('',(135.,-110.,4.));
#215 = LINE('',#216,#217);
#216 = CARTESIAN_POINT('',(-45.,-110.,4.));
#217 = VECTOR('',#218,1.);
#218 = DIRECTION('',(1.,0.,-0.));
#219 = ORIENTED_EDGE('',*,*,#220,.F.);
#220 = EDGE_CURVE('',#204,#213,#221,.T.);
#221 = LINE('',#222,#223);
#222 = CARTESIAN_POINT('',(135.,-110.,0.));
#223 = VECTOR('',#224,1.);
#224 = DIRECTION('',(0.,0.,1.));
#225 = PLANE('',#226);
#226 = AXIS2_PLACEMENT_3D('',#227,#228,#229);
#227 = CARTESIAN_POINT('',(-45.,-110.,0.));
#228 = DIRECTION('',(-0.,1.,0.));
#229 = DIRECTION('',(0.,0.,1.));
#230 = ADVANCED_FACE('',(#231,#249,#260),#294,.T.);
#231 = FACE_BOUND('',#232,.T.);
#232 = EDGE_LOOP('',(#233,#234,#235,#243));
#233 = ORIENTED_EDGE('',*,*,#189,.F.);
#234 = ORIENTED_EDGE('',*,*,#212,.T.);
#235 = ORIENTED_EDGE('',*,*,#236,.T.);
#236 = EDGE_CURVE('',#213,#237,#239,.T.);
#237 = VERTEX_POINT('',#238);
#238 = CARTESIAN_POINT('',(135.,45.,4.));
#239 = LINE('',#240,#241);
#240 = CARTESIAN_POINT('',(135.,-110.,4.));
#241 = VECTOR('',#242,1.);
#242 = DIRECTION('',(-0.,1.,0.));
#243 = ORIENTED_EDGE('',*,*,#244,.F.);
#244 = EDGE_CURVE('',#182,#237,#245,.T.);
#245 = LINE('',#246,#247);
#246 = CARTESIAN_POINT('',(-45.,45.,4.));
#247 = VECTOR('',#248,1.);
#248 = DIRECTION('',(1.,0.,-0.));
#249 = FACE_BOUND('',#250,.T.);
#250 = EDGE_LOOP('',(#251));
#251 = ORIENTED_EDGE('',*,*,#252,.F.);
#252 = EDGE_CURVE('',#253,#253,#255,.T.);
#253 = VERTEX_POINT('',#254);
#254 = CARTESIAN_POINT('',(31.,-64.,4.));
#255 = CIRCLE('',#256,31.);
#256 = AXIS2_PLACEMENT_3D('',#257,#258,#259);
#257 = CARTESIAN_POINT('',(0.,-64.,4.));
#258 = DIRECTION('',(0.,0.,1.));
#259 = DIRECTION('',(1.,0.,-0.));
#260 = FACE_BOUND('',#261,.T.);
#261 = EDGE_LOOP('',(#262,#272,#280,#288));
#262 = ORIENTED_EDGE('',*,*,#263,.T.);
#263 = EDGE_CURVE('',#264,#266,#268,.T.);
#264 = VERTEX_POINT('',#265);
#265 = CARTESIAN_POINT('',(110.77721181453,-22.18601498783,4.));
#266 = VERTEX_POINT('',#267);
#267 = CARTESIAN_POINT('',(94.838096645066,-23.58050687179,4.));
#268 = LINE('',#269,#270);
#269 = CARTESIAN_POINT('',(21.698515174013,-29.97939110554,4.));
#270 = VECTOR('',#271,1.);
#271 = DIRECTION('',(-0.996194698092,-8.715574274766E-02,0.));
#272 = ORIENTED_EDGE('',*,*,#273,.T.);
#273 = EDGE_CURVE('',#266,#274,#276,.T.);
#274 = VERTEX_POINT('',#275);
#275 = CARTESIAN_POINT('',(93.269293275608,-5.649002306142,4.));
#276 = LINE('',#277,#278);
#277 = CARTESIAN_POINT('',(98.058629793586,-60.39136920214,4.));
#278 = VECTOR('',#279,1.);
#279 = DIRECTION('',(-8.715574274766E-02,0.996194698092,0.));
#280 = ORIENTED_EDGE('',*,*,#281,.F.);
#281 = EDGE_CURVE('',#282,#274,#284,.T.);
#282 = VERTEX_POINT('',#283);
#283 = CARTESIAN_POINT('',(109.20840844507,-4.25451042218,4.));
#284 = LINE('',#285,#286);
#285 = CARTESIAN_POINT('',(20.129711804556,-12.04788653989,4.));
#286 = VECTOR('',#287,1.);
#287 = DIRECTION('',(-0.996194698092,-8.715574274766E-02,0.));
#288 = ORIENTED_EDGE('',*,*,#289,.F.);
#289 = EDGE_CURVE('',#264,#282,#290,.T.);
#290 = LINE('',#291,#292);
#291 = CARTESIAN_POINT('',(113.99774496305,-58.99687731818,4.));
#292 = VECTOR('',#293,1.);
#293 = DIRECTION('',(-8.715574274766E-02,0.996194698092,0.));
#294 = PLANE('',#295);
#295 = AXIS2_PLACEMENT_3D('',#296,#297,#298);
#296 = CARTESIAN_POINT('',(-45.,-110.,4.));
#297 = DIRECTION('',(0.,0.,1.));
#298 = DIRECTION('',(1.,0.,-0.));
#299 = ADVANCED_FACE('',(#300),#318,.T.);
#300 = FACE_BOUND('',#301,.T.);
#301 = EDGE_LOOP('',(#302,#310,#311,#312));
#302 = ORIENTED_EDGE('',*,*,#303,.F.);
#303 = EDGE_CURVE('',#174,#304,#306,.T.);
#304 = VERTEX_POINT('',#305);
#305 = CARTESIAN_POINT('',(135.,45.,0.));
#306 = LINE('',#307,#308);
#307 = CARTESIAN_POINT('',(-45.,45.,0.));
#308 = VECTOR('',#309,1.);
#309 = DIRECTION('',(1.,0.,-0.));
#310 = ORIENTED_EDGE('',*,*,#181,.T.);
#311 = ORIENTED_EDGE('',*,*,#244,.T.);
#312 = ORIENTED_EDGE('',*,*,#313,.F.);
#313 = EDGE_CURVE('',#304,#237,#314,.T.);
#314 = LINE('',#315,#316);
#315 = CARTESIAN_POINT('',(135.,45.,0.));
#316 = VECTOR('',#317,1.);
#317 = DIRECTION('',(0.,0.,1.));
#318 = PLANE('',#319);
#319 = AXIS2_PLACEMENT_3D('',#320,#321,#322);
#320 = CARTESIAN_POINT('',(-45.,45.,0.));
#321 = DIRECTION('',(-0.,1.,0.));
#322 = DIRECTION('',(0.,0.,1.));
#323 = ADVANCED_FACE('',(#324),#335,.F.);
#324 = FACE_BOUND('',#325,.F.);
#325 = EDGE_LOOP('',(#326,#327,#328,#334));
#326 = ORIENTED_EDGE('',*,*,#173,.F.);
#327 = ORIENTED_EDGE('',*,*,#203,.T.);
#328 = ORIENTED_EDGE('',*,*,#329,.T.);
#329 = EDGE_CURVE('',#204,#304,#330,.T.);
#330 = LINE('',#331,#332);
#331 = CARTESIAN_POINT('',(135.,-110.,0.));
#332 = VECTOR('',#333,1.);
#333 = DIRECTION('',(-0.,1.,0.));
#334 = ORIENTED_EDGE('',*,*,#303,.F.);
#335 = PLANE('',#336);
#336 = AXIS2_PLACEMENT_3D('',#337,#338,#339);
#337 = CARTESIAN_POINT('',(-45.,-110.,0.));
#338 = DIRECTION('',(0.,0.,1.));
#339 = DIRECTION('',(1.,0.,-0.));
#340 = ADVANCED_FACE('',(#341),#347,.T.);
#341 = FACE_BOUND('',#342,.T.);
#342 = EDGE_LOOP('',(#343,#344,#345,#346));
#343 = ORIENTED_EDGE('',*,*,#220,.F.);
#344 = ORIENTED_EDGE('',*,*,#329,.T.);
#345 = ORIENTED_EDGE('',*,*,#313,.T.);
#346 = ORIENTED_EDGE('',*,*,#236,.F.);
#347 = PLANE('',#348);
#348 = AXIS2_PLACEMENT_3D('',#349,#350,#351);
#349 = CARTESIAN_POINT('',(135.,-110.,0.));
#350 = DIRECTION('',(1.,0.,-0.));
#351 = DIRECTION('',(0.,0.,1.));
#352 = ADVANCED_FACE('',(#353),#372,.T.);
#353 = FACE_BOUND('',#354,.T.);
#354 = EDGE_LOOP('',(#355,#364,#370,#371));
#355 = ORIENTED_EDGE('',*,*,#356,.F.);
#356 = EDGE_CURVE('',#357,#357,#359,.T.);
#357 = VERTEX_POINT('',#358);
#358 = CARTESIAN_POINT('',(31.,-64.,10.));
#359 = CIRCLE('',#360,31.);
#360 = AXIS2_PLACEMENT_3D('',#361,#362,#363);
#361 = CARTESIAN_POINT('',(0.,-64.,10.));
#362 = DIRECTION('',(0.,0.,1.));
#363 = DIRECTION('',(1.,0.,-0.));
#364 = ORIENTED_EDGE('',*,*,#365,.F.);
#365 = EDGE_CURVE('',#253,#357,#366,.T.);
#366 = LINE('',#367,#368);
#367 = CARTESIAN_POINT('',(31.,-64.,4.));
#368 = VECTOR('',#369,1.);
#369 = DIRECTION('',(0.,0.,1.));
#370 = ORIENTED_EDGE('',*,*,#252,.T.);
#371 = ORIENTED_EDGE('',*,*,#365,.T.);
#372 = CYLINDRICAL_SURFACE('',#373,31.);
#373 = AXIS2_PLACEMENT_3D('',#374,#375,#376);
#374 = CARTESIAN_POINT('',(0.,-64.,4.));
#375 = DIRECTION('',(0.,0.,1.));
#376 = DIRECTION('',(1.,0.,-0.));
#377 = ADVANCED_FACE('',(#378),#403,.F.);
#378 = FACE_BOUND('',#379,.F.);
#379 = EDGE_LOOP('',(#380,#388,#389,#397));
#380 = ORIENTED_EDGE('',*,*,#381,.F.);
#381 = EDGE_CURVE('',#264,#382,#384,.T.);
#382 = VERTEX_POINT('',#383);
#383 = CARTESIAN_POINT('',(110.77721181453,-22.18601498783,10.));
#384 = LINE('',#385,#386);
#385 = CARTESIAN_POINT('',(110.77721181453,-22.18601498783,3.8));
#386 = VECTOR('',#387,1.);
#387 = DIRECTION('',(0.,0.,1.));
#388 = ORIENTED_EDGE('',*,*,#263,.T.);
#389 = ORIENTED_EDGE('',*,*,#390,.T.);
#390 = EDGE_CURVE('',#266,#391,#393,.T.);
#391 = VERTEX_POINT('',#392);
#392 = CARTESIAN_POINT('',(94.838096645066,-23.58050687179,10.));
#393 = LINE('',#394,#395);
#394 = CARTESIAN_POINT('',(94.838096645066,-23.58050687179,3.8));
#395 = VECTOR('',#396,1.);
#396 = DIRECTION('',(0.,0.,1.));
#397 = ORIENTED_EDGE('',*,*,#398,.T.);
#398 = EDGE_CURVE('',#391,#382,#399,.T.);
#399 = LINE('',#400,#401);
#400 = CARTESIAN_POINT('',(94.838096645066,-23.58050687179,10.));
#401 = VECTOR('',#402,1.);
#402 = DIRECTION('',(0.996194698092,8.715574274766E-02,0.));
#403 = PLANE('',#404);
#404 = AXIS2_PLACEMENT_3D('',#405,#406,#407);
#405 = CARTESIAN_POINT('',(94.838096645066,-23.58050687179,3.8));
#406 = DIRECTION('',(-8.715574274766E-02,0.996194698092,0.));
#407 = DIRECTION('',(0.,0.,1.));
#408 = ADVANCED_FACE('',(#409),#427,.T.);
#409 = FACE_BOUND('',#410,.T.);
#410 = EDGE_LOOP('',(#411,#412,#413,#421));
#411 = ORIENTED_EDGE('',*,*,#381,.F.);
#412 = ORIENTED_EDGE('',*,*,#289,.T.);
#413 = ORIENTED_EDGE('',*,*,#414,.T.);
#414 = EDGE_CURVE('',#282,#415,#417,.T.);
#415 = VERTEX_POINT('',#416);
#416 = CARTESIAN_POINT('',(109.20840844507,-4.25451042218,10.));
#417 = LINE('',#418,#419);
#418 = CARTESIAN_POINT('',(109.20840844507,-4.25451042218,3.8));
#419 = VECTOR('',#420,1.);
#420 = DIRECTION('',(0.,0.,1.));
#421 = ORIENTED_EDGE('',*,*,#422,.F.);
#422 = EDGE_CURVE('',#382,#415,#423,.T.);
#423 = LINE('',#424,#425);
#424 = CARTESIAN_POINT('',(110.77721181453,-22.18601498783,10.));
#425 = VECTOR('',#426,1.);
#426 = DIRECTION('',(-8.715574274766E-02,0.996194698092,0.));
#427 = PLANE('',#428);
#428 = AXIS2_PLACEMENT_3D('',#429,#430,#431);
#429 = CARTESIAN_POINT('',(110.77721181453,-22.18601498783,3.8));
#430 = DIRECTION('',(0.996194698092,8.715574274766E-02,0.));
#431 = DIRECTION('',(0.,0.,1.));
#432 = ADVANCED_FACE('',(#433),#451,.T.);
#433 = FACE_BOUND('',#434,.T.);
#434 = EDGE_LOOP('',(#435,#436,#437,#445));
#435 = ORIENTED_EDGE('',*,*,#414,.F.);
#436 = ORIENTED_EDGE('',*,*,#281,.T.);
#437 = ORIENTED_EDGE('',*,*,#438,.T.);
#438 = EDGE_CURVE('',#274,#439,#441,.T.);
#439 = VERTEX_POINT('',#440);
#440 = CARTESIAN_POINT('',(93.269293275608,-5.649002306142,10.));
#441 = LINE('',#442,#443);
#442 = CARTESIAN_POINT('',(93.269293275608,-5.649002306142,3.8));
#443 = VECTOR('',#444,1.);
#444 = DIRECTION('',(0.,0.,1.));
#445 = ORIENTED_EDGE('',*,*,#446,.T.);
#446 = EDGE_CURVE('',#439,#415,#447,.T.);
#447 = LINE('',#448,#449);
#448 = CARTESIAN_POINT('',(93.269293275608,-5.649002306142,10.));
#449 = VECTOR('',#450,1.);
#450 = DIRECTION('',(0.996194698092,8.715574274766E-02,0.));
#451 = PLANE('',#452);
#452 = AXIS2_PLACEMENT_3D('',#453,#454,#455);
#453 = CARTESIAN_POINT('',(93.269293275608,-5.649002306142,3.8));
#454 = DIRECTION('',(-8.715574274766E-02,0.996194698092,0.));
#455 = DIRECTION('',(0.,0.,1.));
#456 = ADVANCED_FACE('',(#457),#468,.F.);
#457 = FACE_BOUND('',#458,.F.);
#458 = EDGE_LOOP('',(#459,#460,#461,#462));
#459 = ORIENTED_EDGE('',*,*,#390,.F.);
#460 = ORIENTED_EDGE('',*,*,#273,.T.);
#461 = ORIENTED_EDGE('',*,*,#438,.T.);
#462 = ORIENTED_EDGE('',*,*,#463,.F.);
#463 = EDGE_CURVE('',#391,#439,#464,.T.);
#464 = LINE('',#465,#466);
#465 = CARTESIAN_POINT('',(94.838096645066,-23.58050687179,10.));
#466 = VECTOR('',#467,1.);
#467 = DIRECTION('',(-8.715574274766E-02,0.996194698092,0.));
#468 = PLANE('',#469);
#469 = AXIS2_PLACEMENT_3D('',#470,#471,#472);
#470 = CARTESIAN_POINT('',(94.838096645066,-23.58050687179,3.8));
#471 = DIRECTION('',(0.996194698092,8.715574274766E-02,0.));
#472 = DIRECTION('',(0.,0.,1.));
#473 = ADVANCED_FACE('',(#474,#477),#488,.T.);
#474 = FACE_BOUND('',#475,.T.);
#475 = EDGE_LOOP('',(#476));
#476 = ORIENTED_EDGE('',*,*,#356,.T.);
#477 = FACE_BOUND('',#478,.T.);
#478 = EDGE_LOOP('',(#479));
#479 = ORIENTED_EDGE('',*,*,#480,.F.);
#480 = EDGE_CURVE('',#481,#481,#483,.T.);
#481 = VERTEX_POINT('',#482);
#482 = CARTESIAN_POINT('',(8.,-64.,10.));
#483 = CIRCLE('',#484,8.);
#484 = AXIS2_PLACEMENT_3D('',#485,#486,#487);
#485 = CARTESIAN_POINT('',(0.,-64.,10.));
#486 = DIRECTION('',(0.,0.,1.));
#487 = DIRECTION('',(1.,0.,-0.));
#488 = PLANE('',#489);
#489 = AXIS2_PLACEMENT_3D('',#490,#491,#492);
#490 = CARTESIAN_POINT('',(0.,-64.,10.));
#491 = DIRECTION('',(0.,0.,1.));
#492 = DIRECTION('',(1.,0.,-0.));
#493 = ADVANCED_FACE('',(#494,#500,#525),#550,.T.);
#494 = FACE_BOUND('',#495,.T.);
#495 = EDGE_LOOP('',(#496,#497,#498,#499));
#496 = ORIENTED_EDGE('',*,*,#463,.F.);
#497 = ORIENTED_EDGE('',*,*,#398,.T.);
#498 = ORIENTED_EDGE('',*,*,#422,.T.);
#499 = ORIENTED_EDGE('',*,*,#446,.F.);
#500 = FACE_BOUND('',#501,.T.);
#501 = EDGE_LOOP('',(#502,#503,#511,#519));
#502 = ORIENTED_EDGE('',*,*,#149,.T.);
#503 = ORIENTED_EDGE('',*,*,#504,.T.);
#504 = EDGE_CURVE('',#142,#505,#507,.T.);
#505 = VERTEX_POINT('',#506);
#506 = CARTESIAN_POINT('',(96.053580662094,-12.23138361912,10.));
#507 = LINE('',#508,#509);
#508 = CARTESIAN_POINT('',(96.733395455526,-20.00170226423,10.));
#509 = VECTOR('',#510,1.);
#510 = DIRECTION('',(-8.715574274766E-02,0.996194698092,0.));
#511 = ORIENTED_EDGE('',*,*,#512,.F.);
#512 = EDGE_CURVE('',#513,#505,#515,.T.);
#513 = VERTEX_POINT('',#514);
#514 = CARTESIAN_POINT('',(100.43683733369,-11.84789835103,10.));
#515 = LINE('',#516,#517);
#516 = CARTESIAN_POINT('',(94.957766494193,-12.32725493614,10.));
#517 = VECTOR('',#518,1.);
#518 = DIRECTION('',(-0.996194698092,-8.715574274766E-02,0.));
#519 = ORIENTED_EDGE('',*,*,#520,.F.);
#520 = EDGE_CURVE('',#133,#513,#521,.T.);
#521 = LINE('',#522,#523);
#522 = CARTESIAN_POINT('',(101.11665212712,-19.61821699614,10.));
#523 = VECTOR('',#524,1.);
#524 = DIRECTION('',(-8.715574274766E-02,0.996194698092,0.));
#525 = FACE_BOUND('',#526,.T.);
#526 = EDGE_LOOP('',(#527,#528,#536,#544));
#527 = ORIENTED_EDGE('',*,*,#78,.T.);
#528 = ORIENTED_EDGE('',*,*,#529,.T.);
#529 = EDGE_CURVE('',#71,#530,#532,.T.);
#530 = VERTEX_POINT('',#531);
#531 = CARTESIAN_POINT('',(103.62466036759,-11.56899997423,10.));
#532 = LINE('',#533,#534);
#533 = CARTESIAN_POINT('',(104.30447516102,-19.33931861935,10.));
#534 = VECTOR('',#535,1.);
#535 = DIRECTION('',(-8.715574274766E-02,0.996194698092,0.));
#536 = ORIENTED_EDGE('',*,*,#537,.F.);
#537 = EDGE_CURVE('',#538,#530,#540,.T.);
#538 = VERTEX_POINT('',#539);
#539 = CARTESIAN_POINT('',(108.00791703919,-11.18551470614,10.));
#540 = LINE('',#541,#542);
#541 = CARTESIAN_POINT('',(98.743306346942,-11.9960631137,10.));
#542 = VECTOR('',#543,1.);
#543 = DIRECTION('',(-0.996194698092,-8.715574274766E-02,0.));
#544 = ORIENTED_EDGE('',*,*,#545,.F.);
#545 = EDGE_CURVE('',#62,#538,#546,.T.);
#546 = LINE('',#547,#548);
#547 = CARTESIAN_POINT('',(108.68773183262,-18.95583335126,10.));
#548 = VECTOR('',#549,1.);
#549 = DIRECTION('',(-8.715574274766E-02,0.996194698092,0.));
#550 = PLANE('',#551);
#551 = AXIS2_PLACEMENT_3D('',#552,#553,#554);
#552 = CARTESIAN_POINT('',(94.838096645066,-23.58050687179,10.));
#553 = DIRECTION('',(0.,0.,1.));
#554 = DIRECTION('',(0.996194698092,8.715574274766E-02,0.));
#555 = ADVANCED_FACE('',(#556),#575,.F.);
#556 = FACE_BOUND('',#557,.F.);
#557 = EDGE_LOOP('',(#558,#559,#567,#574));
#558 = ORIENTED_EDGE('',*,*,#480,.F.);
#559 = ORIENTED_EDGE('',*,*,#560,.F.);
#560 = EDGE_CURVE('',#561,#481,#563,.T.);
#561 = VERTEX_POINT('',#562);
#562 = CARTESIAN_POINT('',(8.,-64.,4.));
#563 = LINE('',#564,#565);
#564 = CARTESIAN_POINT('',(8.,-64.,3.5));
#565 = VECTOR('',#566,1.);
#566 = DIRECTION('',(0.,0.,1.));
#567 = ORIENTED_EDGE('',*,*,#568,.T.);
#568 = EDGE_CURVE('',#561,#561,#569,.T.);
#569 = CIRCLE('',#570,8.);
#570 = AXIS2_PLACEMENT_3D('',#571,#572,#573);
#571 = CARTESIAN_POINT('',(0.,-64.,4.));
#572 = DIRECTION('',(0.,0.,1.));
#573 = DIRECTION('',(1.,0.,-0.));
#574 = ORIENTED_EDGE('',*,*,#560,.T.);
#575 = CYLINDRICAL_SURFACE('',#576,8.);
#576 = AXIS2_PLACEMENT_3D('',#577,#578,#579);
#577 = CARTESIAN_POINT('',(0.,-64.,3.5));
#578 = DIRECTION('',(0.,0.,1.));
#579 = DIRECTION('',(1.,0.,-0.));
#580 = ADVANCED_FACE('',(#581,#584),#595,.T.);
#581 = FACE_BOUND('',#582,.T.);
#582 = EDGE_LOOP('',(#583));
#583 = ORIENTED_EDGE('',*,*,#568,.T.);
#584 = FACE_BOUND('',#585,.T.);
#585 = EDGE_LOOP('',(#586));
#586 = ORIENTED_EDGE('',*,*,#587,.F.);
#587 = EDGE_CURVE('',#588,#588,#590,.T.);
#588 = VERTEX_POINT('',#589);
#589 = CARTESIAN_POINT('',(5.,-64.,4.));
#590 = CIRCLE('',#591,5.);
#591 = AXIS2_PLACEMENT_3D('',#592,#593,#594);
#592 = CARTESIAN_POINT('',(0.,-64.,4.));
#593 = DIRECTION('',(0.,0.,1.));
#594 = DIRECTION('',(1.,0.,-0.));
#595 = PLANE('',#596);
#596 = AXIS2_PLACEMENT_3D('',#597,#598,#599);
#597 = CARTESIAN_POINT('',(-45.,-110.,4.));
#598 = DIRECTION('',(0.,0.,1.));
#599 = DIRECTION('',(1.,0.,-0.));
#600 = ADVANCED_FACE('',(#601),#620,.T.);
#601 = FACE_BOUND('',#602,.T.);
#602 = EDGE_LOOP('',(#603,#612,#618,#619));
#603 = ORIENTED_EDGE('',*,*,#604,.F.);
#604 = EDGE_CURVE('',#605,#605,#607,.T.);
#605 = VERTEX_POINT('',#606);
#606 = CARTESIAN_POINT('',(5.,-64.,18.));
#607 = CIRCLE('',#608,5.);
#608 = AXIS2_PLACEMENT_3D('',#609,#610,#611);
#609 = CARTESIAN_POINT('',(0.,-64.,18.));
#610 = DIRECTION('',(0.,0.,1.));
#611 = DIRECTION('',(1.,0.,-0.));
#612 = ORIENTED_EDGE('',*,*,#613,.F.);
#613 = EDGE_CURVE('',#588,#605,#614,.T.);
#614 = LINE('',#615,#616);
#615 = CARTESIAN_POINT('',(5.,-64.,4.));
#616 = VECTOR('',#617,1.);
#617 = DIRECTION('',(0.,0.,1.));
#618 = ORIENTED_EDGE('',*,*,#587,.T.);
#619 = ORIENTED_EDGE('',*,*,#613,.T.);
#620 = CYLINDRICAL_SURFACE('',#621,5.);
#621 = AXIS2_PLACEMENT_3D('',#622,#623,#624);
#622 = CARTESIAN_POINT('',(0.,-64.,4.));
#623 = DIRECTION('',(0.,0.,1.));
#624 = DIRECTION('',(1.,0.,-0.));
#625 = ADVANCED_FACE('',(#626),#629,.T.);
#626 = FACE_BOUND('',#627,.T.);
#627 = EDGE_LOOP('',(#628));
#628 = ORIENTED_EDGE('',*,*,#604,.T.);
#629 = PLANE('',#630);
#630 = AXIS2_PLACEMENT_3D('',#631,#632,#633);
#631 = CARTESIAN_POINT('',(0.,-64.,18.));
#632 = DIRECTION('',(0.,0.,1.));
#633 = DIRECTION('',(1.,0.,-0.));
#634 = ADVANCED_FACE('',(#635),#646,.T.);
#635 = FACE_BOUND('',#636,.T.);
#636 = EDGE_LOOP('',(#637,#638,#639,#645));
#637 = ORIENTED_EDGE('',*,*,#132,.T.);
#638 = ORIENTED_EDGE('',*,*,#520,.T.);
#639 = ORIENTED_EDGE('',*,*,#640,.F.);
#640 = EDGE_CURVE('',#111,#513,#641,.T.);
#641 = LINE('',#642,#643);
#642 = CARTESIAN_POINT('',(100.43683733369,-11.84789835103,2.8));
#643 = VECTOR('',#644,1.);
#644 = DIRECTION('',(0.,0.,1.));
#645 = ORIENTED_EDGE('',*,*,#110,.F.);
#646 = PLANE('',#647);
#647 = AXIS2_PLACEMENT_3D('',#648,#649,#650);
#648 = CARTESIAN_POINT('',(100.62857996774,-14.03952668683,6.75));
#649 = DIRECTION('',(-0.996194698092,-8.715574274766E-02,-0.));
#650 = DIRECTION('',(8.715574274766E-02,-0.996194698092,0.));
#651 = ADVANCED_FACE('',(#652),#663,.T.);
#652 = FACE_BOUND('',#653,.T.);
#653 = EDGE_LOOP('',(#654,#655,#656,#662));
#654 = ORIENTED_EDGE('',*,*,#141,.F.);
#655 = ORIENTED_EDGE('',*,*,#92,.T.);
#656 = ORIENTED_EDGE('',*,*,#657,.T.);
#657 = EDGE_CURVE('',#95,#505,#658,.T.);
#658 = LINE('',#659,#660);
#659 = CARTESIAN_POINT('',(96.053580662094,-12.23138361912,3.5));
#660 = VECTOR('',#661,1.);
#661 = DIRECTION('',(0.,0.,1.));
#662 = ORIENTED_EDGE('',*,*,#504,.F.);
#663 = PLANE('',#664);
#664 = AXIS2_PLACEMENT_3D('',#665,#666,#667);
#665 = CARTESIAN_POINT('',(96.245323296139,-14.42301195492,6.75));
#666 = DIRECTION('',(0.996194698092,8.715574274766E-02,0.));
#667 = DIRECTION('',(-8.715574274766E-02,0.996194698092,0.));
#668 = ADVANCED_FACE('',(#669),#675,.T.);
#669 = FACE_BOUND('',#670,.T.);
#670 = EDGE_LOOP('',(#671,#672,#673,#674));
#671 = ORIENTED_EDGE('',*,*,#640,.T.);
#672 = ORIENTED_EDGE('',*,*,#512,.T.);
#673 = ORIENTED_EDGE('',*,*,#657,.F.);
#674 = ORIENTED_EDGE('',*,*,#118,.T.);
#675 = PLANE('',#676);
#676 = AXIS2_PLACEMENT_3D('',#677,#678,#679);
#677 = CARTESIAN_POINT('',(98.245208997896,-12.03964098507,6.75));
#678 = DIRECTION('',(8.715574274766E-02,-0.996194698092,-0.));
#679 = DIRECTION('',(-0.996194698092,-8.715574274766E-02,0.));
#680 = ADVANCED_FACE('',(#681),#697,.T.);
#681 = FACE_BOUND('',#682,.T.);
#682 = EDGE_LOOP('',(#683,#684,#690,#691));
#683 = ORIENTED_EDGE('',*,*,#537,.T.);
#684 = ORIENTED_EDGE('',*,*,#685,.F.);
#685 = EDGE_CURVE('',#24,#530,#686,.T.);
#686 = LINE('',#687,#688);
#687 = CARTESIAN_POINT('',(103.62466036759,-11.56899997423,2.8));
#688 = VECTOR('',#689,1.);
#689 = DIRECTION('',(0.,0.,1.));
#690 = ORIENTED_EDGE('',*,*,#47,.T.);
#691 = ORIENTED_EDGE('',*,*,#692,.T.);
#692 = EDGE_CURVE('',#40,#538,#693,.T.);
#693 = LINE('',#694,#695);
#694 = CARTESIAN_POINT('',(108.00791703919,-11.18551470614,3.5));
#695 = VECTOR('',#696,1.);
#696 = DIRECTION('',(0.,0.,1.));
#697 = PLANE('',#698);
#698 = AXIS2_PLACEMENT_3D('',#699,#700,#701);
#699 = CARTESIAN_POINT('',(105.81628870339,-11.37725734019,6.75));
#700 = DIRECTION('',(8.715574274766E-02,-0.996194698092,-0.));
#701 = DIRECTION('',(-0.996194698092,-8.715574274766E-02,0.));
#702 = ADVANCED_FACE('',(#703),#709,.T.);
#703 = FACE_BOUND('',#704,.T.);
#704 = EDGE_LOOP('',(#705,#706,#707,#708));
#705 = ORIENTED_EDGE('',*,*,#61,.T.);
#706 = ORIENTED_EDGE('',*,*,#545,.T.);
#707 = ORIENTED_EDGE('',*,*,#692,.F.);
#708 = ORIENTED_EDGE('',*,*,#39,.F.);
#709 = PLANE('',#710);
#710 = AXIS2_PLACEMENT_3D('',#711,#712,#713);
#711 = CARTESIAN_POINT('',(108.19965967324,-13.37714304195,6.75));
#712 = DIRECTION('',(-0.996194698092,-8.715574274766E-02,-0.));
#713 = DIRECTION('',(8.715574274766E-02,-0.996194698092,0.));
#714 = ADVANCED_FACE('',(#715),#721,.T.);
#715 = FACE_BOUND('',#716,.T.);
#716 = EDGE_LOOP('',(#717,#718,#719,#720));
#717 = ORIENTED_EDGE('',*,*,#70,.F.);
#718 = ORIENTED_EDGE('',*,*,#21,.T.);
#719 = ORIENTED_EDGE('',*,*,#685,.T.);
#720 = ORIENTED_EDGE('',*,*,#529,.F.);
#721 = PLANE('',#722);
#722 = AXIS2_PLACEMENT_3D('',#723,#724,#725);
#723 = CARTESIAN_POINT('',(103.81640300163,-13.76062831004,6.75));
#724 = DIRECTION('',(0.996194698092,8.715574274766E-02,0.));
#725 = DIRECTION('',(-8.715574274766E-02,0.996194698092,0.));
#726 = ( GEOMETRIC_REPRESENTATION_CONTEXT(3) 
GLOBAL_UNCERTAINTY_ASSIGNED_CONTEXT((#730)) GLOBAL_UNIT_ASSIGNED_CONTEXT
((#727,#728,#729)) REPRESENTATION_CONTEXT('Context #1',
  '3D Context with UNIT and UNCERTAINTY') );
#727 = ( LENGTH_UNIT() NAMED_UNIT(*) SI_UNIT(.MILLI.,.METRE.) );
#728 = ( NAMED_UNIT(*) PLANE_ANGLE_UNIT() SI_UNIT($,.RADIAN.) );
#729 = ( NAMED_UNIT(*) SI_UNIT($,.STERADIAN.) SOLID_ANGLE_UNIT() );
#730 = UNCERTAINTY_MEASURE_WITH_UNIT(LENGTH_MEASURE(1.E-07),#727,
  'distance_accuracy_value','confusion accuracy');
#731 = PRODUCT_RELATED_PRODUCT_CATEGORY('part',$,(#7));
ENDSEC;
END-ISO-10303-21;
