ISO-10303-21;
HEADER;
FILE_DESCRIPTION(('FreeCAD Model'),'2;1');
FILE_NAME('Open CASCADE Shape Model','2026-09-20T10:44:13',('FreeCAD'),(
    'FreeCAD'),'Open CASCADE STEP processor 7.8','FreeCAD','Unknown');
FILE_SCHEMA(('AUTOMOTIVE_DESIGN { 1 0 10303 214 1 1 1 1 }'));
ENDSEC;
DATA;
#1 = APPLICATION_PROTOCOL_DEFINITION('international standard',
  'automotive_design',2000,#2);
#2 = APPLICATION_CONTEXT(
  'core data for automotive mechanical design processes');
#3 = SHAPE_DEFINITION_REPRESENTATION(#4,#10);
#4 = PRODUCT_DEFINITION_SHAPE('','',#5);
#5 = PRODUCT_DEFINITION('design','',#6,#9);
#6 = PRODUCT_DEFINITION_FORMATION('','',#7);
#7 = PRODUCT('Open CASCADE STEP translator 7.8 3',
  'Open CASCADE STEP translator 7.8 3','',(#8));
#8 = PRODUCT_CONTEXT('',#2,'mechanical');
#9 = PRODUCT_DEFINITION_CONTEXT('part definition',#2,'design');
#10 = ADVANCED_BREP_SHAPE_REPRESENTATION('',(#11,#15),#334);
#11 = AXIS2_PLACEMENT_3D('',#12,#13,#14);
#12 = CARTESIAN_POINT('',(0.,0.,0.));
#13 = DIRECTION('',(0.,0.,1.));
#14 = DIRECTION('',(1.,0.,-0.));
#15 = MANIFOLD_SOLID_BREP('',#16);
#16 = CLOSED_SHELL('',(#17,#57,#130,#154,#220,#237,#249,#271,#288,#305,
    #322));
#17 = ADVANCED_FACE('',(#18),#52,.F.);
#18 = FACE_BOUND('',#19,.F.);
#19 = EDGE_LOOP('',(#20,#30,#38,#46));
#20 = ORIENTED_EDGE('',*,*,#21,.F.);
#21 = EDGE_CURVE('',#22,#24,#26,.T.);
#22 = VERTEX_POINT('',#23);
#23 = CARTESIAN_POINT('',(-11.,-29.,0.));
#24 = VERTEX_POINT('',#25);
#25 = CARTESIAN_POINT('',(-11.,-29.,15.));
#26 = LINE('',#27,#28);
#27 = CARTESIAN_POINT('',(-11.,-29.,0.));
#28 = VECTOR('',#29,1.);
#29 = DIRECTION('',(0.,0.,1.));
#30 = ORIENTED_EDGE('',*,*,#31,.T.);
#31 = EDGE_CURVE('',#22,#32,#34,.T.);
#32 = VERTEX_POINT('',#33);
#33 = CARTESIAN_POINT('',(-11.,29.,0.));
#34 = LINE('',#35,#36);
#35 = CARTESIAN_POINT('',(-11.,-29.,0.));
#36 = VECTOR('',#37,1.);
#37 = DIRECTION('',(-0.,1.,0.));
#38 = ORIENTED_EDGE('',*,*,#39,.T.);
#39 = EDGE_CURVE('',#32,#40,#42,.T.);
#40 = VERTEX_POINT('',#41);
#41 = CARTESIAN_POINT('',(-11.,29.,15.));
#42 = LINE('',#43,#44);
#43 = CARTESIAN_POINT('',(-11.,29.,0.));
#44 = VECTOR('',#45,1.);
#45 = DIRECTION('',(0.,0.,1.));
#46 = ORIENTED_EDGE('',*,*,#47,.F.);
#47 = EDGE_CURVE('',#24,#40,#48,.T.);
#48 = LINE('',#49,#50);
#49 = CARTESIAN_POINT('',(-11.,-29.,15.));
#50 = VECTOR('',#51,1.);
#51 = DIRECTION('',(-0.,1.,0.));
#52 = PLANE('',#53);
#53 = AXIS2_PLACEMENT_3D('',#54,#55,#56);
#54 = CARTESIAN_POINT('',(-11.,-29.,0.));
#55 = DIRECTION('',(1.,0.,-0.));
#56 = DIRECTION('',(0.,0.,1.));
#57 = ADVANCED_FACE('',(#58,#83),#125,.F.);
#58 = FACE_BOUND('',#59,.F.);
#59 = EDGE_LOOP('',(#60,#68,#69,#77));
#60 = ORIENTED_EDGE('',*,*,#61,.F.);
#61 = EDGE_CURVE('',#22,#62,#64,.T.);
#62 = VERTEX_POINT('',#63);
#63 = CARTESIAN_POINT('',(11.,-29.,0.));
#64 = LINE('',#65,#66);
#65 = CARTESIAN_POINT('',(-11.,-29.,0.));
#66 = VECTOR('',#67,1.);
#67 = DIRECTION('',(1.,0.,-0.));
#68 = ORIENTED_EDGE('',*,*,#21,.T.);
#69 = ORIENTED_EDGE('',*,*,#70,.T.);
#70 = EDGE_CURVE('',#24,#71,#73,.T.);
#71 = VERTEX_POINT('',#72);
#72 = CARTESIAN_POINT('',(11.,-29.,15.));
#73 = LINE('',#74,#75);
#74 = CARTESIAN_POINT('',(-11.,-29.,15.));
#75 = VECTOR('',#76,1.);
#76 = DIRECTION('',(1.,0.,-0.));
#77 = ORIENTED_EDGE('',*,*,#78,.F.);
#78 = EDGE_CURVE('',#62,#71,#79,.T.);
#79 = LINE('',#80,#81);
#80 = CARTESIAN_POINT('',(11.,-29.,0.));
#81 = VECTOR('',#82,1.);
#82 = DIRECTION('',(0.,0.,1.));
#83 = FACE_BOUND('',#84,.F.);
#84 = EDGE_LOOP('',(#85,#95,#103,#111,#119));
#85 = ORIENTED_EDGE('',*,*,#86,.F.);
#86 = EDGE_CURVE('',#87,#89,#91,.T.);
#87 = VERTEX_POINT('',#88);
#88 = CARTESIAN_POINT('',(3.5,-29.,4.));
#89 = VERTEX_POINT('',#90);
#90 = CARTESIAN_POINT('',(-3.5,-29.,4.));
#91 = LINE('',#92,#93);
#92 = CARTESIAN_POINT('',(-7.25,-29.,4.));
#93 = VECTOR('',#94,1.);
#94 = DIRECTION('',(-1.,0.,-0.));
#95 = ORIENTED_EDGE('',*,*,#96,.F.);
#96 = EDGE_CURVE('',#97,#87,#99,.T.);
#97 = VERTEX_POINT('',#98);
#98 = CARTESIAN_POINT('',(3.5,-29.,8.2));
#99 = LINE('',#100,#101);
#100 = CARTESIAN_POINT('',(3.5,-29.,2.));
#101 = VECTOR('',#102,1.);
#102 = DIRECTION('',(0.,0.,-1.));
#103 = ORIENTED_EDGE('',*,*,#104,.F.);
#104 = EDGE_CURVE('',#105,#97,#107,.T.);
#105 = VERTEX_POINT('',#106);
#106 = CARTESIAN_POINT('',(0.,-29.,12.2));
#107 = LINE('',#108,#109);
#108 = CARTESIAN_POINT('',(2.388053097345,-29.,9.470796460177));
#109 = VECTOR('',#110,1.);
#110 = DIRECTION('',(0.658504607869,0.,-0.752576694707));
#111 = ORIENTED_EDGE('',*,*,#112,.F.);
#112 = EDGE_CURVE('',#113,#105,#115,.T.);
#113 = VERTEX_POINT('',#114);
#114 = CARTESIAN_POINT('',(-3.5,-29.,8.2));
#115 = LINE('',#116,#117);
#116 = CARTESIAN_POINT('',(-5.40796460177,-29.,6.019469026549));
#117 = VECTOR('',#118,1.);
#118 = DIRECTION('',(0.658504607869,0.,0.752576694707));
#119 = ORIENTED_EDGE('',*,*,#120,.F.);
#120 = EDGE_CURVE('',#89,#113,#121,.T.);
#121 = LINE('',#122,#123);
#122 = CARTESIAN_POINT('',(-3.5,-29.,4.1));
#123 = VECTOR('',#124,1.);
#124 = DIRECTION('',(0.,0.,1.));
#125 = PLANE('',#126);
#126 = AXIS2_PLACEMENT_3D('',#127,#128,#129);
#127 = CARTESIAN_POINT('',(-11.,-29.,0.));
#128 = DIRECTION('',(-0.,1.,0.));
#129 = DIRECTION('',(0.,0.,1.));
#130 = ADVANCED_FACE('',(#131),#149,.T.);
#131 = FACE_BOUND('',#132,.T.);
#132 = EDGE_LOOP('',(#133,#134,#135,#143));
#133 = ORIENTED_EDGE('',*,*,#47,.F.);
#134 = ORIENTED_EDGE('',*,*,#70,.T.);
#135 = ORIENTED_EDGE('',*,*,#136,.T.);
#136 = EDGE_CURVE('',#71,#137,#139,.T.);
#137 = VERTEX_POINT('',#138);
#138 = CARTESIAN_POINT('',(11.,29.,15.));
#139 = LINE('',#140,#141);
#140 = CARTESIAN_POINT('',(11.,-29.,15.));
#141 = VECTOR('',#142,1.);
#142 = DIRECTION('',(-0.,1.,0.));
#143 = ORIENTED_EDGE('',*,*,#144,.F.);
#144 = EDGE_CURVE('',#40,#137,#145,.T.);
#145 = LINE('',#146,#147);
#146 = CARTESIAN_POINT('',(-11.,29.,15.));
#147 = VECTOR('',#148,1.);
#148 = DIRECTION('',(1.,0.,-0.));
#149 = PLANE('',#150);
#150 = AXIS2_PLACEMENT_3D('',#151,#152,#153);
#151 = CARTESIAN_POINT('',(-11.,-29.,15.));
#152 = DIRECTION('',(0.,0.,1.));
#153 = DIRECTION('',(1.,0.,-0.));
#154 = ADVANCED_FACE('',(#155,#173),#215,.T.);
#155 = FACE_BOUND('',#156,.T.);
#156 = EDGE_LOOP('',(#157,#165,#166,#167));
#157 = ORIENTED_EDGE('',*,*,#158,.F.);
#158 = EDGE_CURVE('',#32,#159,#161,.T.);
#159 = VERTEX_POINT('',#160);
#160 = CARTESIAN_POINT('',(11.,29.,0.));
#161 = LINE('',#162,#163);
#162 = CARTESIAN_POINT('',(-11.,29.,0.));
#163 = VECTOR('',#164,1.);
#164 = DIRECTION('',(1.,0.,-0.));
#165 = ORIENTED_EDGE('',*,*,#39,.T.);
#166 = ORIENTED_EDGE('',*,*,#144,.T.);
#167 = ORIENTED_EDGE('',*,*,#168,.F.);
#168 = EDGE_CURVE('',#159,#137,#169,.T.);
#169 = LINE('',#170,#171);
#170 = CARTESIAN_POINT('',(11.,29.,0.));
#171 = VECTOR('',#172,1.);
#172 = DIRECTION('',(0.,0.,1.));
#173 = FACE_BOUND('',#174,.T.);
#174 = EDGE_LOOP('',(#175,#185,#193,#201,#209));
#175 = ORIENTED_EDGE('',*,*,#176,.F.);
#176 = EDGE_CURVE('',#177,#179,#181,.T.);
#177 = VERTEX_POINT('',#178);
#178 = CARTESIAN_POINT('',(3.5,29.,4.));
#179 = VERTEX_POINT('',#180);
#180 = CARTESIAN_POINT('',(-3.5,29.,4.));
#181 = LINE('',#182,#183);
#182 = CARTESIAN_POINT('',(-7.25,29.,4.));
#183 = VECTOR('',#184,1.);
#184 = DIRECTION('',(-1.,0.,-0.));
#185 = ORIENTED_EDGE('',*,*,#186,.F.);
#186 = EDGE_CURVE('',#187,#177,#189,.T.);
#187 = VERTEX_POINT('',#188);
#188 = CARTESIAN_POINT('',(3.5,29.,8.2));
#189 = LINE('',#190,#191);
#190 = CARTESIAN_POINT('',(3.5,29.,2.));
#191 = VECTOR('',#192,1.);
#192 = DIRECTION('',(0.,0.,-1.));
#193 = ORIENTED_EDGE('',*,*,#194,.F.);
#194 = EDGE_CURVE('',#195,#187,#197,.T.);
#195 = VERTEX_POINT('',#196);
#196 = CARTESIAN_POINT('',(0.,29.,12.2));
#197 = LINE('',#198,#199);
#198 = CARTESIAN_POINT('',(2.388053097345,29.,9.470796460177));
#199 = VECTOR('',#200,1.);
#200 = DIRECTION('',(0.658504607869,0.,-0.752576694707));
#201 = ORIENTED_EDGE('',*,*,#202,.F.);
#202 = EDGE_CURVE('',#203,#195,#205,.T.);
#203 = VERTEX_POINT('',#204);
#204 = CARTESIAN_POINT('',(-3.5,29.,8.2));
#205 = LINE('',#206,#207);
#206 = CARTESIAN_POINT('',(-5.40796460177,29.,6.019469026549));
#207 = VECTOR('',#208,1.);
#208 = DIRECTION('',(0.658504607869,0.,0.752576694707));
#209 = ORIENTED_EDGE('',*,*,#210,.F.);
#210 = EDGE_CURVE('',#179,#203,#211,.T.);
#211 = LINE('',#212,#213);
#212 = CARTESIAN_POINT('',(-3.5,29.,4.1));
#213 = VECTOR('',#214,1.);
#214 = DIRECTION('',(0.,0.,1.));
#215 = PLANE('',#216);
#216 = AXIS2_PLACEMENT_3D('',#217,#218,#219);
#217 = CARTESIAN_POINT('',(-11.,29.,0.));
#218 = DIRECTION('',(-0.,1.,0.));
#219 = DIRECTION('',(0.,0.,1.));
#220 = ADVANCED_FACE('',(#221),#232,.F.);
#221 = FACE_BOUND('',#222,.F.);
#222 = EDGE_LOOP('',(#223,#224,#225,#231));
#223 = ORIENTED_EDGE('',*,*,#31,.F.);
#224 = ORIENTED_EDGE('',*,*,#61,.T.);
#225 = ORIENTED_EDGE('',*,*,#226,.T.);
#226 = EDGE_CURVE('',#62,#159,#227,.T.);
#227 = LINE('',#228,#229);
#228 = CARTESIAN_POINT('',(11.,-29.,0.));
#229 = VECTOR('',#230,1.);
#230 = DIRECTION('',(-0.,1.,0.));
#231 = ORIENTED_EDGE('',*,*,#158,.F.);
#232 = PLANE('',#233);
#233 = AXIS2_PLACEMENT_3D('',#234,#235,#236);
#234 = CARTESIAN_POINT('',(-11.,-29.,0.));
#235 = DIRECTION('',(0.,0.,1.));
#236 = DIRECTION('',(1.,0.,-0.));
#237 = ADVANCED_FACE('',(#238),#244,.T.);
#238 = FACE_BOUND('',#239,.T.);
#239 = EDGE_LOOP('',(#240,#241,#242,#243));
#240 = ORIENTED_EDGE('',*,*,#78,.F.);
#241 = ORIENTED_EDGE('',*,*,#226,.T.);
#242 = ORIENTED_EDGE('',*,*,#168,.T.);
#243 = ORIENTED_EDGE('',*,*,#136,.F.);
#244 = PLANE('',#245);
#245 = AXIS2_PLACEMENT_3D('',#246,#247,#248);
#246 = CARTESIAN_POINT('',(11.,-29.,0.));
#247 = DIRECTION('',(1.,0.,-0.));
#248 = DIRECTION('',(0.,0.,1.));
#249 = ADVANCED_FACE('',(#250),#266,.F.);
#250 = FACE_BOUND('',#251,.F.);
#251 = EDGE_LOOP('',(#252,#253,#259,#260));
#252 = ORIENTED_EDGE('',*,*,#86,.T.);
#253 = ORIENTED_EDGE('',*,*,#254,.T.);
#254 = EDGE_CURVE('',#89,#179,#255,.T.);
#255 = LINE('',#256,#257);
#256 = CARTESIAN_POINT('',(-3.5,-32.,4.));
#257 = VECTOR('',#258,1.);
#258 = DIRECTION('',(0.,1.,0.));
#259 = ORIENTED_EDGE('',*,*,#176,.F.);
#260 = ORIENTED_EDGE('',*,*,#261,.F.);
#261 = EDGE_CURVE('',#87,#177,#262,.T.);
#262 = LINE('',#263,#264);
#263 = CARTESIAN_POINT('',(3.5,-32.,4.));
#264 = VECTOR('',#265,1.);
#265 = DIRECTION('',(0.,1.,0.));
#266 = PLANE('',#267);
#267 = AXIS2_PLACEMENT_3D('',#268,#269,#270);
#268 = CARTESIAN_POINT('',(-3.5,-32.,4.));
#269 = DIRECTION('',(0.,0.,-1.));
#270 = DIRECTION('',(1.,0.,0.));
#271 = ADVANCED_FACE('',(#272),#283,.F.);
#272 = FACE_BOUND('',#273,.F.);
#273 = EDGE_LOOP('',(#274,#275,#281,#282));
#274 = ORIENTED_EDGE('',*,*,#120,.T.);
#275 = ORIENTED_EDGE('',*,*,#276,.T.);
#276 = EDGE_CURVE('',#113,#203,#277,.T.);
#277 = LINE('',#278,#279);
#278 = CARTESIAN_POINT('',(-3.5,-32.,8.2));
#279 = VECTOR('',#280,1.);
#280 = DIRECTION('',(0.,1.,0.));
#281 = ORIENTED_EDGE('',*,*,#210,.F.);
#282 = ORIENTED_EDGE('',*,*,#254,.F.);
#283 = PLANE('',#284);
#284 = AXIS2_PLACEMENT_3D('',#285,#286,#287);
#285 = CARTESIAN_POINT('',(-3.5,-32.,8.2));
#286 = DIRECTION('',(-1.,0.,0.));
#287 = DIRECTION('',(0.,0.,-1.));
#288 = ADVANCED_FACE('',(#289),#300,.F.);
#289 = FACE_BOUND('',#290,.F.);
#290 = EDGE_LOOP('',(#291,#292,#298,#299));
#291 = ORIENTED_EDGE('',*,*,#112,.T.);
#292 = ORIENTED_EDGE('',*,*,#293,.T.);
#293 = EDGE_CURVE('',#105,#195,#294,.T.);
#294 = LINE('',#295,#296);
#295 = CARTESIAN_POINT('',(0.,-32.,12.2));
#296 = VECTOR('',#297,1.);
#297 = DIRECTION('',(0.,1.,0.));
#298 = ORIENTED_EDGE('',*,*,#202,.F.);
#299 = ORIENTED_EDGE('',*,*,#276,.F.);
#300 = PLANE('',#301);
#301 = AXIS2_PLACEMENT_3D('',#302,#303,#304);
#302 = CARTESIAN_POINT('',(0.,-32.,12.2));
#303 = DIRECTION('',(-0.752576694707,0.,0.658504607869));
#304 = DIRECTION('',(-0.658504607869,0.,-0.752576694707));
#305 = ADVANCED_FACE('',(#306),#317,.F.);
#306 = FACE_BOUND('',#307,.F.);
#307 = EDGE_LOOP('',(#308,#309,#315,#316));
#308 = ORIENTED_EDGE('',*,*,#104,.T.);
#309 = ORIENTED_EDGE('',*,*,#310,.T.);
#310 = EDGE_CURVE('',#97,#187,#311,.T.);
#311 = LINE('',#312,#313);
#312 = CARTESIAN_POINT('',(3.5,-32.,8.2));
#313 = VECTOR('',#314,1.);
#314 = DIRECTION('',(0.,1.,0.));
#315 = ORIENTED_EDGE('',*,*,#194,.F.);
#316 = ORIENTED_EDGE('',*,*,#293,.F.);
#317 = PLANE('',#318);
#318 = AXIS2_PLACEMENT_3D('',#319,#320,#321);
#319 = CARTESIAN_POINT('',(3.5,-32.,8.2));
#320 = DIRECTION('',(0.752576694707,-0.,0.658504607869));
#321 = DIRECTION('',(-0.658504607869,0.,0.752576694707));
#322 = ADVANCED_FACE('',(#323),#329,.F.);
#323 = FACE_BOUND('',#324,.F.);
#324 = EDGE_LOOP('',(#325,#326,#327,#328));
#325 = ORIENTED_EDGE('',*,*,#96,.T.);
#326 = ORIENTED_EDGE('',*,*,#261,.T.);
#327 = ORIENTED_EDGE('',*,*,#186,.F.);
#328 = ORIENTED_EDGE('',*,*,#310,.F.);
#329 = PLANE('',#330);
#330 = AXIS2_PLACEMENT_3D('',#331,#332,#333);
#331 = CARTESIAN_POINT('',(3.5,-32.,4.));
#332 = DIRECTION('',(1.,0.,0.));
#333 = DIRECTION('',(0.,0.,1.));
#334 = ( GEOMETRIC_REPRESENTATION_CONTEXT(3) 
GLOBAL_UNCERTAINTY_ASSIGNED_CONTEXT((#338)) GLOBAL_UNIT_ASSIGNED_CONTEXT
((#335,#336,#337)) REPRESENTATION_CONTEXT('Context #1',
  '3D Context with UNIT and UNCERTAINTY') );
#335 = ( LENGTH_UNIT() NAMED_UNIT(*) SI_UNIT(.MILLI.,.METRE.) );
#336 = ( NAMED_UNIT(*) PLANE_ANGLE_UNIT() SI_UNIT($,.RADIAN.) );
#337 = ( NAMED_UNIT(*) SI_UNIT($,.STERADIAN.) SOLID_ANGLE_UNIT() );
#338 = UNCERTAINTY_MEASURE_WITH_UNIT(LENGTH_MEASURE(1.E-07),#335,
  'distance_accuracy_value','confusion accuracy');
#339 = PRODUCT_RELATED_PRODUCT_CATEGORY('part',$,(#7));
ENDSEC;
END-ISO-10303-21;
