ISO-10303-21;
HEADER;
FILE_DESCRIPTION(('FreeCAD Model'),'2;1');
FILE_NAME('Open CASCADE Shape Model','2026-09-20T14:53:01',('FreeCAD'),(
    'FreeCAD'),'Open CASCADE STEP processor 7.8','FreeCAD','Unknown');
FILE_SCHEMA(('AUTOMOTIVE_DESIGN { 1 0 10303 214 1 1 1 1 }'));
ENDSEC;
DATA;
#1 = APPLICATION_PROTOCOL_DEFINITION('international standard',
  'automotive_design',2000,#2);
#2 = APPLICATION_CONTEXT(
  'core data for automotive mechanical design processes');
#3 = SHAPE_DEFINITION_REPRESENTATION(#4,#10);
#4 = PRODUCT_DEFINITION_SHAPE('','',#5);
#5 = PRODUCT_DEFINITION('design','',#6,#9);
#6 = PRODUCT_DEFINITION_FORMATION('','',#7);
#7 = PRODUCT('Open CASCADE STEP translator 7.8 6',
  'Open CASCADE STEP translator 7.8 6','',(#8));
#8 = PRODUCT_CONTEXT('',#2,'mechanical');
#9 = PRODUCT_DEFINITION_CONTEXT('part definition',#2,'design');
#10 = ADVANCED_BREP_SHAPE_REPRESENTATION('',(#11,#15),#891);
#11 = AXIS2_PLACEMENT_3D('',#12,#13,#14);
#12 = CARTESIAN_POINT('',(0.,0.,0.));
#13 = DIRECTION('',(0.,0.,1.));
#14 = DIRECTION('',(1.,0.,-0.));
#15 = MANIFOLD_SOLID_BREP('',#16);
#16 = CLOSED_SHELL('',(#17,#89,#128,#152,#256,#304,#344,#368,#408,#433,
    #459,#477,#508,#532,#588,#628,#653,#709,#733,#757,#774,#785,#796,
    #807,#828,#845,#862,#879));
#17 = ADVANCED_FACE('',(#18),#84,.F.);
#18 = FACE_BOUND('',#19,.F.);
#19 = EDGE_LOOP('',(#20,#30,#38,#46,#54,#62,#70,#78));
#20 = ORIENTED_EDGE('',*,*,#21,.F.);
#21 = EDGE_CURVE('',#22,#24,#26,.T.);
#22 = VERTEX_POINT('',#23);
#23 = CARTESIAN_POINT('',(-45.,-5.5,5.5));
#24 = VERTEX_POINT('',#25);
#25 = CARTESIAN_POINT('',(-45.,-5.5,2.6));
#26 = LINE('',#27,#28);
#27 = CARTESIAN_POINT('',(-45.,-5.5,5.5));
#28 = VECTOR('',#29,1.);
#29 = DIRECTION('',(0.,0.,-1.));
#30 = ORIENTED_EDGE('',*,*,#31,.T.);
#31 = EDGE_CURVE('',#22,#32,#34,.T.);
#32 = VERTEX_POINT('',#33);
#33 = CARTESIAN_POINT('',(-25.5,-5.5,5.5));
#34 = LINE('',#35,#36);
#35 = CARTESIAN_POINT('',(-45.,-5.5,5.5));
#36 = VECTOR('',#37,1.);
#37 = DIRECTION('',(1.,0.,0.));
#38 = ORIENTED_EDGE('',*,*,#39,.F.);
#39 = EDGE_CURVE('',#40,#32,#42,.T.);
#40 = VERTEX_POINT('',#41);
#41 = CARTESIAN_POINT('',(-25.5,-5.5,4.));
#42 = LINE('',#43,#44);
#43 = CARTESIAN_POINT('',(-25.5,-5.5,6.75));
#44 = VECTOR('',#45,1.);
#45 = DIRECTION('',(0.,0.,1.));
#46 = ORIENTED_EDGE('',*,*,#47,.F.);
#47 = EDGE_CURVE('',#48,#40,#50,.T.);
#48 = VERTEX_POINT('',#49);
#49 = CARTESIAN_POINT('',(-18.5,-5.5,4.));
#50 = LINE('',#51,#52);
#51 = CARTESIAN_POINT('',(-35.25,-5.5,4.));
#52 = VECTOR('',#53,1.);
#53 = DIRECTION('',(-1.,0.,0.));
#54 = ORIENTED_EDGE('',*,*,#55,.F.);
#55 = EDGE_CURVE('',#56,#48,#58,.T.);
#56 = VERTEX_POINT('',#57);
#57 = CARTESIAN_POINT('',(-18.5,-5.5,5.5));
#58 = LINE('',#59,#60);
#59 = CARTESIAN_POINT('',(-18.5,-5.5,4.75));
#60 = VECTOR('',#61,1.);
#61 = DIRECTION('',(0.,0.,-1.));
#62 = ORIENTED_EDGE('',*,*,#63,.T.);
#63 = EDGE_CURVE('',#56,#64,#66,.T.);
#64 = VERTEX_POINT('',#65);
#65 = CARTESIAN_POINT('',(0.,-5.5,5.5));
#66 = LINE('',#67,#68);
#67 = CARTESIAN_POINT('',(-45.,-5.5,5.5));
#68 = VECTOR('',#69,1.);
#69 = DIRECTION('',(1.,0.,0.));
#70 = ORIENTED_EDGE('',*,*,#71,.F.);
#71 = EDGE_CURVE('',#72,#64,#74,.T.);
#72 = VERTEX_POINT('',#73);
#73 = CARTESIAN_POINT('',(0.,-5.5,2.6));
#74 = LINE('',#75,#76);
#75 = CARTESIAN_POINT('',(0.,-5.5,2.75));
#76 = VECTOR('',#77,1.);
#77 = DIRECTION('',(0.,0.,1.));
#78 = ORIENTED_EDGE('',*,*,#79,.F.);
#79 = EDGE_CURVE('',#24,#72,#80,.T.);
#80 = LINE('',#81,#82);
#81 = CARTESIAN_POINT('',(-45.,-5.5,2.6));
#82 = VECTOR('',#83,1.);
#83 = DIRECTION('',(1.,0.,0.));
#84 = PLANE('',#85);
#85 = AXIS2_PLACEMENT_3D('',#86,#87,#88);
#86 = CARTESIAN_POINT('',(-45.,-5.5,5.5));
#87 = DIRECTION('',(0.,1.,0.));
#88 = DIRECTION('',(0.,0.,-1.));
#89 = ADVANCED_FACE('',(#90),#123,.F.);
#90 = FACE_BOUND('',#91,.F.);
#91 = EDGE_LOOP('',(#92,#100,#108,#116,#122));
#92 = ORIENTED_EDGE('',*,*,#93,.T.);
#93 = EDGE_CURVE('',#24,#94,#96,.T.);
#94 = VERTEX_POINT('',#95);
#95 = CARTESIAN_POINT('',(-45.,5.5,2.6));
#96 = LINE('',#97,#98);
#97 = CARTESIAN_POINT('',(-45.,-5.5,2.6));
#98 = VECTOR('',#99,1.);
#99 = DIRECTION('',(0.,1.,0.));
#100 = ORIENTED_EDGE('',*,*,#101,.T.);
#101 = EDGE_CURVE('',#94,#102,#104,.T.);
#102 = VERTEX_POINT('',#103);
#103 = CARTESIAN_POINT('',(-45.,5.5,5.5));
#104 = LINE('',#105,#106);
#105 = CARTESIAN_POINT('',(-45.,5.5,2.6));
#106 = VECTOR('',#107,1.);
#107 = DIRECTION('',(0.,0.,1.));
#108 = ORIENTED_EDGE('',*,*,#109,.T.);
#109 = EDGE_CURVE('',#102,#110,#112,.T.);
#110 = VERTEX_POINT('',#111);
#111 = CARTESIAN_POINT('',(-45.,0.,11.));
#112 = LINE('',#113,#114);
#113 = CARTESIAN_POINT('',(-45.,5.5,5.5));
#114 = VECTOR('',#115,1.);
#115 = DIRECTION('',(0.,-0.707106781187,0.707106781187));
#116 = ORIENTED_EDGE('',*,*,#117,.T.);
#117 = EDGE_CURVE('',#110,#22,#118,.T.);
#118 = LINE('',#119,#120);
#119 = CARTESIAN_POINT('',(-45.,0.,11.));
#120 = VECTOR('',#121,1.);
#121 = DIRECTION('',(0.,-0.707106781187,-0.707106781187));
#122 = ORIENTED_EDGE('',*,*,#21,.T.);
#123 = PLANE('',#124);
#124 = AXIS2_PLACEMENT_3D('',#125,#126,#127);
#125 = CARTESIAN_POINT('',(-45.,0.,5.576336185136));
#126 = DIRECTION('',(1.,0.,0.));
#127 = DIRECTION('',(0.,0.,1.));
#128 = ADVANCED_FACE('',(#129),#147,.F.);
#129 = FACE_BOUND('',#130,.F.);
#130 = EDGE_LOOP('',(#131,#132,#133,#141));
#131 = ORIENTED_EDGE('',*,*,#93,.F.);
#132 = ORIENTED_EDGE('',*,*,#79,.T.);
#133 = ORIENTED_EDGE('',*,*,#134,.F.);
#134 = EDGE_CURVE('',#135,#72,#137,.T.);
#135 = VERTEX_POINT('',#136);
#136 = CARTESIAN_POINT('',(0.,5.5,2.6));
#137 = LINE('',#138,#139);
#138 = CARTESIAN_POINT('',(0.,-19.75,2.6));
#139 = VECTOR('',#140,1.);
#140 = DIRECTION('',(0.,-1.,0.));
#141 = ORIENTED_EDGE('',*,*,#142,.F.);
#142 = EDGE_CURVE('',#94,#135,#143,.T.);
#143 = LINE('',#144,#145);
#144 = CARTESIAN_POINT('',(-45.,5.5,2.6));
#145 = VECTOR('',#146,1.);
#146 = DIRECTION('',(1.,0.,0.));
#147 = PLANE('',#148);
#148 = AXIS2_PLACEMENT_3D('',#149,#150,#151);
#149 = CARTESIAN_POINT('',(-45.,-5.5,2.6));
#150 = DIRECTION('',(0.,0.,1.));
#151 = DIRECTION('',(0.,1.,0.));
#152 = ADVANCED_FACE('',(#153),#251,.T.);
#153 = FACE_BOUND('',#154,.T.);
#154 = EDGE_LOOP('',(#155,#165,#173,#181,#189,#195,#196,#197,#205,#213,
    #221,#229,#237,#245));
#155 = ORIENTED_EDGE('',*,*,#156,.T.);
#156 = EDGE_CURVE('',#157,#159,#161,.T.);
#157 = VERTEX_POINT('',#158);
#158 = CARTESIAN_POINT('',(0.,-34.,0.));
#159 = VERTEX_POINT('',#160);
#160 = CARTESIAN_POINT('',(0.,-34.,22.));
#161 = LINE('',#162,#163);
#162 = CARTESIAN_POINT('',(0.,-34.,0.));
#163 = VECTOR('',#164,1.);
#164 = DIRECTION('',(0.,0.,1.));
#165 = ORIENTED_EDGE('',*,*,#166,.T.);
#166 = EDGE_CURVE('',#159,#167,#169,.T.);
#167 = VERTEX_POINT('',#168);
#168 = CARTESIAN_POINT('',(0.,-30.,22.));
#169 = LINE('',#170,#171);
#170 = CARTESIAN_POINT('',(0.,-34.,22.));
#171 = VECTOR('',#172,1.);
#172 = DIRECTION('',(0.,1.,0.));
#173 = ORIENTED_EDGE('',*,*,#174,.F.);
#174 = EDGE_CURVE('',#175,#167,#177,.T.);
#175 = VERTEX_POINT('',#176);
#176 = CARTESIAN_POINT('',(0.,-30.,8.));
#177 = LINE('',#178,#179);
#178 = CARTESIAN_POINT('',(0.,-30.,0.));
#179 = VECTOR('',#180,1.);
#180 = DIRECTION('',(0.,0.,1.));
#181 = ORIENTED_EDGE('',*,*,#182,.T.);
#182 = EDGE_CURVE('',#175,#183,#185,.T.);
#183 = VERTEX_POINT('',#184);
#184 = CARTESIAN_POINT('',(0.,-3.,8.));
#185 = LINE('',#186,#187);
#186 = CARTESIAN_POINT('',(0.,-34.,8.));
#187 = VECTOR('',#188,1.);
#188 = DIRECTION('',(0.,1.,0.));
#189 = ORIENTED_EDGE('',*,*,#190,.F.);
#190 = EDGE_CURVE('',#64,#183,#191,.T.);
#191 = LINE('',#192,#193);
#192 = CARTESIAN_POINT('',(3.552713678801E-15,-11.25,-0.25));
#193 = VECTOR('',#194,1.);
#194 = DIRECTION('',(0.,0.707106781187,0.707106781187));
#195 = ORIENTED_EDGE('',*,*,#71,.F.);
#196 = ORIENTED_EDGE('',*,*,#134,.F.);
#197 = ORIENTED_EDGE('',*,*,#198,.F.);
#198 = EDGE_CURVE('',#199,#135,#201,.T.);
#199 = VERTEX_POINT('',#200);
#200 = CARTESIAN_POINT('',(0.,5.5,5.5));
#201 = LINE('',#202,#203);
#202 = CARTESIAN_POINT('',(0.,5.5,1.3));
#203 = VECTOR('',#204,1.);
#204 = DIRECTION('',(0.,0.,-1.));
#205 = ORIENTED_EDGE('',*,*,#206,.F.);
#206 = EDGE_CURVE('',#207,#199,#209,.T.);
#207 = VERTEX_POINT('',#208);
#208 = CARTESIAN_POINT('',(0.,3.,8.));
#209 = LINE('',#210,#211);
#210 = CARTESIAN_POINT('',(3.552713678801E-15,-3.,14.));
#211 = VECTOR('',#212,1.);
#212 = DIRECTION('',(0.,0.707106781187,-0.707106781187));
#213 = ORIENTED_EDGE('',*,*,#214,.T.);
#214 = EDGE_CURVE('',#207,#215,#217,.T.);
#215 = VERTEX_POINT('',#216);
#216 = CARTESIAN_POINT('',(0.,30.,8.));
#217 = LINE('',#218,#219);
#218 = CARTESIAN_POINT('',(0.,-34.,8.));
#219 = VECTOR('',#220,1.);
#220 = DIRECTION('',(0.,1.,0.));
#221 = ORIENTED_EDGE('',*,*,#222,.T.);
#222 = EDGE_CURVE('',#215,#223,#225,.T.);
#223 = VERTEX_POINT('',#224);
#224 = CARTESIAN_POINT('',(0.,30.,22.));
#225 = LINE('',#226,#227);
#226 = CARTESIAN_POINT('',(0.,30.,0.));
#227 = VECTOR('',#228,1.);
#228 = DIRECTION('',(0.,0.,1.));
#229 = ORIENTED_EDGE('',*,*,#230,.T.);
#230 = EDGE_CURVE('',#223,#231,#233,.T.);
#231 = VERTEX_POINT('',#232);
#232 = CARTESIAN_POINT('',(0.,34.,22.));
#233 = LINE('',#234,#235);
#234 = CARTESIAN_POINT('',(0.,30.,22.));
#235 = VECTOR('',#236,1.);
#236 = DIRECTION('',(0.,1.,0.));
#237 = ORIENTED_EDGE('',*,*,#238,.F.);
#238 = EDGE_CURVE('',#239,#231,#241,.T.);
#239 = VERTEX_POINT('',#240);
#240 = CARTESIAN_POINT('',(0.,34.,0.));
#241 = LINE('',#242,#243);
#242 = CARTESIAN_POINT('',(0.,34.,0.));
#243 = VECTOR('',#244,1.);
#244 = DIRECTION('',(0.,0.,1.));
#245 = ORIENTED_EDGE('',*,*,#246,.F.);
#246 = EDGE_CURVE('',#157,#239,#247,.T.);
#247 = LINE('',#248,#249);
#248 = CARTESIAN_POINT('',(0.,-34.,0.));
#249 = VECTOR('',#250,1.);
#250 = DIRECTION('',(0.,1.,0.));
#251 = PLANE('',#252);
#252 = AXIS2_PLACEMENT_3D('',#253,#254,#255);
#253 = CARTESIAN_POINT('',(1.112204390864E-16,0.,7.136016681307));
#254 = DIRECTION('',(-1.,-0.,-0.));
#255 = DIRECTION('',(0.,0.,-1.));
#256 = ADVANCED_FACE('',(#257),#299,.F.);
#257 = FACE_BOUND('',#258,.F.);
#258 = EDGE_LOOP('',(#259,#269,#277,#285,#291,#292,#293));
#259 = ORIENTED_EDGE('',*,*,#260,.F.);
#260 = EDGE_CURVE('',#261,#263,#265,.T.);
#261 = VERTEX_POINT('',#262);
#262 = CARTESIAN_POINT('',(-21.5,0.,11.));
#263 = VERTEX_POINT('',#264);
#264 = CARTESIAN_POINT('',(-18.5,-3.,8.));
#265 = LINE('',#266,#267);
#266 = CARTESIAN_POINT('',(-20.25,-1.25,9.75));
#267 = VECTOR('',#268,1.);
#268 = DIRECTION('',(0.57735026919,-0.57735026919,-0.57735026919));
#269 = ORIENTED_EDGE('',*,*,#270,.T.);
#270 = EDGE_CURVE('',#261,#271,#273,.T.);
#271 = VERTEX_POINT('',#272);
#272 = CARTESIAN_POINT('',(8.,0.,11.));
#273 = LINE('',#274,#275);
#274 = CARTESIAN_POINT('',(-45.,0.,11.));
#275 = VECTOR('',#276,1.);
#276 = DIRECTION('',(1.,0.,0.));
#277 = ORIENTED_EDGE('',*,*,#278,.T.);
#278 = EDGE_CURVE('',#271,#279,#281,.T.);
#279 = VERTEX_POINT('',#280);
#280 = CARTESIAN_POINT('',(8.,-3.,8.));
#281 = LINE('',#282,#283);
#282 = CARTESIAN_POINT('',(8.,0.,11.));
#283 = VECTOR('',#284,1.);
#284 = DIRECTION('',(0.,-0.707106781187,-0.707106781187));
#285 = ORIENTED_EDGE('',*,*,#286,.T.);
#286 = EDGE_CURVE('',#279,#183,#287,.T.);
#287 = LINE('',#288,#289);
#288 = CARTESIAN_POINT('',(-22.5,-3.,8.));
#289 = VECTOR('',#290,1.);
#290 = DIRECTION('',(-1.,0.,0.));
#291 = ORIENTED_EDGE('',*,*,#190,.F.);
#292 = ORIENTED_EDGE('',*,*,#63,.F.);
#293 = ORIENTED_EDGE('',*,*,#294,.F.);
#294 = EDGE_CURVE('',#263,#56,#295,.T.);
#295 = LINE('',#296,#297);
#296 = CARTESIAN_POINT('',(-18.5,-8.,3.));
#297 = VECTOR('',#298,1.);
#298 = DIRECTION('',(0.,-0.707106781187,-0.707106781187));
#299 = PLANE('',#300);
#300 = AXIS2_PLACEMENT_3D('',#301,#302,#303);
#301 = CARTESIAN_POINT('',(-45.,0.,11.));
#302 = DIRECTION('',(0.,0.707106781187,-0.707106781187));
#303 = DIRECTION('',(0.,-0.707106781187,-0.707106781187));
#304 = ADVANCED_FACE('',(#305),#339,.F.);
#305 = FACE_BOUND('',#306,.F.);
#306 = EDGE_LOOP('',(#307,#308,#316,#324,#332,#338));
#307 = ORIENTED_EDGE('',*,*,#55,.T.);
#308 = ORIENTED_EDGE('',*,*,#309,.T.);
#309 = EDGE_CURVE('',#48,#310,#312,.T.);
#310 = VERTEX_POINT('',#311);
#311 = CARTESIAN_POINT('',(-18.5,5.5,4.));
#312 = LINE('',#313,#314);
#313 = CARTESIAN_POINT('',(-18.5,-25.,4.));
#314 = VECTOR('',#315,1.);
#315 = DIRECTION('',(0.,1.,0.));
#316 = ORIENTED_EDGE('',*,*,#317,.T.);
#317 = EDGE_CURVE('',#310,#318,#320,.T.);
#318 = VERTEX_POINT('',#319);
#319 = CARTESIAN_POINT('',(-18.5,5.5,5.5));
#320 = LINE('',#321,#322);
#321 = CARTESIAN_POINT('',(-18.5,5.5,3.3));
#322 = VECTOR('',#323,1.);
#323 = DIRECTION('',(0.,0.,1.));
#324 = ORIENTED_EDGE('',*,*,#325,.T.);
#325 = EDGE_CURVE('',#318,#326,#328,.T.);
#326 = VERTEX_POINT('',#327);
#327 = CARTESIAN_POINT('',(-18.5,3.,8.));
#328 = LINE('',#329,#330);
#329 = CARTESIAN_POINT('',(-18.5,-1.75,12.75));
#330 = VECTOR('',#331,1.);
#331 = DIRECTION('',(0.,-0.707106781187,0.707106781187));
#332 = ORIENTED_EDGE('',*,*,#333,.F.);
#333 = EDGE_CURVE('',#263,#326,#334,.T.);
#334 = LINE('',#335,#336);
#335 = CARTESIAN_POINT('',(-18.5,-25.,8.));
#336 = VECTOR('',#337,1.);
#337 = DIRECTION('',(0.,1.,0.));
#338 = ORIENTED_EDGE('',*,*,#294,.T.);
#339 = PLANE('',#340);
#340 = AXIS2_PLACEMENT_3D('',#341,#342,#343);
#341 = CARTESIAN_POINT('',(-18.5,-25.,4.));
#342 = DIRECTION('',(1.,0.,0.));
#343 = DIRECTION('',(0.,0.,1.));
#344 = ADVANCED_FACE('',(#345),#363,.F.);
#345 = FACE_BOUND('',#346,.F.);
#346 = EDGE_LOOP('',(#347,#348,#356,#362));
#347 = ORIENTED_EDGE('',*,*,#47,.T.);
#348 = ORIENTED_EDGE('',*,*,#349,.T.);
#349 = EDGE_CURVE('',#40,#350,#352,.T.);
#350 = VERTEX_POINT('',#351);
#351 = CARTESIAN_POINT('',(-25.5,5.5,4.));
#352 = LINE('',#353,#354);
#353 = CARTESIAN_POINT('',(-25.5,-25.,4.));
#354 = VECTOR('',#355,1.);
#355 = DIRECTION('',(0.,1.,0.));
#356 = ORIENTED_EDGE('',*,*,#357,.T.);
#357 = EDGE_CURVE('',#350,#310,#358,.T.);
#358 = LINE('',#359,#360);
#359 = CARTESIAN_POINT('',(-35.25,5.5,4.));
#360 = VECTOR('',#361,1.);
#361 = DIRECTION('',(1.,0.,0.));
#362 = ORIENTED_EDGE('',*,*,#309,.F.);
#363 = PLANE('',#364);
#364 = AXIS2_PLACEMENT_3D('',#365,#366,#367);
#365 = CARTESIAN_POINT('',(-25.5,-25.,4.));
#366 = DIRECTION('',(0.,0.,-1.));
#367 = DIRECTION('',(1.,0.,0.));
#368 = ADVANCED_FACE('',(#369),#403,.F.);
#369 = FACE_BOUND('',#370,.F.);
#370 = EDGE_LOOP('',(#371,#379,#387,#395,#401,#402));
#371 = ORIENTED_EDGE('',*,*,#372,.T.);
#372 = EDGE_CURVE('',#32,#373,#375,.T.);
#373 = VERTEX_POINT('',#374);
#374 = CARTESIAN_POINT('',(-25.5,-3.,8.));
#375 = LINE('',#376,#377);
#376 = CARTESIAN_POINT('',(-25.5,-7.,4.));
#377 = VECTOR('',#378,1.);
#378 = DIRECTION('',(0.,0.707106781187,0.707106781187));
#379 = ORIENTED_EDGE('',*,*,#380,.T.);
#380 = EDGE_CURVE('',#373,#381,#383,.T.);
#381 = VERTEX_POINT('',#382);
#382 = CARTESIAN_POINT('',(-25.5,3.,8.));
#383 = LINE('',#384,#385);
#384 = CARTESIAN_POINT('',(-25.5,-25.,8.));
#385 = VECTOR('',#386,1.);
#386 = DIRECTION('',(0.,1.,0.));
#387 = ORIENTED_EDGE('',*,*,#388,.T.);
#388 = EDGE_CURVE('',#381,#389,#391,.T.);
#389 = VERTEX_POINT('',#390);
#390 = CARTESIAN_POINT('',(-25.5,5.5,5.5));
#391 = LINE('',#392,#393);
#392 = CARTESIAN_POINT('',(-25.5,-2.75,13.75));
#393 = VECTOR('',#394,1.);
#394 = DIRECTION('',(0.,0.707106781187,-0.707106781187));
#395 = ORIENTED_EDGE('',*,*,#396,.T.);
#396 = EDGE_CURVE('',#389,#350,#397,.T.);
#397 = LINE('',#398,#399);
#398 = CARTESIAN_POINT('',(-25.5,5.5,5.3));
#399 = VECTOR('',#400,1.);
#400 = DIRECTION('',(-0.,-0.,-1.));
#401 = ORIENTED_EDGE('',*,*,#349,.F.);
#402 = ORIENTED_EDGE('',*,*,#39,.T.);
#403 = PLANE('',#404);
#404 = AXIS2_PLACEMENT_3D('',#405,#406,#407);
#405 = CARTESIAN_POINT('',(-25.5,-25.,8.));
#406 = DIRECTION('',(-1.,0.,0.));
#407 = DIRECTION('',(0.,0.,-1.));
#408 = ADVANCED_FACE('',(#409),#428,.F.);
#409 = FACE_BOUND('',#410,.F.);
#410 = EDGE_LOOP('',(#411,#412,#420,#426,#427));
#411 = ORIENTED_EDGE('',*,*,#117,.F.);
#412 = ORIENTED_EDGE('',*,*,#413,.T.);
#413 = EDGE_CURVE('',#110,#414,#416,.T.);
#414 = VERTEX_POINT('',#415);
#415 = CARTESIAN_POINT('',(-22.5,0.,11.));
#416 = LINE('',#417,#418);
#417 = CARTESIAN_POINT('',(-45.,0.,11.));
#418 = VECTOR('',#419,1.);
#419 = DIRECTION('',(1.,0.,0.));
#420 = ORIENTED_EDGE('',*,*,#421,.F.);
#421 = EDGE_CURVE('',#373,#414,#422,.T.);
#422 = LINE('',#423,#424);
#423 = CARTESIAN_POINT('',(-30.25,-7.75,3.25));
#424 = VECTOR('',#425,1.);
#425 = DIRECTION('',(0.57735026919,0.57735026919,0.57735026919));
#426 = ORIENTED_EDGE('',*,*,#372,.F.);
#427 = ORIENTED_EDGE('',*,*,#31,.F.);
#428 = PLANE('',#429);
#429 = AXIS2_PLACEMENT_3D('',#430,#431,#432);
#430 = CARTESIAN_POINT('',(-45.,0.,11.));
#431 = DIRECTION('',(0.,0.707106781187,-0.707106781187));
#432 = DIRECTION('',(0.,-0.707106781187,-0.707106781187));
#433 = ADVANCED_FACE('',(#434),#454,.F.);
#434 = FACE_BOUND('',#435,.F.);
#435 = EDGE_LOOP('',(#436,#437,#438,#439,#445,#446,#447,#448));
#436 = ORIENTED_EDGE('',*,*,#101,.F.);
#437 = ORIENTED_EDGE('',*,*,#142,.T.);
#438 = ORIENTED_EDGE('',*,*,#198,.F.);
#439 = ORIENTED_EDGE('',*,*,#440,.F.);
#440 = EDGE_CURVE('',#318,#199,#441,.T.);
#441 = LINE('',#442,#443);
#442 = CARTESIAN_POINT('',(-45.,5.5,5.5));
#443 = VECTOR('',#444,1.);
#444 = DIRECTION('',(1.,0.,0.));
#445 = ORIENTED_EDGE('',*,*,#317,.F.);
#446 = ORIENTED_EDGE('',*,*,#357,.F.);
#447 = ORIENTED_EDGE('',*,*,#396,.F.);
#448 = ORIENTED_EDGE('',*,*,#449,.F.);
#449 = EDGE_CURVE('',#102,#389,#450,.T.);
#450 = LINE('',#451,#452);
#451 = CARTESIAN_POINT('',(-45.,5.5,5.5));
#452 = VECTOR('',#453,1.);
#453 = DIRECTION('',(1.,0.,0.));
#454 = PLANE('',#455);
#455 = AXIS2_PLACEMENT_3D('',#456,#457,#458);
#456 = CARTESIAN_POINT('',(-45.,5.5,2.6));
#457 = DIRECTION('',(0.,-1.,0.));
#458 = DIRECTION('',(0.,0.,1.));
#459 = ADVANCED_FACE('',(#460),#472,.F.);
#460 = FACE_BOUND('',#461,.F.);
#461 = EDGE_LOOP('',(#462,#463,#464,#465,#471));
#462 = ORIENTED_EDGE('',*,*,#109,.F.);
#463 = ORIENTED_EDGE('',*,*,#449,.T.);
#464 = ORIENTED_EDGE('',*,*,#388,.F.);
#465 = ORIENTED_EDGE('',*,*,#466,.F.);
#466 = EDGE_CURVE('',#414,#381,#467,.T.);
#467 = LINE('',#468,#469);
#468 = CARTESIAN_POINT('',(-23.75,1.25,9.75));
#469 = VECTOR('',#470,1.);
#470 = DIRECTION('',(-0.57735026919,0.57735026919,-0.57735026919));
#471 = ORIENTED_EDGE('',*,*,#413,.F.);
#472 = PLANE('',#473);
#473 = AXIS2_PLACEMENT_3D('',#474,#475,#476);
#474 = CARTESIAN_POINT('',(-45.,5.5,5.5));
#475 = DIRECTION('',(0.,-0.707106781187,-0.707106781187));
#476 = DIRECTION('',(0.,-0.707106781187,0.707106781187));
#477 = ADVANCED_FACE('',(#478),#503,.T.);
#478 = FACE_BOUND('',#479,.T.);
#479 = EDGE_LOOP('',(#480,#488,#496,#502));
#480 = ORIENTED_EDGE('',*,*,#481,.T.);
#481 = EDGE_CURVE('',#157,#482,#484,.T.);
#482 = VERTEX_POINT('',#483);
#483 = CARTESIAN_POINT('',(170.,-34.,0.));
#484 = LINE('',#485,#486);
#485 = CARTESIAN_POINT('',(0.,-34.,0.));
#486 = VECTOR('',#487,1.);
#487 = DIRECTION('',(1.,0.,0.));
#488 = ORIENTED_EDGE('',*,*,#489,.T.);
#489 = EDGE_CURVE('',#482,#490,#492,.T.);
#490 = VERTEX_POINT('',#491);
#491 = CARTESIAN_POINT('',(170.,-34.,22.));
#492 = LINE('',#493,#494);
#493 = CARTESIAN_POINT('',(170.,-34.,0.));
#494 = VECTOR('',#495,1.);
#495 = DIRECTION('',(0.,0.,1.));
#496 = ORIENTED_EDGE('',*,*,#497,.F.);
#497 = EDGE_CURVE('',#159,#490,#498,.T.);
#498 = LINE('',#499,#500);
#499 = CARTESIAN_POINT('',(0.,-34.,22.));
#500 = VECTOR('',#501,1.);
#501 = DIRECTION('',(1.,0.,0.));
#502 = ORIENTED_EDGE('',*,*,#156,.F.);
#503 = PLANE('',#504);
#504 = AXIS2_PLACEMENT_3D('',#505,#506,#507);
#505 = CARTESIAN_POINT('',(85.,-34.,11.));
#506 = DIRECTION('',(-0.,-1.,-0.));
#507 = DIRECTION('',(0.,0.,-1.));
#508 = ADVANCED_FACE('',(#509),#527,.T.);
#509 = FACE_BOUND('',#510,.T.);
#510 = EDGE_LOOP('',(#511,#512,#513,#521));
#511 = ORIENTED_EDGE('',*,*,#166,.F.);
#512 = ORIENTED_EDGE('',*,*,#497,.T.);
#513 = ORIENTED_EDGE('',*,*,#514,.T.);
#514 = EDGE_CURVE('',#490,#515,#517,.T.);
#515 = VERTEX_POINT('',#516);
#516 = CARTESIAN_POINT('',(170.,-30.,22.));
#517 = LINE('',#518,#519);
#518 = CARTESIAN_POINT('',(170.,-34.,22.));
#519 = VECTOR('',#520,1.);
#520 = DIRECTION('',(0.,1.,0.));
#521 = ORIENTED_EDGE('',*,*,#522,.F.);
#522 = EDGE_CURVE('',#167,#515,#523,.T.);
#523 = LINE('',#524,#525);
#524 = CARTESIAN_POINT('',(0.,-30.,22.));
#525 = VECTOR('',#526,1.);
#526 = DIRECTION('',(1.,0.,0.));
#527 = PLANE('',#528);
#528 = AXIS2_PLACEMENT_3D('',#529,#530,#531);
#529 = CARTESIAN_POINT('',(0.,-34.,22.));
#530 = DIRECTION('',(0.,0.,1.));
#531 = DIRECTION('',(1.,0.,0.));
#532 = ADVANCED_FACE('',(#533),#583,.T.);
#533 = FACE_BOUND('',#534,.T.);
#534 = EDGE_LOOP('',(#535,#543,#551,#559,#567,#575,#581,#582));
#535 = ORIENTED_EDGE('',*,*,#536,.F.);
#536 = EDGE_CURVE('',#537,#515,#539,.T.);
#537 = VERTEX_POINT('',#538);
#538 = CARTESIAN_POINT('',(170.,-30.,8.));
#539 = LINE('',#540,#541);
#540 = CARTESIAN_POINT('',(170.,-30.,0.));
#541 = VECTOR('',#542,1.);
#542 = DIRECTION('',(0.,0.,1.));
#543 = ORIENTED_EDGE('',*,*,#544,.F.);
#544 = EDGE_CURVE('',#545,#537,#547,.T.);
#545 = VERTEX_POINT('',#546);
#546 = CARTESIAN_POINT('',(162.,-30.,8.));
#547 = LINE('',#548,#549);
#548 = CARTESIAN_POINT('',(81.,-30.,8.));
#549 = VECTOR('',#550,1.);
#550 = DIRECTION('',(1.,0.,0.));
#551 = ORIENTED_EDGE('',*,*,#552,.T.);
#552 = EDGE_CURVE('',#545,#553,#555,.T.);
#553 = VERTEX_POINT('',#554);
#554 = CARTESIAN_POINT('',(162.,-30.,5.));
#555 = LINE('',#556,#557);
#556 = CARTESIAN_POINT('',(162.,-30.,0.));
#557 = VECTOR('',#558,1.);
#558 = DIRECTION('',(0.,0.,-1.));
#559 = ORIENTED_EDGE('',*,*,#560,.T.);
#560 = EDGE_CURVE('',#553,#561,#563,.T.);
#561 = VERTEX_POINT('',#562);
#562 = CARTESIAN_POINT('',(10.,-30.,5.));
#563 = LINE('',#564,#565);
#564 = CARTESIAN_POINT('',(0.,-30.,5.));
#565 = VECTOR('',#566,1.);
#566 = DIRECTION('',(-1.,0.,0.));
#567 = ORIENTED_EDGE('',*,*,#568,.F.);
#568 = EDGE_CURVE('',#569,#561,#571,.T.);
#569 = VERTEX_POINT('',#570);
#570 = CARTESIAN_POINT('',(10.,-30.,8.));
#571 = LINE('',#572,#573);
#572 = CARTESIAN_POINT('',(10.,-30.,0.));
#573 = VECTOR('',#574,1.);
#574 = DIRECTION('',(0.,0.,-1.));
#575 = ORIENTED_EDGE('',*,*,#576,.F.);
#576 = EDGE_CURVE('',#175,#569,#577,.T.);
#577 = LINE('',#578,#579);
#578 = CARTESIAN_POINT('',(0.,-30.,8.));
#579 = VECTOR('',#580,1.);
#580 = DIRECTION('',(1.,0.,0.));
#581 = ORIENTED_EDGE('',*,*,#174,.T.);
#582 = ORIENTED_EDGE('',*,*,#522,.T.);
#583 = PLANE('',#584);
#584 = AXIS2_PLACEMENT_3D('',#585,#586,#587);
#585 = CARTESIAN_POINT('',(0.,-30.,0.));
#586 = DIRECTION('',(0.,1.,0.));
#587 = DIRECTION('',(0.,0.,1.));
#588 = ADVANCED_FACE('',(#589),#623,.T.);
#589 = FACE_BOUND('',#590,.T.);
#590 = EDGE_LOOP('',(#591,#592,#593,#601,#607,#608,#616,#622));
#591 = ORIENTED_EDGE('',*,*,#182,.F.);
#592 = ORIENTED_EDGE('',*,*,#576,.T.);
#593 = ORIENTED_EDGE('',*,*,#594,.T.);
#594 = EDGE_CURVE('',#569,#595,#597,.T.);
#595 = VERTEX_POINT('',#596);
#596 = CARTESIAN_POINT('',(10.,30.,8.));
#597 = LINE('',#598,#599);
#598 = CARTESIAN_POINT('',(10.,-34.,8.));
#599 = VECTOR('',#600,1.);
#600 = DIRECTION('',(0.,1.,0.));
#601 = ORIENTED_EDGE('',*,*,#602,.F.);
#602 = EDGE_CURVE('',#215,#595,#603,.T.);
#603 = LINE('',#604,#605);
#604 = CARTESIAN_POINT('',(0.,30.,8.));
#605 = VECTOR('',#606,1.);
#606 = DIRECTION('',(1.,0.,0.));
#607 = ORIENTED_EDGE('',*,*,#214,.F.);
#608 = ORIENTED_EDGE('',*,*,#609,.T.);
#609 = EDGE_CURVE('',#207,#610,#612,.T.);
#610 = VERTEX_POINT('',#611);
#611 = CARTESIAN_POINT('',(8.,3.,8.));
#612 = LINE('',#613,#614);
#613 = CARTESIAN_POINT('',(-22.5,3.,8.));
#614 = VECTOR('',#615,1.);
#615 = DIRECTION('',(1.,0.,0.));
#616 = ORIENTED_EDGE('',*,*,#617,.F.);
#617 = EDGE_CURVE('',#279,#610,#618,.T.);
#618 = LINE('',#619,#620);
#619 = CARTESIAN_POINT('',(8.,-17.,8.));
#620 = VECTOR('',#621,1.);
#621 = DIRECTION('',(0.,1.,0.));
#622 = ORIENTED_EDGE('',*,*,#286,.T.);
#623 = PLANE('',#624);
#624 = AXIS2_PLACEMENT_3D('',#625,#626,#627);
#625 = CARTESIAN_POINT('',(0.,-34.,8.));
#626 = DIRECTION('',(0.,0.,1.));
#627 = DIRECTION('',(1.,0.,0.));
#628 = ADVANCED_FACE('',(#629),#648,.F.);
#629 = FACE_BOUND('',#630,.F.);
#630 = EDGE_LOOP('',(#631,#632,#633,#634,#635,#641,#642));
#631 = ORIENTED_EDGE('',*,*,#325,.F.);
#632 = ORIENTED_EDGE('',*,*,#440,.T.);
#633 = ORIENTED_EDGE('',*,*,#206,.F.);
#634 = ORIENTED_EDGE('',*,*,#609,.T.);
#635 = ORIENTED_EDGE('',*,*,#636,.T.);
#636 = EDGE_CURVE('',#610,#271,#637,.T.);
#637 = LINE('',#638,#639);
#638 = CARTESIAN_POINT('',(8.,5.5,5.5));
#639 = VECTOR('',#640,1.);
#640 = DIRECTION('',(0.,-0.707106781187,0.707106781187));
#641 = ORIENTED_EDGE('',*,*,#270,.F.);
#642 = ORIENTED_EDGE('',*,*,#643,.F.);
#643 = EDGE_CURVE('',#326,#261,#644,.T.);
#644 = LINE('',#645,#646);
#645 = CARTESIAN_POINT('',(-26.75,-5.25,16.25));
#646 = VECTOR('',#647,1.);
#647 = DIRECTION('',(-0.57735026919,-0.57735026919,0.57735026919));
#648 = PLANE('',#649);
#649 = AXIS2_PLACEMENT_3D('',#650,#651,#652);
#650 = CARTESIAN_POINT('',(-45.,5.5,5.5));
#651 = DIRECTION('',(0.,-0.707106781187,-0.707106781187));
#652 = DIRECTION('',(0.,-0.707106781187,0.707106781187));
#653 = ADVANCED_FACE('',(#654),#704,.F.);
#654 = FACE_BOUND('',#655,.F.);
#655 = EDGE_LOOP('',(#656,#666,#674,#682,#690,#696,#697,#698));
#656 = ORIENTED_EDGE('',*,*,#657,.F.);
#657 = EDGE_CURVE('',#658,#660,#662,.T.);
#658 = VERTEX_POINT('',#659);
#659 = CARTESIAN_POINT('',(170.,30.,8.));
#660 = VERTEX_POINT('',#661);
#661 = CARTESIAN_POINT('',(170.,30.,22.));
#662 = LINE('',#663,#664);
#663 = CARTESIAN_POINT('',(170.,30.,0.));
#664 = VECTOR('',#665,1.);
#665 = DIRECTION('',(0.,0.,1.));
#666 = ORIENTED_EDGE('',*,*,#667,.F.);
#667 = EDGE_CURVE('',#668,#658,#670,.T.);
#668 = VERTEX_POINT('',#669);
#669 = CARTESIAN_POINT('',(162.,30.,8.));
#670 = LINE('',#671,#672);
#671 = CARTESIAN_POINT('',(81.,30.,8.));
#672 = VECTOR('',#673,1.);
#673 = DIRECTION('',(1.,0.,0.));
#674 = ORIENTED_EDGE('',*,*,#675,.T.);
#675 = EDGE_CURVE('',#668,#676,#678,.T.);
#676 = VERTEX_POINT('',#677);
#677 = CARTESIAN_POINT('',(162.,30.,5.));
#678 = LINE('',#679,#680);
#679 = CARTESIAN_POINT('',(162.,30.,0.));
#680 = VECTOR('',#681,1.);
#681 = DIRECTION('',(0.,0.,-1.));
#682 = ORIENTED_EDGE('',*,*,#683,.T.);
#683 = EDGE_CURVE('',#676,#684,#686,.T.);
#684 = VERTEX_POINT('',#685);
#685 = CARTESIAN_POINT('',(10.,30.,5.));
#686 = LINE('',#687,#688);
#687 = CARTESIAN_POINT('',(0.,30.,5.));
#688 = VECTOR('',#689,1.);
#689 = DIRECTION('',(-1.,0.,0.));
#690 = ORIENTED_EDGE('',*,*,#691,.F.);
#691 = EDGE_CURVE('',#595,#684,#692,.T.);
#692 = LINE('',#693,#694);
#693 = CARTESIAN_POINT('',(10.,30.,0.));
#694 = VECTOR('',#695,1.);
#695 = DIRECTION('',(0.,0.,-1.));
#696 = ORIENTED_EDGE('',*,*,#602,.F.);
#697 = ORIENTED_EDGE('',*,*,#222,.T.);
#698 = ORIENTED_EDGE('',*,*,#699,.T.);
#699 = EDGE_CURVE('',#223,#660,#700,.T.);
#700 = LINE('',#701,#702);
#701 = CARTESIAN_POINT('',(0.,30.,22.));
#702 = VECTOR('',#703,1.);
#703 = DIRECTION('',(1.,0.,0.));
#704 = PLANE('',#705);
#705 = AXIS2_PLACEMENT_3D('',#706,#707,#708);
#706 = CARTESIAN_POINT('',(0.,30.,0.));
#707 = DIRECTION('',(0.,1.,0.));
#708 = DIRECTION('',(0.,0.,1.));
#709 = ADVANCED_FACE('',(#710),#728,.T.);
#710 = FACE_BOUND('',#711,.T.);
#711 = EDGE_LOOP('',(#712,#713,#714,#722));
#712 = ORIENTED_EDGE('',*,*,#230,.F.);
#713 = ORIENTED_EDGE('',*,*,#699,.T.);
#714 = ORIENTED_EDGE('',*,*,#715,.T.);
#715 = EDGE_CURVE('',#660,#716,#718,.T.);
#716 = VERTEX_POINT('',#717);
#717 = CARTESIAN_POINT('',(170.,34.,22.));
#718 = LINE('',#719,#720);
#719 = CARTESIAN_POINT('',(170.,30.,22.));
#720 = VECTOR('',#721,1.);
#721 = DIRECTION('',(0.,1.,0.));
#722 = ORIENTED_EDGE('',*,*,#723,.F.);
#723 = EDGE_CURVE('',#231,#716,#724,.T.);
#724 = LINE('',#725,#726);
#725 = CARTESIAN_POINT('',(0.,34.,22.));
#726 = VECTOR('',#727,1.);
#727 = DIRECTION('',(1.,0.,0.));
#728 = PLANE('',#729);
#729 = AXIS2_PLACEMENT_3D('',#730,#731,#732);
#730 = CARTESIAN_POINT('',(0.,30.,22.));
#731 = DIRECTION('',(0.,0.,1.));
#732 = DIRECTION('',(1.,0.,0.));
#733 = ADVANCED_FACE('',(#734),#752,.T.);
#734 = FACE_BOUND('',#735,.T.);
#735 = EDGE_LOOP('',(#736,#744,#745,#746));
#736 = ORIENTED_EDGE('',*,*,#737,.F.);
#737 = EDGE_CURVE('',#239,#738,#740,.T.);
#738 = VERTEX_POINT('',#739);
#739 = CARTESIAN_POINT('',(170.,34.,0.));
#740 = LINE('',#741,#742);
#741 = CARTESIAN_POINT('',(0.,34.,0.));
#742 = VECTOR('',#743,1.);
#743 = DIRECTION('',(1.,0.,0.));
#744 = ORIENTED_EDGE('',*,*,#238,.T.);
#745 = ORIENTED_EDGE('',*,*,#723,.T.);
#746 = ORIENTED_EDGE('',*,*,#747,.F.);
#747 = EDGE_CURVE('',#738,#716,#748,.T.);
#748 = LINE('',#749,#750);
#749 = CARTESIAN_POINT('',(170.,34.,0.));
#750 = VECTOR('',#751,1.);
#751 = DIRECTION('',(0.,0.,1.));
#752 = PLANE('',#753);
#753 = AXIS2_PLACEMENT_3D('',#754,#755,#756);
#754 = CARTESIAN_POINT('',(85.,34.,11.));
#755 = DIRECTION('',(0.,1.,0.));
#756 = DIRECTION('',(0.,0.,1.));
#757 = ADVANCED_FACE('',(#758),#769,.F.);
#758 = FACE_BOUND('',#759,.T.);
#759 = EDGE_LOOP('',(#760,#761,#762,#768));
#760 = ORIENTED_EDGE('',*,*,#246,.T.);
#761 = ORIENTED_EDGE('',*,*,#737,.T.);
#762 = ORIENTED_EDGE('',*,*,#763,.F.);
#763 = EDGE_CURVE('',#482,#738,#764,.T.);
#764 = LINE('',#765,#766);
#765 = CARTESIAN_POINT('',(170.,-34.,0.));
#766 = VECTOR('',#767,1.);
#767 = DIRECTION('',(0.,1.,0.));
#768 = ORIENTED_EDGE('',*,*,#481,.F.);
#769 = PLANE('',#770);
#770 = AXIS2_PLACEMENT_3D('',#771,#772,#773);
#771 = CARTESIAN_POINT('',(0.,-34.,0.));
#772 = DIRECTION('',(0.,0.,1.));
#773 = DIRECTION('',(1.,0.,0.));
#774 = ADVANCED_FACE('',(#775),#780,.F.);
#775 = FACE_BOUND('',#776,.F.);
#776 = EDGE_LOOP('',(#777,#778,#779));
#777 = ORIENTED_EDGE('',*,*,#260,.T.);
#778 = ORIENTED_EDGE('',*,*,#333,.T.);
#779 = ORIENTED_EDGE('',*,*,#643,.T.);
#780 = PLANE('',#781);
#781 = AXIS2_PLACEMENT_3D('',#782,#783,#784);
#782 = CARTESIAN_POINT('',(-18.5,-25.,8.));
#783 = DIRECTION('',(0.707106781187,0.,0.707106781187));
#784 = DIRECTION('',(-0.707106781187,0.,0.707106781187));
#785 = ADVANCED_FACE('',(#786),#791,.T.);
#786 = FACE_BOUND('',#787,.T.);
#787 = EDGE_LOOP('',(#788,#789,#790));
#788 = ORIENTED_EDGE('',*,*,#278,.T.);
#789 = ORIENTED_EDGE('',*,*,#617,.T.);
#790 = ORIENTED_EDGE('',*,*,#636,.T.);
#791 = PLANE('',#792);
#792 = AXIS2_PLACEMENT_3D('',#793,#794,#795);
#793 = CARTESIAN_POINT('',(8.,0.,5.576336185136));
#794 = DIRECTION('',(1.,0.,0.));
#795 = DIRECTION('',(0.,0.,1.));
#796 = ADVANCED_FACE('',(#797),#802,.F.);
#797 = FACE_BOUND('',#798,.F.);
#798 = EDGE_LOOP('',(#799,#800,#801));
#799 = ORIENTED_EDGE('',*,*,#380,.F.);
#800 = ORIENTED_EDGE('',*,*,#421,.T.);
#801 = ORIENTED_EDGE('',*,*,#466,.T.);
#802 = PLANE('',#803);
#803 = AXIS2_PLACEMENT_3D('',#804,#805,#806);
#804 = CARTESIAN_POINT('',(-22.,-25.,11.5));
#805 = DIRECTION('',(-0.707106781187,0.,0.707106781187));
#806 = DIRECTION('',(-0.707106781187,0.,-0.707106781187));
#807 = ADVANCED_FACE('',(#808),#823,.T.);
#808 = FACE_BOUND('',#809,.T.);
#809 = EDGE_LOOP('',(#810,#811,#812,#813,#814,#815,#821,#822));
#810 = ORIENTED_EDGE('',*,*,#489,.F.);
#811 = ORIENTED_EDGE('',*,*,#763,.T.);
#812 = ORIENTED_EDGE('',*,*,#747,.T.);
#813 = ORIENTED_EDGE('',*,*,#715,.F.);
#814 = ORIENTED_EDGE('',*,*,#657,.F.);
#815 = ORIENTED_EDGE('',*,*,#816,.F.);
#816 = EDGE_CURVE('',#537,#658,#817,.T.);
#817 = LINE('',#818,#819);
#818 = CARTESIAN_POINT('',(170.,-34.,8.));
#819 = VECTOR('',#820,1.);
#820 = DIRECTION('',(0.,1.,0.));
#821 = ORIENTED_EDGE('',*,*,#536,.T.);
#822 = ORIENTED_EDGE('',*,*,#514,.F.);
#823 = PLANE('',#824);
#824 = AXIS2_PLACEMENT_3D('',#825,#826,#827);
#825 = CARTESIAN_POINT('',(170.,0.,7.5));
#826 = DIRECTION('',(1.,0.,0.));
#827 = DIRECTION('',(0.,0.,1.));
#828 = ADVANCED_FACE('',(#829),#840,.T.);
#829 = FACE_BOUND('',#830,.T.);
#830 = EDGE_LOOP('',(#831,#832,#833,#839));
#831 = ORIENTED_EDGE('',*,*,#594,.F.);
#832 = ORIENTED_EDGE('',*,*,#568,.T.);
#833 = ORIENTED_EDGE('',*,*,#834,.T.);
#834 = EDGE_CURVE('',#561,#684,#835,.T.);
#835 = LINE('',#836,#837);
#836 = CARTESIAN_POINT('',(10.,-34.,5.));
#837 = VECTOR('',#838,1.);
#838 = DIRECTION('',(0.,1.,0.));
#839 = ORIENTED_EDGE('',*,*,#691,.F.);
#840 = PLANE('',#841);
#841 = AXIS2_PLACEMENT_3D('',#842,#843,#844);
#842 = CARTESIAN_POINT('',(10.,-34.,0.));
#843 = DIRECTION('',(1.,0.,0.));
#844 = DIRECTION('',(0.,0.,1.));
#845 = ADVANCED_FACE('',(#846),#857,.T.);
#846 = FACE_BOUND('',#847,.T.);
#847 = EDGE_LOOP('',(#848,#849,#850,#856));
#848 = ORIENTED_EDGE('',*,*,#834,.F.);
#849 = ORIENTED_EDGE('',*,*,#560,.F.);
#850 = ORIENTED_EDGE('',*,*,#851,.T.);
#851 = EDGE_CURVE('',#553,#676,#852,.T.);
#852 = LINE('',#853,#854);
#853 = CARTESIAN_POINT('',(162.,-34.,5.));
#854 = VECTOR('',#855,1.);
#855 = DIRECTION('',(0.,1.,0.));
#856 = ORIENTED_EDGE('',*,*,#683,.T.);
#857 = PLANE('',#858);
#858 = AXIS2_PLACEMENT_3D('',#859,#860,#861);
#859 = CARTESIAN_POINT('',(0.,-34.,5.));
#860 = DIRECTION('',(0.,0.,1.));
#861 = DIRECTION('',(1.,0.,0.));
#862 = ADVANCED_FACE('',(#863),#874,.F.);
#863 = FACE_BOUND('',#864,.F.);
#864 = EDGE_LOOP('',(#865,#871,#872,#873));
#865 = ORIENTED_EDGE('',*,*,#866,.F.);
#866 = EDGE_CURVE('',#545,#668,#867,.T.);
#867 = LINE('',#868,#869);
#868 = CARTESIAN_POINT('',(162.,-34.,8.));
#869 = VECTOR('',#870,1.);
#870 = DIRECTION('',(0.,1.,0.));
#871 = ORIENTED_EDGE('',*,*,#552,.T.);
#872 = ORIENTED_EDGE('',*,*,#851,.T.);
#873 = ORIENTED_EDGE('',*,*,#675,.F.);
#874 = PLANE('',#875);
#875 = AXIS2_PLACEMENT_3D('',#876,#877,#878);
#876 = CARTESIAN_POINT('',(162.,-34.,0.));
#877 = DIRECTION('',(1.,0.,0.));
#878 = DIRECTION('',(0.,0.,1.));
#879 = ADVANCED_FACE('',(#880),#886,.T.);
#880 = FACE_BOUND('',#881,.T.);
#881 = EDGE_LOOP('',(#882,#883,#884,#885));
#882 = ORIENTED_EDGE('',*,*,#866,.F.);
#883 = ORIENTED_EDGE('',*,*,#544,.T.);
#884 = ORIENTED_EDGE('',*,*,#816,.T.);
#885 = ORIENTED_EDGE('',*,*,#667,.F.);
#886 = PLANE('',#887);
#887 = AXIS2_PLACEMENT_3D('',#888,#889,#890);
#888 = CARTESIAN_POINT('',(162.,-34.,8.));
#889 = DIRECTION('',(0.,0.,1.));
#890 = DIRECTION('',(1.,0.,0.));
#891 = ( GEOMETRIC_REPRESENTATION_CONTEXT(3) 
GLOBAL_UNCERTAINTY_ASSIGNED_CONTEXT((#895)) GLOBAL_UNIT_ASSIGNED_CONTEXT
((#892,#893,#894)) REPRESENTATION_CONTEXT('Context #1',
  '3D Context with UNIT and UNCERTAINTY') );
#892 = ( LENGTH_UNIT() NAMED_UNIT(*) SI_UNIT(.MILLI.,.METRE.) );
#893 = ( NAMED_UNIT(*) PLANE_ANGLE_UNIT() SI_UNIT($,.RADIAN.) );
#894 = ( NAMED_UNIT(*) SI_UNIT($,.STERADIAN.) SOLID_ANGLE_UNIT() );
#895 = UNCERTAINTY_MEASURE_WITH_UNIT(LENGTH_MEASURE(1.E-07),#892,
  'distance_accuracy_value','confusion accuracy');
#896 = PRODUCT_RELATED_PRODUCT_CATEGORY('part',$,(#7));
ENDSEC;
END-ISO-10303-21;
